<?xml version="1.0" encoding="utf-8"?>
<!-- Generator: Adobe Illustrator 18.0.0, SVG Export Plug-In . SVG Version: 6.00 Build 0)  -->
<!DOCTYPE svg PUBLIC "-//W3C//DTD SVG 1.1//EN" "http://www.w3.org/Graphics/SVG/1.1/DTD/svg11.dtd">
<svg version="1.1" id="Слой_1" xmlns="http://www.w3.org/2000/svg" xmlns:xlink="http://www.w3.org/1999/xlink" x="0px" y="0px"
	 viewBox="0 0 138.7 139.2" enable-background="new 0 0 138.7 139.2" xml:space="preserve">
<g opacity="0.88">
	<g>
		<g>
			<path fill="#D2CF4F" d="M69.3,137.9C31.6,137.9,1,107.2,1,69.5S31.6,1.1,69.3,1.1s68.4,30.7,68.4,68.4S107.1,137.9,69.3,137.9z
				 M69.3,3.2C32.8,3.2,3.1,33,3.1,69.5s29.7,66.3,66.3,66.3s66.3-29.7,66.3-66.3S105.9,3.2,69.3,3.2z"/>
		</g>
		<g id="entertainment_9_">
			<g>
				<path fill="#D2CF4F" d="M101.3,90.1l-0.4-1.4c0-0.3-1.4-5.2-1.3-11.2c0.1-6.5,5.6-10.7,5.9-11l1.8,2.3c0,0-4.5,3.6-4.6,8.7
					c-0.1,3.7,0.4,7.2,0.8,8.9l5.7-1.6l0.9,2.8L101.3,90.1z"/>
			</g>
			<g>
				<path fill="#D2CF4F" d="M101.6,74c-0.6-0.1-2.4-1.1-4-5.7c-1.5-4.5-4.1-14.3-4.2-14.8L93,52.1l8.3-2.2l0.8,2.8l-5.4,1.4
					c0.8,2.9,2.6,9.8,3.7,13.1c1.1,3.3,2,4,2.2,4c0,0,0,0-0.1-0.1L101.6,74z"/>
			</g>
			<g>
				<path fill="#D2CF4F" d="M114,97.4c-0.8,0-1.5-0.3-2-0.6c-1.5-1-2-3.2-2-3.6l-10.2-46l30.6-6.7l0.8,2.8l-27.8,6l9.6,43.3l0,0
					c0,0.4,0.4,1.3,0.8,1.6c0.1,0.1,0.3,0.1,0.8,0.1c2.8-0.6,19.6-4.8,19.6-4.8l-1,3c-0.1,0-15.4,4.1-18.1,4.8
					C114.6,97.3,114.2,97.4,114,97.4z"/>
			</g>
			<g>
				<path fill="#D2CF4F" d="M98.8,85.2c-0.8,0-1.6-0.1-2.3-0.5C95.2,84,82.6,71,74.5,62.4c-0.5,0.4-1.1,0.8-1.9,1.1
					c-1.3,0.6-2.6,0.9-3.5,1c-0.5,1.4-1.5,4.1-2.8,6.7c-1.4,3.1-5.5,4-7.8,3.6c-3.3-0.5-3.3-2.2-2.9-5.9c0.4-3.5,0.8-6,0.9-6.4
					c0.1-0.9,0.8-6.1,3.1-8.3c1.9-1.8,9.4-6.8,10.5-7.4c1-0.9,3.3-1.9,6.5-0.6c3.3,1.3,19.5,7.7,19.7,7.8l-1.1,2.8
					c-0.1-0.1-16.5-6.5-19.7-7.7c-2.2-0.8-3.3,0-3.5,0.1l-0.1,0.1h-0.1c-2.3,1.5-8.6,5.7-10.1,7.2c-1.1,1.1-1.9,4.8-2.2,6.5v0.1
					c0,0-0.5,2.6-0.8,6.3c-0.1,0.6-0.3,2-0.1,2.6c0.1,0,0.4,0.1,0.6,0.1c1.4,0.3,4-0.4,4.7-1.9c1.5-3.3,2.9-7.3,2.9-7.3l0.4-0.9h1
					c0,0,1.9-0.1,3.3-0.8c1.4-0.8,1.9-1.4,2-1.5l1-1.6l1.3,1.5c7.9,8.2,20.8,21.6,22.3,22.7c0.5,0.3,1.9,0.1,2.8-0.1l0.8,2.8
					C101.2,84.9,100,85.2,98.8,85.2z"/>
			</g>
			<g>
				<path fill="#D2CF4F" d="M57.4,100.9c-1,0-2-0.4-3.1-1c-3.6-2.6-2.3-7.2-1.1-9.2l0.5-0.8h0.9c0.1,0,2.9,0.3,5.2,2.2
					c2.6,2.2,3.1,4.1,3.1,4.3L63,97l-0.4,0.6C62.4,98.1,60.5,100.9,57.4,100.9z M55.4,93.1c-0.1,0.4-0.3,0.8-0.4,1.3
					c-0.3,1.8,0.5,2.6,1,2.9c0.5,0.4,0.9,0.5,1.4,0.5c0.9,0,1.8-0.8,2.3-1.3c-0.3-0.5-0.9-1.3-1.9-2.3C56.9,93.7,56,93.3,55.4,93.1z
					"/>
			</g>
			<g>
				<path fill="#D2CF4F" d="M50.6,95.9c-0.8,0-1.5-0.3-2.3-0.6c-3.3-1.8-2.7-5.9-1.9-7.7l0.4-0.8h0.9c0,0,0.1,0,0.3,0
					c0.5,0,2.6,0.1,4.3,1.4c2.3,1.5,2.9,3.2,3.1,3.5l0.3,0.6l-0.3,0.5C54.7,93.7,53.1,95.9,50.6,95.9z M48.9,89.6
					c-0.3,0.9-0.3,2.3,0.9,2.9c0.3,0.1,0.6,0.3,0.9,0.3c0.6,0,1.3-0.5,1.6-1c-0.3-0.4-0.8-0.9-1.5-1.4C50.1,90,49.4,89.8,48.9,89.6z
					"/>
			</g>
			<g>
				<path fill="#D2CF4F" d="M63.8,103.7c-0.5,0-1.1-0.1-1.6-0.4c-3.2-1.3-2.9-5-2.4-6.7l0.3-0.9l0.9-0.1c0,0,0.4,0,0.9,0
					c0.8,0,2,0.1,3.3,0.8c2.2,1.1,2.9,2.4,3.1,2.7l0.3,0.6l-0.3,0.6C67.7,101.5,66.2,103.7,63.8,103.7z M62.4,98.6
					c0,0.8,0,1.6,0.9,2c0.3,0.1,0.4,0.1,0.5,0.1c0.5,0,0.9-0.4,1.1-0.9c-0.3-0.3-0.6-0.6-1.3-0.9C63.3,98.7,62.8,98.6,62.4,98.6z"/>
			</g>
			<g>
				<path fill="#D2CF4F" d="M45.1,91.5c-0.6,0-1.3-0.1-1.9-0.5c-2.8-1.5-2.3-4.8-1.5-6.4l0.4-0.8H43c0,0,0,0,0.1,0
					c0.6,0,2.2,0.1,3.6,1.1c1.8,1.3,2.4,2.6,2.4,2.8l0.3,0.6l-0.3,0.6C49,89.1,47.6,91.5,45.1,91.5z M44.1,86.8
					c-0.1,0.5,0,1.3,0.6,1.5c0.1,0.1,0.4,0.1,0.5,0.1c0.3,0,0.5-0.3,0.8-0.5c-0.3-0.3-0.5-0.5-0.9-0.8
					C44.6,87.1,44.4,86.9,44.1,86.8z"/>
			</g>
			<g>
				<path fill="#D2CF4F" d="M42.5,86.6c0,0-2.4-1-5.4-2.2l1.1-2.8c2.8,1.3,5.2,2.3,5.2,2.3L42.5,86.6z"/>
			</g>
			<g>
				<path fill="#D2CF4F" d="M45.8,55.8c-0.8,0-1.4-0.1-1.6-0.3l-1-0.3l0.8-2.9l1.1,0.3l0,0c0,0,1,0.3,1.9-0.1c1-0.5,3.3-1.8,3.6-1.9
					l11.1-6.9c0.6-0.4,2.9-1.8,4.2-2s3.3,0,3.6,0l12.6,1c0.5,0,2.2,0.3,3.1,1.3c0.8,0.8,1.1,2.6,1.4,3.2l0.9,3.5l-3.1,0.8l-0.9-3.6
					c-0.1-0.8-0.4-1.5-0.6-1.8c-0.1-0.1-0.8-0.3-1.1-0.4l-12.5-1c-0.8,0-2.2-0.1-2.8,0c-0.4,0.1-1.9,0.8-3.1,1.6l-11.2,7
					c-0.1,0-2.7,1.5-3.8,2C47.4,55.7,46.5,55.8,45.8,55.8z"/>
			</g>
			<g>
				<path fill="#D2CF4F" d="M72.1,102.3c-2,0-5.1-1-5.7-1.3l1-2.8c1.8,0.6,4.2,1.1,5,1c0.6-0.1,1.8-1.3,2.3-2l2.4,1.6
					c-0.4,0.5-2.2,2.9-4.3,3.2C72.5,102.3,72.3,102.3,72.1,102.3z"/>
			</g>
			<g>
				<path fill="#D2CF4F" d="M79.2,100.9C79.1,100.9,79.1,100.9,79.2,100.9c-4-0.1-8.9-5.2-9.4-5.9l2.2-2c1.8,1.9,5.2,4.8,7.3,4.8
					l0,0c0.9,0,2.3-1.5,3.1-2.6l2.4,1.6C84.2,97.6,82.1,100.9,79.2,100.9z"/>
			</g>
			<g>
				<path fill="#D2CF4F" d="M85.4,97.7c-2.2,0-4.2-1.8-4.5-1.9L74.5,90l2-2.2l6.4,5.7c0.5,0.4,1.8,1.3,2.7,1.1
					c1-0.1,1.6-0.6,2.2-1.6c0.3-0.5,0.5-1.5,0.5-2l2.9,0.1c0,0.3-0.1,1.9-0.9,3.3c-1,1.8-2.4,2.8-4.3,3.1
					C85.8,97.7,85.5,97.7,85.4,97.7z"/>
			</g>
			<g>
				<path fill="#D2CF4F" d="M91.6,92.7c-2.3,0-4.5-1.8-5.9-3.1c-1.6-1.5-5.9-6.8-6.1-7l2.3-1.9c1.1,1.5,4.6,5.6,5.9,6.8
					c2,2,3.3,2.3,4,2.3c1.3-0.1,2.2-0.6,2.8-1.4c0.8-1,1-2.4,0.9-3.2c-0.1-1-0.3-1.4-1.1-2.3l2.2-2c1.3,1.3,1.8,2.3,1.9,4
					c0.3,1.5-0.1,3.7-1.5,5.5c-1.1,1.4-2.8,2.3-4.8,2.6C91.9,92.7,91.7,92.7,91.6,92.7z"/>
			</g>
			<g>
				<path fill="#D2CF4F" d="M37.5,90.1l-8.7-2.7l0.9-2.8l5.7,1.6c0.4-1.8,0.9-5.2,0.8-8.9c-0.1-5.1-4.6-8.7-4.6-8.7l1.8-2.3
					c0.3,0.1,5.6,4.3,5.9,11c0.1,6.1-1.1,11.1-1.3,11.2L37.5,90.1z"/>
			</g>
			<g>
				<path fill="#D2CF4F" d="M37.1,74l-0.8-2.8c-0.1,0-0.1,0.1-0.1,0.1s1-0.6,2.2-4c1.1-3.3,2.9-10.2,3.7-13.1l-5.4-1.4l0.8-2.8
					l8.3,2.2l-0.4,1.4C45.3,54,42.7,64,41.2,68.4C39.5,73,37.9,73.9,37.1,74z"/>
			</g>
			<g>
				<path fill="#D2CF4F" d="M24.8,97.4c-0.3,0-0.6,0-0.9-0.1C21.6,97,5.2,91.8,5,91.5l-1-3c0.1,0,17.7,5.2,20.5,5.8
					c0.4,0.1,0.6,0,0.8-0.1c0.5-0.4,0.8-1.3,0.8-1.6v-0.1l9.6-43.3L9,41.5l1-3L39.1,47L28.9,93c-0.1,0.5-0.5,2.6-2,3.6
					C26.4,97.2,25.6,97.4,24.8,97.4z"/>
			</g>
		</g>
	</g>
</g>
</svg>
