<?xml version="1.0" encoding="utf-8"?>
<!-- Generator: Adobe Illustrator 18.0.0, SVG Export Plug-In . SVG Version: 6.00 Build 0)  -->
<!DOCTYPE svg PUBLIC "-//W3C//DTD SVG 1.1//EN" "http://www.w3.org/Graphics/SVG/1.1/DTD/svg11.dtd">
<svg version="1.1" id="Слой_1" xmlns="http://www.w3.org/2000/svg" xmlns:xlink="http://www.w3.org/1999/xlink" x="0px" y="0px"
	 viewBox="0 0 142.7 141.3" enable-background="new 0 0 142.7 141.3" xml:space="preserve">
<g opacity="0.88">
	<g>
		<g>
			<path fill="#D2CF4F" d="M71.4,140.4c-38.5,0-69.7-31.3-69.7-69.7S32.9,0.9,71.4,0.9s69.7,31.3,69.7,69.7S109.8,140.4,71.4,140.4z
				 M71.4,3.1C34.1,3.1,3.7,33.4,3.7,70.7s30.3,67.6,67.6,67.6S139,108,139,70.7S108.6,3.1,71.4,3.1z"/>
		</g>
		<g>
			<polygon fill="#D2CF4F" points="61.5,118.4 47.2,105.9 31,105.9 31,35.1 130.4,35.1 130.4,37.2 33.1,37.2 33.1,103.8 47.9,103.8 
				61.4,115.4 72.2,104.1 129.9,104.1 129.9,106.2 73.1,106.2 			"/>
		</g>
		<g>
			<g>
				<polygon fill="#D2CF4F" points="49,46.5 50.3,49.1 53.2,49.5 51.1,51.5 51.6,54.4 49,53 46.5,54.4 47,51.5 44.9,49.5 47.8,49.1 
									"/>
			</g>
			<g>
				<polygon fill="#D2CF4F" points="60.6,46.5 61.8,49.1 64.7,49.5 62.6,51.5 63.1,54.4 60.6,53 58,54.4 58.5,51.5 56.4,49.5 
					59.3,49.1 				"/>
			</g>
			<g>
				<polygon fill="#D2CF4F" points="71.7,46.5 73,49.1 75.9,49.5 73.8,51.5 74.3,54.4 71.7,53 69.2,54.4 69.7,51.5 67.6,49.5 
					70.5,49.1 				"/>
			</g>
			<g>
				<polygon fill="#D2CF4F" points="83.4,46.5 84.7,49.1 87.5,49.5 85.5,51.5 86,54.4 83.4,53 80.8,54.4 81.3,51.5 79.3,49.5 
					82.1,49.1 				"/>
			</g>
			<g>
				<polygon fill="#D2CF4F" points="94.6,46.5 95.8,49.1 98.7,49.5 96.6,51.5 97.1,54.4 94.6,53 92,54.4 92.5,51.5 90.4,49.5 
					93.3,49.1 				"/>
			</g>
		</g>
		<g>
			<path fill="#D2CF4F" d="M139.5,67.2H139v-1h0.5V67.2z M138,67.2h-1v-1h1V67.2z M136,67.2h-1v-1h1V67.2z M134,67.2h-1v-1h1V67.2z
				 M132,67.2h-1v-1h1V67.2z M130,67.2h-1v-1h1V67.2z M128,67.2h-1v-1h1V67.2z M126,67.2h-1v-1h1V67.2z M124,67.2h-1v-1h1V67.2z
				 M122,67.2h-1v-1h1V67.2z M120,67.2h-1v-1h1V67.2z M118,67.2h-1v-1h1V67.2z M116,67.2h-1v-1h1V67.2z M114,67.2h-1v-1h1V67.2z
				 M112,67.2h-1v-1h1V67.2z M110,67.2h-1v-1h1V67.2z M108,67.2h-1v-1h1V67.2z M106,67.2h-1v-1h1V67.2z M104,67.2h-1v-1h1V67.2z
				 M102,67.2h-1v-1h1V67.2z M100,67.2h-1v-1h1V67.2z M98,67.2h-1v-1h1V67.2z M96,67.2h-1v-1h1V67.2z M94,67.2h-1v-1h1V67.2z
				 M92,67.2h-1v-1h1V67.2z M90,67.2h-1v-1h1V67.2z M88,67.2h-1v-1h1V67.2z M86,67.2h-1v-1h1V67.2z M84,67.2h-1v-1h1V67.2z M82,67.2
				h-1v-1h1V67.2z M80,67.2h-1v-1h1V67.2z M78,67.2h-1v-1h1V67.2z M76,67.2h-1v-1h1V67.2z M74,67.2h-1v-1h1V67.2z M72,67.2h-1v-1h1
				V67.2z M70,67.2h-1v-1h1V67.2z M68,67.2h-1v-1h1V67.2z M66,67.2h-1v-1h1V67.2z M64,67.2h-1v-1h1V67.2z M62,67.2h-1v-1h1V67.2z
				 M60,67.2h-1v-1h1V67.2z M58,67.2h-1v-1h1V67.2z M56,67.2h-1v-1h1V67.2z M54,67.2h-1v-1h1V67.2z M52,67.2h-1v-1h1V67.2z M50,67.2
				h-1v-1h1V67.2z M48,67.2h-1v-1h1V67.2z"/>
		</g>
		<g>
			<path fill="#D2CF4F" d="M138,80h-1v-1h1V80z M136,80h-1v-1h1V80z M134,80h-1v-1h1V80z M132,80h-1v-1h1V80z M130,80h-1v-1h1V80z
				 M128,80h-1v-1h1V80z M126,80h-1v-1h1V80z M124,80h-1v-1h1V80z M122,80h-1v-1h1V80z M120,80h-1v-1h1V80z M118,80h-1v-1h1V80z
				 M116,80h-1v-1h1V80z M114,80h-1v-1h1V80z M112,80h-1v-1h1V80z M110,80h-1v-1h1V80z M108,80h-1v-1h1V80z M106,80h-1v-1h1V80z
				 M104,80h-1v-1h1V80z M102,80h-1v-1h1V80z M100,80h-1v-1h1V80z M98,80h-1v-1h1V80z M96,80h-1v-1h1V80z M94,80h-1v-1h1V80z M92,80
				h-1v-1h1V80z M90,80h-1v-1h1V80z M88,80h-1v-1h1V80z M86,80h-1v-1h1V80z M84,80h-1v-1h1V80z M82,80h-1v-1h1V80z M80,80h-1v-1h1
				V80z M78,80h-1v-1h1V80z M76,80h-1v-1h1V80z M74,80h-1v-1h1V80z M72,80h-1v-1h1V80z M70,80h-1v-1h1V80z M68,80h-1v-1h1V80z
				 M66,80h-1v-1h1V80z M64,80h-1v-1h1V80z M62,80h-1v-1h1V80z M60,80h-1v-1h1V80z M58,80h-1v-1h1V80z M56,80h-1v-1h1V80z M54,80h-1
				v-1h1V80z M52,80h-1v-1h1V80z M50,80h-1v-1h1V80z M48,80h-1v-1h1V80z"/>
		</g>
		<g>
			<path fill="#D2CF4F" d="M136,91.2h-1v-1h1V91.2z M134,91.2h-1v-1h1V91.2z M132,91.2h-1v-1h1V91.2z M130,91.2h-1v-1h1V91.2z
				 M128,91.2h-1v-1h1V91.2z M126,91.2h-1v-1h1V91.2z M124,91.2h-1v-1h1V91.2z M122,91.2h-1v-1h1V91.2z M120,91.2h-1v-1h1V91.2z
				 M118,91.2h-1v-1h1V91.2z M116,91.2h-1v-1h1V91.2z M114,91.2h-1v-1h1V91.2z M112,91.2h-1v-1h1V91.2z M110,91.2h-1v-1h1V91.2z
				 M108,91.2h-1v-1h1V91.2z M106,91.2h-1v-1h1V91.2z M104,91.2h-1v-1h1V91.2z M102,91.2h-1v-1h1V91.2z M100,91.2h-1v-1h1V91.2z
				 M98,91.2h-1v-1h1V91.2z M96,91.2h-1v-1h1V91.2z M94,91.2h-1v-1h1V91.2z M92,91.2h-1v-1h1V91.2z M90,91.2h-1v-1h1V91.2z M88,91.2
				h-1v-1h1V91.2z M86,91.2h-1v-1h1V91.2z M84,91.2h-1v-1h1V91.2z M82,91.2h-1v-1h1V91.2z M80,91.2h-1v-1h1V91.2z M78,91.2h-1v-1h1
				V91.2z M76,91.2h-1v-1h1V91.2z M74,91.2h-1v-1h1V91.2z M72,91.2h-1v-1h1V91.2z M70,91.2h-1v-1h1V91.2z M68,91.2h-1v-1h1V91.2z
				 M66,91.2h-1v-1h1V91.2z M64,91.2h-1v-1h1V91.2z M62,91.2h-1v-1h1V91.2z M60,91.2h-1v-1h1V91.2z M58,91.2h-1v-1h1V91.2z M56,91.2
				h-1v-1h1V91.2z M54,91.2h-1v-1h1V91.2z M52,91.2h-1v-1h1V91.2z M50,91.2h-1v-1h1V91.2z M48,91.2h-1v-1h1V91.2z"/>
		</g>
	</g>
</g>
</svg>
