<?xml version="1.0" encoding="utf-8"?>
<!-- Generator: Adobe Illustrator 17.1.0, SVG Export Plug-In . SVG Version: 6.00 Build 0)  -->
<!DOCTYPE svg PUBLIC "-//W3C//DTD SVG 1.1//EN" "http://www.w3.org/Graphics/SVG/1.1/DTD/svg11.dtd">
<svg version="1.1" id="Layer_1" xmlns="http://www.w3.org/2000/svg" xmlns:xlink="http://www.w3.org/1999/xlink" x="0px" y="0px"
	 viewBox="510.3 348.4 170 145" enable-background="new 510.3 348.4 170 145" xml:space="preserve">
<g>
	<polygon fill="none" stroke="#FFFFFF" stroke-width="4" stroke-miterlimit="10" points="526.7,489.1 526.7,430 514.2,430 
		514.2,352.8 645.6,352.8 645.6,428.7 676.5,428.7 676.5,489.1 	"/>
	<g>
		<g>
			<g>
				<g>
					<path fill="#FFFFFF" d="M550.3,401c-0.6,0-1.1-0.2-1.5-0.5c-0.4-0.3-0.5-0.9-0.5-1.7c-0.7,0.8-1.4,1.4-2.3,1.7
						c-0.9,0.3-1.8,0.5-2.8,0.5c-0.7,0-1.3-0.1-1.9-0.2s-1.1-0.4-1.5-0.7s-0.8-0.7-1-1.3c-0.3-0.5-0.4-1.1-0.4-1.9
						c0-0.8,0.1-1.5,0.4-2c0.3-0.5,0.7-1,1.1-1.3c0.5-0.3,1-0.6,1.6-0.7c0.6-0.2,1.2-0.3,1.8-0.4c0.7-0.1,1.3-0.2,1.9-0.3
						c0.6-0.1,1.1-0.2,1.6-0.3c0.4-0.1,0.8-0.3,1.1-0.5c0.3-0.2,0.4-0.6,0.4-1c0-0.5-0.1-0.9-0.3-1.3c-0.2-0.3-0.5-0.6-0.8-0.7
						c-0.3-0.2-0.7-0.3-1-0.3c-0.4-0.1-0.8-0.1-1.1-0.1c-1,0-1.9,0.2-2.5,0.6c-0.7,0.4-1,1.1-1.1,2.2h-2.4c0-0.9,0.2-1.7,0.6-2.3
						c0.3-0.6,0.8-1.1,1.3-1.5c0.6-0.4,1.2-0.7,1.9-0.8c0.7-0.2,1.5-0.3,2.3-0.3c0.7,0,1.3,0,2,0.1c0.6,0.1,1.2,0.3,1.8,0.6
						c0.5,0.3,0.9,0.7,1.3,1.2c0.3,0.5,0.5,1.2,0.5,2.1v7.4c0,0.6,0,1,0.1,1.2c0.1,0.3,0.3,0.4,0.7,0.4c0.2,0,0.4,0,0.7-0.1v1.9
						C551.6,400.9,551,401,550.3,401z M547,393.8c-0.5,0.1-1,0.2-1.5,0.3s-1.1,0.1-1.6,0.2c-0.5,0.1-1,0.2-1.5,0.4
						c-0.4,0.2-0.8,0.5-1.1,0.8c-0.3,0.3-0.4,0.8-0.4,1.4c0,0.4,0.1,0.7,0.2,1c0.2,0.3,0.4,0.5,0.6,0.7c0.3,0.2,0.5,0.3,0.9,0.4
						c0.3,0.1,0.7,0.1,1.1,0.1c0.8,0,1.5-0.1,2-0.3c0.6-0.2,1-0.5,1.4-0.8s0.6-0.7,0.8-1.1c0.2-0.4,0.3-0.7,0.3-1.1v-2.4
						C547.8,393.5,547.4,393.7,547,393.8z"/>
				</g>
			</g>
			<path fill="#FFFFFF" d="M555.8,380.8v19.9h-2.4v-19.9H555.8z"/>
			<path fill="#FFFFFF" d="M568.8,399.8c-1.1,0.8-2.5,1.2-4.1,1.2c-1.2,0-2.2-0.2-3-0.6c-0.9-0.4-1.6-0.9-2.2-1.6s-1-1.5-1.3-2.4
				c-0.3-0.9-0.5-2-0.5-3.1c0-1.1,0.2-2.1,0.5-3c0.3-0.9,0.8-1.7,1.4-2.4c0.6-0.7,1.3-1.2,2.2-1.6c0.8-0.4,1.7-0.6,2.7-0.6
				c1.3,0,2.4,0.3,3.2,0.8c0.9,0.5,1.5,1.2,2.1,2c0.5,0.8,0.9,1.7,1.1,2.7c0.2,1,0.3,1.9,0.2,2.8h-10.7c0,0.6,0.1,1.2,0.2,1.8
				c0.2,0.6,0.4,1.1,0.8,1.5c0.4,0.4,0.9,0.8,1.4,1.1c0.6,0.3,1.3,0.4,2.1,0.4c1,0,1.8-0.2,2.5-0.7c0.6-0.5,1.1-1.2,1.3-2.1h2.3
				C570.6,397.7,569.9,399,568.8,399.8z M568.2,390.5c-0.2-0.5-0.5-0.9-0.9-1.3c-0.4-0.4-0.8-0.7-1.3-0.9c-0.5-0.2-1-0.3-1.6-0.3
				c-0.6,0-1.2,0.1-1.7,0.3c-0.5,0.2-0.9,0.5-1.3,0.9s-0.6,0.8-0.8,1.3s-0.3,1-0.4,1.6h8.3C568.6,391.6,568.5,391,568.2,390.5z"/>
			<path fill="#FFFFFF" d="M583.8,400.7v-2h-0.1c-0.4,0.8-1,1.4-1.9,1.7c-0.8,0.4-1.8,0.5-2.8,0.5c-1.1,0-2.1-0.2-2.9-0.6
				c-0.8-0.4-1.5-1-2.1-1.7s-1-1.5-1.2-2.4c-0.3-0.9-0.4-1.9-0.4-2.9s0.1-2,0.4-2.9c0.3-0.9,0.7-1.7,1.2-2.4
				c0.6-0.7,1.2-1.2,2.1-1.6c0.8-0.4,1.8-0.6,2.9-0.6c0.4,0,0.8,0,1.2,0.1s0.9,0.2,1.3,0.4s0.8,0.4,1.2,0.7s0.7,0.7,1,1.1h0.1v-7.4
				h2.4v19.9H583.8z M575.3,395.5c0.2,0.6,0.5,1.2,0.8,1.7c0.4,0.5,0.8,0.9,1.4,1.2s1.2,0.4,2,0.4s1.5-0.2,2.1-0.5s1-0.7,1.4-1.3
				c0.4-0.5,0.6-1.1,0.8-1.8s0.2-1.3,0.2-2c0-0.7-0.1-1.4-0.3-2.1c-0.2-0.7-0.4-1.2-0.8-1.8c-0.4-0.5-0.8-0.9-1.4-1.2
				s-1.3-0.5-2.1-0.5s-1.5,0.2-2.1,0.5c-0.6,0.3-1,0.7-1.4,1.3c-0.3,0.5-0.6,1.1-0.7,1.8c-0.2,0.7-0.2,1.4-0.2,2.1
				C575.1,394.3,575.2,395,575.3,395.5z"/>
			<path fill="#FFFFFF" d="M588.2,390.6c0.3-0.9,0.7-1.7,1.4-2.4c0.6-0.7,1.3-1.2,2.2-1.6c0.9-0.4,1.9-0.6,3-0.6
				c1.2,0,2.2,0.2,3.1,0.6c0.9,0.4,1.6,0.9,2.2,1.6c0.6,0.7,1.1,1.5,1.3,2.4c0.3,0.9,0.5,1.9,0.5,3c0,1.1-0.2,2.1-0.5,3
				c-0.3,0.9-0.8,1.7-1.3,2.4c-0.6,0.7-1.3,1.2-2.2,1.6c-0.9,0.4-1.9,0.6-3.1,0.6c-1.1,0-2.2-0.2-3-0.6c-0.9-0.4-1.6-0.9-2.2-1.6
				c-0.6-0.7-1.1-1.5-1.4-2.4c-0.3-0.9-0.5-1.9-0.5-3C587.7,392.5,587.9,391.5,588.2,390.6z M590.5,395.8c0.2,0.7,0.6,1.3,1,1.7
				c0.4,0.5,0.9,0.8,1.4,1.1c0.6,0.2,1.1,0.4,1.8,0.4c0.6,0,1.2-0.1,1.8-0.4c0.6-0.2,1-0.6,1.4-1.1c0.4-0.5,0.7-1,1-1.7
				c0.2-0.7,0.4-1.5,0.4-2.3c0-0.9-0.1-1.7-0.4-2.3c-0.2-0.7-0.6-1.3-1-1.7c-0.4-0.5-0.9-0.8-1.4-1.1c-0.6-0.2-1.1-0.4-1.8-0.4
				c-0.6,0-1.2,0.1-1.8,0.4c-0.6,0.2-1,0.6-1.4,1.1s-0.7,1-1,1.7c-0.2,0.7-0.4,1.5-0.4,2.3C590.3,394.4,590.4,395.2,590.5,395.8z"/>
			<g>
				<g>
					<path fill="#FFFFFF" d="M531.1,391c-1.3,0-2.3-1.1-2.3-2.4c0-1.3,1.1-2.3,2.3-2.3c1.3,0,2.3,1.1,2.3,2.3
						C533.5,390,532.4,391,531.1,391z M531.1,387.3c-0.8,0-1.4,0.6-1.4,1.4c0,0.8,0.6,1.4,1.4,1.4s1.4-0.6,1.4-1.4
						C532.5,387.9,531.9,387.3,531.1,387.3z"/>
				</g>
			</g>
			<path fill="#FFFFFF" d="M609.9,390.8c-1.2,0-2.1-0.9-2.1-2.1c0-1.2,1-2.1,2.1-2.1c1.2,0,2.1,1,2.1,2.1
				C612,389.9,611.1,390.8,609.9,390.8z M609.9,387c-0.9,0-1.7,0.7-1.7,1.7c0,0.9,0.7,1.7,1.7,1.7c0.9,0,1.7-0.7,1.7-1.7
				C611.5,387.8,610.8,387,609.9,387z"/>
			<path fill="#FFFFFF" d="M617.7,390.8c-1.2,0-2.1-0.9-2.1-2.1c0-1.2,0.9-2.1,2.1-2.1c1.2,0,2.1,1,2.1,2.1
				C619.8,389.9,618.9,390.8,617.7,390.8z M617.7,387c-0.9,0-1.7,0.7-1.7,1.7c0,0.9,0.7,1.7,1.7,1.7c0.9,0,1.7-0.7,1.7-1.7
				C619.4,387.8,618.6,387,617.7,387z"/>
			<path fill="#FFFFFF" d="M625.6,390.6c-1.2,0-2.1-0.9-2.1-2.1c0-1.2,1-2.1,2.1-2.1c1.2,0,2.1,1,2.1,2.1
				C627.7,389.7,626.7,390.6,625.6,390.6z M625.6,386.9c-0.9,0-1.7,0.7-1.7,1.7c0,0.9,0.7,1.7,1.7,1.7c0.9,0,1.7-0.7,1.7-1.7
				C627.2,387.6,626.5,386.9,625.6,386.9z"/>
			<path fill="#FFFFFF" d="M633.5,390.8c-1.2,0-2.1-0.9-2.1-2.1c0-1.2,1-2.1,2.1-2.1c1.2,0,2.1,1,2.1,2.1
				C635.6,389.9,634.6,390.8,633.5,390.8z M633.5,387c-0.9,0-1.7,0.7-1.7,1.7c0,0.9,0.7,1.7,1.7,1.7c0.9,0,1.7-0.7,1.7-1.7
				C635.1,387.8,634.4,387,633.5,387z"/>
		</g>
	</g>
	
		<line fill="none" stroke="#FFFFFF" stroke-width="1.001" stroke-miterlimit="10" stroke-dasharray="1,1" x1="636.7" y1="429.5" x2="535.9" y2="429.5"/>
	<g>
		<path fill="#FFFFFF" d="M557,450.4h2.3v9.2h3.2v-9.2h2.3v9.2h3.4v-9.2h2.3v11.1h-13.3L557,450.4L557,450.4z"/>
		<path fill="#FFFFFF" d="M572.8,456c0-1.1,0.2-2.1,0.5-2.9c0.3-0.6,0.6-1.1,1-1.5c0.4-0.5,0.9-0.8,1.5-1c0.7-0.3,1.5-0.4,2.4-0.4
			c1.7,0,3,0.5,4,1.5c1,1,1.5,2.5,1.5,4.3s-0.5,3.2-1.5,4.3c-1,1.1-2.3,1.5-4,1.5c-1.7,0-3-0.5-4-1.5
			C573.3,459.1,572.8,457.8,572.8,456z M575.1,456c0,1.3,0.3,2.2,0.9,2.9s1.3,1,2.2,1c0.9,0,1.6-0.3,2.2-1c0.6-0.7,0.9-1.6,0.9-2.9
			c0-1.3-0.3-2.2-0.8-2.9c-0.6-0.6-1.3-0.9-2.2-0.9c-0.9,0-1.7,0.3-2.3,1C575.4,453.7,575.1,454.7,575.1,456z"/>
		<path fill="#FFFFFF" d="M584.5,450.4h2.5l2.6,5.7l2.2-5.7h2.4l-3.8,8.4c-0.4,0.9-0.8,1.6-1.3,2.1c-0.4,0.5-1,0.7-1.7,0.7
			c-0.7,0-1.2,0-1.6-0.1v-1.7c0.3,0,0.6,0,0.9,0c0.5,0,0.9-0.1,1.1-0.3s0.4-0.6,0.7-1.2L584.5,450.4z"/>
		<path fill="#FFFFFF" d="M595.7,458.6v-2.2h4.2v2.2H595.7z"/>
		<path fill="#FFFFFF" d="M601.8,461.5v-11.1h3.6c1.4,0,2.3,0.1,2.7,0.2c0.6,0.2,1.2,0.5,1.6,1.1s0.7,1.3,0.7,2.2
			c0,0.7-0.1,1.3-0.4,1.7c-0.3,0.4-0.6,0.8-1,1.1c-0.4,0.3-0.8,0.4-1.2,0.5c-0.5,0.1-1.3,0.2-2.4,0.2h-1.5v4.2L601.8,461.5
			L601.8,461.5z M604.1,452.3v3.2h1.2c0.9,0,1.5-0.1,1.8-0.2c0.3-0.1,0.5-0.3,0.7-0.6c0.2-0.3,0.3-0.5,0.3-0.9s-0.1-0.7-0.4-1
			c-0.2-0.3-0.5-0.4-0.9-0.5c-0.3-0.1-0.8-0.1-1.6-0.1L604.1,452.3L604.1,452.3z"/>
		<path fill="#FFFFFF" d="M611.5,450.4h2.5l2.6,5.7l2.2-5.7h2.4l-3.8,8.4c-0.4,0.9-0.8,1.6-1.3,2.1c-0.4,0.5-1,0.7-1.7,0.7
			c-0.7,0-1.2,0-1.6-0.1v-1.7c0.3,0,0.6,0,0.9,0c0.5,0,0.9-0.1,1.1-0.3s0.4-0.6,0.7-1.2L611.5,450.4z"/>
		<path fill="#FFFFFF" d="M622.9,461.5v-11.1h3.4l2,7.6l2-7.6h3.4v11.1h-2.1v-8.7l-2.2,8.7h-2.1l-2.2-8.7v8.7H622.9z"/>
	</g>
</g>
</svg>
