<?xml version="1.0" encoding="utf-8"?>
<!-- Generator: Adobe Illustrator 17.1.0, SVG Export Plug-In . SVG Version: 6.00 Build 0)  -->
<!DOCTYPE svg PUBLIC "-//W3C//DTD SVG 1.1//EN" "http://www.w3.org/Graphics/SVG/1.1/DTD/svg11.dtd">
<svg version="1.1" id="Layer_1" xmlns="http://www.w3.org/2000/svg" xmlns:xlink="http://www.w3.org/1999/xlink" x="0px" y="0px"
	 viewBox="90 0 1007 841.9" enable-background="new 90 0 1007 841.9" xml:space="preserve">
<g>
	<polygon fill="none" stroke="#FFFFFF" stroke-width="4" stroke-miterlimit="10" points="179.2,832.2 179.2,474.6 104.4,474.6 
		104.4,8.4 898.9,8.4 898.9,467 1085.3,467 1085.3,832.2 	"/>
	<g>
		<g>
			<g>
				<g>
					<path fill="#FFFFFF" d="M322.6,299.4c-3.6,0-6.8-1.2-8.8-3.2s-3.2-5.6-3.2-10c-4,4.8-8.4,8-13.7,10s-10.9,3.2-16.9,3.2
						c-4,0-7.6-0.4-11.3-1.2c-3.6-0.8-6.4-2.4-9.2-4c-2.8-2-4.8-4.4-6-7.6c-1.6-3.2-2.4-6.8-2.4-11.3c0-4.8,0.8-8.8,2.4-12.1
						c1.6-3.2,4-5.6,6.8-7.6c2.8-2,6-3.2,9.2-4.4c3.6-1.2,7.2-2,10.9-2.4c4-0.8,7.6-1.2,11.3-1.6c3.6-0.4,6.8-0.8,9.2-1.6
						c2.8-0.8,4.8-1.6,6.4-3.2c1.6-1.2,2.4-3.6,2.4-6c0-3.2-0.8-5.6-1.6-7.6c-1.2-2-2.8-3.2-4.4-4.4c-2-1.2-4-1.6-6-2
						c-2.4-0.4-4.4-0.4-6.8-0.4c-6,0-11.3,1.2-15.3,3.6c-4,2.4-6,6.8-6.4,12.9h-14.5c0.4-5.2,1.2-10,3.2-13.7c2-3.6,4.8-6.8,8-8.8
						c3.2-2.4,7.2-4,11.7-4.8c4.4-0.8,8.8-1.6,13.7-1.6c4,0,7.6,0.4,11.7,0.8c4,0.4,7.2,1.6,10.4,3.6c3.2,1.6,5.6,4,7.6,7.2
						c2,3.2,2.8,7.2,2.8,12.5v43.8c0,3.2,0.4,6,0.4,7.2c0.4,1.6,1.6,2.4,4,2.4c1.2,0,2.8-0.4,4.4-0.8v11.3
						C330.3,299,326.6,299.4,322.6,299.4z M302.5,255.6c-2.8,0.8-6,1.2-9.2,1.6s-6.4,0.8-9.6,1.2c-3.2,0.4-6,1.2-8.8,2.4
						c-2.4,1.2-4.8,2.8-6.4,4.8c-1.6,2-2.4,4.8-2.4,8.4c0,2.4,0.4,4.4,1.6,6c0.8,1.6,2,2.8,3.6,4c1.6,1.2,3.2,1.6,5.2,2
						c2,0.4,4,0.8,6.4,0.8c4.8,0,8.8-0.8,12.1-2c3.2-1.2,6-2.8,8-4.8s3.6-4,4.8-6.4s1.6-4.4,1.6-6.4v-14.5
						C307.7,254,305.3,255.2,302.5,255.6z"/>
				</g>
			</g>
			<path fill="#FFFFFF" d="M356,177.6v120.2h-14.5V177.6H356z"/>
			<path fill="#FFFFFF" d="M434.3,292.1c-6.4,4.8-14.9,7.2-24.5,7.2c-6.8,0-12.9-1.2-18.1-3.2c-5.2-2.4-9.2-5.2-12.9-9.2
				c-3.6-4-6-8.8-7.6-14.5s-2.8-11.7-2.8-18.5c0-6.4,0.8-12.9,3.2-18.1c2-5.6,4.8-10,8.4-14.5c3.6-4,8-7.2,12.9-9.2
				c4.8-2.4,10.4-3.2,16.5-3.2c7.6,0,14.1,1.6,19.3,4.8c5.2,3.2,9.2,7.2,12.5,12.1c3.2,4.8,5.2,10.4,6.4,16.1
				c1.2,5.6,1.6,11.3,1.6,16.5h-65.9c0,4,0.4,7.2,1.2,10.9c1.2,3.6,2.8,6.4,4.8,9.2c2.4,2.8,5.2,4.8,8.4,6.4
				c3.6,1.6,7.6,2.4,12.5,2.4c6,0,10.9-1.2,14.9-4s6.4-7.2,7.6-12.9h14.1C445.2,279.7,440.8,287.3,434.3,292.1z M430.7,236.3
				c-1.2-3.2-3.2-5.6-5.2-7.6c-2-2-4.8-4-7.6-5.2c-2.8-1.2-6.4-2-10-2c-3.6,0-7.2,0.8-10,2s-5.6,3.2-7.6,5.2c-2,2.4-3.6,4.8-5.2,7.6
				c-1.2,2.8-2,6-2,9.6h49.8C432.7,242.7,432.3,239.5,430.7,236.3z"/>
			<path fill="#FFFFFF" d="M525.2,297.8v-11.7h-0.4c-2.4,4.8-6,8.4-11.3,10.4c-5.2,2-10.4,3.2-16.5,3.2c-6.8,0-12.5-1.2-17.7-3.6
				c-4.8-2.4-9.2-5.6-12.5-10c-3.2-4-5.6-8.8-7.6-14.5c-1.6-5.6-2.4-11.3-2.4-17.7c0-6,0.8-12.1,2.4-17.3c1.6-5.6,4-10.4,7.2-14.5
				s7.2-7.2,12.5-9.6c4.8-2.4,10.9-3.6,17.3-3.6c2.4,0,4.8,0.4,7.2,0.8c2.4,0.4,5.2,1.2,7.6,2.4c2.4,1.2,4.8,2.4,7.2,4
				c2.4,1.6,4.4,4,5.6,6.4h0.4v-45h14.5v120.2H525.2z M473.7,266.8c1.2,4,2.8,7.2,4.8,10.4c2,3.2,4.8,5.6,8.4,7.2
				c3.2,1.6,7.2,2.8,12.1,2.8s8.8-0.8,12.5-2.8c3.2-2,6-4.4,8.4-7.6c2-3.2,3.6-6.4,4.4-10.4c0.8-4,1.6-8,1.6-12.1
				c0-4.4-0.4-8.4-1.6-12.5c-1.2-4-2.4-7.6-4.8-10.4c-2-3.2-4.8-5.6-8.4-7.2c-3.6-2-7.6-2.8-12.5-2.8c-4.8,0-8.8,0.8-12.5,2.8
				c-3.2,2-6,4.4-8,7.6c-2,3.2-3.6,6.8-4.4,10.9s-1.2,8-1.2,12.5C472.1,258.8,472.9,262.8,473.7,266.8z"/>
			<path fill="#FFFFFF" d="M551.3,236.3c1.6-5.6,4.4-10.4,8-14.5c3.6-4,8-7.2,13.3-9.6c5.2-2.4,11.3-3.6,18.1-3.6
				c6.8,0,12.9,1.2,18.1,3.6c5.2,2.4,9.6,5.6,13.3,9.6c3.6,4,6.4,8.8,8,14.5c1.6,5.6,2.8,11.7,2.8,18.1c0,6.4-0.8,12.5-2.8,17.7
				c-1.6,5.6-4.4,10.4-8,14.5c-3.6,4-8,7.2-13.3,9.6c-5.2,2.4-11.3,3.6-18.1,3.6c-6.8,0-12.9-1.2-18.1-3.6
				c-5.2-2.4-9.6-5.6-13.3-9.6c-3.6-4-6.4-8.8-8-14.5s-2.8-11.3-2.8-17.7C548.5,247.9,549.3,241.9,551.3,236.3z M565.7,268.4
				c1.6,4,3.2,7.6,5.6,10.4c2.4,2.8,5.2,4.8,8.8,6.4c3.2,1.6,6.8,2,10.4,2s7.2-0.8,10.4-2c3.2-1.6,6-3.6,8.8-6.4
				c2.4-2.8,4.4-6,5.6-10.4c1.6-4,2-8.8,2-14.1c0-5.2-0.8-10-2-14.1c-1.2-4-3.2-7.6-5.6-10.4c-2.4-2.8-5.2-4.8-8.8-6.4
				c-3.2-1.6-6.8-2-10.4-2c-3.6,0-7.2,0.8-10.4,2c-3.2,1.6-6,3.6-8.8,6.4c-2.4,2.8-4.4,6.4-5.6,10.4c-1.6,4-2,8.8-2,14.1
				C563.7,259.6,564.1,264.4,565.7,268.4z"/>
			<g>
				<g>
					<path fill="#FFFFFF" d="M206.5,239.1c-7.6,0-14.1-6-14.1-14.1c0-7.6,6.4-14.1,14.1-14.1c7.6,0,14.1,6.4,14.1,14.1
						C220.5,233.1,214.1,239.1,206.5,239.1z M206.5,216.6c-4.8,0-8.4,3.6-8.4,8.4c0,4.8,4,8.4,8.4,8.4c4.8,0,8.4-3.6,8.4-8.4
						C214.9,220.6,210.9,216.6,206.5,216.6z"/>
				</g>
			</g>
			<path fill="#FFFFFF" d="M682.7,237.9c-6.8,0-12.9-5.6-12.9-12.9c0-6.8,5.6-12.5,12.9-12.5c6.8,0,12.5,5.6,12.5,12.5
				C695.5,232.3,689.9,237.9,682.7,237.9z M682.7,215.4c-5.6,0-10,4.4-10,10c0,5.6,4.4,10,10,10s10-4.4,10-10
				S688.3,215.4,682.7,215.4z"/>
			<path fill="#FFFFFF" d="M730.1,237.9c-6.8,0-12.5-5.6-12.5-12.9c0-6.8,5.6-12.5,12.5-12.5c6.8,0,12.9,5.6,12.9,12.5
				C743,232.3,736.9,237.9,730.1,237.9z M730.1,215.4c-5.6,0-10,4.4-10,10c0,5.6,4.4,10,10,10s10-4.4,10-10S735.7,215.4,730.1,215.4
				z"/>
			<path fill="#FFFFFF" d="M777.5,237.1c-6.8,0-12.9-5.6-12.9-12.9c0-6.8,5.6-12.5,12.9-12.5c6.8,0,12.5,5.6,12.5,12.5
				C790,231.1,784.3,237.1,777.5,237.1z M777.5,214.2c-5.6,0-10,4.4-10,10c0,5.6,4.4,10,10,10c5.6,0,10-4.4,10-10
				S783.1,214.2,777.5,214.2z"/>
			<path fill="#FFFFFF" d="M824.9,237.9c-6.8,0-12.9-5.6-12.9-12.9c0-6.8,5.6-12.5,12.9-12.5c6.8,0,12.5,5.6,12.5,12.5
				C837.4,232.3,831.8,237.9,824.9,237.9z M824.9,215.4c-5.6,0-10,4.4-10,10c0,5.6,4.4,10,10,10s10-4.4,10-10
				C834.6,219.8,830.2,215.4,824.9,215.4z"/>
		</g>
	</g>
	
		<line fill="none" stroke="#FFFFFF" stroke-width="1.001" stroke-miterlimit="10" stroke-dasharray="1,1" x1="845" y1="471.8" x2="235" y2="471.8"/>
	<g>
		<path fill="#FFFFFF" d="M360,632.1c0-6.8,1.2-12.5,3.2-17.3c1.6-3.6,3.6-6.4,6.4-9.2c2.8-2.8,5.6-4.8,8.8-6
			c4-1.6,8.8-2.8,14.5-2.8c10,0,17.7,3.2,23.7,9.2c6,6,8.8,14.5,8.8,25.7c0,10.9-2.8,19.3-8.8,25.3c-6,6-13.7,9.2-23.7,9.2
			c-10,0-18.1-3.2-23.7-9.2C363.2,651,360,643,360,632.1z M374.1,631.7c0,7.6,1.6,13.3,5.2,17.3c3.6,4,8,6,13.3,6s9.6-2,13.3-6
			c3.6-4,5.2-9.6,5.2-17.7c0-7.6-1.6-13.3-5.2-17.3c-3.2-3.6-8-5.6-13.3-5.6c-5.6,0-10,2-13.7,5.6
			C375.3,617.7,374.1,624.1,374.1,631.7z"/>
		<path fill="#FFFFFF" d="M455.2,665.1v-55.9h-20.1V598h53.4v11.3h-19.7v55.9H455.2z"/>
		<path fill="#FFFFFF" d="M511.1,616.4l-13.3-3.2c2.8-10.9,10.9-16.5,24.1-16.5c8,0,13.7,1.6,17.7,5.2c4,3.6,6,7.6,6,12.1
			c0,3.2-0.8,6-2.8,8.8s-4.4,4.8-8.4,6.8c4.4,1.6,7.6,3.6,10,6.4c2.4,2.8,3.2,6.4,3.2,10.4c0,6-2,10.9-6.4,14.5
			c-4.4,3.6-10.9,5.6-19.3,5.6c-6.8,0-12.5-1.2-16.5-3.6c-4-2.4-7.2-6.8-9.2-13.3l12.5-4c1.2,4,2.8,6.8,5.2,7.6c2,1.2,4.8,1.6,8,1.6
			c4.4,0,7.2-0.8,9.2-2.8c2-2,2.8-4,2.8-6.4c0-2.8-1.2-4.8-3.2-6.8c-2.4-1.6-5.6-2.4-10-2.4h-2.8v-9.6h1.6c4,0,7.2-0.8,9.6-2.8
			c2-2,3.2-4.4,3.2-7.2c0-2.4-0.8-4.4-2.8-6c-1.6-1.6-4.4-2.4-7.6-2.4C516.3,608,512.7,610.8,511.1,616.4z"/>
		<path fill="#FFFFFF" d="M564.5,598h13.7v26.9h18.1c4.8,0,8.8,0.8,12.5,2s6.4,3.6,8.4,6.8c2.4,3.2,3.6,7.2,3.6,11.7
			s-1.2,8.4-3.6,11.7s-5.2,5.6-8,6.4c-2.8,0.8-7.2,1.6-12.9,1.6h-31.7V598z M578.2,653.8h13.3c4,0,7.2-0.4,8.8-0.8
			c1.6-0.4,3.2-1.2,4.4-2.8c1.2-1.6,2-3.2,2-5.2c0-2.8-1.2-5.2-3.2-6.8s-6-2.4-11.7-2.4h-13.7V653.8z M628.4,598h13.7v67.1h-13.7
			V598z"/>
		<path fill="#FFFFFF" d="M660.2,598h26.9c5.2,0,9.2,0.4,12.1,0.8c2.8,0.4,4.8,1.2,6.8,2.8c2,1.6,3.6,3.2,5.2,5.6c1.2,2.4,2,4.8,2,8
			s-0.8,6-2.4,8.8c-1.6,2.8-4,4.4-6.8,6c4,1.2,7.2,3.2,9.2,6s3.2,6.4,3.2,10c0,3.2-0.8,6-2,8.8c-1.2,2.8-3.2,5.2-5.6,6.8
			s-5.6,2.8-9.2,3.2c-2.4,0.4-7.6,0.4-16.5,0.4h-22.9V598z M673.8,609.2v15.7h8.8c5.2,0,8.4,0,9.6-0.4c2.4-0.4,4-1.2,5.6-2.4
			c1.2-1.2,2-3.2,2-5.2c0-2-0.4-3.6-1.6-5.2c-1.2-1.2-2.8-2-5.2-2.4c-1.2,0-5.2-0.4-11.7-0.4h-7.6V609.2z M673.8,636.1v18.1h12.5
			c4.8,0,8,0,9.2-0.4c2-0.4,3.6-1.2,4.8-2.8c1.2-1.6,2-3.2,2-5.6c0-2-0.4-3.6-1.6-5.2c-0.8-1.2-2.4-2.4-4.4-3.2s-6-0.8-12.1-0.8
			H673.8z"/>
		<path fill="#FFFFFF" d="M732.5,598h13.7v26.9h18.1c4.8,0,8.8,0.8,12.5,2c3.6,1.2,6.4,3.6,8.4,6.8c2.4,3.2,3.6,7.2,3.6,11.7
			s-1.2,8.4-3.6,11.7c-2.4,3.2-5.2,5.6-8,6.4c-2.8,0.8-7.2,1.6-12.9,1.6h-31.7L732.5,598L732.5,598z M745.8,653.8H759
			c4,0,7.2-0.4,8.8-0.8c1.6-0.4,3.2-1.2,4.4-2.8c1.2-1.6,2-3.2,2-5.2c0-2.8-1.2-5.2-3.2-6.8s-6-2.4-11.7-2.4h-13.7L745.8,653.8
			L745.8,653.8z M796,598h13.7v67.1H796V598z"/>
	</g>
</g>
</svg>
