<?xml version="1.0" encoding="utf-8"?>
<!-- Generator: Adobe Illustrator 17.1.0, SVG Export Plug-In . SVG Version: 6.00 Build 0)  -->
<!DOCTYPE svg PUBLIC "-//W3C//DTD SVG 1.1//EN" "http://www.w3.org/Graphics/SVG/1.1/DTD/svg11.dtd">
<svg version="1.1" id="Layer_1" xmlns="http://www.w3.org/2000/svg" xmlns:xlink="http://www.w3.org/1999/xlink" x="0px" y="0px"
	 viewBox="480.3 395.4 230 55" enable-background="new 480.3 395.4 230 55" xml:space="preserve">
<g>
	<polygon opacity="0.74" enable-background="new    " points="481.8,396.4 614.4,396.4 614.4,403 707.6,403 707.6,448 505,448 
		505,444.6 481.8,444.6 	"/>
	<g>
		<g>
			<g>
				<g>
					<path fill="#FFFFFF" d="M518.2,431.5c-0.5,0-1-0.2-1.3-0.5c-0.3-0.3-0.5-0.8-0.5-1.5c-0.6,0.7-1.3,1.2-2,1.5
						c-0.8,0.3-1.6,0.5-2.5,0.5c-0.6,0-1.1-0.1-1.6-0.2s-1-0.3-1.4-0.6s-0.7-0.7-0.9-1.1c-0.2-0.5-0.3-1-0.3-1.7s0.1-1.3,0.4-1.8
						s0.6-0.8,1-1.1s0.9-0.5,1.4-0.7s1.1-0.3,1.6-0.4c0.6-0.1,1.1-0.2,1.7-0.3c0.5-0.1,1-0.1,1.4-0.2s0.7-0.3,0.9-0.5
						s0.4-0.5,0.4-0.9c0-0.5-0.1-0.8-0.3-1.1s-0.4-0.5-0.7-0.6c-0.3-0.2-0.6-0.2-0.9-0.3c-0.3,0-0.7-0.1-1-0.1
						c-0.9,0-1.6,0.2-2.2,0.5c-0.6,0.3-0.9,1-1,1.9h-2.1c0-0.8,0.2-1.5,0.5-2s0.7-1,1.2-1.3s1.1-0.6,1.7-0.7s1.3-0.2,2-0.2
						c0.6,0,1.2,0,1.7,0.1c0.6,0.1,1.1,0.3,1.6,0.5c0.5,0.3,0.8,0.6,1.1,1.1c0.3,0.5,0.4,1.1,0.4,1.8v6.6c0,0.5,0,0.9,0.1,1.1
						c0.1,0.2,0.3,0.3,0.6,0.3c0.2,0,0.4,0,0.6-0.1v1.6C519.4,431.4,518.9,431.5,518.2,431.5z M515.2,424.9
						c-0.4,0.1-0.9,0.2-1.4,0.2c-0.5,0.1-0.9,0.1-1.4,0.2c-0.5,0.1-0.9,0.2-1.3,0.4s-0.7,0.4-0.9,0.7s-0.4,0.7-0.4,1.3
						c0,0.4,0.1,0.6,0.2,0.9c0.1,0.2,0.3,0.4,0.5,0.6c0.2,0.1,0.5,0.3,0.8,0.3c0.3,0.1,0.6,0.1,0.9,0.1c0.7,0,1.3-0.1,1.8-0.3
						c0.5-0.2,0.9-0.4,1.2-0.7c0.3-0.3,0.5-0.6,0.7-0.9c0.1-0.3,0.2-0.7,0.2-1v-2.2C516,424.7,515.7,424.8,515.2,424.9z"/>
				</g>
			</g>
			<path fill="#FFFFFF" d="M523.3,413.3v17.8h-2.1v-17.8H523.3z"/>
			<path fill="#FFFFFF" d="M534.9,430.4c-1,0.7-2.2,1.1-3.6,1.1c-1,0-1.9-0.2-2.7-0.5s-1.4-0.8-1.9-1.4c-0.5-0.6-0.9-1.3-1.2-2.1
				c-0.3-0.8-0.4-1.7-0.4-2.7s0.1-1.9,0.4-2.7c0.3-0.8,0.7-1.5,1.3-2.1c0.5-0.6,1.2-1.1,1.9-1.4c0.7-0.3,1.5-0.5,2.4-0.5
				c1.1,0,2.1,0.2,2.9,0.7s1.4,1.1,1.8,1.8c0.5,0.7,0.8,1.5,0.9,2.4c0.2,0.9,0.2,1.7,0.2,2.5h-9.6c0,0.6,0.1,1.1,0.2,1.6
				c0.1,0.5,0.4,1,0.7,1.3c0.3,0.4,0.8,0.7,1.3,0.9c0.5,0.2,1.1,0.3,1.8,0.3c0.9,0,1.6-0.2,2.2-0.6s0.9-1,1.1-1.9h2.1
				C536.4,428.6,535.8,429.7,534.9,430.4z M534.3,422c-0.2-0.4-0.4-0.8-0.8-1.2c-0.3-0.3-0.7-0.6-1.1-0.8s-0.9-0.3-1.5-0.3
				c-0.5,0-1,0.1-1.5,0.3c-0.4,0.2-0.8,0.5-1.1,0.8c-0.3,0.3-0.6,0.7-0.7,1.2c-0.2,0.4-0.3,0.9-0.3,1.4h7.4
				C534.6,422.9,534.5,422.5,534.3,422z"/>
			<path fill="#FFFFFF" d="M548.3,431.2v-1.7l0,0c-0.3,0.7-0.9,1.2-1.6,1.5c-0.8,0.3-1.6,0.5-2.5,0.5c-1,0-1.9-0.2-2.6-0.5
				c-0.7-0.4-1.4-0.9-1.8-1.5c-0.5-0.6-0.9-1.3-1.1-2.1c-0.3-0.8-0.4-1.7-0.4-2.6s0.1-1.8,0.4-2.6c0.2-0.8,0.6-1.5,1.1-2.1
				c0.5-0.6,1.1-1.1,1.8-1.4c0.7-0.4,1.6-0.5,2.6-0.5c0.3,0,0.7,0,1.1,0.1s0.8,0.2,1.1,0.3c0.4,0.2,0.7,0.4,1.1,0.6
				c0.3,0.3,0.6,0.6,0.9,1l0,0v-6.6h2.1v17.8h-2.2V431.2z M540.7,426.5c0.2,0.6,0.4,1.1,0.7,1.5c0.3,0.4,0.7,0.8,1.2,1.1
				c0.5,0.3,1.1,0.4,1.8,0.4c0.7,0,1.3-0.1,1.8-0.4c0.5-0.3,0.9-0.7,1.2-1.1c0.3-0.5,0.5-1,0.7-1.6c0.1-0.6,0.2-1.2,0.2-1.8
				s-0.1-1.2-0.2-1.8c-0.2-0.6-0.4-1.1-0.7-1.6c-0.3-0.4-0.7-0.8-1.3-1.1c-0.5-0.3-1.1-0.4-1.9-0.4c-0.7,0-1.3,0.1-1.8,0.4
				c-0.5,0.3-0.9,0.7-1.2,1.1c-0.3,0.5-0.5,1-0.6,1.6c-0.1,0.6-0.2,1.2-0.2,1.8C540.5,425.4,540.6,426,540.7,426.5z"/>
			<path fill="#FFFFFF" d="M552.2,422c0.3-0.8,0.7-1.5,1.2-2.1c0.5-0.6,1.2-1.1,2-1.4s1.7-0.5,2.7-0.5s1.9,0.2,2.7,0.5
				s1.4,0.8,2,1.4c0.5,0.6,0.9,1.3,1.2,2.1c0.3,0.8,0.4,1.7,0.4,2.6s-0.1,1.8-0.4,2.6c-0.3,0.8-0.7,1.5-1.2,2.1
				c-0.5,0.6-1.2,1.1-2,1.4s-1.7,0.5-2.7,0.5s-1.9-0.2-2.7-0.5s-1.4-0.8-2-1.4c-0.5-0.6-0.9-1.3-1.2-2.1c-0.3-0.8-0.4-1.7-0.4-2.6
				S551.9,422.9,552.2,422z M554.3,426.8c0.2,0.6,0.5,1.1,0.9,1.5s0.8,0.7,1.3,0.9c0.5,0.2,1,0.3,1.6,0.3c0.5,0,1.1-0.1,1.6-0.3
				c0.5-0.2,0.9-0.5,1.3-0.9s0.6-0.9,0.9-1.5c0.2-0.6,0.3-1.3,0.3-2.1s-0.1-1.5-0.3-2.1s-0.5-1.1-0.9-1.5s-0.8-0.7-1.3-0.9
				c-0.5-0.2-1-0.3-1.6-0.3c-0.5,0-1.1,0.1-1.6,0.3c-0.5,0.2-0.9,0.5-1.3,0.9s-0.6,0.9-0.9,1.5c-0.2,0.6-0.3,1.3-0.3,2.1
				S554.1,426.2,554.3,426.8z"/>
			<g>
				<g>
					<path fill="#FFFFFF" d="M501,422.5c-1.1,0-2.1-0.9-2.1-2.1c0-1.1,0.9-2.1,2.1-2.1c1.1,0,2.1,0.9,2.1,2.1
						C503.1,421.5,502.2,422.5,501,422.5z M501,419.1c-0.7,0-1.3,0.6-1.3,1.3s0.6,1.3,1.3,1.3s1.3-0.6,1.3-1.3
						S501.7,419.1,501,419.1z"/>
				</g>
			</g>
			<path fill="#FFFFFF" d="M571.6,422.2c-1,0-1.9-0.8-1.9-1.9c0-1,0.8-1.9,1.9-1.9c1,0,1.9,0.8,1.9,1.9S572.7,422.2,571.6,422.2z
				 M571.6,418.9c-0.8,0-1.5,0.7-1.5,1.5s0.7,1.5,1.5,1.5s1.5-0.7,1.5-1.5S572.4,418.9,571.6,418.9z"/>
			<path fill="#FFFFFF" d="M578.7,422.2c-1,0-1.9-0.8-1.9-1.9c0-1,0.8-1.9,1.9-1.9c1,0,1.9,0.8,1.9,1.9S579.8,422.2,578.7,422.2z
				 M578.7,418.9c-0.8,0-1.5,0.7-1.5,1.5s0.7,1.5,1.5,1.5s1.5-0.7,1.5-1.5S579.5,418.9,578.7,418.9z"/>
			<path fill="#FFFFFF" d="M585.7,422.1c-1,0-1.9-0.8-1.9-1.9c0-1,0.8-1.9,1.9-1.9c1,0,1.9,0.8,1.9,1.9S586.8,422.1,585.7,422.1z
				 M585.7,418.8c-0.8,0-1.5,0.7-1.5,1.5s0.7,1.5,1.5,1.5s1.5-0.7,1.5-1.5C587.2,419.4,586.5,418.8,585.7,418.8z"/>
			<path fill="#FFFFFF" d="M592.8,422.2c-1,0-1.9-0.8-1.9-1.9c0-1,0.8-1.9,1.9-1.9c1,0,1.9,0.8,1.9,1.9
				C594.6,421.4,593.8,422.2,592.8,422.2z M592.8,418.9c-0.8,0-1.5,0.7-1.5,1.5s0.7,1.5,1.5,1.5s1.5-0.7,1.5-1.5
				C594.2,419.6,593.6,418.9,592.8,418.9z"/>
		</g>
	</g>
	<g>
		<path fill="#FFFFFF" d="M613.8,419.3h8.3v10.4H620V421h-4.1v8.7h-2.1L613.8,419.3L613.8,419.3z"/>
		<path fill="#FFFFFF" d="M624.8,429.8v-10.4h3.4c1.3,0,2.1,0.1,2.5,0.2c0.6,0.2,1.1,0.5,1.5,1s0.6,1.2,0.6,2c0,0.6-0.1,1.2-0.3,1.6
			s-0.5,0.8-0.9,1s-0.7,0.4-1.1,0.5c-0.5,0.1-1.2,0.1-2.2,0.1h-1.4v3.9h-2.1V429.8z M626.9,421.1v3h1.2c0.8,0,1.4-0.1,1.7-0.2
			c0.3-0.1,0.5-0.3,0.7-0.5s0.2-0.5,0.2-0.8c0-0.4-0.1-0.7-0.3-0.9s-0.5-0.4-0.8-0.5c-0.3,0-0.8-0.1-1.5-0.1H626.9z"/>
		<path fill="#FFFFFF" d="M634.6,424.6c0-1.1,0.2-1.9,0.5-2.7c0.2-0.5,0.6-1,1-1.4s0.9-0.7,1.3-0.9c0.6-0.3,1.4-0.4,2.2-0.4
			c1.5,0,2.8,0.5,3.7,1.4c0.9,1,1.4,2.3,1.4,4s-0.5,3-1.4,3.9c-0.9,0.9-2.1,1.4-3.7,1.4c-1.5,0-2.8-0.5-3.7-1.4
			C635.1,427.5,634.6,426.2,634.6,424.6z M636.8,424.5c0,1.2,0.3,2.1,0.8,2.7c0.5,0.6,1.2,0.9,2.1,0.9c0.8,0,1.5-0.3,2.1-0.9
			s0.8-1.5,0.8-2.7s-0.3-2.1-0.8-2.7c-0.5-0.6-1.2-0.9-2.1-0.9c-0.9,0-1.6,0.3-2.1,0.9C637.1,422.4,636.8,423.3,636.8,424.5z"/>
		<path fill="#FFFFFF" d="M647,429.8v-10.4h7.7v1.8h-5.6v2.3h5.2v1.8h-5.2v2.8h5.8v1.8H647V429.8z"/>
		<path fill="#FFFFFF" d="M657.4,419.3h2.1v4.4c0.5,0,0.8-0.2,1-0.4s0.4-0.7,0.8-1.6c0.4-1.1,0.9-1.8,1.3-2.1s1.1-0.4,2.1-0.4
			c0,0,0.1,0,0.3,0v1.6h-0.3c-0.4,0-0.7,0.1-0.9,0.2s-0.4,0.3-0.5,0.5c-0.1,0.2-0.3,0.7-0.5,1.3c-0.1,0.4-0.3,0.7-0.4,0.9
			c-0.1,0.2-0.4,0.5-0.8,0.7c0.5,0.1,0.9,0.4,1.2,0.8c0.3,0.4,0.6,1,1,1.7l1.4,2.9h-2.5l-1.2-2.7c0,0-0.1-0.1-0.1-0.2
			c0,0-0.1-0.2-0.3-0.5c-0.3-0.5-0.5-0.8-0.7-1c-0.2-0.2-0.4-0.2-0.8-0.2v4.6h-2.1v-10.5H657.4z"/>
		<path fill="#FFFFFF" d="M669.6,429.8v-8.6h-3.1v-1.8h8.3v1.8h-3.1v8.6H669.6z"/>
		<path fill="#FFFFFF" d="M676.8,419.3h2.1v4.2h2.8c0.7,0,1.4,0.1,1.9,0.3c0.5,0.2,1,0.6,1.3,1.1c0.4,0.5,0.5,1.1,0.5,1.8
			s-0.2,1.3-0.6,1.8s-0.8,0.8-1.2,1s-1.1,0.2-2,0.2h-4.9v-10.4H676.8z M678.9,428h2.1c0.7,0,1.1,0,1.4-0.1c0.3-0.1,0.5-0.2,0.7-0.4
			s0.3-0.5,0.3-0.8c0-0.5-0.2-0.8-0.5-1c-0.3-0.2-0.9-0.3-1.8-0.3H679v2.6H678.9z M686.8,419.3h2.1v10.4h-2.1V419.3z"/>
	</g>
	<polygon fill="none" stroke="#FFFFFF" stroke-width="3.1181" stroke-miterlimit="10" points="482.3,396.9 614.9,396.9 614.9,403.5 
		708.1,403.5 708.1,448.5 505.6,448.5 505.6,444.3 482.3,444.3 	"/>
	
		<line fill="none" stroke="#FFFFFF" stroke-width="1.001" stroke-miterlimit="10" stroke-dasharray="1,1" x1="603.2" y1="413" x2="603.2" y2="432.2"/>
</g>
</svg>
