<?xml version="1.0" encoding="utf-8"?>
<!-- Generator: Adobe Illustrator 17.1.0, SVG Export Plug-In . SVG Version: 6.00 Build 0)  -->
<!DOCTYPE svg PUBLIC "-//W3C//DTD SVG 1.1//EN" "http://www.w3.org/Graphics/SVG/1.1/DTD/svg11.dtd">
<svg version="1.1" id="Layer_1" xmlns="http://www.w3.org/2000/svg" xmlns:xlink="http://www.w3.org/1999/xlink" x="0px" y="0px"
	 viewBox="480.3 395.4 230 55" enable-background="new 480.3 395.4 230 55" xml:space="preserve">
<g>
	<polygon opacity="0.99" fill="#D6D141" enable-background="new    " points="708.2,396.6 576.5,396.6 576.5,403.2 484,403.2 
		484,447.9 685.1,447.9 685.1,444.5 708.2,444.5 	"/>
	<g>
		<g>
			<g>
				<g>
					<path fill="#FFFFFF" d="M622.2,432.7c-0.5,0-1-0.2-1.3-0.5c-0.3-0.3-0.5-0.8-0.5-1.5c-0.6,0.7-1.3,1.2-2,1.5
						c-0.8,0.3-1.6,0.5-2.5,0.5c-0.6,0-1.1-0.1-1.6-0.2c-0.5-0.1-1-0.3-1.4-0.6c-0.4-0.3-0.7-0.7-0.9-1.1c-0.2-0.5-0.3-1-0.3-1.7
						c0-0.7,0.1-1.3,0.4-1.8s0.6-0.8,1-1.1c0.4-0.3,0.9-0.5,1.4-0.7c0.5-0.2,1.1-0.3,1.6-0.4c0.6-0.1,1.1-0.2,1.7-0.3
						c0.5-0.1,1-0.1,1.4-0.2s0.7-0.3,0.9-0.5c0.2-0.2,0.4-0.5,0.4-0.9c0-0.5-0.1-0.8-0.3-1.1c-0.2-0.3-0.4-0.5-0.7-0.6
						c-0.3-0.2-0.6-0.2-0.9-0.3c-0.3,0-0.7-0.1-1-0.1c-0.9,0-1.6,0.2-2.2,0.5c-0.6,0.3-0.9,1-1,1.9h-2.1c0-0.8,0.2-1.5,0.5-2
						s0.7-1,1.2-1.3c0.5-0.3,1.1-0.6,1.7-0.7s1.3-0.2,2-0.2c0.6,0,1.2,0,1.7,0.1c0.6,0.1,1.1,0.3,1.6,0.5c0.5,0.3,0.8,0.6,1.1,1.1
						s0.4,1.1,0.4,1.8v6.6c0,0.5,0,0.9,0.1,1.1c0.1,0.2,0.3,0.3,0.6,0.3c0.2,0,0.4,0,0.6-0.1v1.6
						C623.3,432.5,622.8,432.7,622.2,432.7z M619.3,426.2c-0.4,0.1-0.9,0.2-1.4,0.2c-0.5,0.1-0.9,0.1-1.4,0.2
						c-0.5,0.1-0.9,0.2-1.3,0.4c-0.4,0.2-0.7,0.4-0.9,0.7c-0.2,0.3-0.4,0.7-0.4,1.3c0,0.4,0.1,0.6,0.2,0.9c0.1,0.2,0.3,0.4,0.5,0.6
						c0.2,0.1,0.5,0.3,0.8,0.3c0.3,0.1,0.6,0.1,0.9,0.1c0.7,0,1.3-0.1,1.8-0.3c0.5-0.2,0.9-0.4,1.2-0.7c0.3-0.3,0.5-0.6,0.7-0.9
						c0.1-0.3,0.2-0.7,0.2-1v-2.2C620.1,425.9,619.8,426.1,619.3,426.2z"/>
				</g>
			</g>
			<path fill="#FFFFFF" d="M627.2,414.6v17.7h-2.1v-17.7H627.2z"/>
			<path fill="#FFFFFF" d="M638.7,431.6c-1,0.7-2.2,1.1-3.6,1.1c-1,0-1.9-0.2-2.7-0.5c-0.8-0.3-1.4-0.8-1.9-1.4
				c-0.5-0.6-0.9-1.3-1.2-2.1c-0.3-0.8-0.4-1.7-0.4-2.7s0.1-1.9,0.4-2.7c0.3-0.8,0.7-1.5,1.3-2.1c0.5-0.6,1.2-1.1,1.9-1.4
				c0.7-0.3,1.5-0.5,2.4-0.5c1.1,0,2.1,0.2,2.9,0.7c0.8,0.5,1.4,1.1,1.8,1.8c0.5,0.7,0.8,1.5,0.9,2.4c0.2,0.9,0.2,1.7,0.2,2.5h-9.5
				c0,0.6,0.1,1.1,0.2,1.6s0.4,1,0.7,1.3c0.3,0.4,0.8,0.7,1.3,0.9c0.5,0.2,1.1,0.3,1.8,0.3c0.9,0,1.6-0.2,2.2-0.6
				c0.6-0.4,0.9-1,1.1-1.9h2.1C640.2,429.7,639.6,430.8,638.7,431.6z M638.2,423.3c-0.2-0.4-0.4-0.8-0.8-1.2
				c-0.3-0.3-0.7-0.6-1.1-0.8c-0.4-0.2-0.9-0.3-1.5-0.3c-0.5,0-1,0.1-1.5,0.3c-0.4,0.2-0.8,0.5-1.1,0.8c-0.3,0.3-0.6,0.7-0.7,1.2
				c-0.2,0.4-0.3,0.9-0.3,1.4h7.4C638.5,424.2,638.4,423.7,638.2,423.3z"/>
			<path fill="#FFFFFF" d="M652.1,432.4v-1.7l0,0c-0.3,0.7-0.9,1.2-1.6,1.5c-0.7,0.3-1.6,0.5-2.5,0.5c-1,0-1.9-0.2-2.6-0.5
				c-0.7-0.4-1.4-0.9-1.8-1.5c-0.5-0.6-0.9-1.3-1.1-2.1c-0.3-0.8-0.4-1.7-0.4-2.6c0-0.9,0.1-1.8,0.4-2.6c0.2-0.8,0.6-1.5,1.1-2.1
				c0.5-0.6,1.1-1.1,1.8-1.4c0.7-0.4,1.6-0.5,2.6-0.5c0.3,0,0.7,0,1.1,0.1c0.4,0.1,0.8,0.2,1.1,0.3c0.4,0.2,0.7,0.4,1.1,0.6
				c0.3,0.3,0.6,0.6,0.9,1l0,0v-6.6h2.1v17.7h-2.2V432.4z M644.5,427.8c0.2,0.6,0.4,1.1,0.7,1.5c0.3,0.4,0.7,0.8,1.2,1.1
				c0.5,0.3,1.1,0.4,1.8,0.4c0.7,0,1.3-0.1,1.8-0.4c0.5-0.3,0.9-0.7,1.2-1.1c0.3-0.5,0.5-1,0.7-1.6c0.1-0.6,0.2-1.2,0.2-1.8
				s-0.1-1.2-0.2-1.8c-0.2-0.6-0.4-1.1-0.7-1.6c-0.3-0.4-0.7-0.8-1.3-1.1c-0.5-0.3-1.1-0.4-1.9-0.4c-0.7,0-1.3,0.1-1.8,0.4
				c-0.5,0.3-0.9,0.7-1.2,1.1c-0.3,0.5-0.5,1-0.6,1.6s-0.2,1.2-0.2,1.8C644.3,426.7,644.3,427.2,644.5,427.8z"/>
			<path fill="#FFFFFF" d="M655.9,423.3c0.3-0.8,0.7-1.5,1.2-2.1c0.5-0.6,1.2-1.1,2-1.4c0.8-0.3,1.7-0.5,2.7-0.5
				c1,0,1.9,0.2,2.7,0.5c0.8,0.3,1.4,0.8,2,1.4c0.5,0.6,0.9,1.3,1.2,2.1c0.3,0.8,0.4,1.7,0.4,2.6c0,0.9-0.1,1.8-0.4,2.6
				c-0.3,0.8-0.7,1.5-1.2,2.1c-0.5,0.6-1.2,1.1-2,1.4c-0.8,0.3-1.7,0.5-2.7,0.5c-1,0-1.9-0.2-2.7-0.5c-0.8-0.3-1.4-0.8-2-1.4
				c-0.5-0.6-0.9-1.3-1.2-2.1c-0.3-0.8-0.4-1.7-0.4-2.6C655.5,425,655.7,424.1,655.9,423.3z M658,428c0.2,0.6,0.5,1.1,0.9,1.5
				c0.4,0.4,0.8,0.7,1.3,0.9c0.5,0.2,1,0.3,1.6,0.3c0.5,0,1.1-0.1,1.6-0.3c0.5-0.2,0.9-0.5,1.3-0.9c0.4-0.4,0.6-0.9,0.9-1.5
				c0.2-0.6,0.3-1.3,0.3-2.1c0-0.8-0.1-1.5-0.3-2.1c-0.2-0.6-0.5-1.1-0.9-1.5c-0.4-0.4-0.8-0.7-1.3-0.9c-0.5-0.2-1-0.3-1.6-0.3
				c-0.5,0-1.1,0.1-1.6,0.3c-0.5,0.2-0.9,0.5-1.3,0.9c-0.4,0.4-0.6,0.9-0.9,1.5c-0.2,0.6-0.3,1.3-0.3,2.1
				C657.7,426.7,657.8,427.4,658,428z"/>
			<g>
				<g>
					<path fill="#FFFFFF" d="M605.1,423.7c-1.1,0-2.1-0.9-2.1-2.1c0-1.1,0.9-2.1,2.1-2.1c1.1,0,2.1,0.9,2.1,2.1
						S606.3,423.7,605.1,423.7z M605.1,420.4c-0.7,0-1.3,0.6-1.3,1.3c0,0.7,0.6,1.3,1.3,1.3s1.3-0.6,1.3-1.3
						C606.4,421,605.8,420.4,605.1,420.4z"/>
				</g>
			</g>
			<path fill="#FFFFFF" d="M675.3,423.5c-1,0-1.9-0.8-1.9-1.9c0-1,0.8-1.9,1.9-1.9c1,0,1.9,0.8,1.9,1.9S676.2,423.5,675.3,423.5z
				 M675.3,420.2c-0.8,0-1.5,0.7-1.5,1.5c0,0.8,0.7,1.5,1.5,1.5c0.8,0,1.5-0.7,1.5-1.5C676.7,420.8,676,420.2,675.3,420.2z"/>
			<path fill="#FFFFFF" d="M682.2,423.5c-1,0-1.9-0.8-1.9-1.9c0-1,0.8-1.9,1.9-1.9c1,0,1.9,0.8,1.9,1.9S683.3,423.5,682.2,423.5z
				 M682.2,420.2c-0.8,0-1.5,0.7-1.5,1.5c0,0.8,0.7,1.5,1.5,1.5c0.8,0,1.5-0.7,1.5-1.5C683.7,420.8,683,420.2,682.2,420.2z"/>
			<path fill="#FFFFFF" d="M689.2,423.4c-1,0-1.9-0.8-1.9-1.9c0-1,0.8-1.9,1.9-1.9c1,0,1.9,0.8,1.9,1.9S690.3,423.4,689.2,423.4z
				 M689.2,420.1c-0.8,0-1.5,0.7-1.5,1.5c0,0.8,0.7,1.5,1.5,1.5s1.5-0.7,1.5-1.5C690.7,420.7,690,420.1,689.2,420.1z"/>
			<path fill="#FFFFFF" d="M696.1,423.5c-1,0-1.9-0.8-1.9-1.9c0-1,0.8-1.9,1.9-1.9c1,0,1.9,0.8,1.9,1.9S697.2,423.5,696.1,423.5z
				 M696.1,420.2c-0.8,0-1.5,0.7-1.5,1.5c0,0.8,0.7,1.5,1.5,1.5c0.8,0,1.5-0.7,1.5-1.5C697.6,420.8,696.9,420.2,696.1,420.2z"/>
		</g>
	</g>
	<g>
		<path fill="#FFFFFF" d="M507.2,420.6h2.1v4.4c0.5,0,0.8-0.2,1-0.4c0.2-0.2,0.4-0.7,0.8-1.6c0.4-1.1,0.9-1.8,1.3-2.1
			c0.4-0.3,1.1-0.4,2.1-0.4c0,0,0.1,0,0.3,0v1.6h-0.4c-0.4,0-0.7,0.1-0.9,0.2c-0.2,0.1-0.4,0.3-0.5,0.5c-0.1,0.2-0.3,0.7-0.5,1.3
			c-0.1,0.4-0.3,0.7-0.4,0.9c-0.1,0.2-0.4,0.5-0.8,0.7c0.5,0.1,0.9,0.4,1.2,0.8c0.3,0.4,0.6,1,1,1.7l1.4,2.9h-2.5l-1.2-2.7
			c0,0-0.1-0.1-0.1-0.2c0,0-0.1-0.2-0.3-0.5c-0.3-0.5-0.5-0.8-0.7-1c-0.2-0.2-0.4-0.2-0.8-0.2v4.6h-2.1V420.6z"/>
		<path fill="#FFFFFF" d="M516.1,425.8c0-1.1,0.2-1.9,0.5-2.7c0.2-0.5,0.6-1,1-1.4c0.4-0.4,0.9-0.7,1.3-0.9c0.6-0.3,1.4-0.4,2.2-0.4
			c1.5,0,2.8,0.5,3.7,1.4c0.9,1,1.4,2.3,1.4,4s-0.5,3-1.4,3.9c-0.9,0.9-2.1,1.4-3.7,1.4c-1.5,0-2.8-0.5-3.7-1.4
			C516.6,428.8,516.1,427.5,516.1,425.8z M518.3,425.8c0,1.2,0.3,2.1,0.8,2.7c0.5,0.6,1.2,0.9,2.1,0.9c0.8,0,1.5-0.3,2.1-0.9
			s0.8-1.5,0.8-2.7s-0.3-2.1-0.8-2.7c-0.5-0.6-1.2-0.9-2.1-0.9s-1.6,0.3-2.1,0.9C518.6,423.7,518.3,424.6,518.3,425.8z"/>
		<path fill="#FFFFFF" d="M528.5,431v-10.4h3.1l1.9,7.1l1.9-7.1h3.2V431h-2v-8.2l-2.1,8.2h-2l-2.1-8.2v8.2H528.5L528.5,431z"/>
		<path fill="#FFFFFF" d="M550.4,431h-2.3l-0.9-2.4h-4.1l-0.9,2.4h-2.2l4.1-10.4h2.2L550.4,431z M546.7,426.9l-1.5-3.9l-1.4,3.9
			H546.7z"/>
		<path fill="#FFFFFF" d="M552.2,431v-10.4h2.1v4.1h4.1v-4.1h2.1V431h-2.1v-4.5h-4.1v4.5H552.2L552.2,431z"/>
		<path fill="#FFFFFF" d="M564.2,420.6h7.2v8.7h0.9v4h-1.7V431h-6.5v2.3h-1.7v-4h0.7c0.4-0.9,0.7-1.9,0.9-3.1
			c0.1-1.2,0.2-2.7,0.2-4.5V420.6z M566.2,422.3c0,3.2-0.3,5.5-0.9,6.9h4v-6.9C569.2,422.3,566.2,422.3,566.2,422.3z"/>
		<path fill="#FFFFFF" d="M583.6,431h-2.3l-0.9-2.4h-4.2l-0.9,2.4h-2.2l4.1-10.4h2.2L583.6,431z M579.7,426.9l-1.4-3.9l-1.4,3.9
			H579.7z"/>
	</g>
	<polygon fill="none" stroke="#FFFFFF" stroke-width="3.1181" stroke-miterlimit="10" points="707.7,397.1 576,397.1 576,403.7 
		483.5,403.7 483.5,448.4 684.5,448.4 684.5,444.2 707.7,444.2 	"/>
	
		<line fill="none" stroke="#FFFFFF" stroke-width="1.001" stroke-miterlimit="10" stroke-dasharray="1,1" x1="594.6" y1="414.3" x2="594.6" y2="433.3"/>
</g>
</svg>
