<?xml version="1.0" encoding="utf-8"?>
<!-- Generator: Adobe Illustrator 18.0.0, SVG Export Plug-In . SVG Version: 6.00 Build 0)  -->
<!DOCTYPE svg PUBLIC "-//W3C//DTD SVG 1.1//EN" "http://www.w3.org/Graphics/SVG/1.1/DTD/svg11.dtd">
<svg version="1.1" id="Слой_1" xmlns="http://www.w3.org/2000/svg" xmlns:xlink="http://www.w3.org/1999/xlink" x="0px" y="0px"
	 viewBox="0 0 135.5 135.4" enable-background="new 0 0 135.5 135.4" xml:space="preserve">
<g opacity="0.88">
	<g>
		<g>
			<path fill="#D2CF4F" d="M67.7,135.1c-37.1,0-67.3-30.2-67.3-67.3c0-37.1,30.2-67.3,67.3-67.3c37.1,0,67.3,30.2,67.3,67.3
				C135.1,104.9,104.9,135.1,67.7,135.1z M67.7,2.5c-36,0-65.2,29.3-65.2,65.2s29.3,65.2,65.2,65.2s65.2-29.3,65.2-65.2
				S103.7,2.5,67.7,2.5z"/>
		</g>
		<g>
			<g>
				<g>
					<g>
						<path fill="#D2CF4F" d="M80.6,50.7c-1.3,0-2.3-0.4-3.1-1.1c-0.8-0.7-1.2-1.9-1.2-3.6c-1.4,1.7-3,2.8-4.8,3.6
							c-1.8,0.7-3.8,1.1-5.9,1.1c-1.4,0-2.7-0.1-3.9-0.4c-1.2-0.3-2.3-0.8-3.2-1.5c-0.9-0.7-1.7-1.6-2.2-2.7
							c-0.5-1.1-0.8-2.4-0.8-3.9c0-1.7,0.3-3.2,0.9-4.3c0.6-1.1,1.4-2,2.3-2.7c1-0.7,2.1-1.2,3.3-1.6c1.2-0.4,2.5-0.7,3.8-0.9
							c1.4-0.3,2.7-0.5,3.9-0.6c1.2-0.1,2.3-0.3,3.3-0.6c0.9-0.3,1.7-0.6,2.2-1.1c0.6-0.5,0.8-1.2,0.8-2.2c0-1.1-0.2-2-0.6-2.7
							c-0.4-0.7-0.9-1.2-1.6-1.5c-0.6-0.4-1.4-0.6-2.2-0.7c-0.8-0.1-1.6-0.2-2.4-0.2c-2.1,0-3.9,0.4-5.3,1.2
							c-1.4,0.8-2.2,2.3-2.3,4.6h-5c0.1-1.9,0.5-3.5,1.2-4.8c0.7-1.3,1.7-2.4,2.8-3.2c1.2-0.8,2.5-1.4,4.1-1.7
							c1.5-0.4,3.2-0.5,4.8-0.5c1.4,0,2.7,0.1,4.1,0.3c1.4,0.2,2.6,0.6,3.7,1.2c1.1,0.6,2,1.5,2.7,2.6c0.7,1.1,1,2.5,1,4.3v15.7
							c0,1.2,0.1,2.1,0.2,2.6c0.1,0.6,0.6,0.8,1.4,0.8c0.4,0,0.9-0.1,1.5-0.3v3.9C83.4,50.5,82.2,50.7,80.6,50.7z M73.6,35.3
							c-1,0.2-2.1,0.4-3.2,0.5c-1.1,0.1-2.3,0.3-3.4,0.5c-1.1,0.2-2.2,0.5-3.1,0.9c-0.9,0.4-1.6,1-2.2,1.7c-0.6,0.7-0.9,1.7-0.9,3
							c0,0.8,0.2,1.5,0.5,2.1c0.3,0.6,0.8,1,1.3,1.4c0.5,0.4,1.2,0.6,1.9,0.8c0.7,0.2,1.5,0.2,2.2,0.2c1.7,0,3.1-0.2,4.3-0.7
							c1.2-0.4,2.1-1,2.9-1.7c0.8-0.7,1.3-1.4,1.7-2.2c0.4-0.8,0.5-1.6,0.5-2.3v-5.1C75.5,34.8,74.6,35.1,73.6,35.3z"/>
					</g>
				</g>
			</g>
			<g>
				<g>
					<g>
						<path fill="#D2CF4F" d="M44.4,29.5c-2.7,0-4.9-2.2-4.9-4.9c0-2.7,2.2-4.9,4.9-4.9c2.7,0,4.9,2.2,4.9,4.9
							C49.3,27.3,47.1,29.5,44.4,29.5z M44.4,21.6c-1.6,0-3,1.3-3,3c0,1.6,1.3,3,3,3c1.6,0,3-1.3,3-3C47.4,23,46,21.6,44.4,21.6z"/>
					</g>
				</g>
			</g>
		</g>
		<g>
			<g>
				<g>
					<g>
						<path fill="#D2CF4F" d="M29,103.4c-2.3,0-4.2-1.9-4.2-4.2c0-2.3,1.9-4.2,4.2-4.2c2.3,0,4.2,1.9,4.2,4.2
							C33.2,101.5,31.3,103.4,29,103.4z M29,96.6c-1.4,0-2.6,1.1-2.6,2.6c0,1.4,1.2,2.6,2.6,2.6c1.4,0,2.6-1.1,2.6-2.6
							C31.6,97.7,30.4,96.6,29,96.6z"/>
					</g>
				</g>
			</g>
			<g>
				<g>
					<g>
						<path fill="#D2CF4F" d="M50,103.4c-2.3,0-4.2-1.9-4.2-4.2c0-2.3,1.9-4.2,4.2-4.2c2.3,0,4.2,1.9,4.2,4.2
							C54.2,101.5,52.3,103.4,50,103.4z M50,96.6c-1.4,0-2.6,1.2-2.6,2.6c0,1.4,1.2,2.6,2.6,2.6c1.4,0,2.6-1.1,2.6-2.6
							C52.5,97.7,51.4,96.6,50,96.6z"/>
					</g>
				</g>
			</g>
			<g>
				<g>
					<g>
						<path fill="#D2CF4F" d="M71,82.4c-2.3,0-4.2-1.9-4.2-4.2c0-2.3,1.9-4.2,4.2-4.2c2.3,0,4.2,1.9,4.2,4.2
							C75.2,80.5,73.3,82.4,71,82.4z M71,75.6c-1.4,0-2.6,1.2-2.6,2.6c0,1.4,1.2,2.6,2.6,2.6c1.4,0,2.6-1.1,2.6-2.6
							C73.6,76.7,72.4,75.6,71,75.6z"/>
					</g>
				</g>
			</g>
			<g>
				<g>
					<g>
						<path fill="#D2CF4F" d="M91.9,82.4c-2.3,0-4.2-1.9-4.2-4.2c0-2.3,1.9-4.2,4.2-4.2c2.3,0,4.2,1.9,4.2,4.2
							C96.2,80.5,94.3,82.4,91.9,82.4z M91.9,75.6c-1.4,0-2.6,1.2-2.6,2.6c0,1.4,1.2,2.6,2.6,2.6c1.4,0,2.6-1.1,2.6-2.6
							C94.5,76.7,93.3,75.6,91.9,75.6z"/>
					</g>
				</g>
			</g>
			<g>
				<g>
					<g>
						<path fill="#D2CF4F" d="M113,61.4c-2.3,0-4.2-1.9-4.2-4.2c0-2.3,1.9-4.2,4.2-4.2c2.3,0,4.2,1.9,4.2,4.2
							C117.3,59.5,115.4,61.4,113,61.4z M113,54.6c-1.4,0-2.6,1.2-2.6,2.6c0,1.4,1.2,2.6,2.6,2.6c1.4,0,2.6-1.1,2.6-2.6
							C115.6,55.7,114.4,54.6,113,54.6z"/>
					</g>
				</g>
			</g>
			<g>
				<g>
					<rect x="32.4" y="98.5" fill="#D2CF4F" width="14.5" height="1.7"/>
				</g>
			</g>
			<g>
				<g>
					
						<rect x="59.8" y="77.1" transform="matrix(0.6804 0.7328 -0.7328 0.6804 84.3533 -16.1574)" fill="#D2CF4F" width="1.7" height="23.2"/>
				</g>
			</g>
			<g>
				<g>
					<rect x="74" y="77.1" fill="#D2CF4F" width="14.1" height="1.7"/>
				</g>
			</g>
			<g>
				<g>
					
						<rect x="102.4" y="56.4" transform="matrix(0.7071 0.7071 -0.7071 0.7071 78.3913 -53.0808)" fill="#D2CF4F" width="1.7" height="23.3"/>
				</g>
			</g>
			<g>
				<g>
					
						<rect x="124.9" y="48.6" transform="matrix(1.238942e-002 0.9999 -0.9999 1.238942e-002 181.2093 -69.3973)" fill="#D2CF4F" width="1.7" height="17"/>
				</g>
			</g>
		</g>
		<g>
			<path fill="#D2CF4F" d="M125.3,101.6h-0.1v-1h0.1V101.6z M124.2,101.6h-1v-1h1V101.6z M122.2,101.6h-1v-1h1V101.6z M120.2,101.6
				h-1v-1h1V101.6z M118.2,101.6h-1v-1h1V101.6z M116.2,101.6h-1v-1h1V101.6z M114.2,101.6h-1v-1h1V101.6z M112.2,101.6h-1v-1h1
				V101.6z M110.2,101.6h-1v-1h1V101.6z M108.2,101.6h-1v-1h1V101.6z M106.2,101.6h-1v-1h1V101.6z M104.2,101.6h-1v-1h1V101.6z
				 M102.2,101.6h-1v-1h1V101.6z M100.2,101.6h-1v-1h1V101.6z M98.2,101.6h-1v-1h1V101.6z M96.2,101.6h-1v-1h1V101.6z M94.2,101.6
				h-1v-1h1V101.6z M92.2,101.6h-1v-1h1V101.6z M90.2,101.6h-1v-1h1V101.6z M88.2,101.6h-1v-1h1V101.6z M86.2,101.6h-1v-1h1V101.6z
				 M84.2,101.6h-1v-1h1V101.6z M82.2,101.6h-1v-1h1V101.6z M80.2,101.6h-1v-1h1V101.6z M78.2,101.6h-1v-1h1V101.6z M76.2,101.6h-1
				v-1h1V101.6z M74.2,101.6h-1v-1h1V101.6z M72.2,101.6h-1v-1h1V101.6z M70.2,101.6h-1v-1h1V101.6z M68.2,101.6h-1v-1h1V101.6z
				 M66.2,101.6h-1v-1h1V101.6z M64.2,101.6h-1v-1h1V101.6z M62.2,101.6h-1v-1h1V101.6z M60.2,101.6h-1v-1h1V101.6z M58.2,101.6h-1
				v-1h1V101.6z"/>
		</g>
		<g>
			<path fill="#D2CF4F" d="M29.8,92h-1v-0.2h1V92z M29.8,90.8h-1v-1h1V90.8z M29.8,88.8h-1v-1h1V88.8z M29.8,86.8h-1v-1h1V86.8z
				 M29.8,84.8h-1v-1h1V84.8z M29.8,82.8h-1v-1h1V82.8z M29.8,80.8h-1v-1h1V80.8z M29.8,78.8h-1v-1h1V78.8z M29.8,76.8h-1v-1h1V76.8
				z M29.8,74.8h-1v-1h1V74.8z M29.8,72.8h-1v-1h1V72.8z M29.8,70.8h-1v-1h1V70.8z M29.8,68.8h-1v-1h1V68.8z M29.8,66.8h-1v-1h1
				V66.8z M29.8,64.8h-1v-1h1V64.8z M29.8,62.8h-1v-1h1V62.8z M29.8,60.8h-1v-1h1V60.8z M29.8,58.8h-1v-1h1V58.8z M29.8,56.8h-1v-1
				h1V56.8z M29.8,54.8h-1v-1h1V54.8z M29.8,52.8h-1v-1h1V52.8z M29.8,50.8h-1v-1h1V50.8z M29.8,48.8h-1v-1h1V48.8z M29.8,46.8h-1
				v-1h1V46.8z M29.8,44.8h-1v-1h1V44.8z M29.8,42.8h-1v-1h1V42.8z M29.8,40.8h-1v-1h1V40.8z M29.8,38.8h-1v-1h1V38.8z M29.8,36.8
				h-1v-1h1V36.8z M29.8,34.8h-1v-1h1V34.8z M29.8,32.8h-1v-1h1V32.8z M29.8,30.8h-1v-1h1V30.8z M29.8,28.8h-1v-1h1V28.8z
				 M29.8,26.8h-1v-1h1V26.8z M29.8,24.8h-1v-1h1V24.8z M29.8,22.8h-1v-1h1V22.8z M29.8,20.8h-1v-1h1V20.8z M29.8,18.8h-1v-1h1V18.8
				z M29.8,16.8h-1v-1h1V16.8z M29.8,14.8h-1v-1h1V14.8z"/>
		</g>
	</g>
</g>
</svg>
