<?xml version="1.0" encoding="utf-8"?>
<!-- Generator: Adobe Illustrator 18.0.0, SVG Export Plug-In . SVG Version: 6.00 Build 0)  -->
<!DOCTYPE svg PUBLIC "-//W3C//DTD SVG 1.1//EN" "http://www.w3.org/Graphics/SVG/1.1/DTD/svg11.dtd">
<svg version="1.1" id="Layer_1" xmlns="http://www.w3.org/2000/svg" xmlns:xlink="http://www.w3.org/1999/xlink" x="0px" y="0px"
	 viewBox="130.6 338.5 321 160.5" enable-background="new 130.6 338.5 321 160.5" xml:space="preserve">
<polygon fill="none" stroke="#FFFFFF" stroke-width="4" stroke-miterlimit="10" points="156,487.8 156,428 143.5,428 143.5,350 
	276.4,350 276.4,426.7 440.6,426.7 440.6,487.8 "/>
<g>
	<g>
		<g>
			<g>
				<path fill="#FFFFFF" d="M180,398.7c-0.6,0-1.1-0.2-1.5-0.5c-0.4-0.3-0.5-0.9-0.5-1.7c-0.7,0.8-1.4,1.4-2.3,1.7
					c-0.9,0.3-1.8,0.5-2.8,0.5c-0.7,0-1.3-0.1-1.9-0.2c-0.6-0.1-1.1-0.4-1.5-0.7c-0.4-0.3-0.8-0.7-1-1.3c-0.3-0.5-0.4-1.1-0.4-1.9
					c0-0.8,0.1-1.5,0.4-2c0.3-0.5,0.7-1,1.1-1.3c0.5-0.3,1-0.6,1.6-0.7c0.6-0.2,1.2-0.3,1.8-0.4c0.7-0.1,1.3-0.2,1.9-0.3
					c0.6-0.1,1.1-0.2,1.6-0.3c0.4-0.1,0.8-0.3,1.1-0.5c0.3-0.2,0.4-0.6,0.4-1c0-0.5-0.1-0.9-0.3-1.3c-0.2-0.3-0.5-0.6-0.8-0.7
					c-0.3-0.2-0.7-0.3-1-0.3c-0.4-0.1-0.8-0.1-1.1-0.1c-1,0-1.9,0.2-2.5,0.6c-0.7,0.4-1,1.1-1.1,2.2h-2.4c0-0.9,0.2-1.7,0.6-2.3
					c0.3-0.6,0.8-1.1,1.3-1.5c0.6-0.4,1.2-0.7,1.9-0.8c0.7-0.2,1.5-0.3,2.3-0.3c0.7,0,1.3,0,2,0.1c0.6,0.1,1.2,0.3,1.8,0.6
					c0.5,0.3,0.9,0.7,1.3,1.2c0.3,0.5,0.5,1.2,0.5,2.1v7.5c0,0.6,0,1,0.1,1.2c0.1,0.3,0.3,0.4,0.7,0.4c0.2,0,0.4,0,0.7-0.1v1.9
					C181.3,398.6,180.7,398.7,180,398.7z M176.7,391.4c-0.5,0.1-1,0.2-1.5,0.3c-0.5,0.1-1.1,0.1-1.6,0.2c-0.5,0.1-1,0.2-1.5,0.4
					c-0.4,0.2-0.8,0.5-1.1,0.8c-0.3,0.3-0.4,0.8-0.4,1.4c0,0.4,0.1,0.7,0.2,1c0.2,0.3,0.4,0.5,0.6,0.7c0.3,0.2,0.5,0.3,0.9,0.4
					c0.3,0.1,0.7,0.1,1.1,0.1c0.8,0,1.5-0.1,2-0.3c0.6-0.2,1-0.5,1.4-0.8c0.4-0.3,0.6-0.7,0.8-1.1c0.2-0.4,0.3-0.7,0.3-1.1v-2.4
					C177.5,391.1,177.1,391.3,176.7,391.4z"/>
			</g>
		</g>
		<path fill="#FFFFFF" d="M185.6,378.3v20.1h-2.4v-20.1H185.6z"/>
		<path fill="#FFFFFF" d="M198.7,397.5c-1.1,0.8-2.5,1.2-4.1,1.2c-1.2,0-2.2-0.2-3-0.6c-0.9-0.4-1.6-0.9-2.2-1.6
			c-0.6-0.7-1-1.5-1.3-2.4c-0.3-0.9-0.5-2-0.5-3.1c0-1.1,0.2-2.1,0.5-3c0.3-0.9,0.8-1.7,1.4-2.4c0.6-0.7,1.3-1.2,2.2-1.6
			c0.8-0.4,1.7-0.6,2.7-0.6c1.3,0,2.4,0.3,3.2,0.8c0.9,0.5,1.5,1.2,2.1,2c0.5,0.8,0.9,1.7,1.1,2.7c0.2,1,0.3,1.9,0.2,2.8h-10.9
			c0,0.6,0.1,1.2,0.2,1.8c0.2,0.6,0.4,1.1,0.8,1.5c0.4,0.4,0.9,0.8,1.4,1.1c0.6,0.3,1.3,0.4,2.1,0.4c1,0,1.8-0.2,2.5-0.7
			c0.6-0.5,1.1-1.2,1.3-2.1h2.4C200.5,395.4,199.8,396.6,198.7,397.5z M198.1,388.1c-0.2-0.5-0.5-0.9-0.9-1.3
			c-0.4-0.4-0.8-0.7-1.3-0.9c-0.5-0.2-1-0.3-1.6-0.3c-0.6,0-1.2,0.1-1.7,0.3c-0.5,0.2-0.9,0.5-1.3,0.9c-0.4,0.4-0.6,0.8-0.8,1.3
			c-0.2,0.5-0.3,1-0.4,1.6h8.4C198.5,389.2,198.4,388.6,198.1,388.1z"/>
		<path fill="#FFFFFF" d="M213.9,398.4v-2h-0.1c-0.4,0.8-1,1.4-1.9,1.7c-0.8,0.4-1.8,0.5-2.8,0.5c-1.1,0-2.1-0.2-2.9-0.6
			c-0.8-0.4-1.5-1-2.1-1.7c-0.6-0.7-1-1.5-1.2-2.4c-0.3-0.9-0.4-1.9-0.4-2.9c0-1,0.1-2,0.4-2.9c0.3-0.9,0.7-1.7,1.2-2.4
			c0.6-0.7,1.2-1.2,2.1-1.6c0.8-0.4,1.8-0.6,2.9-0.6c0.4,0,0.8,0,1.2,0.1c0.4,0.1,0.9,0.2,1.3,0.4c0.4,0.2,0.8,0.4,1.2,0.7
			c0.4,0.3,0.7,0.7,1,1.1h0.1v-7.5h2.4v20.1H213.9z M205.3,393.2c0.2,0.6,0.5,1.2,0.8,1.7c0.4,0.5,0.8,0.9,1.4,1.2
			c0.6,0.3,1.2,0.4,2,0.4c0.8,0,1.5-0.2,2.1-0.5c0.6-0.3,1-0.7,1.4-1.3c0.4-0.5,0.6-1.1,0.8-1.8c0.2-0.7,0.2-1.3,0.2-2
			c0-0.7-0.1-1.4-0.3-2.1c-0.2-0.7-0.4-1.2-0.8-1.8c-0.4-0.5-0.8-0.9-1.4-1.2c-0.6-0.3-1.3-0.5-2.1-0.5c-0.8,0-1.5,0.2-2.1,0.5
			c-0.6,0.3-1,0.7-1.4,1.3c-0.3,0.5-0.6,1.1-0.7,1.8c-0.2,0.7-0.2,1.4-0.2,2.1C205.1,391.9,205.2,392.6,205.3,393.2z"/>
		<path fill="#FFFFFF" d="M218.3,388.1c0.3-0.9,0.7-1.7,1.4-2.4c0.6-0.7,1.3-1.2,2.2-1.6c0.9-0.4,1.9-0.6,3-0.6
			c1.2,0,2.2,0.2,3.1,0.6c0.9,0.4,1.6,0.9,2.2,1.6c0.6,0.7,1.1,1.5,1.3,2.4c0.3,0.9,0.5,1.9,0.5,3c0,1.1-0.2,2.1-0.5,3
			c-0.3,0.9-0.8,1.7-1.3,2.4c-0.6,0.7-1.3,1.2-2.2,1.6c-0.9,0.4-1.9,0.6-3.1,0.6c-1.1,0-2.2-0.2-3-0.6c-0.9-0.4-1.6-0.9-2.2-1.6
			c-0.6-0.7-1.1-1.5-1.4-2.4c-0.3-0.9-0.5-1.9-0.5-3C217.8,390.1,218,389.1,218.3,388.1z M220.7,393.5c0.2,0.7,0.6,1.3,1,1.7
			c0.4,0.5,0.9,0.8,1.4,1.1c0.6,0.2,1.1,0.4,1.8,0.4c0.6,0,1.2-0.1,1.8-0.4c0.6-0.2,1-0.6,1.4-1.1c0.4-0.5,0.7-1,1-1.7
			c0.2-0.7,0.4-1.5,0.4-2.3c0-0.9-0.1-1.7-0.4-2.3c-0.2-0.7-0.6-1.3-1-1.7c-0.4-0.5-0.9-0.8-1.4-1.1c-0.6-0.2-1.1-0.4-1.8-0.4
			c-0.6,0-1.2,0.1-1.8,0.4c-0.6,0.2-1,0.6-1.4,1.1c-0.4,0.5-0.7,1-1,1.7c-0.2,0.7-0.4,1.5-0.4,2.3
			C220.3,392,220.5,392.8,220.7,393.5z"/>
		<g>
			<g>
				<path fill="#FFFFFF" d="M160.6,388.6c-1.3,0-2.3-1.1-2.3-2.4c0-1.3,1.1-2.3,2.3-2.3c1.3,0,2.3,1.1,2.3,2.3
					C162.9,387.6,161.9,388.6,160.6,388.6z M160.6,384.8c-0.8,0-1.4,0.6-1.4,1.4c0,0.8,0.6,1.4,1.4,1.4c0.8,0,1.4-0.6,1.4-1.4
					C162,385.5,161.4,384.8,160.6,384.8z"/>
			</g>
		</g>
		<path fill="#FFFFFF" d="M240.3,388.4c-1.2,0-2.1-0.9-2.1-2.1c0-1.2,1-2.1,2.1-2.1c1.2,0,2.1,1,2.1,2.1
			C242.4,387.4,241.5,388.4,240.3,388.4z M240.3,384.6c-0.9,0-1.7,0.7-1.7,1.7c0,0.9,0.7,1.7,1.7,1.7c0.9,0,1.7-0.7,1.7-1.7
			C241.9,385.3,241.2,384.6,240.3,384.6z"/>
		<path fill="#FFFFFF" d="M248.2,388.4c-1.2,0-2.1-0.9-2.1-2.1c0-1.2,0.9-2.1,2.1-2.1c1.2,0,2.1,1,2.1,2.1
			C250.3,387.4,249.4,388.4,248.2,388.4z M248.2,384.6c-0.9,0-1.7,0.7-1.7,1.7c0,0.9,0.7,1.7,1.7,1.7c0.9,0,1.7-0.7,1.7-1.7
			C249.9,385.3,249.1,384.6,248.2,384.6z"/>
		<path fill="#FFFFFF" d="M256.1,388.2c-1.2,0-2.1-0.9-2.1-2.1c0-1.2,1-2.1,2.1-2.1c1.2,0,2.1,1,2.1,2.1
			C258.2,387.3,257.3,388.2,256.1,388.2z M256.1,384.5c-0.9,0-1.7,0.7-1.7,1.7c0,0.9,0.7,1.7,1.7,1.7c0.9,0,1.7-0.7,1.7-1.7
			C257.8,385.2,257,384.5,256.1,384.5z"/>
		<path fill="#FFFFFF" d="M264.1,388.4c-1.2,0-2.1-0.9-2.1-2.1c0-1.2,1-2.1,2.1-2.1c1.2,0,2.1,1,2.1,2.1
			C266.2,387.4,265.2,388.4,264.1,388.4z M264.1,384.6c-0.9,0-1.7,0.7-1.7,1.7c0,0.9,0.7,1.7,1.7,1.7c0.9,0,1.7-0.7,1.7-1.7
			C265.7,385.3,265,384.6,264.1,384.6z"/>
	</g>
</g>
<line fill="none" stroke="#FFFFFF" stroke-width="1.001" stroke-miterlimit="10" stroke-dasharray="1,1" x1="267.4" y1="427.5" x2="165.4" y2="427.5"/>
<g>
	<path fill="#FFFFFF" d="M168.8,451.6h2.3v9.3h3.2v-9.3h2.3v9.3h3.4v-9.3h2.3l0,11.2l-13.4,0V451.6z"/>
	<path fill="#FFFFFF" d="M184.8,457.3c0-1.1,0.2-2.1,0.5-2.9c0.3-0.6,0.6-1.1,1-1.5s0.9-0.8,1.5-1c0.7-0.3,1.5-0.4,2.4-0.4
		c1.7,0,3,0.5,4,1.5c1,1,1.5,2.5,1.5,4.3c0,1.8-0.5,3.2-1.5,4.3s-2.3,1.5-4,1.5c-1.7,0-3-0.5-4-1.5
		C185.3,460.5,184.8,459.1,184.8,457.3z M187.1,457.2c0,1.3,0.3,2.2,0.9,2.9c0.6,0.7,1.3,1,2.2,1s1.6-0.3,2.2-1
		c0.6-0.7,0.9-1.6,0.9-2.9c0-1.3-0.3-2.2-0.8-2.9c-0.6-0.6-1.3-0.9-2.2-0.9s-1.7,0.3-2.3,1C187.4,455,187.1,456,187.1,457.2z"/>
	<path fill="#FFFFFF" d="M196.6,451.6h2.5l2.6,5.8l2.2-5.8h2.4l-3.8,8.5c-0.4,0.9-0.8,1.6-1.3,2.1c-0.4,0.5-1,0.7-1.7,0.7
		c-0.7,0-1.2,0-1.6-0.1v-1.7c0.3,0,0.6,0,0.9,0c0.5,0,0.9-0.1,1.1-0.3s0.4-0.6,0.7-1.2L196.6,451.6z"/>
	<path fill="#FFFFFF" d="M207.9,459.9v-2.2h4.2v2.2H207.9z"/>
	<path fill="#FFFFFF" d="M214.1,462.9v-11.2h3.6c1.4,0,2.3,0.1,2.7,0.2c0.6,0.2,1.2,0.5,1.6,1.1c0.4,0.6,0.7,1.3,0.7,2.2
		c0,0.7-0.1,1.3-0.4,1.7s-0.6,0.8-1,1.1c-0.4,0.3-0.8,0.4-1.2,0.5c-0.5,0.1-1.3,0.2-2.4,0.2h-1.5v4.2H214.1z M216.3,453.5v3.2h1.2
		c0.9,0,1.5-0.1,1.8-0.2c0.3-0.1,0.5-0.3,0.7-0.6s0.3-0.5,0.3-0.9c0-0.4-0.1-0.7-0.4-1c-0.2-0.3-0.5-0.4-0.9-0.5
		c-0.3-0.1-0.8-0.1-1.6-0.1H216.3z"/>
	<path fill="#FFFFFF" d="M223.9,451.6h2.5l2.6,5.8l2.2-5.8h2.4l-3.8,8.5c-0.4,0.9-0.8,1.6-1.3,2.1c-0.4,0.5-1,0.7-1.7,0.7
		c-0.7,0-1.2,0-1.6-0.1v-1.7c0.3,0,0.6,0,0.9,0c0.5,0,0.9-0.1,1.1-0.3s0.4-0.6,0.7-1.2L223.9,451.6z"/>
	<path fill="#FFFFFF" d="M235.4,462.9v-11.2h3.4l2,7.7l2-7.7h3.4v11.2h-2.1V454l-2.2,8.8h-2.2l-2.2-8.8v8.8H235.4z"/>
	<path fill="#FFFFFF" d="M254.3,462.9v-11.2h2.3v4.4h4.4v-4.4h2.3v11.2H261V458h-4.4v4.9H254.3z"/>
	<path fill="#FFFFFF" d="M276.4,462.9h-2.5l-1-2.5h-4.5l-0.9,2.5h-2.4l4.4-11.2h2.4L276.4,462.9z M272.2,458.4l-1.5-4.2l-1.5,4.2
		H272.2z"/>
	<path fill="#FFFFFF" d="M283.4,451.6h2.1v7.5l4.5-7.5h2.3v11.2h-2.1v-7.3l-4.5,7.3h-2.3V451.6z"/>
	<path fill="#FFFFFF" d="M296.9,454.7l-2.2-0.5c0.5-1.8,1.8-2.7,4.1-2.7c1.3,0,2.3,0.3,3,0.9c0.7,0.6,1,1.3,1,2c0,0.5-0.2,1-0.5,1.5
		c-0.3,0.4-0.8,0.8-1.4,1.1c0.7,0.3,1.3,0.6,1.7,1.1s0.6,1,0.6,1.7c0,1-0.4,1.8-1.1,2.4s-1.8,0.9-3.2,0.9c-1.2,0-2.1-0.2-2.8-0.6
		c-0.7-0.4-1.2-1.1-1.5-2.2l2.1-0.7c0.2,0.7,0.5,1.1,0.9,1.3c0.4,0.2,0.8,0.3,1.3,0.3c0.7,0,1.2-0.2,1.6-0.5
		c0.3-0.3,0.5-0.7,0.5-1.1c0-0.5-0.2-0.8-0.6-1.1c-0.4-0.3-0.9-0.4-1.7-0.4h-0.5v-1.7h0.3c0.7,0,1.2-0.2,1.6-0.5
		c0.4-0.3,0.6-0.7,0.6-1.2c0-0.4-0.1-0.8-0.4-1c-0.3-0.3-0.7-0.4-1.3-0.4C297.8,453.3,297.2,453.8,296.9,454.7z"/>
	<path fill="#FFFFFF" d="M305.8,462.9v-11.2h3.4l2,7.7l2-7.7h3.4v11.2h-2.1V454l-2.2,8.8h-2.2l-2.2-8.8v8.8H305.8z"/>
	<path fill="#FFFFFF" d="M329.7,462.9h-2.5l-1-2.5h-4.5l-0.9,2.5h-2.4l4.4-11.2h2.4L329.7,462.9z M325.5,458.4l-1.5-4.2l-1.5,4.2
		H325.5z"/>
	<path fill="#FFFFFF" d="M331.6,451.6h2.1v7.5l4.5-7.5h2.3v11.2h-2.1v-7.3l-4.5,7.3h-2.3V451.6z M337.5,448.8h1
		c-0.1,0.7-0.3,1.2-0.7,1.6c-0.4,0.4-1,0.6-1.7,0.6s-1.2-0.2-1.7-0.6c-0.4-0.4-0.7-0.9-0.7-1.6h1c0,0.4,0.2,0.6,0.4,0.8
		s0.5,0.3,1,0.3c0.4,0,0.7-0.1,1-0.3C337.3,449.5,337.4,449.2,337.5,448.8z"/>
	<path fill="#FFFFFF" d="M344.4,451.6h7.9v11.2H350v-9.3h-3.4v4.8c0,1.4,0,2.3-0.1,2.9s-0.3,1-0.7,1.3c-0.4,0.3-0.9,0.5-1.7,0.5
		c-0.3,0-0.7,0-1.4-0.1v-1.8l0.5,0c0.5,0,0.8-0.1,1-0.2c0.2-0.1,0.2-0.4,0.2-0.9l0-1.9V451.6z"/>
	<path fill="#FFFFFF" d="M354.8,457.3c0-1.1,0.2-2.1,0.5-2.9c0.3-0.6,0.6-1.1,1-1.5s0.9-0.8,1.5-1c0.7-0.3,1.5-0.4,2.4-0.4
		c1.7,0,3,0.5,4,1.5c1,1,1.5,2.5,1.5,4.3c0,1.8-0.5,3.2-1.5,4.3s-2.3,1.5-4,1.5c-1.7,0-3-0.5-4-1.5
		C355.3,460.5,354.8,459.1,354.8,457.3z M357.1,457.2c0,1.3,0.3,2.2,0.9,2.9c0.6,0.7,1.3,1,2.2,1c0.9,0,1.6-0.3,2.2-1
		c0.6-0.7,0.9-1.6,0.9-2.9c0-1.3-0.3-2.2-0.8-2.9c-0.6-0.6-1.3-0.9-2.2-0.9c-0.9,0-1.7,0.3-2.3,1S357.1,456,357.1,457.2z"/>
	<path fill="#FFFFFF" d="M368.2,451.6h4.5c0.9,0,1.5,0,2,0.1s0.8,0.2,1.2,0.5c0.3,0.2,0.6,0.5,0.9,0.9c0.2,0.4,0.3,0.8,0.3,1.3
		c0,0.5-0.1,1-0.4,1.4c-0.3,0.4-0.7,0.8-1.2,1c0.7,0.2,1.2,0.5,1.6,1c0.4,0.5,0.6,1,0.6,1.7c0,0.5-0.1,1-0.4,1.5s-0.6,0.9-1,1.2
		c-0.4,0.3-0.9,0.5-1.5,0.5c-0.4,0-1.3,0.1-2.7,0.1h-3.8V451.6z M370.4,453.5v2.6h1.5c0.9,0,1.4,0,1.6,0c0.4,0,0.7-0.2,0.9-0.4
		c0.2-0.2,0.3-0.5,0.3-0.9c0-0.3-0.1-0.6-0.3-0.8c-0.2-0.2-0.5-0.3-0.9-0.4c-0.2,0-0.9,0-1.9,0H370.4z M370.4,458v3h2.1
		c0.8,0,1.3,0,1.6-0.1c0.3-0.1,0.6-0.2,0.8-0.4s0.3-0.6,0.3-1c0-0.3-0.1-0.6-0.2-0.9c-0.2-0.2-0.4-0.4-0.7-0.5c-0.3-0.1-1-0.2-2-0.2
		H370.4z"/>
	<path fill="#FFFFFF" d="M386.7,458.7l2.2,0.7c-0.3,1.2-0.9,2.1-1.7,2.7c-0.8,0.6-1.8,0.9-3,0.9c-1.5,0-2.7-0.5-3.7-1.5
		c-1-1-1.4-2.4-1.4-4.2c0-1.9,0.5-3.3,1.4-4.4s2.2-1.6,3.8-1.6c1.4,0,2.5,0.4,3.3,1.2c0.5,0.5,0.9,1.2,1.1,2.1l-2.2,0.5
		c-0.1-0.6-0.4-1-0.8-1.4c-0.4-0.3-0.9-0.5-1.5-0.5c-0.8,0-1.5,0.3-2,0.9c-0.5,0.6-0.8,1.6-0.8,2.9c0,1.4,0.3,2.4,0.8,3
		s1.2,0.9,2,0.9c0.6,0,1.1-0.2,1.6-0.6C386.2,460.2,386.6,459.6,386.7,458.7z"/>
	<path fill="#FFFFFF" d="M391.6,451.6h2.3v4.8c0.5-0.1,0.8-0.2,1-0.4c0.2-0.2,0.5-0.8,0.8-1.7c0.5-1.2,0.9-2,1.4-2.3
		c0.5-0.3,1.2-0.4,2.3-0.4c0.1,0,0.2,0,0.3,0v1.7l-0.3,0c-0.5,0-0.8,0.1-1,0.2c-0.2,0.1-0.4,0.3-0.5,0.5c-0.1,0.2-0.3,0.7-0.6,1.4
		c-0.1,0.4-0.3,0.7-0.4,1c-0.2,0.3-0.4,0.5-0.9,0.7c0.5,0.1,0.9,0.4,1.3,0.9c0.3,0.4,0.7,1,1.1,1.8l1.5,3.1h-2.7l-1.3-2.9
		c0,0-0.1-0.1-0.1-0.2c0,0-0.1-0.2-0.3-0.5c-0.3-0.6-0.5-0.9-0.7-1s-0.5-0.2-0.9-0.2v4.9h-2.3V451.6z"/>
	<path fill="#FFFFFF" d="M401.4,457.3c0-1.1,0.2-2.1,0.5-2.9c0.3-0.6,0.6-1.1,1-1.5s0.9-0.8,1.5-1c0.7-0.3,1.5-0.4,2.4-0.4
		c1.7,0,3,0.5,4,1.5c1,1,1.5,2.5,1.5,4.3c0,1.8-0.5,3.2-1.5,4.3s-2.3,1.5-4,1.5c-1.7,0-3-0.5-4-1.5
		C401.9,460.5,401.4,459.1,401.4,457.3z M403.7,457.2c0,1.3,0.3,2.2,0.9,2.9c0.6,0.7,1.3,1,2.2,1c0.9,0,1.6-0.3,2.2-1
		c0.6-0.7,0.9-1.6,0.9-2.9c0-1.3-0.3-2.2-0.8-2.9c-0.6-0.6-1.3-0.9-2.2-0.9c-0.9,0-1.7,0.3-2.3,1S403.7,456,403.7,457.2z"/>
	<path fill="#FFFFFF" d="M414.7,462.9v-11.2h3.4l2,7.7l2-7.7h3.4v11.2h-2.1V454l-2.2,8.8H419l-2.2-8.8v8.8H414.7z"/>
</g>
</svg>
