<?xml version="1.0" encoding="utf-8"?>
<!-- Generator: Adobe Illustrator 18.0.0, SVG Export Plug-In . SVG Version: 6.00 Build 0)  -->
<!DOCTYPE svg PUBLIC "-//W3C//DTD SVG 1.1//EN" "http://www.w3.org/Graphics/SVG/1.1/DTD/svg11.dtd">
<svg version="1.1" id="Layer_1" xmlns="http://www.w3.org/2000/svg" xmlns:xlink="http://www.w3.org/1999/xlink" x="0px" y="0px"
	 viewBox="0 0 32 32" enable-background="new 0 0 32 32" xml:space="preserve">
<polygon fill="#071DA0" points="0,0 0,32 32,32 32,0 0,0 "/>
<path fill-rule="evenodd" clip-rule="evenodd" fill="#FFFFFF" d="M9.6,7.3h7.6c2.5,0,4.6,1.2,4.6,3.7c0,2.1-0.8,2.9-2.3,3.8
	c0.1,0.1,1,0.4,1.3,0.5c0.5,0.2,0.8,0.5,1.1,0.8c0.9,0.9,1,1.7,1,3.1c0,3.2-3.1,4.9-6.1,4.9H9.5L9.6,7.3L9.6,7.3z M13.7,11.7l0,2.2
	c2,0,3.8,0.3,3.8-1.9c0-2-2.1-1.6-3.8-1.6L13.7,11.7L13.7,11.7z M13.7,21c2.1,0,4.8,0.4,4.8-2.1c0-2.5-2.7-2.1-4.8-2.1L13.7,21
	L13.7,21z"/>
</svg>
