<?xml version="1.0" encoding="utf-8"?>
<!-- Generator: Adobe Illustrator 18.0.0, SVG Export Plug-In . SVG Version: 6.00 Build 0)  -->
<!DOCTYPE svg PUBLIC "-//W3C//DTD SVG 1.1//EN" "http://www.w3.org/Graphics/SVG/1.1/DTD/svg11.dtd">
<svg version="1.1" id="Layer_1" xmlns="http://www.w3.org/2000/svg" xmlns:xlink="http://www.w3.org/1999/xlink" x="0px" y="0px"
	 viewBox="0 0 32 32" enable-background="new 0 0 32 32" xml:space="preserve">
<g>
	<polygon fill="#071DA0" points="0,0 0,32 32,32 32,0 0,0 	"/>
	<path fill-rule="evenodd" clip-rule="evenodd" fill="#FFFFFF" d="M8.3,10.2c1.5,0,2.5-1,2.5-2.3c0-1.3-1-2.3-2.5-2.3
		c-1.5,0-2.5,1-2.5,2.3C5.9,9.2,6.8,10.2,8.3,10.2L8.3,10.2L8.3,10.2z M10.5,25.2V12H6.1v13.2H10.5L10.5,25.2z"/>
	<path fill-rule="evenodd" clip-rule="evenodd" fill="#FFFFFF" d="M12.9,25.2h4.4v-7.4c0-0.4,0-0.8,0.1-1.1c0.3-0.8,1-1.6,2.2-1.6
		c1.6,0,2.2,1.2,2.2,3v7.1h4.4v-7.6c0-4-2.2-5.9-5-5.9c-2.4,0-3.4,1.3-4,2.2h0V12h-4.4C13,13.2,12.9,25.2,12.9,25.2L12.9,25.2
		L12.9,25.2z"/>
</g>
</svg>
