<?xml version="1.0" encoding="utf-8"?>
<!-- Generator: Adobe Illustrator 18.0.0, SVG Export Plug-In . SVG Version: 6.00 Build 0)  -->
<!DOCTYPE svg PUBLIC "-//W3C//DTD SVG 1.1//EN" "http://www.w3.org/Graphics/SVG/1.1/DTD/svg11.dtd">
<svg version="1.1" id="Layer_1" xmlns="http://www.w3.org/2000/svg" xmlns:xlink="http://www.w3.org/1999/xlink" x="0px" y="0px"
	 viewBox="123.3 0 595.3 595.3" enable-background="new 123.3 0 595.3 595.3" xml:space="preserve">
<g>
	<polygon fill="#0171AA" points="123.3,0 123.3,595.3 718.6,595.3 718.6,0 	"/>
	<path fill="#FFFFFF" d="M277.7,189.7c27.9,0,46.5-18.6,46.5-42.8s-18.6-42.8-46.5-42.8c-27.9,0-46.5,18.6-46.5,42.8
		C233.1,171.1,249.8,189.7,277.7,189.7L277.7,189.7L277.7,189.7z M318.6,468.8V223.2h-81.9v245.6H318.6L318.6,468.8z"/>
	<path fill="#FFFFFF" d="M363.3,468.8h81.9V331.1c0-7.4,0-14.9,1.9-20.5c5.6-14.9,18.6-29.8,40.9-29.8c29.8,0,40.9,22.3,40.9,55.8
		v132.1h81.9V327.4c0-74.4-40.9-109.8-93-109.8c-44.6,0-63.2,24.2-74.4,40.9l0,0v-35.3h-81.9C365.1,245.6,363.3,468.8,363.3,468.8
		L363.3,468.8L363.3,468.8z"/>
</g>
</svg>
