<?xml version="1.0" encoding="utf-8"?>
<!-- Generator: Adobe Illustrator 18.0.0, SVG Export Plug-In . SVG Version: 6.00 Build 0)  -->
<!DOCTYPE svg PUBLIC "-//W3C//DTD SVG 1.1//EN" "http://www.w3.org/Graphics/SVG/1.1/DTD/svg11.dtd">
<svg version="1.1" id="Layer_1" xmlns="http://www.w3.org/2000/svg" xmlns:xlink="http://www.w3.org/1999/xlink" x="0px" y="0px"
	 viewBox="123.3 0 595.3 595.3" enable-background="new 123.3 0 595.3 595.3" xml:space="preserve">
<polyline fill="#526695" points="718.6,0 123.3,0 123.3,595.3 718.6,595.3 "/>
<path fill="#FFFFFF" d="M337.2,236.3h37.2v-16.7v-16.7v-1.9c0-16.7,0-40.9,11.2-55.8c13-16.7,29.8-27.9,57.7-27.9
	c46.5,0,67,7.4,67,7.4l-9.3,55.8c0,0-14.9-3.7-29.8-3.7c-14.9,0-27.9,5.6-27.9,20.5v5.6v18.6v16.7h59.5l-3.7,53.9h-55.8v187.9h-70.7
	V290.2h-37.2v-53.9H337.2z"/>
</svg>
