<?xml version="1.0" encoding="utf-8"?>
<!-- Generator: Adobe Illustrator 18.0.0, SVG Export Plug-In . SVG Version: 6.00 Build 0)  -->
<!DOCTYPE svg PUBLIC "-//W3C//DTD SVG 1.1//EN" "http://www.w3.org/Graphics/SVG/1.1/DTD/svg11.dtd">
<svg version="1.1" id="Layer_1" xmlns="http://www.w3.org/2000/svg" xmlns:xlink="http://www.w3.org/1999/xlink" x="0px" y="0px"
	 viewBox="0 0 32 32" enable-background="new 0 0 32 32" xml:space="preserve">
<g>
	<polygon fill="#071DA0" points="32,0 0,0 0,32 32,32 32,0 	"/>
	<path fill="#FFFFFF" d="M11.5,12.7h2v-0.9v-0.9v-0.1c0-0.9,0-2.2,0.6-3c0.7-0.9,1.6-1.5,3.1-1.5c2.5,0,3.6,0.4,3.6,0.4l-0.5,3
		c0,0-0.8-0.2-1.6-0.2c-0.8,0-1.5,0.3-1.5,1.1v0.3v1v0.9h3.2l-0.2,2.9h-3v10.1h-3.8V15.6h-2V12.7L11.5,12.7z"/>
</g>
</svg>
