<?xml version="1.0" encoding="utf-8"?>
<!-- Generator: Adobe Illustrator 18.0.0, SVG Export Plug-In . SVG Version: 6.00 Build 0)  -->
<!DOCTYPE svg PUBLIC "-//W3C//DTD SVG 1.1//EN" "http://www.w3.org/Graphics/SVG/1.1/DTD/svg11.dtd">
<svg version="1.1" id="Layer_1" xmlns="http://www.w3.org/2000/svg" xmlns:xlink="http://www.w3.org/1999/xlink" x="0px" y="0px"
	 viewBox="123.3 0 595.3 595.3" enable-background="new 123.3 0 595.3 595.3" xml:space="preserve">
<polygon fill="#537598" points="123.3,0 123.3,595.3 718.6,595.3 718.6,0 "/>
<path fill="#FFFFFF" d="M301.9,135.8h141.4c46.5,0,85.6,22.3,85.6,68.8c0,39.1-14.9,53.9-42.8,70.7c1.9,1.9,18.6,7.4,24.2,9.3
	c9.3,3.7,14.9,9.3,20.5,14.9c16.7,16.7,18.6,31.6,18.6,57.7c0,59.5-57.7,91.2-113.5,91.2H300L301.9,135.8L301.9,135.8z M378.2,217.6
	v40.9c37.2,0,70.7,5.6,70.7-35.3c0-37.2-39.1-29.8-70.7-29.8V217.6L378.2,217.6z M378.2,390.7c39.1,0,89.3,7.4,89.3-39.1
	s-50.2-39.1-89.3-39.1V390.7L378.2,390.7z"/>
</svg>
