<?xml version="1.0" encoding="utf-8"?>
<!-- Generator: Adobe Illustrator 17.1.0, SVG Export Plug-In . SVG Version: 6.00 Build 0)  -->
<!DOCTYPE svg PUBLIC "-//W3C//DTD SVG 1.1//EN" "http://www.w3.org/Graphics/SVG/1.1/DTD/svg11.dtd">
<svg version="1.1" id="Слой_1" xmlns="http://www.w3.org/2000/svg" xmlns:xlink="http://www.w3.org/1999/xlink" x="0px" y="0px"
	 viewBox="0 0 1190.6 841.9" enable-background="new 0 0 1190.6 841.9" xml:space="preserve">
<polygon opacity="0.66" fill="#FFFFFF" enable-background="new    " points="15.2,119.9 15.2,827.3 876.1,827.3 876.1,608.5 
	1174,608.5 1174,17.8 687.7,17.8 687.7,119.9 "/>
<g>
	<path fill="#DBDB39" d="M579.2,605.7c-12.4,0-22.5-3.7-29.9-10.6s-11-18.4-11-34.5c-13.3,16.1-29,27.6-46.4,34.5
		c-17.9,6.9-36.8,10.6-57.5,10.6c-13.3,0-25.7-1.4-37.7-4.1c-12-2.8-22.1-7.8-31.3-14.2c-8.7-6.4-16.1-15.2-21.1-25.7
		c-5.1-10.6-7.8-23-7.8-38.2c0-16.5,2.8-30.3,8.7-40.9c6-10.6,13.3-19.3,22.5-26.2c9.2-6.4,19.8-11.5,32.2-15.2
		c12-3.2,24.4-6.4,36.8-8.7c13.3-2.8,26.2-4.6,38.2-6c12-1.4,22.5-3.2,31.7-5.5s16.5-6,21.6-11c5.5-4.6,8.3-11.5,8.3-20.7
		c0-10.6-1.8-19.3-6-25.7c-4.1-6.4-9.2-11.5-15.6-14.7c-6.4-3.7-13.3-5.5-21.1-6.9c-7.8-0.9-15.6-1.8-23-1.8
		c-20.7,0-37.7,3.7-51.5,11.5c-13.8,7.8-21.1,22.5-22.1,44.1H348c0.9-18.4,4.6-33.6,11.5-46.4c6.9-12.4,16.1-23,27.6-30.3
		c11.5-7.8,24.4-13.3,39.5-17c14.7-3.2,30.3-5.1,46.9-5.1c13.3,0,26.7,0.9,39.5,2.8c12.9,1.8,24.8,6,35.9,12
		c10.6,6,19.3,14.2,25.7,24.8c6.4,10.6,9.7,24.4,9.7,41.8v151.7c0,11.5,0.9,19.8,1.8,25.3c1.4,5.1,6,7.8,13.3,7.8
		c4.1,0,9.2-0.9,14.7-2.8v37.7C605.8,603.4,594.4,605.7,579.2,605.7z M511.2,457.3c-10.1,2.3-20.2,3.7-31.3,5.1
		c-10.6,1.4-21.6,2.8-32.6,4.6c-11,1.8-20.7,4.6-29.9,8.3c-8.7,3.7-16.1,9.2-21.6,16.5c-5.5,6.9-8.3,16.5-8.3,29
		c0,7.8,1.4,14.7,4.6,20.2c3.2,5.5,7.4,10.1,12.4,13.3c5.1,3.2,11,6,18.4,7.4c6.9,1.4,14.2,2.3,21.6,2.3c16.1,0,29.9-2.3,40.9-6.4
		c11.5-4.1,20.7-9.7,28-16.5c7.4-6.4,12.4-13.8,16.1-21.6c3.2-7.8,5.1-15.2,5.1-22.1v-50.1C529.1,451.7,521.3,455,511.2,457.3z"/>
	<path fill="#DBDB39" d="M185.2,401.2c-26.2,0-47.8-21.6-47.8-47.8s21.6-47.8,47.8-47.8s47.8,21.6,47.8,47.8
		C233.1,379.6,211.4,401.2,185.2,401.2z M185.2,324.9c-16.1,0-29,12.9-29,29c0,16.1,12.9,29,29,29s29-12.9,29-29
		C214.2,337.7,201.3,324.9,185.2,324.9z"/>
	<g enable-background="new    ">
		<path fill="#DBDB39" d="M711.4,333.7c5.6-9,13.7-12.5,24.4-12.5c20.2,0,33,14.6,33,38s-12.6,38.4-32.4,38.4
			c-10.7,0-18.1-3.5-24.3-11.9v38h-11.9V323.4h11.2V333.7z M711.7,359.3c0,17.5,8.7,28.2,22.7,28.2c13.6,0,22-10.8,22-28.2
			c0-17.5-8.4-28.2-22.4-28.2C720.1,331.1,711.7,341.8,711.7,359.3z"/>
		<path fill="#DBDB39" d="M862.4,334.1c-1.3-0.1-1.8-0.1-3.1-0.1c-19.6,0-23.1,15-23.1,31.3v30.6h-11.9v-72.4h11.4V339
			c5-12.2,13.9-17.2,26.8-17.2v12.3L862.4,334.1L862.4,334.1z"/>
		<path fill="#DBDB39" d="M976.6,359.2c0,24.5-12.8,38.8-34.8,38.8c-22.2,0-35.3-14.3-35.3-38.1s13.6-38.6,35.5-38.6
			C963.8,321.3,976.6,335.2,976.6,359.2z M918.8,359.6c0,17.8,8.6,28.3,23.1,28.3c14,0,22.4-10.7,22.4-28.5
			c0-17.2-8.7-28.2-22.7-28.2C927.6,331.2,918.8,342.4,918.8,359.6z"/>
	</g>
</g>
<polygon fill="none" stroke="#DBDB39" stroke-width="14" stroke-miterlimit="10" points="15.2,117.1 15.2,824.5 838.9,824.5 
	838.9,605.7 1174.5,605.7 1174.5,15.1 687.7,15.1 687.7,117.1 "/>
</svg>
