<?xml version="1.0" encoding="utf-8"?>
<!-- Generator: Adobe Illustrator 17.1.0, SVG Export Plug-In . SVG Version: 6.00 Build 0)  -->
<!DOCTYPE svg PUBLIC "-//W3C//DTD SVG 1.1//EN" "http://www.w3.org/Graphics/SVG/1.1/DTD/svg11.dtd">
<svg version="1.1" id="Layer_1" xmlns="http://www.w3.org/2000/svg" xmlns:xlink="http://www.w3.org/1999/xlink" x="0px" y="0px"
	 viewBox="0 0 1190.6 841.9" enable-background="new 0 0 1190.6 841.9" xml:space="preserve">
<g>
	<polygon opacity="0.66" fill="#160333" enable-background="new    " points="175.4,223 175.4,835.2 1114.1,835.2 1114.1,216 
		1005.1,216 1005.1,7.4 77,7.4 77,223 	"/>
	<rect x="277.5" y="562.3" fill="none" width="877" height="360.3"/>
	<g enable-background="new    ">
		<path fill="#DDDD14" d="M288.1,582.3c-5.7,0-9.4-4.1-9.4-10.2c0-5.7,3.6-10.2,9.6-10.2c4.7,0,8.1,3,8.4,7h-4.2
			c-0.4-2.1-2-3.4-4.3-3.4c-3.8,0-5.2,3.4-5.2,6.6c0,4,2,6.6,5.2,6.6c2.6,0,4.1-1.5,4.5-4.4h4.2C296.4,579,293.4,582.3,288.1,582.3z
			"/>
		<path fill="#DDDD14" d="M316.2,581.8v-11.2h-5.5v11.2h-3.9v-14.1h13.2v14.1H316.2z"/>
		<path fill="#DDDD14" d="M330,582.2c-4.4,0-7.3-3-7.3-7.5c0-4.5,2.9-7.5,7.4-7.5c4.4,0,7.2,3,7.2,7.5
			C337.3,579.3,334.4,582.2,330,582.2z M330,570.2c-2.1,0-3.4,1.7-3.4,4.5c0,2.9,1.3,4.6,3.4,4.6c2.1,0,3.4-1.7,3.4-4.6
			C333.4,571.9,332.1,570.2,330,570.2z"/>
		<path fill="#DDDD14" d="M353,581.8V571h-0.1l-2.8,10.7h-3.7l-2.8-10.7h-0.1v10.7h-3.7v-14.1h5.6l2.7,10.3h0.1l2.7-10.3h5.6v14.1
			H353z"/>
		<path fill="#DDDD14" d="M366.6,582.2c-4.4,0-7.3-3-7.3-7.5c0-4.5,2.9-7.5,7.4-7.5c4.4,0,7.2,3,7.2,7.5
			C373.8,579.3,371,582.2,366.6,582.2z M366.5,570.2c-2.1,0-3.4,1.7-3.4,4.5c0,2.9,1.3,4.6,3.4,4.6c2.1,0,3.4-1.7,3.4-4.6
			C370,571.9,368.7,570.2,366.5,570.2z"/>
		<path fill="#DDDD14" d="M376.4,567.6h3.9v11.2h4.1v-11.2h3.9v11.2h4.1v-11.2h3.9v11.2h1.8v7.2h-3.6v-4.2h-18V567.6z"/>
		<path fill="#DDDD14" d="M407.2,581.8h-7.4v-14.1h3.8v4.9h3.8c2.9,0,5.2,1.6,5.2,4.6C412.5,580.3,410.2,581.8,407.2,581.8z
			 M403.6,579.1h2.7c1.4,0,2.4-0.6,2.4-2s-1-2-2.4-2h-2.6V579.1z"/>
		<path fill="#DDDD14" d="M418.5,575.8v6h-3.9v-14.1h3.9v5.4h2.8c0.6-3.5,3-5.8,6.8-5.8c4.2,0,6.8,3,6.8,7.5c0,4.5-2.6,7.5-6.9,7.5
			c-4,0-6.5-2.5-6.9-6.5H418.5z M428,570.2c-1.9,0-3,1.7-3,4.5c0,2.9,1.1,4.6,3,4.6c1.9,0,3-1.7,3-4.6
			C431,571.9,429.9,570.2,428,570.2z"/>
		<path fill="#DDDD14" d="M451.1,582.1c-3.6,0-6-1.9-6.7-5.2h3.8c0.4,1.5,1.4,2.3,2.9,2.3c1.8,0,3-1.3,3.2-3.5h-4.5v-2.5h4.5
			c-0.4-2-1.5-3.1-3.2-3.1c-1.4,0-2.4,0.8-2.7,2.1h-3.9c0.5-3.1,3-5,6.6-5c4.4,0,7.3,3,7.3,7.6C458.3,579.2,455.5,582.1,451.1,582.1
			z"/>
		<path fill="#DDDD14" d="M467.6,570.6v11.2h-3.9v-11.2h-4.7v-3h13.2v3H467.6z"/>
		<path fill="#DDDD14" d="M480.4,582.2c-4.4,0-7.3-3-7.3-7.5c0-4.5,2.9-7.5,7.4-7.5c4.4,0,7.2,3,7.2,7.5
			C487.7,579.3,484.8,582.2,480.4,582.2z M480.4,570.2c-2.1,0-3.4,1.7-3.4,4.5c0,2.9,1.3,4.6,3.4,4.6c2.1,0,3.4-1.7,3.4-4.6
			C483.8,571.9,482.5,570.2,480.4,570.2z"/>
		<path fill="#DDDD14" d="M494.2,570.6v11.2h-3.9v-14.1H501v3H494.2z"/>
		<path fill="#DDDD14" d="M508.9,582.2c-4.4,0-7.3-3-7.3-7.5c0-4.5,2.9-7.5,7.4-7.5c4.4,0,7.2,3,7.2,7.5
			C516.1,579.3,513.3,582.2,508.9,582.2z M508.8,570.2c-2.1,0-3.4,1.7-3.4,4.5c0,2.9,1.3,4.6,3.4,4.6c2.1,0,3.4-1.7,3.4-4.6
			C512.3,571.9,511,570.2,508.8,570.2z"/>
		<path fill="#DDDD14" d="M535.8,581.8v-9.6l-5,9.6h-4.4v-14.1h3.7v9.6l5-9.6h4.4v14.1H535.8z"/>
		<path fill="#DDDD14" d="M551.9,581.8v-5.9h-5.5v5.9h-3.9v-14.1h3.9v5.1h5.5v-5.1h3.9v14.1H551.9z"/>
		<path fill="#DDDD14" d="M565.5,582.1c-4.4,0-7.2-2.9-7.2-7.3c0-4.6,2.9-7.6,7.3-7.6c3.8,0,6.3,2.1,6.6,5.3h-3.8
			c-0.3-1.6-1.3-2.4-2.8-2.4c-2.1,0-3.4,1.7-3.4,4.6c0,2.8,1.2,4.4,3.3,4.4c1.7,0,2.7-1,3-2.8h3.8
			C571.8,580,569.3,582.1,565.5,582.1z"/>
		<path fill="#DDDD14" d="M581.4,570.6v11.2h-3.9v-11.2h-4.7v-3H586v3H581.4z"/>
		<path fill="#DDDD14" d="M591.4,569.4c1-1.5,2.6-2.1,4.4-2.1c3.8,0,6.3,3,6.3,7.5c0,4.4-2.4,7.3-6.1,7.3c-1.8,0-3.3-0.7-4.4-2.1
			v6.8h-3.9v-19.2h3.7V569.4z M591.5,574.7c0,2.7,1.3,4.4,3.4,4.4c2.1,0,3.3-1.6,3.3-4.3c0-2.8-1.3-4.4-3.4-4.4
			C592.7,570.4,591.5,572,591.5,574.7z"/>
		<path fill="#DDDD14" d="M611.8,581.7c-1.2,3.1-1.8,5.1-5.4,5.1c-1.2,0-0.7,0-2.6,0v-3.2h1.9c1.3,0,2-0.7,2-1.9
			c0-0.1-0.1-0.4-0.1-0.5l-5.1-13.5h4.2l3.2,9.6l3.1-9.6h4L611.8,581.7z"/>
		<path fill="#DDDD14" d="M631.5,581.8V571h-0.1l-2.8,10.7H625l-2.8-10.7h-0.1v10.7h-3.7v-14.1h5.6l2.7,10.3h0.1l2.7-10.3h5.6v14.1
			H631.5z"/>
		<path fill="#DDDD14" d="M644.8,582.2c-4.4,0-7.2-3-7.2-7.4c0-4.4,3-7.6,7.1-7.6c4.3,0,7,3.1,7,8.1v0.4h-10.1
			c0.1,2.4,1.2,3.8,3.3,3.8c1.4,0,2.3-0.6,2.9-2.1h3.7C650.6,580.5,648,582.2,644.8,582.2z M644.7,570.1c-1.7,0-2.9,1.2-3.2,3.2h6.2
			C647.6,571.5,646.6,570.1,644.7,570.1z"/>
		<path fill="#DDDD14" d="M663.3,581.8v-5.9h-5.5v5.9h-3.9v-14.1h3.9v5.1h5.5v-5.1h3.9v14.1H663.3z"/>
		<path fill="#DDDD14" d="M677.5,570.6v11.2h-3.9v-11.2h-4.7v-3h13.2v3H677.5z"/>
		<path fill="#DDDD14" d="M692.6,581.8c-0.2-0.5-0.2-0.7-0.3-1.4c-1.2,1.2-2.9,1.8-4.6,1.8c-3.1,0-5-1.6-5-4.3
			c0-3.7,3.4-4.1,6.2-4.5c2.5-0.3,3.5-0.5,3.5-1.7c0-1.3-0.8-1.9-2.5-1.9c-1.8,0-2.5,0.5-2.8,2.2h-3.6c0.2-3.2,2.5-4.8,6.5-4.8
			c2.9,0,6.2,0.7,6.2,4.6v6.1c0,1.3,0,2.6,0.5,3.8H692.6z M689.5,575.6c-1.3,0.2-2.8,0.4-2.8,2.1c0,1.2,0.8,1.9,2.1,1.9
			c2,0,3.5-1.1,3.5-3.2v-1.6C691.4,575.4,690.5,575.5,689.5,575.6z"/>
		<path fill="#DDDD14" d="M714.8,567.6c2.5,0,4.5,1,4.5,3.6c0,1.4-0.8,2.4-1.9,2.9c1.5,0.4,2.6,1.5,2.6,3.5c0,2.8-2.1,4.2-4.8,4.2
			h-8.5v-14.1H714.8z M713.1,573.3c1.2,0,2.3-0.2,2.3-1.6c0-1.4-1.1-1.6-2.3-1.6h-2.6v3.2H713.1z M713.4,579.3
			c1.3,0,2.6-0.2,2.6-1.9c0-1.6-1.3-1.9-2.7-1.9h-2.7v3.8H713.4z"/>
		<path fill="#DDDD14" d="M729,581.8h-6.7v-14.1h3.8v4.9h3.1c2.8,0,5.2,1.6,5.2,4.6C734.3,580.3,732,581.8,729,581.8z M726.1,579.1
			h2c1.4,0,2.4-0.6,2.4-2s-1-2-2.4-2h-1.9V579.1z M740,567.6v14.1h-3.9v-14.1H740z"/>
		<path fill="#DDDD14" d="M757.1,582.1c-4.4,0-7.2-2.9-7.2-7.3c0-4.6,2.9-7.6,7.3-7.6c3.8,0,6.3,2.1,6.6,5.3h-3.8
			c-0.3-1.6-1.3-2.4-2.8-2.4c-2.1,0-3.4,1.7-3.4,4.6c0,2.8,1.2,4.4,3.3,4.4c1.7,0,2.7-1,3-2.8h3.8
			C763.3,580,760.8,582.1,757.1,582.1z"/>
		<path fill="#DDDD14" d="M779.2,581.8V571h-0.1l-2.8,10.7h-3.7l-2.8-10.7h-0.1v10.7h-3.7v-14.1h5.6l2.7,10.3h0.1l2.7-10.3h5.6v14.1
			H779.2z"/>
		<path fill="#DDDD14" d="M792.8,582.2c-4.4,0-7.3-3-7.3-7.5c0-4.5,2.9-7.5,7.4-7.5c4.4,0,7.2,3,7.2,7.5
			C800.1,579.3,797.2,582.2,792.8,582.2z M792.7,570.2c-2.1,0-3.4,1.7-3.4,4.5c0,2.9,1.3,4.6,3.4,4.6c2.1,0,3.4-1.7,3.4-4.6
			C796.2,571.9,794.9,570.2,792.7,570.2z"/>
		<path fill="#DDDD14" d="M805.1,581.8h-4.6l5.5-8.8l-4.8-5.4h4.4l4.4,5.6v-5.6h3.7v5.6l4.4-5.6h4.4l-4.9,5.5l5.5,8.7h-4.6l-3.4-5.9
			l-1.5,1.7v4.2h-3.7v-4.2l-1.5-1.7L805.1,581.8z"/>
		<path fill="#DDDD14" d="M830.8,582.2c-4.4,0-7.2-3-7.2-7.4c0-4.4,3-7.6,7.1-7.6c4.3,0,7,3.1,7,8.1v0.4h-10.1
			c0.1,2.4,1.2,3.8,3.3,3.8c1.4,0,2.3-0.6,2.9-2.1h3.7C836.6,580.5,834,582.2,830.8,582.2z M830.7,570.1c-1.7,0-2.9,1.2-3.2,3.2h6.2
			C833.5,571.5,832.6,570.1,830.7,570.1z"/>
		<path fill="#DDDD14" d="M846.7,570.6v11.2h-3.9v-11.2h-4.7v-3h13.2v3H846.7z"/>
		<path fill="#DDDD14" d="M859.2,582.2c-4.4,0-7.2-3-7.2-7.4c0-4.4,3-7.6,7.1-7.6c4.3,0,7,3.1,7,8.1v0.4H856
			c0.1,2.4,1.2,3.8,3.3,3.8c1.4,0,2.3-0.6,2.9-2.1h3.7C865,580.5,862.4,582.2,859.2,582.2z M859.1,570.1c-1.7,0-2.9,1.2-3.2,3.2h6.2
			C862,571.5,861,570.1,859.1,570.1z"/>
	</g>
	<g enable-background="new    ">
		<path fill="#DDDD14" d="M287,622.5c2.5,0,4.5,1,4.5,3.6c0,1.4-0.8,2.4-1.9,2.9c1.5,0.4,2.6,1.5,2.6,3.5c0,2.8-2.1,4.2-4.8,4.2
			h-8.5v-14.1H287z M285.3,628.2c1.2,0,2.3-0.2,2.3-1.6c0-1.4-1.1-1.6-2.3-1.6h-2.6v3.2H285.3z M285.6,634.1c1.3,0,2.6-0.2,2.6-1.9
			c0-1.6-1.3-1.9-2.7-1.9h-2.7v3.8H285.6z"/>
		<path fill="#DDDD14" d="M306,624.2c1-1.5,2.6-2.1,4.4-2.1c3.8,0,6.3,3,6.3,7.5c0,4.4-2.4,7.3-6.1,7.3c-1.8,0-3.3-0.7-4.4-2.1v6.8
			h-3.9v-19.2h3.7V624.2z M306,629.6c0,2.7,1.3,4.4,3.4,4.4c2.1,0,3.3-1.6,3.3-4.3c0-2.8-1.3-4.4-3.4-4.4
			C307.3,625.2,306,626.8,306,629.6z"/>
		<path fill="#DDDD14" d="M328.3,636.6c-0.2-0.5-0.2-0.7-0.3-1.4c-1.2,1.2-2.9,1.8-4.6,1.8c-3.1,0-5-1.6-5-4.3
			c0-3.7,3.4-4.1,6.2-4.5c2.5-0.3,3.5-0.5,3.5-1.7c0-1.3-0.8-1.9-2.5-1.9c-1.8,0-2.5,0.5-2.8,2.2H319c0.2-3.2,2.5-4.8,6.5-4.8
			c2.9,0,6.2,0.7,6.2,4.6v6.1c0,1.3,0,2.6,0.5,3.8H328.3z M325.2,630.5c-1.3,0.2-2.9,0.4-2.9,2.1c0,1.2,0.8,1.9,2.1,1.9
			c2,0,3.5-1.1,3.5-3.2v-1.6C327,630.3,326.2,630.3,325.2,630.5z"/>
		<path fill="#DDDD14" d="M340.5,637c-3.5,0-6.6-1.4-6.6-5h3.7c0.1,1.5,1.2,2.4,3,2.4c1.8,0,2.5-0.8,2.5-1.9c0-1.2-0.7-2-2.4-2h-1.5
			v-2.4h1c1.6,0,2.7-0.4,2.7-1.8c0-0.8-0.7-1.6-2.2-1.6c-1.6,0-2.5,0.5-2.7,1.9h-3.6c0.1-3.3,3.2-4.5,6.4-4.5c3.7,0,5.9,1.2,5.9,3.8
			c0,1.6-1.3,2.9-2.5,3.1v0.1c1.3,0.2,3,0.9,3,3.4C347.1,635.5,344.5,637,340.5,637z"/>
		<path fill="#DDDD14" d="M356,636.6h-6.7v-14.1h3.8v4.9h3.1c2.9,0,5.2,1.6,5.2,4.6C361.4,635.1,359.1,636.6,356,636.6z
			 M353.1,633.9h2c1.4,0,2.4-0.6,2.4-2c0-1.4-1-2-2.4-2h-1.9V633.9z M367,622.5v14.1h-3.9v-14.1H367z"/>
		<path fill="#DDDD14" d="M384.2,637c-5.1,0-6.9-4.5-6.9-8.7c0-4.2,0.5-9.4,5.7-10.7c1.6-0.4,3.8-0.3,4.2-1.1h3.7
			c-0.5,3.6-3.3,4-6.6,4.3c-3.5,0.3-4.7,2.9-5,5.6h0.1c0.7-1.9,2.4-4,5.6-4c3.6,0,6.5,2.8,6.5,7.2C391.5,634.2,388.7,637,384.2,637z
			 M384.4,625.4c-1.9,0-3.2,1.6-3.2,4.4c0,2.9,1.2,4.4,3.2,4.4c2,0,3.2-1.6,3.2-4.4C387.7,626.9,386.4,625.4,384.4,625.4z"/>
		<path fill="#DDDD14" d="M400.7,636.6H394v-14.1h3.8v4.9h3.1c2.9,0,5.2,1.6,5.2,4.6C406,635.1,403.8,636.6,400.7,636.6z
			 M397.8,633.9h2c1.4,0,2.4-0.6,2.4-2c0-1.4-1-2-2.4-2h-1.9V633.9z M411.7,622.5v14.1h-3.9v-14.1H411.7z"/>
		<path fill="#DDDD14" d="M421.2,637c-4.4,0-7.2-2.9-7.2-7.3c0-4.6,2.9-7.6,7.3-7.6c3.8,0,6.3,2.1,6.6,5.3H424
			c-0.3-1.6-1.3-2.4-2.8-2.4c-2.1,0-3.4,1.7-3.4,4.6c0,2.8,1.2,4.4,3.3,4.4c1.7,0,2.7-1,3-2.8h3.8C427.4,634.8,424.9,637,421.2,637z
			"/>
		<path fill="#DDDD14" d="M437,625.5v11.2h-3.9v-11.2h-4.7v-3h13.2v3H437z"/>
		<path fill="#DDDD14" d="M447.1,624.2c1-1.5,2.6-2.1,4.4-2.1c3.8,0,6.3,3,6.3,7.5c0,4.4-2.4,7.3-6.1,7.3c-1.8,0-3.3-0.7-4.4-2.1
			v6.8h-3.9v-19.2h3.7V624.2z M447.1,629.6c0,2.7,1.3,4.4,3.4,4.4c2.1,0,3.3-1.6,3.3-4.3c0-2.8-1.3-4.4-3.4-4.4
			C448.4,625.2,447.1,626.8,447.1,629.6z"/>
		<path fill="#DDDD14" d="M466.8,637c-4.4,0-7.2-3-7.2-7.4c0-4.4,3-7.6,7.1-7.6c4.3,0,7,3.1,7,8.1v0.4h-10.1
			c0.1,2.4,1.2,3.8,3.3,3.8c1.4,0,2.3-0.6,2.9-2.1h3.7C472.5,635.3,470,637,466.8,637z M466.7,624.9c-1.7,0-2.9,1.2-3.2,3.2h6.2
			C469.5,626.3,468.6,624.9,466.7,624.9z"/>
		<path fill="#DDDD14" d="M482.5,637c-4.4,0-7.2-3-7.2-7.4c0-4.4,3-7.6,7.1-7.6c4.3,0,7,3.1,7,8.1v0.4h-10.1
			c0.1,2.4,1.2,3.8,3.3,3.8c1.4,0,2.3-0.6,2.9-2.1h3.7C488.3,635.3,485.7,637,482.5,637z M482.4,624.9c-1.7,0-2.9,1.2-3.2,3.2h6.2
			C485.3,626.3,484.3,624.9,482.4,624.9z"/>
		<path fill="#DDDD14" d="M508.7,636.6v-9.6l-5,9.6h-4.4v-14.1h3.7v9.6l5-9.6h4.4v14.1H508.7z"/>
		<path fill="#DDDD14" d="M532.4,636.6v-11.2H527v11.2h-3.9v-14.1h13.2v14.1H532.4z"/>
		<path fill="#DDDD14" d="M543,624.2c1-1.5,2.6-2.1,4.4-2.1c3.8,0,6.3,3,6.3,7.5c0,4.4-2.4,7.3-6.1,7.3c-1.8,0-3.3-0.7-4.4-2.1v6.8
			h-3.9v-19.2h3.7V624.2z M543.1,629.6c0,2.7,1.3,4.4,3.4,4.4c2.1,0,3.3-1.6,3.3-4.3c0-2.8-1.3-4.4-3.4-4.4
			C544.3,625.2,543.1,626.8,543.1,629.6z"/>
		<path fill="#DDDD14" d="M563,637.1c-4.4,0-7.3-3-7.3-7.5c0-4.5,2.9-7.5,7.4-7.5c4.4,0,7.2,3,7.2,7.5
			C570.3,634.1,567.4,637.1,563,637.1z M562.9,625c-2.1,0-3.4,1.7-3.4,4.5c0,2.9,1.3,4.6,3.4,4.6c2.1,0,3.4-1.7,3.4-4.6
			C566.4,626.7,565.1,625,562.9,625z"/>
		<path fill="#DDDD14" d="M572.8,622.5h3.9v11.2h4.1v-11.2h3.9v11.2h4.1v-11.2h3.9v11.2h1.8v7.2h-3.6v-4.2h-18V622.5z"/>
		<path fill="#DDDD14" d="M602.9,637c-4.4,0-7.2-3-7.2-7.4c0-4.4,3-7.6,7.1-7.6c4.3,0,7,3.1,7,8.1v0.4h-10.1
			c0.1,2.4,1.2,3.8,3.3,3.8c1.4,0,2.3-0.6,2.9-2.1h3.7C608.7,635.3,606.1,637,602.9,637z M602.8,624.9c-1.7,0-2.9,1.2-3.2,3.2h6.2
			C605.6,626.3,604.7,624.9,602.8,624.9z"/>
		<path fill="#DDDD14" d="M629,636.6v-11.2h-5.5v11.2h-3.9v-14.1h13.2v14.1H629z"/>
		<path fill="#DDDD14" d="M642.7,637.1c-4.4,0-7.3-3-7.3-7.5c0-4.5,2.9-7.5,7.4-7.5c4.4,0,7.2,3,7.2,7.5
			C650,634.1,647.2,637.1,642.7,637.1z M642.7,625c-2.1,0-3.4,1.7-3.4,4.5c0,2.9,1.3,4.6,3.4,4.6c2.1,0,3.4-1.7,3.4-4.6
			C646.1,626.7,644.8,625,642.7,625z"/>
		<path fill="#DDDD14" d="M663.8,640.8v-4.2h-9.3v4.2h-3.6v-7.2h1.7c0.8-1.6,1.8-5.4,1.8-8.7v-2.5h11.3v11.2h1.8v7.2H663.8z
			 M661.7,625.4h-3.8v0.4c0,3-0.9,6.4-1.6,7.9h5.4V625.4z"/>
		<path fill="#DDDD14" d="M676.1,637c-5.1,0-6.9-4.5-6.9-8.7c0-4.2,0.5-9.4,5.7-10.7c1.6-0.4,3.8-0.3,4.2-1.1h3.7
			c-0.5,3.6-3.3,4-6.6,4.3c-3.5,0.3-4.7,2.9-5,5.6h0.1c0.7-1.9,2.4-4,5.6-4c3.6,0,6.5,2.8,6.5,7.2C683.4,634.2,680.6,637,676.1,637z
			 M676.3,625.4c-1.9,0-3.2,1.6-3.2,4.4c0,2.9,1.2,4.4,3.2,4.4c2,0,3.2-1.6,3.2-4.4C679.5,626.9,678.3,625.4,676.3,625.4z"/>
		<path fill="#DDDD14" d="M695.5,636.6v-9.6l-5,9.6h-4.4v-14.1h3.7v9.6l5-9.6h4.4v14.1H695.5z"/>
		<path fill="#DDDD14" d="M706,624.2c1-1.5,2.6-2.1,4.4-2.1c3.8,0,6.3,3,6.3,7.5c0,4.4-2.4,7.3-6.1,7.3c-1.8,0-3.3-0.7-4.4-2.1v6.8
			h-3.9v-19.2h3.7V624.2z M706,629.6c0,2.7,1.3,4.4,3.4,4.4c2.1,0,3.3-1.6,3.3-4.3c0-2.8-1.3-4.4-3.4-4.4
			C707.3,625.2,706,626.8,706,629.6z"/>
		<path fill="#DDDD14" d="M728.2,636.6c-0.2-0.5-0.2-0.7-0.3-1.4c-1.2,1.2-2.9,1.8-4.6,1.8c-3.1,0-5-1.6-5-4.3
			c0-3.7,3.4-4.1,6.2-4.5c2.5-0.3,3.5-0.5,3.5-1.7c0-1.3-0.8-1.9-2.5-1.9c-1.8,0-2.5,0.5-2.8,2.2H719c0.2-3.2,2.5-4.8,6.5-4.8
			c2.9,0,6.2,0.7,6.2,4.6v6.1c0,1.3,0,2.6,0.5,3.8H728.2z M725.2,630.5c-1.3,0.2-2.8,0.4-2.8,2.1c0,1.2,0.8,1.9,2.1,1.9
			c2,0,3.5-1.1,3.5-3.2v-1.6C727,630.3,726.2,630.3,725.2,630.5z"/>
		<path fill="#DDDD14" d="M742.1,625.5v11.2h-3.9v-11.2h-4.7v-3h13.2v3H742.1z"/>
		<path fill="#DDDD14" d="M755.8,636.6h-7.4v-14.1h3.8v4.9h3.8c2.8,0,5.2,1.6,5.2,4.6C761.1,635.1,758.9,636.6,755.8,636.6z
			 M752.2,633.9h2.7c1.4,0,2.4-0.6,2.4-2c0-1.4-1-2-2.4-2h-2.6V633.9z"/>
		<path fill="#DDDD14" d="M777.7,637.1c-4.4,0-7.3-3-7.3-7.5c0-4.5,2.9-7.5,7.4-7.5c4.4,0,7.2,3,7.2,7.5
			C785,634.1,782.1,637.1,777.7,637.1z M777.6,625c-2.1,0-3.4,1.7-3.4,4.5c0,2.9,1.3,4.6,3.4,4.6c2.1,0,3.4-1.7,3.4-4.6
			C781.1,626.7,779.8,625,777.6,625z"/>
		<path fill="#DDDD14" d="M794.3,637c-5.1,0-6.9-4.5-6.9-8.7c0-4.2,0.5-9.4,5.7-10.7c1.6-0.4,3.8-0.3,4.2-1.1h3.7
			c-0.5,3.6-3.3,4-6.6,4.3c-3.5,0.3-4.7,2.9-5,5.6h0.1c0.7-1.9,2.4-4,5.6-4c3.6,0,6.5,2.8,6.5,7.2C801.7,634.2,798.8,637,794.3,637z
			 M794.5,625.4c-1.9,0-3.2,1.6-3.2,4.4c0,2.9,1.2,4.4,3.2,4.4c2,0,3.2-1.6,3.2-4.4C797.8,626.9,796.5,625.4,794.5,625.4z"/>
		<path fill="#DDDD14" d="M811.2,637.1c-4.4,0-7.3-3-7.3-7.5c0-4.5,2.9-7.5,7.4-7.5c4.4,0,7.2,3,7.2,7.5
			C818.5,634.1,815.6,637.1,811.2,637.1z M811.1,625c-2.1,0-3.4,1.7-3.4,4.5c0,2.9,1.3,4.6,3.4,4.6c2.1,0,3.4-1.7,3.4-4.6
			C814.6,626.7,813.3,625,811.1,625z"/>
		<path fill="#DDDD14" d="M824.7,624.2c1-1.5,2.6-2.1,4.4-2.1c3.8,0,6.3,3,6.3,7.5c0,4.4-2.4,7.3-6.1,7.3c-1.8,0-3.3-0.7-4.4-2.1
			v6.8H821v-19.2h3.7V624.2z M824.7,629.6c0,2.7,1.3,4.4,3.4,4.4c2.1,0,3.3-1.6,3.3-4.3c0-2.8-1.3-4.4-3.4-4.4
			C826,625.2,824.7,626.8,824.7,629.6z"/>
		<path fill="#DDDD14" d="M845.1,636.6c-1.2,3.1-1.8,5.1-5.4,5.1c-1.2,0-0.7,0-2.6,0v-3.2h1.9c1.3,0,2-0.7,2-1.9
			c0-0.1-0.1-0.4-0.1-0.5l-5.1-13.5h4.2l3.2,9.6l3.1-9.6h4L845.1,636.6z"/>
		<path fill="#DDDD14" d="M863,640.8v-4.2h-9.3v4.2H850v-7.2h1.7c0.8-1.6,1.8-5.4,1.8-8.7v-2.5h11.3v11.2h1.8v7.2H863z M860.9,625.4
			h-3.8v0.4c0,3-0.9,6.4-1.6,7.9h5.4V625.4z"/>
		<path fill="#DDDD14" d="M875.4,637.1c-4.4,0-7.3-3-7.3-7.5c0-4.5,2.9-7.5,7.4-7.5c4.4,0,7.2,3,7.2,7.5
			C882.7,634.1,879.8,637.1,875.4,637.1z M875.4,625c-2.1,0-3.4,1.7-3.4,4.5c0,2.9,1.3,4.6,3.4,4.6c2.1,0,3.4-1.7,3.4-4.6
			C878.8,626.7,877.5,625,875.4,625z"/>
		<path fill="#DDDD14" d="M893.4,622.5c2.5,0,4.5,1,4.5,3.6c0,1.4-0.8,2.4-1.9,2.9c1.5,0.4,2.6,1.5,2.6,3.5c0,2.8-2.1,4.2-4.8,4.2
			h-8.5v-14.1H893.4z M891.6,628.2c1.2,0,2.3-0.2,2.3-1.6c0-1.4-1.1-1.6-2.3-1.6h-2.6v3.2H891.6z M891.9,634.1
			c1.3,0,2.6-0.2,2.6-1.9c0-1.6-1.3-1.9-2.7-1.9h-2.7v3.8H891.9z"/>
		<path fill="#DDDD14" d="M910.2,636.6c-0.2-0.5-0.2-0.7-0.3-1.4c-1.2,1.2-2.9,1.8-4.6,1.8c-3.1,0-5-1.6-5-4.3
			c0-3.7,3.4-4.1,6.2-4.5c2.5-0.3,3.5-0.5,3.5-1.7c0-1.3-0.8-1.9-2.5-1.9c-1.8,0-2.5,0.5-2.8,2.2h-3.6c0.2-3.2,2.5-4.8,6.5-4.8
			c2.9,0,6.2,0.7,6.2,4.6v6.1c0,1.3,0,2.6,0.5,3.8H910.2z M907.2,630.5c-1.3,0.2-2.8,0.4-2.8,2.1c0,1.2,0.8,1.9,2.1,1.9
			c2,0,3.5-1.1,3.5-3.2v-1.6C909,630.3,908.2,630.3,907.2,630.5z"/>
		<path fill="#DDDD14" d="M926.1,636.6v-5.9h-5.5v5.9h-3.9v-14.1h3.9v5.1h5.5v-5.1h3.9v14.1H926.1z"/>
		<path fill="#DDDD14" d="M942.5,636.6v-9.6l-5,9.6H933v-14.1h3.7v9.6l5-9.6h4.4v14.1H942.5z"/>
		<path fill="#DDDD14" d="M955.9,637c-4.4,0-7.2-3-7.2-7.4c0-4.4,3-7.6,7.1-7.6c4.3,0,7,3.1,7,8.1v0.4h-10.1
			c0.1,2.4,1.2,3.8,3.3,3.8c1.4,0,2.3-0.6,2.9-2.1h3.7C961.6,635.3,959.1,637,955.9,637z M955.7,624.9c-1.7,0-2.9,1.2-3.2,3.2h6.2
			C958.6,626.3,957.7,624.9,955.7,624.9z"/>
	</g>
	<g enable-background="new    ">
		<path fill="#DDDD14" d="M290.6,695.6v-4.2h-9.3v4.2h-3.6v-7.2h1.7c0.8-1.6,1.8-5.4,1.8-8.7v-2.5h11.3v11.2h1.8v7.2H290.6z
			 M288.6,680.2h-3.8v0.4c0,3-0.9,6.4-1.6,7.9h5.4V680.2z"/>
		<path fill="#DDDD14" d="M305.4,691.5c-0.2-0.5-0.2-0.7-0.3-1.4c-1.2,1.2-2.9,1.8-4.6,1.8c-3.1,0-5-1.6-5-4.3
			c0-3.7,3.4-4.1,6.2-4.5c2.5-0.3,3.5-0.5,3.5-1.7c0-1.3-0.8-1.9-2.5-1.9c-1.8,0-2.5,0.5-2.8,2.2h-3.6c0.2-3.2,2.5-4.8,6.5-4.8
			c2.9,0,6.2,0.7,6.2,4.6v6.1c0,1.3,0,2.6,0.5,3.8H305.4z M302.3,685.3c-1.3,0.2-2.9,0.4-2.9,2.1c0,1.2,0.8,1.9,2.1,1.9
			c2,0,3.5-1.1,3.5-3.2v-1.6C304.2,685.1,303.3,685.2,302.3,685.3z"/>
		<path fill="#DDDD14" d="M314.9,691.5h-4.6l5.5-8.8l-4.8-5.4h4.4l4.4,5.6v-5.6h3.7v5.6l4.4-5.6h4.4l-4.9,5.5l5.5,8.7h-4.6l-3.4-5.9
			l-1.5,1.7v4.2h-3.7v-4.2l-1.5-1.7L314.9,691.5z"/>
		<path fill="#DDDD14" d="M340.6,691.9c-4.4,0-7.2-3-7.2-7.4c0-4.4,3-7.6,7.1-7.6c4.3,0,7,3.1,7,8.1v0.4h-10.1
			c0.1,2.4,1.2,3.8,3.3,3.8c1.4,0,2.3-0.6,2.9-2.1h3.7C346.3,690.1,343.8,691.9,340.6,691.9z M340.4,679.7c-1.7,0-2.9,1.2-3.2,3.2
			h6.2C343.3,681.2,342.4,679.7,340.4,679.7z"/>
		<path fill="#DDDD14" d="M368.9,695.6v-4.2h-9.3v4.2H356v-7.2h1.7c0.8-1.6,1.8-5.4,1.8-8.7v-2.5h11.3v11.2h1.8v7.2H368.9z
			 M366.9,680.2h-3.8v0.4c0,3-0.9,6.4-1.6,7.9h5.4V680.2z"/>
		<path fill="#DDDD14" d="M383.8,691.5v-11.2H380l-0.2,5c-0.1,2.9-0.3,6.6-4.5,6.6c-0.5,0-1.7-0.1-2.1-0.3v-3.1
			c0.3,0.1,0.7,0.1,1.1,0.1c1.1,0,1.7-0.9,1.8-2.9l0.2-8.4h11.3v14.1H383.8z"/>
		<path fill="#DDDD14" d="M399.5,691.5v-5.2h-1.6l-4.1,5.2h-4.8l4.7-5.6c-2-0.3-3.6-1.9-3.6-4.3c0-2.5,1.9-4.3,4.7-4.3h8.6v14.1
			H399.5z M399.5,680.1h-3.1c-1.8,0-2.3,0.6-2.3,1.6c0,1.1,0.5,1.7,2.3,1.7h3.1V680.1z"/>
		<path fill="#DDDD14" d="M427.2,691.5v-10.7h-0.1l-2.8,10.7h-3.7l-2.8-10.7h-0.1v10.7h-3.7v-14.1h5.6l2.7,10.3h0.1l2.7-10.3h5.6
			v14.1H427.2z"/>
		<path fill="#DDDD14" d="M443.1,691.5c-0.2-0.5-0.2-0.7-0.3-1.4c-1.2,1.2-2.9,1.8-4.6,1.8c-3.1,0-5-1.6-5-4.3
			c0-3.7,3.4-4.1,6.2-4.5c2.5-0.3,3.5-0.5,3.5-1.7c0-1.3-0.8-1.9-2.5-1.9c-1.8,0-2.5,0.5-2.8,2.2h-3.6c0.2-3.2,2.5-4.8,6.5-4.8
			c2.9,0,6.2,0.7,6.2,4.6v6.1c0,1.3,0,2.6,0.5,3.8H443.1z M440,685.3c-1.3,0.2-2.9,0.4-2.9,2.1c0,1.2,0.8,1.9,2.1,1.9
			c2,0,3.5-1.1,3.5-3.2v-1.6C441.9,685.1,441,685.2,440,685.3z"/>
		<path fill="#DDDD14" d="M456.3,691.8c-4.4,0-7.2-2.9-7.2-7.3c0-4.6,2.9-7.6,7.3-7.6c3.8,0,6.3,2.1,6.6,5.3h-3.8
			c-0.3-1.6-1.3-2.4-2.8-2.4c-2.1,0-3.4,1.7-3.4,4.6c0,2.8,1.2,4.4,3.3,4.4c1.7,0,2.7-1,3-2.8h3.8
			C462.6,689.7,460.1,691.8,456.3,691.8z"/>
		<path fill="#DDDD14" d="M465.4,691.5v-14.1h3.9v11.2h4.2v-11.2h3.9v11.2h4.2v-11.2h3.9v14.1H465.4z"/>
		<path fill="#DDDD14" d="M495.7,680.3v11.2h-3.9v-11.2h-4.7v-3h13.2v3H495.7z"/>
		<path fill="#DDDD14" d="M510.8,691.5c-0.2-0.5-0.2-0.7-0.3-1.4c-1.2,1.2-2.9,1.8-4.6,1.8c-3.1,0-5-1.6-5-4.3
			c0-3.7,3.4-4.1,6.2-4.5c2.5-0.3,3.5-0.5,3.5-1.7c0-1.3-0.8-1.9-2.5-1.9c-1.8,0-2.5,0.5-2.8,2.2h-3.6c0.2-3.2,2.5-4.8,6.5-4.8
			c2.9,0,6.2,0.7,6.2,4.6v6.1c0,1.3,0,2.6,0.5,3.8H510.8z M507.8,685.3c-1.3,0.2-2.9,0.4-2.9,2.1c0,1.2,0.8,1.9,2.1,1.9
			c2,0,3.5-1.1,3.5-3.2v-1.6C509.6,685.1,508.8,685.2,507.8,685.3z"/>
		<path fill="#DDDD14" d="M524.1,691.9c-5.1,0-6.9-4.5-6.9-8.7c0-4.2,0.5-9.4,5.7-10.7c1.6-0.4,3.8-0.3,4.2-1.1h3.7
			c-0.5,3.6-3.3,4-6.6,4.3c-3.5,0.3-4.7,2.9-5,5.6h0.1c0.7-1.9,2.4-4,5.6-4c3.6,0,6.5,2.8,6.5,7.2
			C531.5,689,528.7,691.9,524.1,691.9z M524.3,680.2c-1.9,0-3.2,1.6-3.2,4.4c0,2.9,1.2,4.4,3.2,4.4c2,0,3.2-1.6,3.2-4.4
			C527.6,681.8,526.4,680.2,524.3,680.2z"/>
		<path fill="#DDDD14" d="M543.5,691.5v-5.9H538v5.9h-3.9v-14.1h3.9v5.1h5.5v-5.1h3.9v14.1H543.5z"/>
		<path fill="#DDDD14" d="M556.9,691.5h-6.7v-14.1h3.8v4.9h3.1c2.9,0,5.2,1.6,5.2,4.6C562.2,689.9,560,691.5,556.9,691.5z
			 M554,688.8h2c1.4,0,2.4-0.6,2.4-2s-1-2-2.4-2H554V688.8z M567.9,677.3v14.1H564v-14.1H567.9z"/>
		<path fill="#DDDD14" d="M578.7,683.9l5.2,7.5h-4.4l-3-4.6l-3,4.6h-4.4l5.2-7.5l-4.7-6.7h4.4l2.5,3.8l2.5-3.8h4.3L578.7,683.9z"/>
		<path fill="#DDDD14" d="M602.5,691.5v-9.6l-5,9.6H593v-14.1h3.7v9.6l5-9.6h4.4v14.1H602.5z"/>
		<path fill="#DDDD14" d="M623.6,691.8c-4.4,0-7.2-2.9-7.2-7.3c0-4.6,2.9-7.6,7.3-7.6c3.8,0,6.3,2.1,6.6,5.3h-3.8
			c-0.3-1.6-1.3-2.4-2.8-2.4c-2.1,0-3.4,1.7-3.4,4.6c0,2.8,1.2,4.4,3.3,4.4c1.7,0,2.7-1,3-2.8h3.8
			C629.8,689.7,627.3,691.8,623.6,691.8z"/>
		<path fill="#DDDD14" d="M641.4,691.5v-11.2h-3.7l-0.2,5c-0.1,2.9-0.3,6.6-4.5,6.6c-0.5,0-1.7-0.1-2.1-0.3v-3.1
			c0.3,0.1,0.7,0.1,1.1,0.1c1.1,0,1.7-0.9,1.8-2.9l0.2-8.4h11.3v14.1H641.4z"/>
		<path fill="#DDDD14" d="M655.2,691.9c-4.4,0-7.3-3-7.3-7.5c0-4.5,2.9-7.5,7.4-7.5c4.4,0,7.2,3,7.2,7.5
			C662.5,688.9,659.6,691.9,655.2,691.9z M655.2,679.9c-2.1,0-3.4,1.7-3.4,4.5c0,2.9,1.3,4.6,3.4,4.6c2.1,0,3.4-1.7,3.4-4.6
			C658.6,681.5,657.3,679.9,655.2,679.9z"/>
		<path fill="#DDDD14" d="M667.6,691.5H663l5.5-8.8l-4.8-5.4h4.4l4.4,5.6v-5.6h3.7v5.6l4.4-5.6h4.4l-4.9,5.5l5.5,8.7h-4.6l-3.4-5.9
			l-1.5,1.7v4.2h-3.7v-4.2l-1.5-1.7L667.6,691.5z"/>
		<path fill="#DDDD14" d="M696.5,691.5v-5.9H691v5.9h-3.9v-14.1h3.9v5.1h5.5v-5.1h3.9v14.1H696.5z"/>
		<path fill="#DDDD14" d="M709.9,691.5h-6.7v-14.1h3.8v4.9h3.1c2.8,0,5.2,1.6,5.2,4.6C715.2,689.9,713,691.5,709.9,691.5z
			 M707,688.8h2c1.4,0,2.4-0.6,2.4-2s-1-2-2.4-2H707V688.8z M720.9,677.3v14.1H717v-14.1H720.9z"/>
		<path fill="#DDDD14" d="M731.7,683.9l5.2,7.5h-4.4l-3-4.6l-3,4.6h-4.4l5.2-7.5l-4.7-6.7h4.4l2.5,3.8l2.5-3.8h4.3L731.7,683.9z"/>
		<path fill="#DDDD14" d="M755.4,691.5v-11.2h-5.5v11.2H746v-14.1h13.2v14.1H755.4z"/>
		<path fill="#DDDD14" d="M765.9,679.1c1-1.5,2.6-2.1,4.4-2.1c3.8,0,6.3,3,6.3,7.5c0,4.4-2.4,7.3-6.1,7.3c-1.8,0-3.3-0.7-4.4-2.1
			v6.8h-3.9v-19.2h3.7V679.1z M766,684.4c0,2.7,1.3,4.4,3.4,4.4c2.1,0,3.3-1.6,3.3-4.3c0-2.8-1.3-4.4-3.4-4.4
			C767.2,680.1,766,681.7,766,684.4z"/>
		<path fill="#DDDD14" d="M785.9,691.9c-4.4,0-7.3-3-7.3-7.5c0-4.5,2.9-7.5,7.4-7.5c4.4,0,7.2,3,7.2,7.5
			C793.2,688.9,790.3,691.9,785.9,691.9z M785.8,679.9c-2.1,0-3.4,1.7-3.4,4.5c0,2.9,1.3,4.6,3.4,4.6c2.1,0,3.4-1.7,3.4-4.6
			C789.3,681.5,788,679.9,785.8,679.9z"/>
		<path fill="#DDDD14" d="M802.4,691.9c-4.4,0-7.2-3-7.2-7.4c0-4.4,3-7.6,7.1-7.6c4.3,0,7,3.1,7,8.1v0.4h-10.1
			c0.1,2.4,1.2,3.8,3.3,3.8c1.4,0,2.3-0.6,2.9-2.1h3.7C808.1,690.1,805.6,691.9,802.4,691.9z M802.2,679.7c-1.7,0-2.9,1.2-3.2,3.2
			h6.2C805.1,681.2,804.2,679.7,802.2,679.7z"/>
		<path fill="#DDDD14" d="M821.2,691.5l-4.1-6.1l-1.7,1.8v4.3h-3.8v-14.1h3.8v5.6l5.2-5.6h4.6l-5.5,5.5l6.2,8.7H821.2z"/>
		<path fill="#DDDD14" d="M834.5,680.3v11.2h-3.9v-11.2H826v-3h13.2v3H834.5z"/>
		<path fill="#DDDD14" d="M847.3,691.9c-4.4,0-7.3-3-7.3-7.5c0-4.5,2.9-7.5,7.4-7.5c4.4,0,7.2,3,7.2,7.5
			C854.6,688.9,851.7,691.9,847.3,691.9z M847.2,679.9c-2.1,0-3.4,1.7-3.4,4.5c0,2.9,1.3,4.6,3.4,4.6c2.1,0,3.4-1.7,3.4-4.6
			C850.7,681.5,849.4,679.9,847.2,679.9z"/>
		<path fill="#DDDD14" d="M865.2,677.3c2.5,0,4.5,1,4.5,3.6c0,1.4-0.8,2.4-1.9,2.9c1.5,0.4,2.6,1.5,2.6,3.5c0,2.8-2.1,4.2-4.8,4.2
			h-8.5v-14.1H865.2z M863.5,683c1.2,0,2.3-0.2,2.3-1.6c0-1.4-1.1-1.6-2.3-1.6h-2.6v3.2H863.5z M863.8,688.9c1.3,0,2.6-0.2,2.6-1.9
			c0-1.6-1.3-1.9-2.7-1.9h-2.7v3.8H863.8z"/>
	</g>
	<g>
		<g>
			<g>
				<g>
					<path fill="#DDDD14" d="M368.4,221.8c-4.6,0-8.3-1.2-10.9-3.9c-2.6-2.6-4-6.9-4-12.7c-4.9,5.8-10.5,10-17,12.7
						s-13.5,3.9-20.9,3.9c-4.9,0-9.5-0.5-13.7-1.6c-4.4-1.1-8.1-2.8-11.4-5.3c-3.3-2.5-5.8-5.6-7.7-9.3c-1.9-3.9-2.8-8.4-2.8-13.9
						c0-6.2,1.1-11.1,3.2-14.9c2.1-3.9,4.7-7,8.3-9.5c3.3-2.5,7.4-4.2,11.6-5.4c4.4-1.2,8.8-2.3,13.5-3.2c4.9-0.9,9.5-1.8,13.9-2.3
						c4.4-0.5,8.3-1.2,11.6-2.1c3.3-0.9,6-2.3,7.9-4c1.9-1.8,3-4.2,3-7.6c0-3.9-0.7-7-2.3-9.3c-1.4-2.3-3.3-4.2-5.6-5.4
						c-2.3-1.2-4.9-2.1-7.7-2.5c-2.8-0.4-5.6-0.5-8.4-0.5c-7.6,0-13.7,1.4-18.8,4.2c-4.9,2.8-7.7,8.3-8.1,16.2H284
						c0.4-6.7,1.6-12.3,4.2-16.9c2.5-4.6,5.8-8.3,10-11.1c4.2-2.8,9-4.9,14.4-6.2c5.4-1.2,11.1-1.9,17-1.9c4.9,0,9.7,0.4,14.6,1.1
						c4.7,0.7,9.1,2.1,13,4.2c3.9,2.1,7,5.1,9.5,9.1c2.3,3.9,3.5,9,3.5,15.3v55.5c0,4.2,0.2,7.2,0.7,9.1c0.5,1.9,2.1,2.8,4.9,2.8
						c1.6,0,3.3-0.4,5.4-1.1v13.7C378,220.9,373.8,221.8,368.4,221.8z M343.6,167.3c-3.7,0.7-7.4,1.4-11.4,1.9
						c-3.9,0.5-7.9,1.1-12,1.8c-4,0.7-7.6,1.6-10.9,3c-3.2,1.4-5.8,3.3-7.9,6c-1.9,2.6-3,6.2-3,10.5c0,3,0.5,5.4,1.8,7.4
						c1.2,1.9,2.6,3.7,4.6,4.9s4,2.1,6.7,2.6c2.6,0.5,5.3,0.9,7.9,0.9c5.8,0,10.9-0.9,14.9-2.5c4.2-1.6,7.6-3.5,10.2-6
						c2.6-2.5,4.6-5.1,5.8-7.9c1.2-2.8,1.9-5.4,1.9-8.1v-18.1C350.1,165.4,347.1,166.6,343.6,167.3z"/>
				</g>
			</g>
			<path fill="#DDDD14" d="M410,70.5v148.9h-17.8V70.5H410z"/>
			<path fill="#DDDD14" d="M507,212.5c-8.1,6.2-18.3,9.1-30.4,9.1c-8.6,0-16.2-1.4-22.5-4.2c-6.3-2.8-11.6-6.7-16-11.8
				c-4.4-4.9-7.6-10.9-9.7-17.9c-2.1-7-3.3-14.6-3.7-22.7c0-8.3,1.2-15.8,3.7-22.5c2.5-6.9,6-12.7,10.5-17.8c4.6-4.9,9.8-9,16-11.6
				c6.2-2.8,13-4.2,20.4-4.2c9.7,0,17.6,1.9,23.9,6c6.3,4,11.4,9,15.3,15.1c3.9,6.2,6.5,12.8,7.9,20c1.4,7.2,2.1,14.1,1.8,20.7
				h-80.7c-0.2,4.7,0.5,9.1,1.8,13.4c1.2,4.2,3.3,8.1,6,11.2c2.8,3.3,6.3,5.8,10.7,7.9c4.2,1.9,9.3,2.8,15.3,2.8
				c7.6,0,13.7-1.8,18.5-5.3s7.9-8.8,9.5-15.8h17.6C520.4,197.4,515.1,206.5,507,212.5z M502.8,143.2c-1.6-3.7-3.7-7-6.5-9.7
				c-2.6-2.6-6-4.9-9.7-6.5c-3.7-1.6-7.7-2.5-12.3-2.5c-4.6,0-8.8,0.9-12.5,2.5c-3.7,1.6-6.9,3.9-9.5,6.5c-2.6,2.8-4.7,6-6.3,9.7
				c-1.6,3.7-2.5,7.6-2.8,11.8h62C505.3,151,504.4,147.1,502.8,143.2z"/>
			<path fill="#DDDD14" d="M619.9,219.5v-14.6h-0.4c-3,6-7.6,10.4-13.7,13c-6.3,2.6-13.2,4-20.6,4c-8.3,0-15.6-1.6-21.8-4.6
				c-6.2-3-11.4-7.2-15.5-12.3c-4-5.1-7.2-11.1-9.3-17.9c-2.1-6.9-3.2-14.1-3.2-21.6s1.1-14.9,3-21.6c1.9-6.9,5.1-12.8,9.1-17.9
				c4-5.1,9.1-9.1,15.5-12.1c6.2-3,13.4-4.4,21.6-4.4c2.8,0,5.8,0.4,9,0.9c3.2,0.5,6.3,1.4,9.7,2.8c3.2,1.4,6.2,3,9.1,5.3
				c2.8,2.1,5.3,4.7,7.2,8.1h0.4V70.5h17.8v148.9h-17.9V219.5z M556.3,181.2c1.2,4.7,3.3,9.1,6,12.8c2.6,3.7,6.2,6.7,10.4,9
				c4.2,2.3,9.1,3.3,14.9,3.3c6,0,11.1-1.2,15.3-3.5s7.6-5.4,10.2-9.3c2.6-3.9,4.6-8.3,5.8-13c1.2-4.9,1.8-9.8,1.8-14.8
				c0-5.3-0.7-10.4-1.9-15.3s-3.2-9.3-6-13c-2.6-3.7-6.2-6.7-10.5-9.1c-4.4-2.3-9.5-3.5-15.6-3.5c-6,0-11.1,1.2-15.3,3.5
				c-4.2,2.3-7.6,5.4-10,9.3c-2.5,3.9-4.4,8.3-5.4,13.4c-1.1,4.9-1.6,10.2-1.6,15.5C554.1,171.5,554.9,176.3,556.3,181.2z"/>
			<path fill="#DDDD14" d="M652,143.4c2.3-6.9,5.6-12.8,10-17.9c4.4-5.1,10-9.1,16.5-12c6.5-3,14.1-4.4,22.5-4.4
				c8.6,0,16.2,1.4,22.7,4.4c6.5,3,12,6.9,16.3,12c4.4,5.1,7.7,11.1,10,17.9c2.3,6.9,3.3,14.2,3.3,22.1s-1.1,15.3-3.3,22.1
				c-2.3,6.9-5.6,12.8-10,17.9c-4.4,5.1-9.8,9-16.3,12c-6.5,2.8-14.1,4.2-22.7,4.2c-8.4,0-16-1.4-22.5-4.2c-6.5-2.8-12-6.9-16.5-12
				c-4.4-5.1-7.7-11.1-10-17.9c-2.3-6.9-3.3-14.2-3.3-22.1S649.9,150.3,652,143.4z M670.1,183c1.8,5.1,4.2,9.3,7.2,12.8
				c3,3.3,6.7,6,10.7,7.9c4,1.8,8.4,2.6,13,2.6c4.6,0,9-0.9,13-2.6c4-1.8,7.7-4.4,10.7-7.9c3-3.3,5.4-7.7,7.2-12.8
				c1.8-5.1,2.6-10.9,2.6-17.4c0-6.5-0.9-12.3-2.6-17.4c-1.8-5.1-4.2-9.3-7.2-12.8c-3-3.5-6.7-6.2-10.7-7.9c-4-1.8-8.4-2.6-13-2.6
				c-4.6,0-9,0.9-13,2.6c-4,1.8-7.7,4.4-10.7,7.9c-3,3.5-5.4,7.7-7.2,12.8c-1.8,5.1-2.6,10.9-2.6,17.4
				C667.5,172.2,668.4,178,670.1,183z"/>
			<g>
				<g>
					<path fill="#DDDD14" d="M224.4,146.9c-9.7,0-17.4-7.9-17.4-17.4c0-9.5,7.9-17.4,17.4-17.4c9.7,0,17.4,7.9,17.4,17.4
						C241.8,139.2,234.1,146.9,224.4,146.9z M224.4,119c-5.8,0-10.5,4.7-10.5,10.5c0,5.8,4.7,10.5,10.5,10.5s10.5-4.7,10.5-10.5
						S230.2,119,224.4,119z"/>
				</g>
			</g>
			<g enable-background="new    ">
				<path fill="#DDDD14" d="M801.6,118.5v3.6h0.1c0.7-1.5,1.8-2.5,3.4-3.2s3.2-1,5.1-1c2,0,3.8,0.4,5.4,1.1c1.5,0.8,2.8,1.8,3.8,3
					c1,1.3,1.8,2.8,2.3,4.4c0.5,1.7,0.8,3.4,0.8,5.3c0,1.9-0.2,3.7-0.7,5.3c-0.5,1.7-1.2,3.1-2.3,4.4c-1,1.2-2.3,2.2-3.8,2.9
					c-1.5,0.7-3.3,1.1-5.3,1.1c-0.6,0-1.4-0.1-2.2-0.2c-0.8-0.1-1.6-0.4-2.4-0.7c-0.8-0.3-1.5-0.7-2.2-1.3c-0.7-0.5-1.3-1.2-1.8-2
					h-0.1v13.6h-4.4v-36.6H801.6z M817.2,127.9c-0.3-1.2-0.8-2.2-1.5-3.2c-0.7-0.9-1.5-1.7-2.6-2.2c-1-0.5-2.3-0.8-3.7-0.8
					c-1.5,0-2.7,0.3-3.7,0.9c-1,0.6-1.9,1.3-2.5,2.3c-0.6,0.9-1.1,2-1.4,3.2c-0.3,1.2-0.4,2.4-0.4,3.6c0,1.3,0.2,2.6,0.5,3.8
					c0.3,1.2,0.8,2.3,1.5,3.2c0.7,0.9,1.5,1.7,2.6,2.2c1.1,0.6,2.3,0.8,3.8,0.8s2.8-0.3,3.8-0.9c1-0.6,1.8-1.3,2.4-2.3
					c0.6-1,1.1-2,1.3-3.3s0.4-2.5,0.4-3.8C817.7,130.3,817.5,129.1,817.2,127.9z"/>
				<path fill="#DDDD14" d="M845.4,118.5v5.6h0.1c1.1-2.2,2.4-3.7,3.9-4.8c1.5-1,3.5-1.5,5.8-1.4v4.6c-1.7,0-3.2,0.2-4.5,0.7
					c-1.2,0.5-2.2,1.2-3,2.1c-0.8,0.9-1.3,2-1.6,3.4c-0.3,1.3-0.5,2.8-0.5,4.5V145h-4.4v-26.5H845.4z"/>
				<path fill="#DDDD14" d="M871,126.3c0.5-1.7,1.4-3.2,2.5-4.4c1.1-1.2,2.4-2.2,4-2.9s3.4-1.1,5.5-1.1c2.1,0,4,0.4,5.6,1.1
					c1.6,0.7,2.9,1.7,4,2.9c1.1,1.2,1.9,2.7,2.5,4.4c0.5,1.7,0.8,3.5,0.8,5.5c0,1.9-0.3,3.8-0.8,5.4s-1.4,3.1-2.5,4.4
					c-1.1,1.2-2.4,2.2-4,2.9c-1.6,0.7-3.4,1.1-5.6,1.1c-2.1,0-3.9-0.4-5.5-1.1c-1.6-0.7-3-1.7-4-2.9c-1.1-1.2-1.9-2.7-2.5-4.4
					c-0.5-1.7-0.8-3.5-0.8-5.4C870.2,129.8,870.5,128,871,126.3z M875.5,136c0.4,1.2,1,2.3,1.8,3.1c0.8,0.8,1.6,1.5,2.6,1.9
					c1,0.4,2.1,0.7,3.2,0.7s2.2-0.2,3.2-0.7c1-0.4,1.9-1.1,2.6-1.9c0.8-0.8,1.3-1.9,1.8-3.1c0.4-1.2,0.6-2.7,0.6-4.3
					c0-1.6-0.2-3-0.6-4.3c-0.4-1.2-1-2.3-1.8-3.2c-0.8-0.9-1.6-1.5-2.6-1.9c-1-0.4-2.1-0.7-3.2-0.7s-2.2,0.2-3.2,0.7
					c-1,0.4-1.9,1.1-2.6,1.9c-0.8,0.9-1.3,1.9-1.8,3.2c-0.4,1.2-0.6,2.7-0.6,4.3C874.8,133.3,875,134.8,875.5,136z"/>
			</g>
		</g>
	</g>
	<rect x="277.5" y="330.8" fill="none" width="747" height="128.3"/>
	<g enable-background="new    ">
		<path fill="#DDDD14" d="M307.6,362.6h-7v-26h-13v26h-7v-31.9h27V362.6z"/>
		<path fill="#DDDD14" d="M319.1,342.4c1.7-2.4,4.2-3.5,7.2-3.5c6.2,0,10.3,4.9,10.3,12.3c0,7.3-4,12-10,12c-2.9,0-5.4-1.1-7.1-3.5
			v11.1h-6.3v-31.3h6V342.4z M319.2,351.1c0,4.5,2.1,7.1,5.6,7.1c3.4,0,5.5-2.6,5.5-7c0-4.5-2.1-7.2-5.5-7.2
			C321.3,344,319.2,346.6,319.2,351.1z"/>
		<path fill="#DDDD14" d="M351.8,363.4c-7.2,0-12-4.9-12-12.3c0-7.4,4.8-12.2,12.1-12.2c7.1,0,11.8,4.9,11.8,12.2
			C363.7,358.5,359,363.4,351.8,363.4z M351.7,343.7c-3.4,0-5.5,2.8-5.5,7.4c0,4.8,2.1,7.5,5.6,7.5c3.5,0,5.6-2.8,5.6-7.5
			C357.4,346.4,355.3,343.7,351.7,343.7z"/>
		<path fill="#DDDD14" d="M378.9,363.2c-7.1,0-11.8-4.8-11.8-12c0-7.5,4.7-12.4,11.9-12.4c6.2,0,10.3,3.4,10.9,8.7h-6.2
			c-0.4-2.6-2.1-4-4.6-4c-3.5,0-5.5,2.8-5.5,7.5c0,4.6,2,7.3,5.4,7.3c2.7,0,4.4-1.6,4.9-4.7h6.1C389.2,359.7,385,363.2,378.9,363.2z
			"/>
		<path fill="#DDDD14" d="M404.8,344.4v18.3h-6.3v-18.3h-7.6v-4.9h21.6v4.9H404.8z"/>
		<path fill="#DDDD14" d="M425.8,363.4c-7.2,0-12-4.9-12-12.3c0-7.4,4.8-12.2,12.1-12.2c7.1,0,11.8,4.9,11.8,12.2
			C437.7,358.5,433,363.4,425.8,363.4z M425.7,343.7c-3.4,0-5.5,2.8-5.5,7.4c0,4.8,2.1,7.5,5.6,7.5c3.5,0,5.6-2.8,5.6-7.5
			C431.3,346.4,429.2,343.7,425.7,343.7z"/>
		<path fill="#DDDD14" d="M457.4,362.6V347l-8.3,15.7h-7.2v-23.1h6.1v15.7l8.3-15.7h7.2v23.1H457.4z M460,330.7c0,4.6-3,6.5-7.3,6.5
			s-7.3-1.8-7.3-6.5h2.5c0.4,2.1,2.4,3,4.8,3c2.4,0,4.4-0.9,4.8-3H460z"/>
		<path fill="#DDDD14" d="M491.9,363.2c-7.1,0-11.8-4.8-11.8-12c0-7.5,4.7-12.4,11.9-12.4c6.2,0,10.3,3.4,10.9,8.7h-6.2
			c-0.4-2.6-2.1-4-4.6-4c-3.5,0-5.5,2.8-5.5,7.5c0,4.6,2,7.3,5.4,7.3c2.7,0,4.4-1.6,4.9-4.7h6.1C502.2,359.7,498,363.2,491.9,363.2z
			"/>
		<path fill="#DDDD14" d="M517.5,363.3c-7.1,0-11.8-4.8-11.8-12.1c0-7.2,4.9-12.4,11.6-12.4c7,0,11.4,5.1,11.4,13.2v0.6h-16.6
			c0.1,4,2,6.1,5.4,6.1c2.3,0,3.8-1,4.7-3.4h6.1C527,360.5,522.8,363.3,517.5,363.3z M517.3,343.4c-2.8,0-4.8,2-5.2,5.2h10.1
			C522,345.8,520.5,343.4,517.3,343.4z"/>
		<path fill="#DDDD14" d="M538.4,342.4c1.7-2.4,4.2-3.5,7.2-3.5c6.2,0,10.3,4.9,10.3,12.3c0,7.3-4,12-10,12c-2.9,0-5.4-1.1-7.1-3.5
			v11.1h-6.3v-31.3h6V342.4z M538.5,351.1c0,4.5,2.1,7.1,5.6,7.1c3.4,0,5.5-2.6,5.5-7c0-4.5-2.1-7.2-5.5-7.2
			C540.5,344,538.5,346.6,538.5,351.1z"/>
		<path fill="#DDDD14" d="M573,339.5c4.1,0,7.4,1.7,7.4,5.8c0,2.2-1.3,3.9-3.1,4.8c2.4,0.7,4.2,2.5,4.2,5.7c0,4.5-3.5,6.9-7.8,6.9
			h-13.9v-23.1H573z M570.2,348.8c1.9,0,3.8-0.4,3.8-2.6c0-2.2-1.8-2.6-3.8-2.6H566v5.2H570.2z M570.7,358.5c2.2,0,4.2-0.4,4.2-3
			c0-2.7-2.2-3.1-4.5-3.1H566v6.1H570.7z"/>
		<path fill="#DDDD14" d="M601.1,362.6V347l-8.3,15.7h-7.2v-23.1h6.1v15.7l8.3-15.7h7.2v23.1H601.1z"/>
		<path fill="#DDDD14" d="M623.1,363.2c-7.1,0-11.8-4.8-11.8-12c0-7.5,4.7-12.4,11.9-12.4c6.2,0,10.3,3.4,10.9,8.7h-6.2
			c-0.4-2.6-2.1-4-4.6-4c-3.5,0-5.5,2.8-5.5,7.5c0,4.6,2,7.3,5.4,7.3c2.7,0,4.4-1.6,4.9-4.7h6.1
			C633.4,359.7,629.2,363.2,623.1,363.2z"/>
	</g>
	<g enable-background="new    ">
		<path fill="#DDDD14" d="M299,434.3v-6.8h-15.2v6.8h-6v-11.7h2.8c1.3-2.6,2.9-8.8,2.9-14.2v-4H302v18.3h3v11.7H299z M295.6,409.1
			h-6.2v0.6c0,4.9-1.5,10.5-2.6,13h8.8V409.1z"/>
		<path fill="#DDDD14" d="M323.3,427.5v-18.3h-6.1l-0.3,8.2c-0.2,4.8-0.4,10.8-7.4,10.8c-0.9,0-2.8-0.2-3.5-0.4v-5.1
			c0.4,0.1,1.1,0.2,1.8,0.2c1.8,0,2.8-1.5,2.9-4.8l0.4-13.8h18.6v23.1H323.3z"/>
		<path fill="#DDDD14" d="M349.1,427.5v-8.6h-2.7l-6.6,8.6H332l7.7-9.1c-3.3-0.5-5.9-3.2-5.9-7c0-4.1,3.2-7,7.7-7h14v23.1H349.1z
			 M349.1,408.9H344c-2.9,0-3.8,0.9-3.8,2.7c0,1.8,0.9,2.7,3.8,2.7h5.1V408.9z"/>
		<path fill="#DDDD14" d="M383.8,428.1c-7.1,0-11.8-4.8-11.8-12c0-7.5,4.7-12.4,11.9-12.4c6.2,0,10.3,3.4,10.9,8.7h-6.2
			c-0.4-2.6-2.1-4-4.6-4c-3.5,0-5.5,2.8-5.5,7.5c0,4.6,2,7.3,5.4,7.3c2.7,0,4.4-1.6,4.9-4.7h6.1C394.1,424.6,390,428.1,383.8,428.1z
			"/>
		<path fill="#DDDD14" d="M413,427.5v-18.3h-6.1l-0.3,8.2c-0.2,4.8-0.4,10.8-7.4,10.8c-0.9,0-2.8-0.2-3.5-0.4v-5.1
			c0.4,0.1,1.1,0.2,1.8,0.2c1.8,0,2.8-1.5,2.9-4.8l0.4-13.8h18.6v23.1H413z"/>
		<path fill="#DDDD14" d="M435.7,428.2c-7.2,0-12-4.9-12-12.3c0-7.4,4.8-12.2,12.1-12.2c7.1,0,11.8,4.9,11.8,12.2
			C447.6,423.4,442.9,428.2,435.7,428.2z M435.6,408.5c-3.4,0-5.5,2.8-5.5,7.4c0,4.8,2.1,7.5,5.6,7.5c3.5,0,5.6-2.8,5.6-7.5
			C441.2,411.3,439.1,408.5,435.6,408.5z"/>
		<path fill="#DDDD14" d="M455.9,427.5h-7.5l8.9-14.4l-7.9-8.8h7.3l7.3,9.2v-9.2h6v9.2l7.3-9.2h7.3l-8,8.9l9.1,14.2H478l-5.6-9.7
			l-2.5,2.8v7h-6v-7l-2.5-2.8L455.9,427.5z"/>
		<path fill="#DDDD14" d="M503.2,427.5v-9.7h-8.9v9.7h-6.3v-23.1h6.3v8.4h8.9v-8.4h6.3v23.1H503.2z"/>
		<path fill="#DDDD14" d="M525.1,427.5h-11v-23.1h6.3v7.9h5c4.7,0,8.5,2.6,8.5,7.6C533.9,425,530.1,427.5,525.1,427.5z M520.4,423.1
			h3.2c2.3,0,3.9-1,3.9-3.2c0-2.2-1.7-3.3-3.9-3.3h-3.2V423.1z M543.1,404.4v23.1h-6.3v-23.1H543.1z"/>
		<path fill="#DDDD14" d="M560.8,415.2l8.6,12.3h-7.3l-4.9-7.5l-4.8,7.5h-7.2l8.4-12.2l-7.7-10.9h7.3l4.1,6.2l4.1-6.2h7L560.8,415.2
			z"/>
		<path fill="#DDDD14" d="M599.5,427.5v-18.3h-8.9v18.3h-6.3v-23.1h21.6v23.1H599.5z"/>
		<path fill="#DDDD14" d="M616.8,407.2c1.7-2.4,4.2-3.5,7.2-3.5c6.2,0,10.3,4.9,10.3,12.3c0,7.3-4,12-10,12c-2.9,0-5.4-1.1-7.1-3.5
			v11.1h-6.3v-31.3h6V407.2z M616.9,416c0,4.5,2.1,7.1,5.6,7.1c3.4,0,5.5-2.6,5.5-7c0-4.5-2.1-7.2-5.5-7.2
			C618.9,408.8,616.9,411.5,616.9,416z"/>
		<path fill="#DDDD14" d="M649.5,428.2c-7.2,0-12-4.9-12-12.3c0-7.4,4.8-12.2,12.1-12.2c7.1,0,11.8,4.9,11.8,12.2
			C661.4,423.4,656.7,428.2,649.5,428.2z M649.4,408.5c-3.4,0-5.5,2.8-5.5,7.4c0,4.8,2.1,7.5,5.6,7.5c3.5,0,5.6-2.8,5.6-7.5
			C655,411.3,652.9,408.5,649.4,408.5z"/>
		<path fill="#DDDD14" d="M676.5,428.2c-7.1,0-11.8-4.8-11.8-12.1c0-7.2,4.9-12.4,11.6-12.4c7,0,11.4,5.1,11.4,13.2v0.6h-16.6
			c0.1,4,2,6.1,5.4,6.1c2.3,0,3.8-1,4.7-3.4h6.1C685.9,425.3,681.7,428.2,676.5,428.2z M676.2,408.3c-2.8,0-4.8,2-5.2,5.2h10.1
			C680.9,410.7,679.4,408.3,676.2,408.3z"/>
		<path fill="#DDDD14" d="M707.2,427.5l-6.7-10l-2.8,2.9v7.1h-6.2v-23.1h6.2v9.1l8.5-9.1h7.5l-9,9l10.2,14.2H707.2z"/>
		<path fill="#DDDD14" d="M729,409.2v18.3h-6.3v-18.3h-7.6v-4.9h21.6v4.9H729z"/>
		<path fill="#DDDD14" d="M749.9,428.2c-7.2,0-12-4.9-12-12.3c0-7.4,4.8-12.2,12.1-12.2c7.1,0,11.8,4.9,11.8,12.2
			C761.9,423.4,757.2,428.2,749.9,428.2z M749.9,408.5c-3.4,0-5.5,2.8-5.5,7.4c0,4.8,2.1,7.5,5.6,7.5c3.5,0,5.6-2.8,5.6-7.5
			C755.5,411.3,753.4,408.5,749.9,408.5z"/>
		<path fill="#DDDD14" d="M779.3,404.4c4.1,0,7.4,1.7,7.4,5.8c0,2.2-1.3,3.9-3.1,4.8c2.4,0.7,4.2,2.5,4.2,5.7c0,4.5-3.5,6.9-7.8,6.9
			h-13.9v-23.1H779.3z M776.4,413.6c1.9,0,3.8-0.4,3.8-2.6c0-2.2-1.8-2.6-3.8-2.6h-4.2v5.2H776.4z M776.9,423.4c2.2,0,4.2-0.4,4.2-3
			c0-2.7-2.2-3.1-4.5-3.1h-4.4v6.1H776.9z"/>
	</g>
	<line fill="none" stroke="#C6C106" stroke-width="1.4173" stroke-miterlimit="10" x1="277.5" y1="274.5" x2="905" y2="274.5"/>
	<line fill="none" stroke="#C6C106" stroke-width="1.4173" stroke-miterlimit="10" x1="277.5" y1="483.7" x2="905" y2="483.7"/>
	<polygon fill="none" stroke="#C6C106" stroke-width="5.9528" stroke-miterlimit="10" points="174,223 174,835.2 1112.7,835.2 
		1112.7,216 1006.9,216 1006.9,7.4 75.6,7.4 75.6,223 	"/>
</g>
</svg>
