<?xml version="1.0" encoding="utf-8"?>
<!-- Generator: Adobe Illustrator 18.0.0, SVG Export Plug-In . SVG Version: 6.00 Build 0)  -->
<!DOCTYPE svg PUBLIC "-//W3C//DTD SVG 1.1//EN" "http://www.w3.org/Graphics/SVG/1.1/DTD/svg11.dtd">
<svg version="1.1" id="Layer_1" xmlns="http://www.w3.org/2000/svg" xmlns:xlink="http://www.w3.org/1999/xlink" x="0px" y="0px"
	 viewBox="18 95 970 797" enable-background="new 18 95 970 797" xml:space="preserve">
<g>
	<path fill="#FFFFFF" d="M217.5,365.1c9.7,0,16.3,4.4,16.3,14.4c0,9.7-6.9,14.4-16,14.4h-10v16h-9.7v-44.8H217.5z M208.1,386.1h8.9
		c4.4,0,7.7-1.4,7.7-6.4c0-4.7-3.3-6.4-7.7-6.4h-8.9V386.1z"/>
	<path fill="#FFFFFF" d="M276.1,410.2h-10.2l-3.6-10h-16.6l-3.6,10h-10l17.2-44.8h10.2L276.1,410.2z M254,376.2l-6.1,16.6h11.9
		L254,376.2z"/>
	<path fill="#FFFFFF" d="M302.7,381.4c9.1,0,16,4.4,16,14.4c0,10-6.6,14.4-16.3,14.4h-21v-44.8h33.2v8h-23.5v8H302.7L302.7,381.4z
		 M301.3,389.2h-10.5v13h10.5c4.7,0,7.7-1.7,7.7-6.4C309.1,390.8,305.8,389.2,301.3,389.2z"/>
	<path fill="#FFFFFF" d="M369.1,387.8c0,14.1-8.9,23.5-22.1,23.5c-13.3,0-22.1-9.4-22.1-23.5s8.9-23.5,22.1-23.5
		C360.3,364.3,369.1,373.7,369.1,387.8z M334.8,387.5c0,9.7,4.7,15.5,12.2,15.5c7.5,0,11.9-5.8,11.9-15.5c0-9.4-4.7-15.2-12.2-15.2
		C339.5,372.3,334.8,378.1,334.8,387.5z"/>
	<path fill="#FFFFFF" d="M409.2,373.7h-13.6v36.5h-10v-36.5h-13.6v-8.3H409v8.3H409.2z"/>
	<path fill="#FFFFFF" d="M450.5,410.2H440l-3.6-10h-16.6l-3.6,10h-10l17.2-44.8h10.2L450.5,410.2z M428.3,376.2l-6.1,16.6h11.9
		L428.3,376.2z"/>
	<path fill="#FFFFFF" d="M476.2,401.6c1.1,0.6,2.8,1.1,4.7,1.1c3,0,4.4-1.9,4.4-3.9s-1.1-3.9-2.2-5.8l-13.3-27.7h10.8l10.2,23.5
		l10-23.5h10.5l-15.2,32.9c-4.2,9.1-7.7,12.7-14.9,12.7c-2.5,0-4.4-0.6-5.5-1.1v-8.3H476.2z"/>
	<path fill="#FFFFFF" d="M574.4,410.2h-10v-19.4h-18.3v19.4h-10v-44.8h10v16.9h18.3v-16.9h10V410.2z"/>
	<path fill="#FFFFFF" d="M623.7,410.2h-10.2l-3.6-10h-16.6l-3.6,10h-10l17.2-44.8h10.2L623.7,410.2z M601.5,376.2l-6.1,16.6h11.9
		L601.5,376.2z"/>
	<path fill="#FFFFFF" d="M648.6,411c-13,0-21.6-9.4-21.6-23.5c0-13,8.3-23.5,22.1-23.5c10.8,0,18.5,6.9,19.4,16h-9.7
		c-1.1-5-4.7-7.7-10-7.7c-8.6,0-11.9,7.7-11.9,15.2c0,9.1,4.7,15.2,11.9,15.2c5.8,0,9.4-3.6,10.2-10h9.7
		C667.7,403.8,661,411,648.6,411z"/>
</g>
<g>
	<path fill="#FFFFFF" d="M922.8,885.6H78.9V377.8H22.7V100.3h739.6v185.9H984v342.6h-60.9v256.8H922.8z M90.2,874.5H912V617.7h60.9
		V297.3H751.2V111.4H33.8v255.4h56.4V874.5z"/>
</g>
<g>
	<g>
		<g>
			<g>
				<path fill="#FFFFFF" d="M175.7,263.8c-2.8,0-5-0.8-6.6-2.2c-1.7-1.7-2.5-4.2-2.5-7.7c-3,3.6-6.4,6.1-10.2,7.7
					c-3.9,1.7-8.3,2.2-12.7,2.2c-3,0-5.8-0.3-8.3-0.8c-2.8-0.6-5-1.7-6.9-3c-1.9-1.4-3.6-3.3-4.7-5.8c-1.1-2.2-1.7-5.3-1.7-8.3
					c0-3.6,0.6-6.6,1.9-9.1s3-4.4,5-5.8c1.9-1.4,4.4-2.5,7.2-3.3c2.8-0.8,5.3-1.4,8.3-1.9c3-0.6,5.8-1.1,8.3-1.4
					c2.8-0.3,5-0.8,6.9-1.4c1.9-0.6,3.6-1.4,4.7-2.5s1.7-2.5,1.7-4.7c0-2.2-0.6-4.2-1.4-5.8c-0.8-1.4-1.9-2.5-3.3-3.3
					c-1.4-0.8-3-1.4-4.7-1.7s-3.3-0.3-5.3-0.3c-4.4,0-8.3,0.8-11.3,2.5c-3,1.7-4.7,5-5,10h-10.8c0.3-4.2,1.1-7.5,2.5-10.2
					c1.4-2.8,3.6-5,6.1-6.6c2.5-1.7,5.5-3,8.9-3.9s6.6-1.1,10.5-1.1c3,0,5.8,0.3,8.9,0.6c2.8,0.6,5.5,1.4,8,2.5
					c2.5,1.4,4.2,3,5.8,5.5c1.4,2.5,2.2,5.5,2.2,9.1v33.8c0,2.5,0.3,4.4,0.6,5.5c0.3,1.1,1.4,1.7,3,1.7c0.8,0,1.9-0.3,3.3-0.6v8.3
					C181.5,263.3,179,263.8,175.7,263.8z M160.5,230.9c-2.2,0.6-4.4,0.8-6.9,1.1c-2.5,0.3-4.7,0.6-7.2,1.1c-2.5,0.3-4.7,1.1-6.6,1.9
					c-1.9,0.8-3.6,1.9-4.7,3.6c-1.1,1.7-1.9,3.6-1.9,6.4c0,1.7,0.3,3.3,1.1,4.4c0.8,1.1,1.7,2.2,2.8,3s2.5,1.4,4.2,1.7
					c1.7,0.3,3,0.6,4.7,0.6c3.6,0,6.6-0.6,9.1-1.4c2.5-0.8,4.7-2.2,6.1-3.6c1.7-1.4,2.8-3,3.6-4.7c0.8-1.7,1.1-3.3,1.1-5V229
					C164.6,229.8,162.7,230.4,160.5,230.9z"/>
			</g>
		</g>
		<path fill="#FFFFFF" d="M200.9,172.2v90.5h-10.8v-90.5H200.9z"/>
		<path fill="#FFFFFF" d="M259.8,258.3c-5,3.6-11.1,5.5-18.5,5.5c-5.3,0-9.7-0.8-13.6-2.5c-3.9-1.7-7.2-4.2-9.7-7.2
			c-2.5-3-4.7-6.6-5.8-10.8c-1.4-4.2-1.9-8.9-2.2-13.8c0-5,0.8-9.7,2.2-13.6c1.4-4.2,3.6-7.7,6.4-10.8s6.1-5.5,9.7-7.2
			c3.9-1.7,7.7-2.5,12.5-2.5c5.8,0,10.8,1.1,14.4,3.6c3.9,2.5,6.9,5.5,9.1,9.1s3.9,7.7,4.7,12.2c0.8,4.4,1.4,8.6,1.1,12.5h-48.7
			c0,2.8,0.3,5.5,1.1,8c0.8,2.5,1.9,5,3.6,6.9c1.7,1.9,3.9,3.6,6.4,4.7c2.5,1.1,5.8,1.7,9.1,1.7c4.4,0,8.3-1.1,11.3-3
			c2.8-2.2,4.7-5.3,5.8-9.7h10.5C267.8,249.2,264.8,254.7,259.8,258.3z M257.3,216.2c-1.1-2.2-2.2-4.2-3.9-5.8
			c-1.7-1.7-3.6-3-5.8-3.9c-2.2-1.1-4.7-1.4-7.5-1.4s-5.3,0.6-7.5,1.4c-2.2,1.1-4.2,2.2-5.8,3.9c-1.7,1.7-2.8,3.6-3.9,5.8
			c-0.8,2.2-1.4,4.7-1.7,7.2H259C258.7,220.9,258.2,218.7,257.3,216.2z"/>
		<path fill="#FFFFFF" d="M328.4,262.5v-8.9h-0.3c-1.7,3.6-4.7,6.4-8.3,7.7c-3.9,1.7-8,2.5-12.5,2.5c-5,0-9.4-0.8-13.3-2.8
			c-3.9-1.9-6.9-4.4-9.4-7.5c-2.5-3-4.4-6.6-5.5-10.8c-1.4-4.2-1.9-8.6-1.9-13.3s0.6-9.1,1.9-13.3c1.1-4.2,3-7.7,5.5-10.8
			c2.5-3,5.5-5.5,9.4-7.5c3.9-1.9,8-2.8,13-2.8c1.7,0,3.6,0.3,5.5,0.6c1.9,0.3,3.9,0.8,5.8,1.7c1.9,0.8,3.9,1.9,5.5,3
			c1.7,1.4,3.3,3,4.4,5h0.3v-33.2h10.8v90.5h-11.1V262.5z M289.7,239.2c0.8,3,1.9,5.5,3.6,7.7s3.9,4.2,6.4,5.5s5.5,1.9,9.1,1.9
			s6.6-0.8,9.1-2.2s4.7-3.3,6.1-5.5c1.7-2.2,2.8-5,3.6-8c0.8-3,1.1-5.8,1.1-9.1s-0.3-6.4-1.1-9.4c-0.8-3-1.9-5.5-3.6-8
			c-1.7-2.2-3.9-4.2-6.4-5.5c-2.5-1.4-5.8-2.2-9.4-2.2c-3.6,0-6.6,0.8-9.1,2.2c-2.5,1.4-4.4,3.3-6.1,5.8c-1.4,2.5-2.5,5-3.3,8
			c-0.6,3-1.1,6.1-1.1,9.4C288.3,233.4,288.9,236.4,289.7,239.2z"/>
		<path fill="#FFFFFF" d="M347.8,216.5c1.4-4.2,3.3-7.7,6.1-10.8c2.8-3,6.1-5.5,10-7.2c3.9-1.7,8.6-2.8,13.6-2.8
			c5.3,0,9.7,0.8,13.8,2.8c3.9,1.7,7.2,4.2,10,7.2c2.8,3,4.7,6.6,6.1,10.8c1.4,4.2,1.9,8.6,1.9,13.6c0,4.7-0.6,9.4-1.9,13.6
			c-1.4,4.2-3.3,7.7-6.1,10.8c-2.8,3-6.1,5.5-10,7.2c-3.9,1.7-8.6,2.5-13.8,2.5c-5.3,0-9.7-0.8-13.6-2.5c-3.9-1.7-7.2-4.2-10-7.2
			c-2.8-3-4.7-6.6-6.1-10.8c-1.4-4.2-1.9-8.6-1.9-13.6C345.9,225.1,346.4,220.7,347.8,216.5z M358.9,240.3c1.1,3,2.5,5.5,4.4,7.7
			c1.9,1.9,4.2,3.6,6.6,4.7c2.5,1.1,5.3,1.7,8,1.7c2.8,0,5.5-0.6,8-1.7s4.7-2.8,6.6-4.7c1.9-1.9,3.3-4.7,4.4-7.7
			c1.1-3,1.7-6.6,1.7-10.5s-0.6-7.5-1.7-10.5s-2.5-5.5-4.4-7.7c-1.9-2.2-4.2-3.6-6.6-4.7s-5.3-1.7-8-1.7c-2.8,0-5.5,0.6-8,1.7
			c-2.5,1.1-4.7,2.8-6.6,4.7c-1.9,2.2-3.3,4.7-4.4,7.7c-1.1,3-1.7,6.6-1.7,10.5C357.2,234,357.8,237.3,358.9,240.3z"/>
		<g>
			<g>
				<path fill="#FFFFFF" d="M88.3,218.5c-5.8,0-10.5-4.7-10.5-10.5s4.7-10.5,10.5-10.5c5.8,0,10.5,4.7,10.5,10.5
					S94.1,218.5,88.3,218.5z M88.3,201.6c-3.6,0-6.4,2.8-6.4,6.4s2.8,6.4,6.4,6.4s6.4-2.8,6.4-6.4S91.9,201.6,88.3,201.6z"/>
			</g>
		</g>
		<path fill="#FFFFFF" d="M446.9,217.6c-5.3,0-9.4-4.2-9.4-9.4c0-5.3,4.2-9.4,9.4-9.4s9.4,4.2,9.4,9.4
			C456.6,213.2,452.1,217.6,446.9,217.6z M446.9,200.5c-4.2,0-7.5,3.3-7.5,7.5s3.3,7.5,7.5,7.5c4.2,0,7.5-3.3,7.5-7.5
			S451,200.5,446.9,200.5z"/>
		<path fill="#FFFFFF" d="M482.6,217.6c-5.3,0-9.4-4.2-9.4-9.4c0-5.3,4.2-9.4,9.4-9.4c5.3,0,9.4,4.2,9.4,9.4
			C492.3,213.2,487.8,217.6,482.6,217.6z M482.6,200.5c-4.2,0-7.5,3.3-7.5,7.5s3.3,7.5,7.5,7.5c4.2,0,7.5-3.3,7.5-7.5
			C490,203.8,486.7,200.5,482.6,200.5z"/>
		<path fill="#FFFFFF" d="M518.3,216.8c-5.3,0-9.4-4.2-9.4-9.4s4.4-9.4,9.4-9.4c5.3,0,9.4,4.2,9.4,9.4S523.5,216.8,518.3,216.8z
			 M518.3,199.9c-4.2,0-7.5,3.3-7.5,7.5s3.3,7.5,7.5,7.5s7.5-3.3,7.5-7.5S522.4,199.9,518.3,199.9z"/>
		<path fill="#FFFFFF" d="M554,217.6c-5.3,0-9.4-4.2-9.4-9.4c0-5.3,4.2-9.4,9.4-9.4c5.3,0,9.4,4.2,9.4,9.4
			C563.4,213.2,559.2,217.6,554,217.6z M554,200.5c-4.2,0-7.5,3.3-7.5,7.5s3.3,7.5,7.5,7.5c4.2,0,7.5-3.3,7.5-7.5
			S558.1,200.5,554,200.5z"/>
	</g>
</g>
<g>
	<path fill="#FFFFFF" d="M193.1,588.7v-29.6h21.6v3.6h-17.4v9.1h16.3v3.6h-16.3v10.2h18.3v3.6h-22.4V588.7z"/>
	<path fill="#FFFFFF" d="M235.5,580.7l3.6,0.6c-0.3,2.5-1.4,4.4-3,5.8c-1.7,1.4-3.6,2.2-6.1,2.2c-3,0-5.3-0.8-7.2-2.8
		c-1.7-1.9-2.8-4.7-2.8-8.3c0-2.2,0.3-4.4,1.1-6.1c0.8-1.7,1.9-3,3.6-3.9c1.7-0.8,3.3-1.4,5.3-1.4c2.2,0,4.2,0.6,5.8,1.7
		c1.4,1.1,2.5,2.8,2.8,5l-3.6,0.6c-0.3-1.4-0.8-2.5-1.7-3.3c-0.8-0.8-1.9-1.1-3-1.1c-1.9,0-3.3,0.6-4.4,1.9s-1.7,3.3-1.7,6.4
		c0,2.8,0.6,5,1.7,6.4c1.1,1.4,2.5,1.9,4.4,1.9c1.4,0,2.5-0.6,3.6-1.4C234.9,584,235.2,582.6,235.5,580.7z"/>
	<path fill="#FFFFFF" d="M244.9,567.1h16.9v21.6h-3.6v-18.5h-9.7v10.8c0,2.5,0,4.2-0.3,5c-0.3,0.8-0.6,1.4-1.4,2.2
		c-0.8,0.8-1.7,0.8-3,0.8c-0.8,0-1.9,0-3-0.3v-3h1.7c0.8,0,1.4,0,1.7-0.3c0.3-0.3,0.6-0.3,0.6-0.8s0.3-1.4,0.3-3.3L244.9,567.1
		L244.9,567.1z"/>
	<path fill="#FFFFFF" d="M268.1,567.1h3.6v16.3l10.2-16.3h3.9v21.6h-3.6v-16.3L272,588.7h-3.9V567.1z"/>
	<path fill="#FFFFFF" d="M302.7,567.1h17.4v3h-6.9v18.5h-3.6v-18.5h-6.9V567.1z"/>
	<path fill="#FFFFFF" d="M324.6,567.1h3.6v8.3h4.7c3,0,5.3,0.6,6.9,1.7c1.7,1.1,2.5,2.8,2.5,4.7c0,1.7-0.6,3.3-1.9,4.7
		c-1.4,1.4-3.6,1.9-6.6,1.9h-9.1V567.1z M328.2,585.6h3.9c2.2,0,3.9-0.3,5-0.8s1.4-1.4,1.4-2.8c0-0.8-0.3-1.7-1.1-2.5
		c-0.8-0.8-2.2-1.1-5-1.1h-4.4v7.2H328.2z M345,567.1h3.6v21.6H345V567.1z"/>
	<path fill="#FFFFFF" d="M367.7,567.1h3.6v18.5h10v-18.5h3.6v18.5h2.2v9.1h-2.5v-6.1H368v-21.6H367.7z"/>
	<path fill="#FFFFFF" d="M407.3,581.8l3.9,0.6c-0.6,2.2-1.7,3.9-3.3,5.3c-1.7,1.1-3.6,1.9-6.1,1.9c-3,0-5.5-1.1-7.5-3
		c-1.9-1.9-2.8-4.7-2.8-8c0-3.6,0.8-6.4,2.8-8.3c1.9-1.9,4.2-3,7.2-3c2.8,0,5.3,1.1,6.9,3c1.9,1.9,2.8,4.7,2.8,8.3
		c0,0.3,0,0.6,0,1.1h-16c0,2.5,0.8,4.2,1.9,5.5c1.1,1.4,2.8,1.9,4.4,1.9c1.4,0,2.5-0.3,3.3-1.1C405.6,585.1,406.8,583.1,407.3,581.8
		z M395.1,575.7H407c-0.3-1.9-0.6-3-1.4-4.2c-1.1-1.4-2.8-2.2-4.4-2.2c-1.7,0-3,0.6-4.2,1.7C396,572.4,395.4,574,395.1,575.7z"/>
	<path fill="#FFFFFF" d="M418.1,567.1H435v21.6h-3.3v-18.5H422v10.8c0,2.5,0,4.2-0.3,5c-0.3,0.8-0.6,1.4-1.4,2.2
		c-0.8,0.8-1.7,0.8-3,0.8c-0.8,0-1.9,0-3-0.3v-3h1.7c0.8,0,1.4,0,1.7-0.3c0.3-0.3,0.6-0.3,0.6-0.8s0.3-1.4,0.3-3.3v-14.1H418.1z"/>
	<path fill="#FFFFFF" d="M456.3,581.8l3.9,0.6c-0.6,2.2-1.7,3.9-3.3,5.3c-1.7,1.1-3.6,1.9-6.1,1.9c-3,0-5.5-1.1-7.5-3
		c-1.9-1.9-2.8-4.7-2.8-8c0-3.6,0.8-6.4,2.8-8.3c1.9-1.9,4.2-3,7.2-3c2.8,0,5.3,1.1,6.9,3c1.9,1.9,2.8,4.7,2.8,8.3
		c0,0.3,0,0.6,0,1.1h-16c0,2.5,0.8,4.2,1.9,5.5c1.1,1.4,2.8,1.9,4.4,1.9c1.4,0,2.5-0.3,3.3-1.1C454.6,585.1,455.7,583.1,456.3,581.8
		z M444.4,575.7h11.9c-0.3-1.9-0.6-3-1.4-4.2c-1.1-1.4-2.8-2.2-4.4-2.2s-3,0.6-4.2,1.7C445.2,572.4,444.4,574,444.4,575.7z"/>
	<path fill="#FFFFFF" d="M465.4,597l-0.3-3.3c0.8,0.3,1.4,0.3,2.2,0.3s1.4,0,1.9-0.3c0.6-0.3,0.8-0.6,1.1-1.1
		c0.3-0.3,0.6-1.4,1.1-2.8c0-0.3,0.3-0.6,0.3-0.8l-8.3-21.6h3.9l4.4,12.5c0.6,1.7,1.1,3.3,1.7,5c0.6-1.7,0.8-3.3,1.4-5l4.7-12.5h3.6
		l-8.3,21.9c-0.8,2.5-1.7,3.9-1.9,5c-0.6,1.1-1.4,2.2-2.2,2.8c-0.8,0.6-1.9,0.8-3,0.8C467.1,597.3,466.2,597.3,465.4,597z"/>
	<path fill="#FFFFFF" d="M501.4,580.7l3.6,0.6c-0.3,2.5-1.4,4.4-3,5.8c-1.7,1.4-3.6,2.2-6.1,2.2c-3,0-5.3-0.8-7.2-2.8
		c-1.7-1.9-2.8-4.7-2.8-8.3c0-2.2,0.3-4.4,1.1-6.1c0.8-1.7,1.9-3,3.6-3.9c1.7-0.8,3.3-1.4,5.3-1.4c2.2,0,4.2,0.6,5.8,1.7
		c1.4,1.1,2.5,2.8,2.8,5l-3.6,0.6c-0.3-1.4-0.8-2.5-1.7-3.3c-0.8-0.8-1.9-1.1-3-1.1c-1.9,0-3.3,0.6-4.4,1.9
		c-1.1,1.4-1.7,3.3-1.7,6.4c0,2.8,0.6,5,1.7,6.4c1.1,1.4,2.5,1.9,4.4,1.9c1.4,0,2.5-0.6,3.6-1.4C500.8,584,501.1,582.6,501.4,580.7z
		"/>
	<path fill="#FFFFFF" d="M506.9,567.1h17.4v3h-6.9v18.5h-3.6v-18.5h-6.9V567.1z"/>
	<path fill="#FFFFFF" d="M528.8,596.7v-29.9h3.3v2.8c0.8-1.1,1.7-1.9,2.8-2.5c1.1-0.6,2.2-0.8,3.6-0.8c1.9,0,3.6,0.6,5,1.4
		c1.4,0.8,2.5,2.2,3.3,3.9c0.8,1.7,1.1,3.6,1.1,5.5c0,2.2-0.3,4.2-1.1,5.8c-0.8,1.7-1.9,3-3.3,4.2c-1.4,0.8-3,1.4-4.7,1.4
		c-1.1,0-2.2-0.3-3.3-0.8c-0.8-0.6-1.7-1.1-2.5-1.9v10.5h-4.2V596.7z M532.1,577.9c0,2.8,0.6,4.7,1.7,6.1c1.1,1.4,2.5,1.9,4.2,1.9
		s3-0.6,4.2-1.9c1.1-1.4,1.7-3.6,1.7-6.4s-0.6-4.7-1.7-6.1c-1.1-1.4-2.5-1.9-4.2-1.9s-3,0.8-4.2,2.2
		C532.7,573.2,532.1,575.1,532.1,577.9z"/>
	<path fill="#FFFFFF" d="M567.5,581.8l3.9,0.6c-0.6,2.2-1.7,3.9-3.3,5.3c-1.7,1.1-3.6,1.9-6.1,1.9c-3,0-5.5-1.1-7.5-3
		c-1.9-1.9-2.8-4.7-2.8-8c0-3.6,0.8-6.4,2.8-8.3s4.2-3,7.2-3c2.8,0,5.3,1.1,6.9,3c1.9,1.9,2.8,4.7,2.8,8.3c0,0.3,0,0.6,0,1.1h-16
		c0,2.5,0.8,4.2,1.9,5.5c1.1,1.4,2.8,1.9,4.4,1.9c1.4,0,2.5-0.3,3.3-1.1C565.9,585.1,567,583.1,567.5,581.8z M555.6,575.7h11.9
		c-0.3-1.9-0.6-3-1.4-4.2c-1.1-1.4-2.8-2.2-4.4-2.2s-3,0.6-4.2,1.7C556.4,572.4,555.6,574,555.6,575.7z"/>
	<path fill="#FFFFFF" d="M576.9,567.1h5.8l5.5,17.2l6.4-17.2h5.3v21.6h-3.6v-17.4l-6.4,17.4h-3.3l-6.1-18.3v18.3h-3.6V567.1z"/>
	<path fill="#FFFFFF" d="M607.9,567.1h16.9v21.6h-3.6v-18.5h-9.7v10.8c0,2.5,0,4.2-0.3,5c-0.3,0.8-0.6,1.4-1.4,2.2
		c-0.8,0.8-1.7,0.8-3,0.8c-0.8,0-1.9,0-3-0.3v-3h1.7c0.8,0,1.4,0,1.7-0.3c0.3-0.3,0.6-0.3,0.6-0.8s0.3-1.4,0.3-3.3V567.1z"/>
	<path fill="#FFFFFF" d="M646.1,581.8l3.9,0.6c-0.6,2.2-1.7,3.9-3.3,5.3c-1.7,1.1-3.6,1.9-6.1,1.9c-3,0-5.5-1.1-7.5-3
		c-1.9-1.9-2.8-4.7-2.8-8c0-3.6,0.8-6.4,2.8-8.3c1.9-1.9,4.2-3,7.2-3c2.8,0,5.3,1.1,6.9,3c1.9,1.9,2.8,4.7,2.8,8.3
		c0,0.3,0,0.6,0,1.1h-16c0,2.5,0.8,4.2,1.9,5.5c1.1,1.4,2.8,1.9,4.4,1.9c1.4,0,2.5-0.3,3.3-1.1C644.4,585.1,645.5,583.1,646.1,581.8
		z M634.2,575.7h11.9c-0.3-1.9-0.6-3-1.4-4.2c-1.1-1.4-2.8-2.2-4.4-2.2c-1.7,0-3,0.6-4.2,1.7C635,572.4,634.2,574,634.2,575.7z"/>
	<path fill="#FFFFFF" d="M655.5,567.1h3.6v8.9h10.2v-8.9h3.6v21.6h-3.6v-9.4h-10.2v9.4h-3.6V567.1z"/>
	<path fill="#FFFFFF" d="M680.1,588.7v-4.2h4.2v4.2c0,1.7-0.3,2.8-0.8,3.6c-0.6,0.8-1.4,1.7-2.5,2.2l-1.1-1.7
		c0.8-0.3,1.4-0.8,1.7-1.4s0.6-1.7,0.6-2.8H680.1z"/>
	<path fill="#FFFFFF" d="M192.6,636.3h3.9v9.4c1.1,0,1.9-0.3,2.5-0.6c0.6-0.6,1.1-1.7,1.9-3.9c0.8-1.7,1.4-2.8,1.7-3.3
		c0.3-0.6,0.8-0.8,1.7-1.1s1.4-0.3,2.8-0.3h0.6v3h-1.1c-0.8,0-1.7,0.3-1.9,0.6c-0.3,0.3-0.8,1.1-1.4,2.8c-0.6,1.4-1.1,2.5-1.4,3
		c-0.3,0.6-1.1,1.1-2.2,1.4c1.7,0.6,3,1.9,4.7,4.4l3.9,6.6h-4.2l-3.9-6.6c-0.8-1.4-1.4-2.2-2.2-2.8c-0.6-0.6-1.4-0.6-2.2-0.6v10H192
		v-22.1H192.6z"/>
	<path fill="#FFFFFF" d="M211.7,665.9V636h3.3v2.8c0.8-1.1,1.7-1.9,2.8-2.5c1.1-0.6,2.2-0.8,3.6-0.8c1.9,0,3.6,0.6,5,1.4
		c1.4,0.8,2.5,2.2,3.3,3.9c0.8,1.7,1.1,3.6,1.1,5.5c0,2.2-0.3,4.2-1.1,5.8c-0.8,1.7-1.9,3-3.3,4.2c-1.4,0.8-3,1.4-4.7,1.4
		c-1.1,0-2.2-0.3-3.3-0.8c-0.8-0.6-1.7-1.1-2.5-1.9v10.5h-4.2V665.9z M215,647.1c0,2.8,0.6,4.7,1.7,6.1c1.1,1.4,2.5,1.9,4.2,1.9
		s3-0.6,4.2-1.9c1.1-1.4,1.7-3.6,1.7-6.4s-0.6-4.7-1.7-6.1c-1.1-1.4-2.5-1.9-4.2-1.9s-3,0.8-4.2,2.2
		C215.6,642.4,215,644.3,215,647.1z"/>
	<path fill="#FFFFFF" d="M250.4,650.9l3.9,0.6c-0.6,2.2-1.7,3.9-3.3,5.3c-1.7,1.1-3.6,1.9-6.1,1.9c-3,0-5.5-1.1-7.5-3
		c-1.9-1.9-2.8-4.7-2.8-8c0-3.6,0.8-6.4,2.8-8.3c1.9-1.9,4.2-3,7.2-3c2.8,0,5.3,1.1,6.9,3c1.9,1.9,2.8,4.7,2.8,8.3
		c0,0.3,0,0.6,0,1.1h-16c0,2.5,0.8,4.2,1.9,5.5c1.1,1.4,2.8,1.9,4.4,1.9c1.4,0,2.5-0.3,3.3-1.1S249.9,652.3,250.4,650.9z
		 M238.5,644.9h11.9c-0.3-1.9-0.6-3-1.4-4.2c-1.1-1.4-2.8-2.2-4.4-2.2c-1.7,0-3,0.6-4.2,1.7C239.3,641.5,238.8,643.2,238.5,644.9z"
		/>
	<path fill="#FFFFFF" d="M273.9,655.1c-1.4,1.1-2.8,1.9-3.9,2.5c-1.4,0.6-2.5,0.8-4.2,0.8c-2.5,0-4.2-0.6-5.5-1.7s-1.9-2.8-1.9-4.4
		c0-1.1,0.3-1.9,0.8-2.8c0.6-0.8,1.1-1.7,1.9-2.2c0.8-0.6,1.7-0.8,2.5-1.1c0.8-0.3,1.7-0.3,3.3-0.6c3-0.3,5-0.8,6.6-1.4
		c0-0.6,0-0.8,0-0.8c0-1.4-0.3-2.5-1.1-3c-0.8-0.8-2.2-1.1-4.2-1.1c-1.7,0-3,0.3-3.9,0.8s-1.4,1.7-1.9,3.3l-3.6-0.6
		c0.3-1.7,0.8-2.8,1.7-3.6c0.8-0.8,1.9-1.7,3.3-2.2c1.4-0.6,3-0.8,5-0.8c1.9,0,3.3,0.3,4.4,0.6c1.1,0.6,1.9,1.1,2.5,1.7
		c0.6,0.6,0.8,1.4,1.1,2.5c0,0.6,0.3,1.7,0.3,3.3v5c0,3.3,0,5.5,0.3,6.4c0.3,0.8,0.6,1.7,0.8,2.5h-3.9
		C274.2,657,273.9,656.2,273.9,655.1z M273.4,647.1c-1.4,0.6-3.3,1.1-6.1,1.4c-1.4,0.3-2.5,0.6-3,0.8s-1.1,0.6-1.4,1.1
		c-0.3,0.6-0.6,1.1-0.6,1.7c0,1.1,0.3,1.7,1.1,2.5c0.8,0.6,1.9,1.1,3.3,1.1s2.8-0.3,3.9-0.8s1.9-1.4,2.5-2.5
		c0.3-0.8,0.6-1.9,0.6-3.6v-1.7H273.4z"/>
	<path fill="#FFFFFF" d="M281.7,636.3h17.4v3h-6.9v18.5h-3.6v-18.5h-6.9V636.3z"/>
	<path fill="#FFFFFF" d="M303.8,636.3h3.6v16.3l10.2-16.3h3.9v21.6h-3.6v-16.3l-10.2,16.3h-3.9V636.3z"/>
	<path fill="#FFFFFF" d="M327.9,636.3h8.3c1.9,0,3.6,0.3,4.7,0.6c1.1,0.3,1.9,1.1,2.5,1.9c0.8,0.8,1.1,1.9,1.1,3.3
		c0,1.1-0.3,1.9-0.6,2.8c-0.6,0.8-1.1,1.4-1.9,1.9c1.1,0.3,1.9,1.1,2.5,1.9c0.6,0.8,1.1,1.9,1.1,3.3c0,1.9-0.8,3.6-2.2,4.4
		c-1.4,0.8-3.3,1.4-5.8,1.4h-9.7V636.3L327.9,636.3z M331.5,645.4h3.9c1.7,0,2.5,0,3.3-0.3c0.8-0.3,1.1-0.6,1.7-1.1s0.8-1.1,0.8-1.7
		c0-1.1-0.3-1.9-1.1-2.5s-2.2-0.6-4.2-0.6h-4.2v6.1H331.5z M331.5,654.8h4.7c1.9,0,3.6-0.3,4.2-0.8c0.8-0.6,1.1-1.4,1.1-2.5
		c0-0.6-0.3-1.4-0.6-1.9c-0.6-0.6-1.1-0.8-1.7-1.1c-0.6-0.3-1.9-0.3-3.3-0.3h-4.4L331.5,654.8L331.5,654.8z"/>
	<path fill="#FFFFFF" d="M365.5,650.9l3.9,0.6c-0.6,2.2-1.7,3.9-3.3,5.3c-1.7,1.1-3.6,1.9-6.1,1.9c-3,0-5.5-1.1-7.5-3
		c-1.9-1.9-2.8-4.7-2.8-8c0-3.6,0.8-6.4,2.8-8.3c1.9-1.9,4.2-3,7.2-3c2.8,0,5.3,1.1,6.9,3c1.9,1.9,2.8,4.7,2.8,8.3
		c0,0.3,0,0.6,0,1.1h-16c0,2.5,0.8,4.2,1.9,5.5c1.1,1.4,2.8,1.9,4.4,1.9c1.4,0,2.5-0.3,3.3-1.1S365,652.3,365.5,650.9z M353.6,644.9
		h11.9c-0.3-1.9-0.6-3-1.4-4.2c-1.1-1.4-2.8-2.2-4.4-2.2c-1.7,0-3,0.6-4.2,1.7C354.2,641.5,353.6,643.2,353.6,644.9z"/>
	<path fill="#FFFFFF" d="M374.7,636.3h3.6v8.9h10.2v-8.9h3.6v21.6h-3.6v-9.4h-10.2v9.4h-3.6V636.3z"/>
	<path fill="#FFFFFF" d="M399.6,657.9v-4.2h4.2v4.2c0,1.7-0.3,2.8-0.8,3.6c-0.6,0.8-1.4,1.7-2.5,2.2l-1.1-1.7
		c0.8-0.3,1.4-0.8,1.7-1.4c0.3-0.6,0.6-1.7,0.6-2.8H399.6z"/>
	<path fill="#FFFFFF" d="M423.4,636.3h3.6v9.4c1.1,0,1.9-0.3,2.5-0.6c0.6-0.6,1.1-1.7,1.9-3.9c0.8-1.7,1.4-2.8,1.7-3.3
		c0.3-0.6,0.8-0.8,1.7-1.1c0.8-0.3,1.4-0.3,2.8-0.3h0.8v3h-1.1c-0.8,0-1.7,0.3-1.9,0.6s-0.8,1.1-1.4,2.8c-0.6,1.4-1.1,2.5-1.4,3
		c-0.3,0.6-1.1,1.1-2.2,1.4c1.7,0.6,3,1.9,4.7,4.4l3.9,6.6h-4.2l-3.9-6.6c-0.8-1.4-1.4-2.2-2.2-2.8c-0.6-0.6-1.4-0.6-2.2-0.6v10h-3
		V636.3z"/>
	<path fill="#FFFFFF" d="M441.1,647.1c0-3.9,1.1-6.9,3.3-8.9c1.9-1.7,4.2-2.5,6.6-2.5c3,0,5.3,1.1,7.2,3c1.9,1.9,2.8,4.7,2.8,8
		c0,2.8-0.3,5-1.4,6.6c-0.8,1.7-1.9,2.8-3.6,3.6c-1.7,0.8-3.3,1.4-5.3,1.4c-3,0-5.5-0.8-7.2-2.8
		C442.2,653.4,441.1,650.7,441.1,647.1z M444.9,647.1c0,2.8,0.6,4.7,1.9,6.1c1.4,1.4,2.8,1.9,4.4,1.9c1.9,0,3.3-0.6,4.4-1.9
		c1.1-1.4,1.9-3.6,1.9-6.4s-0.6-4.7-1.9-6.1c-1.1-1.4-2.8-1.9-4.4-1.9c-1.9,0-3.3,0.6-4.4,1.9C445.8,642.1,444.9,644.3,444.9,647.1z
		"/>
	<path fill="#FFFFFF" d="M466.5,636.3h5.8l5.5,17.2l6.4-17.2h5.3v21.6h-3.6v-17.4l-6.4,17.4h-3.3l-6.1-18.3v18.3h-3.6V636.3z"/>
	<path fill="#FFFFFF" d="M496.1,636.3h5.8l5.5,17.2l6.4-17.2h5.3v21.6h-3.6v-17.4l-6.4,17.4h-3.3l-6.1-18.3v18.3h-3.6V636.3z"/>
	<path fill="#FFFFFF" d="M525.2,666.2l-0.3-3.3c0.8,0.3,1.4,0.3,2.2,0.3s1.4,0,1.9-0.3s0.8-0.6,1.1-1.1c0.3-0.3,0.6-1.4,1.1-2.8
		c0-0.3,0.3-0.6,0.3-0.8l-8.3-21.6h3.9l4.4,12.5c0.6,1.7,1.1,3.3,1.7,5c0.6-1.7,0.8-3.3,1.4-5l4.7-12.5h3.6l-8.3,21.9
		c-0.8,2.5-1.7,3.9-1.9,5c-0.6,1.1-1.4,2.2-2.2,2.8c-0.8,0.6-1.9,0.8-3,0.8C526.8,666.4,526,666.4,525.2,666.2z"/>
	<path fill="#FFFFFF" d="M547,636.3h3.6v8.9h10.2v-8.9h3.6v21.6h-3.6v-9.4h-10.2v9.4H547V636.3z"/>
	<path fill="#FFFFFF" d="M570.8,636.3h3.6v16.3l10.2-16.3h3.9v21.6h-3.6v-16.3l-10.2,16.3h-3.9V636.3z"/>
	<path fill="#FFFFFF" d="M594.9,636.3h3.6v9.4c1.1,0,1.9-0.3,2.5-0.6c0.6-0.6,1.1-1.7,1.9-3.9c0.8-1.7,1.4-2.8,1.7-3.3
		c0.3-0.6,0.8-0.8,1.7-1.1c0.8-0.3,1.4-0.3,2.8-0.3h0.8v3h-1.1c-0.8,0-1.7,0.3-1.9,0.6s-0.8,1.1-1.4,2.8c-0.6,1.4-1.1,2.5-1.4,3
		c-0.3,0.6-1.1,1.1-2.2,1.4c1.7,0.6,3,1.9,4.7,4.4l3.9,6.6h-4.2l-3.9-6.6c-0.8-1.4-1.4-2.2-2.2-2.8c-0.6-0.6-1.4-0.6-2.2-0.6v10h-3
		V636.3z"/>
	<path fill="#FFFFFF" d="M628.1,655.1c-1.4,1.1-2.8,1.9-3.9,2.5c-1.4,0.6-2.5,0.8-4.2,0.8c-2.5,0-4.2-0.6-5.5-1.7
		c-1.4-1.1-1.9-2.8-1.9-4.4c0-1.1,0.3-1.9,0.8-2.8c0.6-0.8,1.1-1.7,1.9-2.2c0.8-0.6,1.7-0.8,2.5-1.1c0.8-0.3,1.7-0.3,3.3-0.6
		c3-0.3,5-0.8,6.6-1.4c0-0.6,0-0.8,0-0.8c0-1.4-0.3-2.5-1.1-3c-0.8-0.8-2.2-1.1-4.2-1.1c-1.7,0-3,0.3-3.9,0.8s-1.4,1.7-1.9,3.3
		l-3.6-0.6c0.3-1.7,0.8-2.8,1.7-3.6c0.8-0.8,1.9-1.7,3.3-2.2c1.4-0.6,3-0.8,5-0.8c1.9,0,3.3,0.3,4.4,0.6c1.1,0.6,1.9,1.1,2.5,1.7
		c0.6,0.6,0.8,1.4,1.1,2.5c0,0.6,0.3,1.7,0.3,3.3v5c0,3.3,0,5.5,0.3,6.4c0.3,0.8,0.6,1.7,0.8,2.5h-3.9
		C628.4,657,628.4,656.2,628.1,655.1z M627.8,647.1c-1.4,0.6-3.3,1.1-6.1,1.4c-1.4,0.3-2.5,0.6-3,0.8c-0.6,0.3-1.1,0.6-1.4,1.1
		c-0.3,0.6-0.6,1.1-0.6,1.7c0,1.1,0.3,1.7,1.1,2.5c0.8,0.6,1.9,1.1,3.3,1.1c1.4,0,2.8-0.3,3.9-0.8c1.1-0.6,1.9-1.4,2.5-2.5
		c0.3-0.8,0.6-1.9,0.6-3.6v-1.7H627.8z"/>
	<path fill="#FFFFFF" d="M653.8,627.4h3.3c-0.3,1.4-0.6,2.5-0.8,3c-0.6,0.6-1.1,0.8-1.9,1.1c-0.8,0.3-2.2,0.3-4.7,0.3
		c-3,0-5,0.3-6.1,0.8c-1.1,0.6-1.9,1.4-2.5,2.8c-0.6,1.4-0.8,3-0.8,5c0.8-1.4,1.9-2.5,3.3-3c1.4-0.6,2.5-1.1,4.2-1.1
		c2.8,0,5.3,1.1,6.9,3c1.9,1.9,2.8,4.4,2.8,7.7c0,2.5-0.6,4.7-1.4,6.1c-0.8,1.7-1.9,2.8-3.3,3.6c-1.4,0.8-3,1.4-5.3,1.4
		c-2.5,0-4.4-0.6-6.1-1.7c-1.4-1.1-2.5-2.8-3.3-4.4c-0.8-1.7-1.1-5-1.1-9.4c0-5.8,0.8-9.4,2.8-11.6c1.9-1.9,5-3,8.9-3
		c2.5,0,3.9,0,4.2,0C653.6,628,653.8,627.7,653.8,627.4z M653.6,647.1c0-2.2-0.6-4.2-1.7-5.5c-1.1-1.4-2.5-2.2-4.4-2.2
		c-1.9,0-3.6,0.8-4.7,2.2c-1.1,1.4-1.7,3.6-1.7,6.1s0.6,4.4,1.9,5.8c1.1,1.4,2.8,1.9,4.4,1.9c1.9,0,3.3-0.8,4.4-2.2
		C653,651.5,653.6,649.6,653.6,647.1z"/>
	<path fill="#FFFFFF" d="M677.6,650.9l3.9,0.6c-0.6,2.2-1.7,3.9-3.3,5.3c-1.7,1.1-3.6,1.9-6.1,1.9c-3,0-5.5-1.1-7.5-3
		c-1.9-1.9-2.8-4.7-2.8-8c0-3.6,0.8-6.4,2.8-8.3c1.9-1.9,4.2-3,7.2-3c2.8,0,5.3,1.1,6.9,3c1.9,1.9,2.8,4.7,2.8,8.3
		c0,0.3,0,0.6,0,1.1h-16c0,2.5,0.8,4.2,1.9,5.5c1.1,1.4,2.8,1.9,4.4,1.9c1.4,0,2.5-0.3,3.3-1.1C676,654.3,677.1,652.3,677.6,650.9z
		 M665.5,644.9h11.9c-0.3-1.9-0.6-3-1.4-4.2c-1.1-1.4-2.8-2.2-4.4-2.2s-3,0.6-4.2,1.7C666.3,641.5,665.7,643.2,665.5,644.9z"/>
	<path fill="#FFFFFF" d="M688.4,636.3h16.9v21.6h-3.6v-18.5H692v10.8c0,2.5,0,4.2-0.3,5c-0.3,0.8-0.6,1.4-1.4,2.2
		c-0.8,0.8-1.7,0.8-3,0.8c-0.8,0-1.9,0-3-0.3v-3h1.7c0.8,0,1.4,0,1.7-0.3s0.6-0.3,0.6-0.8s0.3-1.4,0.3-3.3V636.3z"/>
	<path fill="#FFFFFF" d="M726.6,650.9l3.9,0.6c-0.6,2.2-1.7,3.9-3.3,5.3c-1.7,1.1-3.6,1.9-6.1,1.9c-3,0-5.5-1.1-7.5-3
		c-1.9-1.9-2.8-4.7-2.8-8c0-3.6,0.8-6.4,2.8-8.3c1.9-1.9,4.2-3,7.2-3c2.8,0,5.3,1.1,6.9,3c1.9,1.9,2.8,4.7,2.8,8.3
		c0,0.3,0,0.6,0,1.1h-16c0,2.5,0.8,4.2,1.9,5.5c1.1,1.4,2.8,1.9,4.4,1.9c1.4,0,2.5-0.3,3.3-1.1S726.1,652.3,726.6,650.9z
		 M714.7,644.9h11.9c-0.3-1.9-0.6-3-1.4-4.2c-1.1-1.4-2.8-2.2-4.4-2.2s-3,0.6-4.2,1.7C715.6,641.5,714.7,643.2,714.7,644.9z"/>
	<path fill="#FFFFFF" d="M736,636.3h3.6v8.9h10.2v-8.9h3.6v21.6h-3.6v-9.4h-10.2v9.4H736V636.3z"/>
	<path fill="#FFFFFF" d="M772.3,636.3h3.6v16.3l10.2-16.3h3.9v21.6h-3.6v-16.3l-10.2,16.3h-3.9V636.3z"/>
	<path fill="#FFFFFF" d="M192.9,705.5h16.9V727h-3.6v-18.5h-9.7V727h-3.6V705.5z"/>
	<path fill="#FFFFFF" d="M214.7,716.2c0-3.9,1.1-6.9,3.3-8.9c1.9-1.7,4.2-2.5,6.6-2.5c3,0,5.3,1.1,7.2,3c1.9,1.9,2.8,4.7,2.8,8
		c0,2.8-0.3,5-1.4,6.6c-0.8,1.7-1.9,2.8-3.6,3.6c-1.7,0.8-3.3,1.4-5.3,1.4c-3,0-5.5-0.8-7.2-2.8
		C215.6,722.6,214.7,719.8,214.7,716.2z M218.6,716.2c0,2.8,0.6,4.7,1.9,6.1c1.4,1.4,2.8,1.9,4.4,1.9c1.9,0,3.3-0.6,4.4-1.9
		c1.1-1.4,1.9-3.6,1.9-6.4c0-2.8-0.6-4.7-1.9-6.1c-1.1-1.4-2.8-1.9-4.4-1.9c-1.9,0-3.3,0.6-4.4,1.9S218.6,713.5,218.6,716.2z"/>
	<path fill="#FFFFFF" d="M241.8,705.5h16.9V727h-3.6v-18.5h-9.7v10.8c0,2.5,0,4.2-0.3,5c-0.3,0.8-0.6,1.4-1.4,2.2
		c-0.8,0.8-1.7,0.8-3,0.8c-0.8,0-1.9,0-3-0.3v-3h1.7c0.8,0,1.4,0,1.7-0.3s0.6-0.3,0.6-0.8c0-0.6,0.3-1.4,0.3-3.3L241.8,705.5
		L241.8,705.5z"/>
	<path fill="#FFFFFF" d="M264,716.2c0-3.9,1.1-6.9,3.3-8.9c1.9-1.7,4.2-2.5,6.6-2.5c3,0,5.3,1.1,7.2,3c1.9,1.9,2.8,4.7,2.8,8
		c0,2.8-0.3,5-1.4,6.6c-0.8,1.7-1.9,2.8-3.6,3.6c-1.7,0.8-3.3,1.4-5.3,1.4c-3,0-5.5-0.8-7.2-2.8C264.8,722.6,264,719.8,264,716.2z
		 M267.6,716.2c0,2.8,0.6,4.7,1.9,6.1c1.4,1.4,2.8,1.9,4.4,1.9c1.9,0,3.3-0.6,4.4-1.9c1.1-1.4,1.9-3.6,1.9-6.4
		c0-2.8-0.6-4.7-1.9-6.1c-1.1-1.4-2.8-1.9-4.4-1.9c-1.9,0-3.3,0.6-4.4,1.9S267.6,713.5,267.6,716.2z"/>
	<path fill="#FFFFFF" d="M289.2,705.5h3.6v8.9H303v-8.9h3.6V727H303v-9.4h-10.2v9.4h-3.6V705.5z"/>
	<path fill="#FFFFFF" d="M325.4,705.5h3.6v16.3l10.2-16.3h3.9V727h-3.6v-16.3L329.3,727h-3.9V705.5z"/>
	<path fill="#FFFFFF" d="M352.5,705.5h14.9V724h2.2v9.1h-3V727h-16.9v6.1h-3V724h1.9C351.4,720.4,352.5,714.3,352.5,705.5z
		 M355.6,708.5c-0.3,6.9-1.4,12.2-3.3,15.5h11.6v-15.5H355.6z"/>
	<path fill="#FFFFFF" d="M389.6,720.1l3.9,0.6c-0.6,2.2-1.7,3.9-3.3,5.3c-1.7,1.1-3.6,1.9-6.1,1.9c-3,0-5.5-1.1-7.5-3
		c-1.9-1.9-2.8-4.7-2.8-8c0-3.6,0.8-6.4,2.8-8.3c1.9-1.9,4.2-3,7.2-3c2.8,0,5.3,1.1,6.9,3c1.9,1.9,2.8,4.7,2.8,8.3
		c0,0.3,0,0.6,0,1.1h-16c0,2.5,0.8,4.2,1.9,5.5c1.1,1.4,2.8,1.9,4.4,1.9c1.4,0,2.5-0.3,3.3-1.1S389,721.5,389.6,720.1z M377.4,714
		h11.9c-0.3-1.9-0.6-3-1.4-4.2c-1.1-1.4-2.8-2.2-4.4-2.2s-3,0.6-4.2,1.7C378.3,710.7,377.7,712.4,377.4,714z"/>
	<path fill="#FFFFFF" d="M398.7,705.5h3.6v16.3l10.2-16.3h3.9V727h-3.6v-16.3L402.6,727h-3.9V705.5z M411.5,697.1h2.5
		c-0.3,1.7-0.8,3-1.9,3.9c-1.1,0.8-2.5,1.4-4.2,1.4s-3-0.6-4.2-1.4c-1.1-0.8-1.7-2.2-1.9-3.9h2.5c0.3,0.8,0.6,1.7,1.1,1.9
		c0.6,0.6,1.4,0.6,2.2,0.6c1.1,0,1.9-0.3,2.5-0.6C410.9,698.8,411.2,698.3,411.5,697.1z"/>
	<path fill="#FFFFFF" d="M423.9,727v-4.2h4.2v4.2c0,1.7-0.3,2.8-0.8,3.6c-0.6,0.8-1.4,1.7-2.5,2.2l-1.1-1.7c0.8-0.3,1.4-0.8,1.7-1.4
		c0.3-0.6,0.6-1.7,0.6-2.8H423.9z"/>
	<path fill="#FFFFFF" d="M445.8,705.5h17.4v3h-6.9V727h-3.6v-18.5h-6.9V705.5z"/>
	<path fill="#FFFFFF" d="M466.2,716.2c0-3.9,1.1-6.9,3.3-8.9c1.9-1.7,4.2-2.5,6.6-2.5c3,0,5.3,1.1,7.2,3c1.9,1.9,2.8,4.7,2.8,8
		c0,2.8-0.3,5-1.4,6.6c-0.8,1.7-1.9,2.8-3.6,3.6c-1.7,0.8-3.3,1.4-5.3,1.4c-3,0-5.5-0.8-7.2-2.8
		C467.1,722.6,466.2,719.8,466.2,716.2z M470.1,716.2c0,2.8,0.6,4.7,1.9,6.1c1.4,1.4,2.8,1.9,4.4,1.9c1.9,0,3.3-0.6,4.4-1.9
		c1.1-1.4,1.9-3.6,1.9-6.4c0-2.8-0.6-4.7-1.9-6.1c-1.1-1.4-2.8-1.9-4.4-1.9c-1.9,0-3.3,0.6-4.4,1.9S470.1,713.5,470.1,716.2z"/>
	<path fill="#FFFFFF" d="M491.7,705.5h12.5v3h-8.9V727h-3.6V705.5z"/>
	<path fill="#FFFFFF" d="M510.5,705.5h14.9V724h2.2v9.1h-3V727h-16.9v6.1h-3V724h1.9C509.4,720.4,510.8,714.3,510.5,705.5z
		 M513.6,708.5c-0.3,6.9-1.4,12.2-3.3,15.5h11.6v-15.5H513.6z"/>
	<path fill="#FFFFFF" d="M546.8,724.3c-1.4,1.1-2.8,1.9-3.9,2.5c-1.4,0.6-2.5,0.8-4.2,0.8c-2.5,0-4.2-0.6-5.5-1.7
		c-1.4-1.1-1.9-2.8-1.9-4.4c0-1.1,0.3-1.9,0.8-2.8c0.6-0.8,1.1-1.7,1.9-2.2c0.8-0.6,1.7-0.8,2.5-1.1c0.8-0.3,1.7-0.3,3.3-0.6
		c3-0.3,5-0.8,6.6-1.4c0-0.6,0-0.8,0-0.8c0-1.4-0.3-2.5-1.1-3c-0.8-0.8-2.2-1.1-4.2-1.1c-1.7,0-3,0.3-3.9,0.8s-1.4,1.7-1.9,3.3
		l-3.6-0.6c0.3-1.7,0.8-2.8,1.7-3.6c0.8-0.8,1.9-1.7,3.3-2.2c1.4-0.6,3-0.8,5-0.8c1.9,0,3.3,0.3,4.4,0.6c1.1,0.6,1.9,1.1,2.5,1.7
		c0.6,0.6,0.8,1.4,1.1,2.5c0,0.6,0.3,1.7,0.3,3.3v5c0,3.3,0,5.5,0.3,6.4c0.3,0.8,0.6,1.7,0.8,2.5h-3.9
		C547.3,726.2,547,725.4,546.8,724.3z M546.5,716.2c-1.4,0.6-3.3,1.1-6.1,1.4c-1.4,0.3-2.5,0.6-3,0.8c-0.6,0.3-1.1,0.6-1.4,1.1
		c-0.3,0.6-0.6,1.1-0.6,1.7c0,1.1,0.3,1.7,1.1,2.5c0.8,0.6,1.9,1.1,3.3,1.1c1.4,0,2.8-0.3,3.9-0.8c1.1-0.6,1.9-1.4,2.5-2.5
		c0.3-0.8,0.6-1.9,0.6-3.6v-1.7H546.5z"/>
	<path fill="#FFFFFF" d="M582.2,705.5v9.4c1.1,0,1.9-0.3,2.5-0.6c0.6-0.3,1.1-1.7,1.9-3.9c0.8-1.9,1.7-3.3,2.2-3.9s1.7-0.8,3-0.8
		h1.4v3h-1.1c-1.1,0-1.7,0.3-1.9,0.6c-0.3,0.3-0.8,1.1-1.4,2.8c-0.6,1.4-1.1,2.5-1.4,3c-0.3,0.6-1.1,1.1-2.2,1.4
		c1.7,0.6,3,1.9,4.7,4.4l4.2,6.6h-4.2l-3.9-6.6c-0.8-1.4-1.4-2.2-2.2-2.8c-0.8-0.6-1.4-0.6-2.2-0.6v10H578v-10
		c-0.8,0-1.4,0.3-2.2,0.6c-0.6,0.3-1.4,1.4-2.2,2.8l-3.9,6.6h-4.2l3.9-6.6c1.4-2.5,3-3.9,4.7-4.4c-1.1-0.6-1.9-1.1-2.2-1.7
		c-0.6-0.6-1.1-1.9-1.9-4.2c-0.3-0.8-0.6-1.1-0.8-1.4c-0.3-0.3-0.8-0.3-1.7-0.3c-0.3,0-0.6,0-1.1,0v-3h0.6c1.4,0,2.5,0,3,0.3
		c0.6,0.3,1.1,0.6,1.7,1.1s1.1,1.7,1.7,3.3c0.8,2.2,1.7,3.3,1.9,3.9c0.6,0.6,1.4,0.6,2.5,0.6v-9.4h4.4V705.5z"/>
	<path fill="#FFFFFF" d="M600.7,705.5h14.9V724h2.2v9.1h-3V727H598v6.1h-3V724h1.9C599.6,720.4,601,714.3,600.7,705.5z M603.8,708.5
		c-0.3,6.9-1.4,12.2-3.3,15.5h11.6v-15.5H603.8z"/>
	<path fill="#FFFFFF" d="M637.8,720.1l3.9,0.6c-0.6,2.2-1.7,3.9-3.3,5.3c-1.7,1.1-3.6,1.9-6.1,1.9c-3,0-5.5-1.1-7.5-3
		c-1.9-1.9-2.8-4.7-2.8-8c0-3.6,0.8-6.4,2.8-8.3c1.9-1.9,4.2-3,7.2-3c2.8,0,5.3,1.1,6.9,3c1.9,1.9,2.8,4.7,2.8,8.3
		c0,0.3,0,0.6,0,1.1h-16c0,2.5,0.8,4.2,1.9,5.5c1.1,1.4,2.8,1.9,4.4,1.9c1.4,0,2.5-0.3,3.3-1.1C636.1,723.4,637.2,721.5,637.8,720.1
		z M625.9,714h11.9c-0.3-1.9-0.6-3-1.4-4.2c-1.1-1.4-2.8-2.2-4.4-2.2s-3,0.6-4.2,1.7C626.5,710.7,625.9,712.4,625.9,714z"/>
	<path fill="#FFFFFF" d="M647.2,705.5h5.8l5.5,17.2l6.4-17.2h5.3V727h-3.6v-17.4l-6.4,17.4h-3.3l-6.1-18.3V727h-3.6V705.5z"/>
	<path fill="#FFFFFF" d="M687.1,705.5h17.4v3h-6.9V727H694v-18.5h-6.9V705.5z"/>
	<path fill="#FFFFFF" d="M708.9,705.5h8.3c1.9,0,3.6,0.3,4.7,0.6c1.1,0.3,1.9,1.1,2.5,1.9c0.8,0.8,1.1,1.9,1.1,3.3
		c0,1.1-0.3,1.9-0.6,2.8c-0.6,0.8-1.1,1.4-1.9,1.9c1.1,0.3,1.9,1.1,2.5,1.9c0.6,0.8,1.1,1.9,1.1,3.3c0,1.9-0.8,3.6-2.2,4.4
		c-1.4,0.8-3.3,1.4-5.8,1.4h-9.7L708.9,705.5L708.9,705.5z M712.5,714.6h3.9c1.7,0,2.5,0,3.3-0.3s1.1-0.6,1.7-1.1
		c0.6-0.6,0.8-1.1,0.8-1.7c0-1.1-0.3-1.9-1.1-2.5c-0.8-0.6-2.2-0.6-4.2-0.6h-4.2v6.1H712.5z M712.5,724h4.7c1.9,0,3.6-0.3,4.2-0.8
		c0.8-0.6,1.1-1.4,1.1-2.5c0-0.6-0.3-1.4-0.6-1.9c-0.6-0.6-1.1-0.8-1.7-1.1c-0.6-0.3-1.9-0.3-3.3-0.3h-4.4L712.5,724L712.5,724z"/>
	<path fill="#FFFFFF" d="M730.5,716.2c0-3.9,1.1-6.9,3.3-8.9c1.9-1.7,4.2-2.5,6.6-2.5c3,0,5.3,1.1,7.2,3c1.9,1.9,2.8,4.7,2.8,8
		c0,2.8-0.3,5-1.4,6.6c-0.8,1.7-1.9,2.8-3.6,3.6c-1.7,0.8-3.3,1.4-5.3,1.4c-3,0-5.5-0.8-7.2-2.8
		C731.3,722.6,730.5,719.8,730.5,716.2z M734.4,716.2c0,2.8,0.6,4.7,1.9,6.1c1.4,1.4,2.8,1.9,4.4,1.9c1.9,0,3.3-0.6,4.4-1.9
		c1.1-1.4,1.9-3.6,1.9-6.4c0-2.8-0.6-4.7-1.9-6.1c-1.1-1.4-2.8-1.9-4.4-1.9c-1.9,0-3.3,0.6-4.4,1.9
		C735.2,711.3,734.4,713.5,734.4,716.2z"/>
	<path fill="#FFFFFF" d="M770.6,720.1l3.9,0.6c-0.6,2.2-1.7,3.9-3.3,5.3c-1.7,1.1-3.6,1.9-6.1,1.9c-3,0-5.5-1.1-7.5-3
		c-1.9-1.9-2.8-4.7-2.8-8c0-3.6,0.8-6.4,2.8-8.3c1.9-1.9,4.2-3,7.2-3c2.8,0,5.3,1.1,6.9,3c1.9,1.9,2.8,4.7,2.8,8.3
		c0,0.3,0,0.6,0,1.1h-16c0,2.5,0.8,4.2,1.9,5.5c1.1,1.4,2.8,1.9,4.4,1.9c1.4,0,2.5-0.3,3.3-1.1S770.1,721.5,770.6,720.1z M758.7,714
		h11.9c-0.3-1.9-0.6-3-1.4-4.2c-1.1-1.4-2.8-2.2-4.4-2.2s-3,0.6-4.2,1.7C759.3,710.7,758.7,712.4,758.7,714z"/>
	<path fill="#FFFFFF" d="M192.6,804.2v-29.9h3.3v2.8c0.8-1.1,1.7-1.9,2.8-2.5c1.1-0.6,2.2-0.8,3.6-0.8c1.9,0,3.6,0.6,5,1.4
		c1.4,0.8,2.5,2.2,3.3,3.9c0.8,1.7,1.1,3.6,1.1,5.5c0,2.2-0.3,4.2-1.1,5.8c-0.8,1.7-1.9,3-3.3,4.2c-1.4,0.8-3,1.4-4.7,1.4
		c-1.1,0-2.2-0.3-3.3-0.8c-0.8-0.6-1.7-1.1-2.5-1.9v10.5h-4.2V804.2z M195.9,785.4c0,2.8,0.6,4.7,1.7,6.1c1.1,1.4,2.5,1.9,4.2,1.9
		c1.7,0,3-0.6,4.2-1.9c1.1-1.4,1.7-3.6,1.7-6.4s-0.6-4.7-1.7-6.1c-1.1-1.4-2.5-1.9-4.2-1.9c-1.7,0-3,0.8-4.2,2.2
		C196.7,780.7,195.9,782.7,195.9,785.4z"/>
	<path fill="#FFFFFF" d="M231.3,789.3l3.9,0.6c-0.6,2.2-1.7,3.9-3.3,5.3c-1.7,1.1-3.6,1.9-6.1,1.9c-3,0-5.5-1.1-7.5-3
		s-2.8-4.7-2.8-8c0-3.6,0.8-6.4,2.8-8.3c1.9-1.9,4.2-3,7.2-3c2.8,0,5.3,1.1,6.9,3c1.9,1.9,2.8,4.7,2.8,8.3c0,0.3,0,0.6,0,1.1h-16
		c0,2.5,0.8,4.2,1.9,5.5c1.1,1.4,2.8,1.9,4.4,1.9c1.4,0,2.5-0.3,3.3-1.1C229.7,792.6,230.8,790.7,231.3,789.3z M219.4,783.2h11.9
		c-0.3-1.9-0.6-3-1.4-4.2c-1.1-1.4-2.8-2.2-4.4-2.2s-3,0.6-4.2,1.7C220.3,779.9,219.7,781.5,219.4,783.2z"/>
	<path fill="#FFFFFF" d="M245.4,786.5v-2.8c1.7,0,2.5,0,3-0.3c0.6,0,1.1-0.6,1.7-1.1c0.6-0.6,0.8-1.1,0.8-1.9c0-1.1-0.3-1.7-1.1-2.5
		c-0.6-0.6-1.4-0.8-2.5-0.8c-1.9,0-3.6,1.1-4.4,3.6l-3.6-0.6c1.1-4.2,3.6-6.1,7.7-6.1c2.2,0,4.2,0.6,5.5,1.9
		c1.4,1.4,1.9,2.8,1.9,4.4c0,1.7-0.8,3-2.5,4.2c1.1,0.6,1.9,1.4,2.5,2.2c0.6,0.8,0.8,1.9,0.8,3.3c0,1.9-0.8,3.6-2.2,4.7
		c-1.4,1.1-3.3,1.9-5.8,1.9c-5,0-7.7-2.2-8.6-6.6l3.3-0.8c0.3,1.4,0.8,2.5,1.9,3.3c0.8,0.8,1.9,1.1,3.3,1.1s2.2-0.3,3-1.1
		c0.8-0.8,1.1-1.7,1.1-2.8c0-0.8-0.3-1.7-0.8-2.2c-0.6-0.6-1.1-1.1-1.7-1.1c-0.6,0-1.7-0.3-3-0.3C246.3,786.2,246,786.2,245.4,786.5
		z"/>
	<path fill="#FFFFFF" d="M260.7,774.6h3.6v9.1h4.4c0.3-3,1.4-5.5,2.8-6.9c1.7-1.7,3.6-2.5,6.4-2.5c2.2,0,3.9,0.6,5.3,1.4
		c1.4,0.8,2.2,2.2,3,3.6c0.8,1.7,1.1,3.6,1.1,6.1c0,3.6-0.8,6.6-2.5,8.6c-1.7,1.9-3.9,2.8-6.9,2.8c-2.8,0-5-0.8-6.4-2.8
		s-2.5-4.2-2.8-7.5h-4.4v9.4h-3.6V774.6z M278.1,777.1c-1.7,0-3,0.6-4.2,1.9c-1.1,1.4-1.4,3.3-1.4,5.8c0,3,0.6,5.3,1.4,6.6
		c0.8,1.4,2.2,1.9,4.2,1.9c1.7,0,3-0.6,4.2-1.9c1.1-1.4,1.7-3.3,1.7-6.1s-0.6-5-1.4-6.4C281.4,777.9,280,777.1,278.1,777.1z"/>
	<path fill="#FFFFFF" d="M292.8,774.6h5.8l5.5,17.2l6.4-17.2h5.3v21.6h-3.6v-17.4l-6.4,17.4h-3.3l-6.1-18.3v18.3h-3.6V774.6z"/>
	<path fill="#FFFFFF" d="M336.7,789.3l3.9,0.6c-0.6,2.2-1.7,3.9-3.3,5.3c-1.7,1.1-3.6,1.9-6.1,1.9c-3,0-5.5-1.1-7.5-3
		c-1.9-1.9-2.8-4.7-2.8-8c0-3.6,0.8-6.4,2.8-8.3c1.9-1.9,4.2-3,7.2-3c2.8,0,5.3,1.1,6.9,3c1.9,1.9,2.8,4.7,2.8,8.3
		c0,0.3,0,0.6,0,1.1h-16c0,2.5,0.8,4.2,1.9,5.5c1.1,1.4,2.8,1.9,4.4,1.9c1.4,0,2.5-0.3,3.3-1.1C335.1,792.6,336.2,790.7,336.7,789.3
		z M324.8,783.2h11.9c-0.3-1.9-0.6-3-1.4-4.2c-1.1-1.4-2.8-2.2-4.4-2.2c-1.7,0-3,0.6-4.2,1.7C325.7,779.9,325.1,781.5,324.8,783.2z"
		/>
	<path fill="#FFFFFF" d="M347.3,796.2v-4.2h4.2v4.2H347.3z"/>
</g>
<line fill="none" stroke="#FFFFFF" stroke-width="1.001" stroke-miterlimit="10" stroke-dasharray="1,1" x1="188.2" y1="473" x2="899.3" y2="473"/>
</svg>
