<?xml version="1.0" encoding="utf-8"?>
<!-- Generator: Adobe Illustrator 17.1.0, SVG Export Plug-In . SVG Version: 6.00 Build 0)  -->
<!DOCTYPE svg PUBLIC "-//W3C//DTD SVG 1.1//EN" "http://www.w3.org/Graphics/SVG/1.1/DTD/svg11.dtd">
<svg version="1.1" id="Слой_1" xmlns="http://www.w3.org/2000/svg" xmlns:xlink="http://www.w3.org/1999/xlink" x="0px" y="0px"
	 viewBox="0 27.9 1190.6 788" enable-background="new 0 27.9 1190.6 788" xml:space="preserve">
<g enable-background="new    ">
	<path fill="#FFFFFF" d="M173.8,312.3c2.3-3.3,5.8-4.8,9.9-4.8c8.6,0,14.2,6.7,14.2,17c0,10-5.5,16.6-13.8,16.6
		c-4,0-7.5-1.5-9.8-4.8v15.3h-8.7v-43.2h8.3V312.3z M174,324.4c0,6.2,2.8,9.8,7.7,9.8c4.7,0,7.5-3.6,7.5-9.7c0-6.2-2.9-9.9-7.6-9.9
		C176.8,314.5,174,318.2,174,324.4z"/>
	<path fill="#FFFFFF" d="M224.1,340.2c-0.4-1.2-0.5-1.7-0.6-3.1c-2.7,2.7-6.5,4-10.3,4c-7,0-11.4-3.6-11.4-9.6
		c0-8.3,7.6-9.3,13.9-10.1c5.7-0.7,7.8-1.2,7.8-3.8c0-2.9-1.9-4.3-5.7-4.3c-4,0-5.7,1.2-6.3,4.9h-8.2c0.5-7.1,5.6-10.8,14.8-10.8
		c6.4,0,13.9,1.5,13.9,10.4v13.8c0,2.9-0.1,5.9,1.1,8.7H224.1z M217.2,326.4c-3,0.5-6.4,0.9-6.4,4.8c0,2.7,1.8,4.3,4.8,4.3
		c4.6,0,7.8-2.5,7.8-7.1v-3.6C221.4,325.9,219.4,326,217.2,326.4z"/>
	<path fill="#FFFFFF" d="M254,341.2c-11.5,0-15.4-10.3-15.4-19.6c0-9.5,1.2-21.1,12.9-24.2c3.7-1,8.6-0.6,9.5-2.5h8.3
		c-1.1,8-7.4,9.1-14.8,9.8c-8,0.7-10.5,6.5-11.2,12.7h0.2c1.5-4.3,5.3-9,12.6-9c8.2,0,14.6,6.4,14.6,16.3
		C270.7,334.7,264.3,341.2,254,341.2z M254.5,314.8c-4.3,0-7.2,3.6-7.2,9.8c0,6.4,2.8,9.9,7.3,9.9c4.4,0,7.2-3.5,7.2-9.9
		C261.9,318.4,259.1,314.8,254.5,314.8z"/>
	<path fill="#FFFFFF" d="M292.1,341.2c-9.9,0-16.5-6.7-16.5-16.9c0-10.1,6.6-16.9,16.6-16.9c9.8,0,16.3,6.7,16.3,16.9
		C308.6,334.6,302.1,341.2,292.1,341.2z M292,314.1c-4.7,0-7.6,3.8-7.6,10.2c0,6.6,2.8,10.3,7.7,10.3c4.8,0,7.7-3.8,7.7-10.4
		C299.8,317.9,296.9,314.1,292,314.1z"/>
	<path fill="#FFFFFF" d="M329.7,315.1v25.2H321v-25.2h-10.5v-6.7h29.7v6.7H329.7z"/>
	<path fill="#FFFFFF" d="M363.7,340.2c-0.4-1.2-0.5-1.7-0.6-3.1c-2.7,2.7-6.5,4-10.3,4c-7,0-11.4-3.6-11.4-9.6
		c0-8.3,7.6-9.3,13.9-10.1c5.7-0.7,7.8-1.2,7.8-3.8c0-2.9-1.9-4.3-5.7-4.3c-4,0-5.7,1.2-6.3,4.9h-8.2c0.5-7.1,5.6-10.8,14.8-10.8
		c6.4,0,13.9,1.5,13.9,10.4v13.8c0,2.9-0.1,5.9,1.1,8.7H363.7z M356.9,326.4c-3,0.5-6.4,0.9-6.4,4.8c0,2.7,1.8,4.3,4.8,4.3
		c4.6,0,7.8-2.5,7.8-7.1v-3.6C361,325.9,359.1,326,356.9,326.4z"/>
	<path fill="#FFFFFF" d="M412.9,340.1c-2.6,7-4.1,11.5-12.2,11.5c-2.7,0-1.6,0-5.9-0.1v-7.2h4.3c2.9,0,4.4-1.6,4.4-4.3
		c0-0.3-0.1-0.9-0.2-1.2l-11.6-30.5h9.5l7.3,21.7l7-21.7h9.1L412.9,340.1z"/>
	<path fill="#FFFFFF" d="M466,340.2v-13.4h-12.3v13.4H445v-31.9h8.7v11.6H466v-11.6h8.7v31.9H466z"/>
	<path fill="#FFFFFF" d="M502.3,340.2c-0.4-1.2-0.5-1.7-0.6-3.1c-2.7,2.7-6.5,4-10.3,4c-7,0-11.4-3.6-11.4-9.6
		c0-8.3,7.6-9.3,13.9-10.1c5.7-0.7,7.8-1.2,7.8-3.8c0-2.9-1.9-4.3-5.7-4.3c-4,0-5.7,1.2-6.3,4.9h-8.2c0.5-7.1,5.6-10.8,14.8-10.8
		c6.4,0,13.9,1.5,13.9,10.4v13.8c0,2.9-0.1,5.9,1.1,8.7H502.3z M495.4,326.4c-3,0.5-6.4,0.9-6.4,4.8c0,2.7,1.8,4.3,4.8,4.3
		c4.6,0,7.8-2.5,7.8-7.1v-3.6C499.6,325.9,497.7,326,495.4,326.4z"/>
	<path fill="#FFFFFF" d="M532.1,341c-9.8,0-16.3-6.6-16.3-16.5c0-10.3,6.5-17.1,16.4-17.1c8.5,0,14.2,4.6,15,12.1h-8.6
		c-0.6-3.5-2.9-5.5-6.3-5.5c-4.8,0-7.6,3.8-7.6,10.4c0,6.4,2.7,10,7.4,10c3.8,0,6.1-2.2,6.8-6.4h8.5
		C546.3,336.2,540.6,341,532.1,341z"/>
</g>
<polygon fill="none" stroke="#FFFFFF" stroke-width="4" stroke-miterlimit="10" points="11.7,41.8 726.2,41.8 726.2,224.2 
	1181.9,224.2 1181.9,549.3 883.6,549.3 883.6,801.2 67,801.2 67,303.2 11.7,303.2 "/>
<g>
	<g>
		<g>
			<g>
				<path fill="#FFFFFF" d="M156.3,196.8c-2.7,0-4.9-0.8-6.5-2.2c-1.6-1.6-2.4-4.1-2.4-7.6c-3,3.5-6.2,6-10,7.6
					c-3.8,1.6-8.1,2.2-12.5,2.2c-3,0-5.7-0.3-8.1-0.8c-2.7-0.5-4.9-1.6-6.8-3s-3.5-3.3-4.6-5.7c-1.1-2.2-1.6-5.2-1.6-8.1
					c0-3.5,0.5-6.5,1.9-9c1.4-2.4,3-4.3,4.9-5.7s4.3-2.4,7.1-3.3c2.7-0.8,5.2-1.4,8.1-1.9c3-0.5,5.7-1.1,8.1-1.4
					c2.7-0.3,4.9-0.8,6.8-1.4c1.9-0.5,3.5-1.4,4.6-2.4c1.1-1.1,1.6-2.4,1.6-4.6c0-2.2-0.5-4.1-1.4-5.7c-0.8-1.4-1.9-2.4-3.3-3.3
					c-1.4-0.8-3-1.4-4.6-1.6c-1.6-0.3-3.3-0.3-5.2-0.3c-4.3,0-8.1,0.8-11.1,2.4c-3,1.6-4.6,4.9-4.9,9.8h-10.6
					c0.3-4.1,1.1-7.3,2.4-10c1.4-2.7,3.5-4.9,6-6.5c2.4-1.6,5.4-3,8.7-3.8c3.3-0.8,6.5-1.1,10.3-1.1c3,0,5.7,0.3,8.7,0.5
					c2.7,0.3,5.4,1.4,7.9,2.4c2.4,1.4,4.1,3,5.7,5.4c1.4,2.4,2.2,5.4,2.2,9V180c0,2.4,0.3,4.3,0.5,5.4c0.3,1.1,1.4,1.6,3,1.6
					c0.8,0,1.9-0.3,3.3-0.5v8.1C162,196.2,159.6,196.8,156.3,196.8z M141.7,164.5c-2.2,0.5-4.3,0.8-6.8,1.1
					c-2.4,0.3-4.6,0.5-7.1,1.1c-2.4,0.3-4.6,1.1-6.5,1.9c-1.9,0.8-3.5,1.9-4.6,3.5c-1.1,1.6-1.9,3.5-1.9,6.2c0,1.6,0.3,3.3,1.1,4.3
					c0.8,1.1,1.6,2.2,2.7,3c1.1,0.8,2.4,1.4,4.1,1.6c1.6,0.3,3,0.5,4.6,0.5c3.5,0,6.5-0.5,9-1.4c2.4-0.8,4.6-2.2,6-3.5
					c1.6-1.4,2.7-3,3.5-4.6c0.8-1.6,1.1-3.3,1.1-4.9v-10.9C145.5,163.4,143.8,164.2,141.7,164.5z"/>
			</g>
		</g>
		<path fill="#FFFFFF" d="M181.3,107v88.7h-10.6V107H181.3z"/>
		<path fill="#FFFFFF" d="M238.8,191.4c-4.9,3.5-10.9,5.4-18.2,5.4c-5.2,0-9.5-0.8-13.3-2.4c-3.8-1.6-7.1-4.1-9.5-7.1
			c-2.4-3-4.6-6.5-5.7-10.6c-1.4-4.1-1.9-8.7-2.2-13.6c0-4.9,0.8-9.5,2.2-13.3c1.4-4.1,3.5-7.6,6.2-10.6c2.7-3,6-5.4,9.5-7.1
			c3.8-1.6,7.6-2.4,12.2-2.4c5.7,0,10.6,1.1,14.1,3.5c3.8,2.4,6.8,5.4,9,9c2.2,3.5,3.8,7.6,4.6,11.9c0.8,4.3,1.4,8.4,1.1,12.2h-47.8
			c0,2.7,0.3,5.4,1.1,7.9c0.8,2.4,1.9,4.9,3.5,6.8c1.6,1.9,3.8,3.5,6.2,4.6c2.4,1.1,5.7,1.6,9,1.6c4.3,0,8.1-1.1,11.1-3
			c2.7-2.2,4.6-5.2,5.7-9.5H248C247,182.4,243.7,187.8,238.8,191.4z M236.4,150.1c-1.1-2.2-2.2-4.1-3.8-5.7c-1.6-1.6-3.5-3-5.7-3.8
			c-2.2-1.1-4.6-1.4-7.3-1.4c-2.7,0-5.2,0.5-7.3,1.4c-2.2,1.1-4.1,2.2-5.7,3.8c-1.6,1.6-2.7,3.5-3.8,5.7c-0.8,2.2-1.4,4.6-1.6,7.1
			H238C238,154.7,237.5,152.5,236.4,150.1z"/>
		<path fill="#FFFFFF" d="M306.1,195.4v-8.7h-0.3c-1.6,3.5-4.6,6.2-8.1,7.6c-3.8,1.6-7.9,2.4-12.2,2.4c-4.9,0-9.2-0.8-13-2.7
			s-6.8-4.3-9.2-7.3c-2.4-3-4.3-6.5-5.4-10.6c-1.4-4.1-1.9-8.4-1.9-13c0-4.6,0.5-9,1.9-13c1.1-4.1,3-7.6,5.4-10.6
			c2.4-3,5.4-5.4,9.2-7.3s7.9-2.7,12.8-2.7c1.6,0,3.5,0.3,5.4,0.5c1.9,0.3,3.8,0.8,5.7,1.6s3.8,1.9,5.4,3c1.6,1.4,3.3,3,4.3,4.9h0.3
			V107H317v88.7h-10.9V195.4z M268.1,172.6c0.8,3,1.9,5.4,3.5,7.6s3.8,4.1,6.2,5.4c2.4,1.4,5.4,1.9,9,1.9c3.5,0,6.5-0.8,9-2.2
			c2.4-1.4,4.6-3.3,6-5.4c1.6-2.2,2.7-4.9,3.5-7.9c0.8-3,1.1-5.7,1.1-9s-0.3-6.2-1.1-9.2c-0.8-3-1.9-5.4-3.5-7.9
			c-1.6-2.2-3.8-4.1-6.2-5.4c-2.4-1.4-5.7-2.2-9.2-2.2c-3.5,0-6.5,0.8-9,2.2c-2.4,1.4-4.3,3.3-6,5.7c-1.4,2.4-2.4,4.9-3.3,7.9
			c-0.5,3-1.1,6-1.1,9.2C267,166.9,267.3,169.9,268.1,172.6z"/>
		<path fill="#FFFFFF" d="M325.4,150.4c1.4-4.1,3.3-7.6,6-10.6c2.7-3,6-5.4,9.8-7.1s8.4-2.7,13.3-2.7c5.2,0,9.5,0.8,13.6,2.7
			c3.8,1.6,7.1,4.1,9.8,7.1c2.7,3,4.6,6.5,6,10.6c1.4,4.1,1.9,8.4,1.9,13.3c0,4.6-0.5,9.2-1.9,13.3c-1.4,4.1-3.3,7.6-6,10.6
			c-2.7,3-6,5.4-9.8,7.1c-3.8,1.6-8.4,2.4-13.6,2.4c-5.2,0-9.5-0.8-13.3-2.4c-3.8-1.6-7.1-4.1-9.8-7.1c-2.7-3-4.6-6.5-6-10.6
			c-1.4-4.1-1.9-8.4-1.9-13.3C323.2,158.8,324,154.4,325.4,150.4z M336,174c1.1,3,2.4,5.4,4.3,7.6c1.9,1.9,4.1,3.5,6.5,4.6
			c2.4,1.1,5.2,1.6,7.9,1.6c2.7,0,5.4-0.5,7.9-1.6s4.6-2.7,6.5-4.6c1.9-1.9,3.3-4.6,4.3-7.6c1.1-3,1.6-6.5,1.6-10.3
			c0-3.8-0.5-7.3-1.6-10.3c-1.1-3-2.4-5.4-4.3-7.6s-4.1-3.5-6.5-4.6c-2.4-1.1-5.2-1.6-7.9-1.6c-2.7,0-5.4,0.5-7.9,1.6
			c-2.4,1.1-4.6,2.7-6.5,4.6c-1.9,2.2-3.3,4.6-4.3,7.6c-1.1,3-1.6,6.5-1.6,10.3S334.9,170.7,336,174z"/>
		<g>
			<g>
				<path fill="#FFFFFF" d="M70.6,152.3c-5.7,0-10.3-4.6-10.3-10.3s4.6-10.3,10.3-10.3c5.7,0,10.3,4.6,10.3,10.3
					C81.1,147.7,76.3,152.3,70.6,152.3z M70.6,135.7c-3.5,0-6.2,2.7-6.2,6.2s2.7,6.2,6.2,6.2s6.2-2.7,6.2-6.2
					C77.1,138.4,74.1,135.7,70.6,135.7z"/>
			</g>
		</g>
		<path fill="#FFFFFF" d="M422.5,151.5c-5.2,0-9.2-4.1-9.2-9.2s4.1-9.2,9.2-9.2c5.2,0,9.2,4.1,9.2,9.2
			C431.8,147.1,427.7,151.5,422.5,151.5z M422.5,134.6c-4.1,0-7.3,3.3-7.3,7.3s3.3,7.3,7.3,7.3c4.1,0,7.3-3.3,7.3-7.3
			S426.6,134.6,422.5,134.6z"/>
		<path fill="#FFFFFF" d="M457.5,151.5c-5.2,0-9.2-4.1-9.2-9.2s4.1-9.2,9.2-9.2s9.2,4.1,9.2,9.2
			C466.8,147.1,462.7,151.5,457.5,151.5z M457.5,134.6c-4.1,0-7.3,3.3-7.3,7.3s3.3,7.3,7.3,7.3s7.3-3.3,7.3-7.3
			C464.6,137.9,461.3,134.6,457.5,134.6z"/>
		<path fill="#FFFFFF" d="M492.3,150.6c-5.2,0-9.2-4.1-9.2-9.2s4.3-9.2,9.2-9.2c5.2,0,9.2,4.1,9.2,9.2
			C501.8,146.6,497.4,150.6,492.3,150.6z M492.3,134.1c-4.1,0-7.3,3.3-7.3,7.3c0,4.1,3.3,7.3,7.3,7.3c4.1,0,7.3-3.3,7.3-7.3
			C499.6,137.4,496.4,134.1,492.3,134.1z"/>
		<path fill="#FFFFFF" d="M527.3,151.5c-5.2,0-9.2-4.1-9.2-9.2s4.1-9.2,9.2-9.2c5.2,0,9.2,4.1,9.2,9.2
			C536.8,147.1,532.5,151.5,527.3,151.5z M527.3,134.6c-4.1,0-7.3,3.3-7.3,7.3s3.3,7.3,7.3,7.3c4.1,0,7.3-3.3,7.3-7.3
			S531.4,134.6,527.3,134.6z"/>
	</g>
</g>
<rect x="166.1" y="393.8" fill="none" width="1101.8" height="103.1"/>
<g enable-background="new    ">
	<path fill="#FFFFFF" d="M168.7,419.9v-26.1h9.8c2,0,3.6,0.3,4.8,0.8s2.2,1.3,2.8,2.4c0.7,1.1,1,2.2,1,3.4c0,1.1-0.3,2.2-0.9,3.2
		s-1.5,1.8-2.7,2.4c1.6,0.5,2.8,1.3,3.6,2.4c0.8,1.1,1.3,2.4,1.3,4c0,1.2-0.3,2.4-0.8,3.4c-0.5,1.1-1.2,1.9-1.9,2.4
		c-0.8,0.6-1.7,1-2.9,1.3c-1.1,0.3-2.6,0.4-4.2,0.4H168.7z M172.2,404.8h5.7c1.5,0,2.6-0.1,3.3-0.3c0.9-0.3,1.5-0.7,2-1.3
		c0.4-0.6,0.7-1.4,0.7-2.3c0-0.9-0.2-1.6-0.6-2.3c-0.4-0.7-1-1.1-1.8-1.4c-0.8-0.2-2.1-0.4-4-0.4h-5.2V404.8z M172.2,416.8h6.5
		c1.1,0,1.9,0,2.4-0.1c0.8-0.1,1.5-0.4,2-0.7c0.5-0.3,1-0.8,1.3-1.5c0.3-0.6,0.5-1.4,0.5-2.2c0-1-0.2-1.8-0.7-2.5
		c-0.5-0.7-1.2-1.2-2.1-1.5c-0.9-0.3-2.2-0.4-3.8-0.4h-6V416.8z"/>
	<path fill="#FFFFFF" d="M205.7,393.8h15.9v23h2.4v9.2h-3.1v-6.1h-17.3v6.1h-3.1v-9.2h2c2.1-3.2,3.2-9.6,3.2-19.2V393.8z
		 M218.1,396.9H209v1.3c0,2.2-0.2,5.3-0.6,9.1c-0.4,3.9-1.2,7-2.3,9.5h12V396.9z"/>
	<path fill="#FFFFFF" d="M225.2,419.9l10-26.1h3.7l10.7,26.1h-3.9l-3-7.9h-10.9l-2.9,7.9H225.2z M232.7,409.2h8.9l-2.7-7.2
		c-0.8-2.2-1.4-4-1.9-5.4c-0.3,1.7-0.8,3.3-1.4,5L232.7,409.2z"/>
	<path fill="#FFFFFF" d="M252.5,419.9v-26.1h3.5v10.7h13.6v-10.7h3.5v26.1h-3.5v-12.3H256v12.3H252.5z"/>
	<path fill="#FFFFFF" d="M278.9,419.9v-26.1h3.5v10.7h13.6v-10.7h3.5v26.1h-3.5v-12.3h-13.6v12.3H278.9z"/>
	<path fill="#FFFFFF" d="M305.3,393.8h3.5V405h6.2c4.1,0,6.8,0.8,8.1,2.3c1.3,1.5,1.9,3.2,1.9,5.1c0,2-0.7,3.8-2.1,5.3
		s-3.9,2.3-7.7,2.3h-9.9V393.8z M308.8,417h6.3c2.2,0,3.8-0.4,4.7-1.1c1-0.7,1.5-1.9,1.5-3.5c0-1.1-0.3-2-0.9-2.7
		c-0.6-0.7-1.4-1.2-2.3-1.4c-0.9-0.2-2.5-0.3-4.7-0.3h-4.6V417z M328.1,393.8h3.5v26.1h-3.5V393.8z"/>
	<path fill="#FFFFFF" d="M337.5,393.8h3.1v20.7l13.9-20.7h3.5v26.1h-3.1v-20.6l-13.9,20.6h-3.5V393.8z M350.5,387.6h2.2
		c-0.2,1.5-0.7,2.6-1.6,3.4c-0.9,0.8-2.1,1.2-3.6,1.2c-1.5,0-2.7-0.4-3.6-1.2c-0.9-0.8-1.5-1.9-1.6-3.4h2.2c0.2,0.8,0.5,1.4,1,1.8
		s1.2,0.6,2,0.6c1,0,1.7-0.2,2.2-0.6C350,389,350.3,388.4,350.5,387.6z"/>
	<path fill="#FFFFFF" d="M373.7,419.9v-26.1h5.2l6.2,18.5c0.6,1.7,1,3,1.2,3.9c0.3-1,0.8-2.3,1.4-4.2l6.3-18.2h4.7v26.1h-3.3v-21.9
		l-7.6,21.9h-3.1l-7.6-22.2v22.2H373.7z"/>
	<path fill="#FFFFFF" d="M403.2,407.2c0-4.3,1.2-7.7,3.5-10.2c2.3-2.5,5.3-3.7,9-3.7c2.4,0,4.6,0.6,6.5,1.7c1.9,1.2,3.4,2.8,4.4,4.8
		c1,2.1,1.5,4.4,1.5,7c0,2.6-0.5,5-1.6,7.1s-2.6,3.7-4.5,4.8c-2,1.1-4.1,1.6-6.3,1.6c-2.5,0-4.7-0.6-6.6-1.8
		c-1.9-1.2-3.4-2.8-4.4-4.9S403.2,409.5,403.2,407.2z M406.7,407.3c0,3.1,0.8,5.6,2.5,7.4c1.7,1.8,3.8,2.7,6.4,2.7
		c2.6,0,4.7-0.9,6.4-2.7c1.7-1.8,2.5-4.4,2.5-7.8c0-2.1-0.4-4-1.1-5.6c-0.7-1.6-1.8-2.8-3.2-3.7c-1.4-0.9-2.9-1.3-4.7-1.3
		c-2.4,0-4.6,0.8-6.3,2.5C407.6,400.5,406.7,403.3,406.7,407.3z"/>
	<path fill="#FFFFFF" d="M432.5,419.9v-26.1h5.2l6.2,18.5c0.6,1.7,1,3,1.2,3.9c0.3-1,0.8-2.3,1.4-4.2l6.3-18.2h4.7v26.1h-3.3v-21.9
		l-7.6,21.9h-3.1l-7.6-22.2v22.2H432.5z"/>
	<path fill="#FFFFFF" d="M463.1,419.9v-26.1H482v3.1h-15.4v8H481v3.1h-14.5v8.9h16v3.1H463.1z"/>
	<path fill="#FFFFFF" d="M487.5,419.9v-26.1h3.5v10.7h13.6v-10.7h3.5v26.1h-3.5v-12.3h-13.6v12.3H487.5z"/>
	<path fill="#FFFFFF" d="M520.4,419.9v-23h-8.6v-3.1h20.7v3.1h-8.6v23H520.4z"/>
	<path fill="#FFFFFF" d="M564.8,410.8l3.5,0.9c-0.7,2.8-2,5-3.9,6.5c-1.9,1.5-4.2,2.2-6.9,2.2c-2.8,0-5.1-0.6-6.9-1.7
		c-1.8-1.1-3.1-2.8-4-5c-0.9-2.2-1.4-4.5-1.4-7c0-2.7,0.5-5.1,1.6-7.1c1-2,2.5-3.6,4.4-4.6c1.9-1.1,4-1.6,6.3-1.6
		c2.6,0,4.8,0.7,6.6,2c1.8,1.3,3,3.2,3.7,5.6l-3.4,0.8c-0.6-1.9-1.5-3.3-2.6-4.2c-1.2-0.9-2.6-1.3-4.3-1.3c-2,0-3.7,0.5-5,1.4
		s-2.3,2.3-2.8,3.9c-0.5,1.6-0.8,3.3-0.8,5c0,2.2,0.3,4.2,1,5.8c0.6,1.7,1.7,2.9,3,3.7c1.4,0.8,2.8,1.2,4.4,1.2
		c1.9,0,3.6-0.6,4.9-1.7S564.3,413,564.8,410.8z"/>
	<path fill="#FFFFFF" d="M572.4,419.9v-26.1h9.8c2,0,3.6,0.3,4.8,0.8s2.2,1.3,2.8,2.4c0.7,1.1,1,2.2,1,3.4c0,1.1-0.3,2.2-0.9,3.2
		s-1.5,1.8-2.7,2.4c1.6,0.5,2.8,1.3,3.6,2.4c0.8,1.1,1.3,2.4,1.3,4c0,1.2-0.3,2.4-0.8,3.4c-0.5,1.1-1.2,1.9-1.9,2.4
		c-0.8,0.6-1.7,1-2.9,1.3c-1.1,0.3-2.6,0.4-4.2,0.4H572.4z M575.9,404.8h5.7c1.5,0,2.6-0.1,3.3-0.3c0.9-0.3,1.5-0.7,2-1.3
		c0.4-0.6,0.7-1.4,0.7-2.3c0-0.9-0.2-1.6-0.6-2.3c-0.4-0.7-1-1.1-1.8-1.4c-0.8-0.2-2.1-0.4-4-0.4h-5.2V404.8z M575.9,416.8h6.5
		c1.1,0,1.9,0,2.4-0.1c0.8-0.1,1.5-0.4,2-0.7c0.5-0.3,1-0.8,1.3-1.5c0.3-0.6,0.5-1.4,0.5-2.2c0-1-0.2-1.8-0.7-2.5
		c-0.5-0.7-1.2-1.2-2.1-1.5c-0.9-0.3-2.2-0.4-3.8-0.4h-6V416.8z"/>
	<path fill="#FFFFFF" d="M594.6,407.2c0-4.3,1.2-7.7,3.5-10.2c2.3-2.5,5.3-3.7,9-3.7c2.4,0,4.6,0.6,6.5,1.7c1.9,1.2,3.4,2.8,4.4,4.8
		c1,2.1,1.5,4.4,1.5,7c0,2.6-0.5,5-1.6,7.1c-1.1,2.1-2.6,3.7-4.5,4.8c-2,1.1-4.1,1.6-6.3,1.6c-2.5,0-4.7-0.6-6.6-1.8
		c-1.9-1.2-3.4-2.8-4.4-4.9C595.1,411.7,594.6,409.5,594.6,407.2z M598.2,407.3c0,3.1,0.8,5.6,2.5,7.4c1.7,1.8,3.8,2.7,6.4,2.7
		c2.6,0,4.7-0.9,6.4-2.7c1.7-1.8,2.5-4.4,2.5-7.8c0-2.1-0.4-4-1.1-5.6c-0.7-1.6-1.8-2.8-3.2-3.7c-1.4-0.9-2.9-1.3-4.7-1.3
		c-2.4,0-4.6,0.8-6.3,2.5C599.1,400.5,598.2,403.3,598.2,407.3z"/>
	<path fill="#FFFFFF" d="M624.2,393.8h17v3.1h-13.5v8.1h6.2c2.3,0,4.1,0.2,5.5,0.7c1.4,0.4,2.5,1.3,3.3,2.5c0.8,1.2,1.2,2.6,1.2,4.3
		c0,1.3-0.3,2.6-0.9,3.7c-0.6,1.1-1.5,2.1-2.6,2.8c-1.2,0.7-3.1,1.1-6,1.1h-10.2V393.8z M627.7,417h6.9c1.9,0,3.3-0.4,4.2-1.1
		c0.9-0.8,1.4-1.9,1.4-3.4c0-1.1-0.3-2-0.8-2.7c-0.5-0.7-1.3-1.2-2.2-1.4c-1-0.2-2.6-0.4-4.9-0.4h-4.6V417z"/>
	<path fill="#FFFFFF" d="M646.6,407.2c0-4.3,1.2-7.7,3.5-10.2c2.3-2.5,5.3-3.7,9-3.7c2.4,0,4.6,0.6,6.5,1.7c1.9,1.2,3.4,2.8,4.4,4.8
		c1,2.1,1.5,4.4,1.5,7c0,2.6-0.5,5-1.6,7.1s-2.6,3.7-4.5,4.8c-2,1.1-4.1,1.6-6.3,1.6c-2.5,0-4.7-0.6-6.6-1.8
		c-1.9-1.2-3.4-2.8-4.4-4.9S646.6,409.5,646.6,407.2z M650.1,407.3c0,3.1,0.8,5.6,2.5,7.4c1.7,1.8,3.8,2.7,6.4,2.7
		c2.6,0,4.7-0.9,6.4-2.7c1.7-1.8,2.5-4.4,2.5-7.8c0-2.1-0.4-4-1.1-5.6c-0.7-1.6-1.8-2.8-3.2-3.7c-1.4-0.9-2.9-1.3-4.7-1.3
		c-2.4,0-4.6,0.8-6.3,2.5C651,400.5,650.1,403.3,650.1,407.3z"/>
	<path fill="#FFFFFF" d="M677.6,393.8h15.9v23h2.4v9.2h-3.1v-6.1h-17.3v6.1h-3.1v-9.2h2c2.1-3.2,3.2-9.6,3.2-19.2V393.8z M690,396.9
		h-9.1v1.3c0,2.2-0.2,5.3-0.6,9.1c-0.4,3.9-1.2,7-2.3,9.5h12V396.9z"/>
	<path fill="#FFFFFF" d="M700,419.9v-26.1h3.5v10.7h13.6v-10.7h3.5v26.1h-3.5v-12.3h-13.6v12.3H700z"/>
	<path fill="#FFFFFF" d="M726.5,393.8h3.5V405h6.2c4.1,0,6.8,0.8,8.1,2.3c1.3,1.5,1.9,3.2,1.9,5.1c0,2-0.7,3.8-2.1,5.3
		c-1.4,1.5-3.9,2.3-7.7,2.3h-9.9V393.8z M729.9,417h6.3c2.2,0,3.8-0.4,4.7-1.1s1.5-1.9,1.5-3.5c0-1.1-0.3-2-0.9-2.7
		c-0.6-0.7-1.4-1.2-2.3-1.4s-2.5-0.3-4.7-0.3h-4.6V417z M749.3,393.8h3.5v26.1h-3.5V393.8z"/>
	<path fill="#FFFFFF" d="M755.9,419.9l10.1-13.6l-8.9-12.5h4.1l4.7,6.7c1,1.4,1.7,2.5,2.1,3.2c0.6-1,1.3-1.9,2.1-3l5.3-6.9h3.8
		l-9.2,12.3l9.9,13.8h-4.3l-6.6-9.3c-0.4-0.5-0.7-1.1-1.1-1.7c-0.6,1-1,1.6-1.2,2l-6.6,9.1H755.9z"/>
	<path fill="#FFFFFF" d="M792.9,419.9v-26.1h9.8c2,0,3.6,0.3,4.8,0.8s2.2,1.3,2.8,2.4c0.7,1.1,1,2.2,1,3.4c0,1.1-0.3,2.2-0.9,3.2
		c-0.6,1-1.5,1.8-2.7,2.4c1.6,0.5,2.8,1.3,3.6,2.4c0.8,1.1,1.3,2.4,1.3,4c0,1.2-0.3,2.4-0.8,3.4c-0.5,1.1-1.2,1.9-1.9,2.4
		s-1.7,1-2.9,1.3s-2.6,0.4-4.2,0.4H792.9z M796.4,404.8h5.6c1.5,0,2.6-0.1,3.3-0.3c0.9-0.3,1.5-0.7,2-1.3s0.7-1.4,0.7-2.3
		c0-0.9-0.2-1.6-0.6-2.3c-0.4-0.7-1-1.1-1.8-1.4s-2.1-0.4-4-0.4h-5.2V404.8z M796.4,416.8h6.5c1.1,0,1.9,0,2.4-0.1
		c0.8-0.1,1.5-0.4,2-0.7c0.5-0.3,1-0.8,1.3-1.5c0.3-0.6,0.5-1.4,0.5-2.2c0-1-0.3-1.8-0.7-2.5c-0.5-0.7-1.2-1.2-2.1-1.5
		c-0.9-0.3-2.2-0.4-3.8-0.4h-6V416.8z"/>
	<path fill="#FFFFFF" d="M813.4,419.9l10-26.1h3.7l10.7,26.1h-3.9l-3-7.9h-10.9l-2.9,7.9H813.4z M820.9,409.2h8.9L827,402
		c-0.8-2.2-1.4-4-1.9-5.4c-0.3,1.7-0.8,3.3-1.4,5L820.9,409.2z"/>
	<path fill="#FFFFFF" d="M840.6,393.8h3.5v11.4c1.6,0,2.7-0.3,3.3-0.9c0.6-0.6,1.5-2.1,2.5-4.4c0.7-1.7,1.3-2.9,1.8-3.6
		c0.5-0.7,1.1-1.3,2-1.8c0.9-0.5,1.8-0.7,2.9-0.7c1.3,0,2,0,2.1,0v3c-0.1,0-0.4,0-0.7,0c-0.4,0-0.6,0-0.7,0c-1.1,0-1.9,0.3-2.5,0.8
		c-0.5,0.5-1.2,1.7-1.9,3.4c-0.9,2.2-1.6,3.6-2.2,4.2c-0.6,0.6-1.3,1-2.2,1.4c1.7,0.5,3.4,2,5,4.7l5.4,8.7h-4.3l-4.4-7.1
		c-1.2-2-2.2-3.3-3-4c-0.8-0.7-1.9-1.1-3.1-1.1v12.2h-3.5V393.8z"/>
	<path fill="#FFFFFF" d="M859,419.9l10-26.1h3.7l10.7,26.1h-3.9l-3-7.9h-10.9l-2.9,7.9H859z M866.5,409.2h8.9l-2.7-7.2
		c-0.8-2.2-1.4-4-1.9-5.4c-0.3,1.7-0.8,3.3-1.4,5L866.5,409.2z"/>
	<path fill="#FFFFFF" d="M886.3,419.9v-26.1h3.5v10.7h13.6v-10.7h3.5v26.1h-3.5v-12.3h-13.6v12.3H886.3z"/>
	<path fill="#FFFFFF" d="M931.2,410.8l3.5,0.9c-0.7,2.8-2,5-3.9,6.5c-1.9,1.5-4.2,2.2-6.9,2.2c-2.8,0-5.1-0.6-6.9-1.7
		c-1.8-1.1-3.1-2.8-4-5c-0.9-2.2-1.4-4.5-1.4-7c0-2.7,0.5-5.1,1.6-7.1c1-2,2.5-3.6,4.4-4.6c1.9-1.1,4-1.6,6.3-1.6
		c2.6,0,4.8,0.7,6.6,2c1.8,1.3,3,3.2,3.7,5.6l-3.4,0.8c-0.6-1.9-1.5-3.3-2.6-4.2c-1.2-0.9-2.6-1.3-4.3-1.3c-2,0-3.7,0.5-5,1.4
		s-2.3,2.3-2.8,3.9c-0.5,1.6-0.8,3.3-0.8,5c0,2.2,0.3,4.2,1,5.8c0.6,1.7,1.7,2.9,3,3.7s2.8,1.2,4.4,1.2c1.9,0,3.6-0.6,4.9-1.7
		S930.7,413,931.2,410.8z"/>
	<path fill="#FFFFFF" d="M939,393.8h3.1v20.7l13.9-20.7h3.5v26.1h-3.1v-20.6l-13.9,20.6H939V393.8z"/>
	<path fill="#FFFFFF" d="M965.2,393.8h3.1v20.7l13.9-20.7h3.5v26.1h-3.1v-20.6l-13.9,20.6h-3.5V393.8z M978.2,387.6h2.2
		c-0.2,1.5-0.7,2.6-1.6,3.4c-0.9,0.8-2.1,1.2-3.6,1.2c-1.5,0-2.7-0.4-3.6-1.2c-0.9-0.8-1.5-1.9-1.6-3.4h2.2c0.2,0.8,0.5,1.4,1,1.8
		s1.2,0.6,2,0.6c1,0,1.7-0.2,2.2-0.6C977.7,389,978,388.4,978.2,387.6z"/>
	<path fill="#FFFFFF" d="M1001.6,419.9v-26.1h3.5v10.7h13.6v-10.7h3.5v26.1h-3.5v-12.3h-13.6v12.3H1001.6z"/>
	<path fill="#FFFFFF" d="M1028,419.9v-26.1h18.9v3.1h-15.4v8h14.5v3.1h-14.5v8.9h16v3.1H1028z"/>
	<path fill="#FFFFFF" d="M1058.9,419.9v-23h-8.6v-3.1h20.7v3.1h-8.6v23H1058.9z"/>
</g>
<rect x="170.4" y="542.5" fill="none" width="663.8" height="334.9"/>
<g enable-background="new    ">
	<path fill="#FFFFFF" d="M173.3,568.6v-26.1h3.5v10.7h13.6v-10.7h3.5v26.1h-3.5v-12.3h-13.6v12.3H173.3z"/>
	<path fill="#FFFFFF" d="M198,559.2c0-3.5,1-6.1,2.9-7.8c1.6-1.4,3.6-2.1,6-2.1c2.6,0,4.7,0.9,6.4,2.6c1.7,1.7,2.5,4.1,2.5,7.1
		c0,2.4-0.4,4.4-1.1,5.7s-1.8,2.5-3.2,3.3c-1.4,0.8-2.9,1.2-4.6,1.2c-2.6,0-4.8-0.8-6.4-2.5S198,562.4,198,559.2z M201.3,559.2
		c0,2.4,0.5,4.2,1.6,5.4s2.4,1.8,4,1.8c1.6,0,2.9-0.6,4-1.8s1.6-3.1,1.6-5.5c0-2.3-0.5-4.1-1.6-5.3c-1.1-1.2-2.4-1.8-4-1.8
		c-1.6,0-2.9,0.6-4,1.8S201.3,556.8,201.3,559.2z"/>
	<path fill="#FFFFFF" d="M221.2,562.2l-1-13.8v-5.8h4v5.8l-0.9,13.8H221.2z M220.4,568.6V565h3.7v3.7H220.4z"/>
	<path fill="#FFFFFF" d="M240.2,568.6v-26.1h18.9v3.1h-15.4v8h14.5v3.1h-14.5v8.9h16v3.1H240.2z"/>
	<path fill="#FFFFFF" d="M276.1,561.7l3.2,0.4c-0.3,2.2-1.2,3.9-2.6,5.1s-3.2,1.8-5.2,1.8c-2.6,0-4.7-0.8-6.2-2.5
		c-1.6-1.7-2.4-4.1-2.4-7.3c0-2,0.3-3.8,1-5.4c0.7-1.5,1.7-2.7,3.1-3.4s2.9-1.1,4.5-1.1c2.1,0,3.7,0.5,5,1.6s2.1,2.5,2.5,4.4
		l-3.1,0.5c-0.3-1.3-0.8-2.2-1.6-2.9c-0.8-0.6-1.7-1-2.7-1c-1.6,0-2.9,0.6-3.9,1.7c-1,1.2-1.5,3-1.5,5.5c0,2.5,0.5,4.4,1.5,5.5
		c1,1.2,2.2,1.7,3.8,1.7c1.3,0,2.3-0.4,3.2-1.2C275.3,564.5,275.8,563.3,276.1,561.7z"/>
	<path fill="#FFFFFF" d="M283.5,549.7h14.9v18.9h-3.2v-16.3h-8.5v9.4c0,2.2-0.1,3.6-0.2,4.3s-0.5,1.3-1.2,1.8
		c-0.6,0.5-1.6,0.8-2.8,0.8c-0.7,0-1.6,0-2.6-0.1V566h1.4c0.7,0,1.1-0.1,1.4-0.2s0.5-0.4,0.6-0.7s0.1-1.3,0.1-2.9V549.7z"/>
	<path fill="#FFFFFF" d="M303.3,549.7h3.2v14.4l8.9-14.4h3.5v18.9h-3.2v-14.3l-8.9,14.3h-3.5V549.7z"/>
	<path fill="#FFFFFF" d="M332.1,549.7h15.4v2.7h-6.1v16.3h-3.2v-16.3h-6.1V549.7z"/>
	<path fill="#FFFFFF" d="M350.6,549.7h3.2v7.4h4.1c2.6,0,4.7,0.5,6.1,1.5c1.4,1,2.1,2.4,2.1,4.3c0,1.6-0.6,2.9-1.8,4.1
		s-3.1,1.7-5.7,1.7h-8V549.7z M353.8,566h3.4c2,0,3.5-0.3,4.3-0.7c0.9-0.5,1.3-1.3,1.3-2.3c0-0.8-0.3-1.6-1-2.2s-2.1-1-4.3-1h-3.8
		V566z M368.5,549.7h3.2v18.9h-3.2V549.7z"/>
	<path fill="#FFFFFF" d="M386.9,549.7h3.2V566h8.9v-16.3h3.2V566h2.1v8h-2.6v-5.4h-14.7V549.7z"/>
	<path fill="#FFFFFF" d="M420.3,562.6l3.3,0.4c-0.5,1.9-1.5,3.4-2.9,4.5s-3.2,1.6-5.4,1.6c-2.8,0-5-0.9-6.6-2.6
		c-1.6-1.7-2.4-4.1-2.4-7.2c0-3.2,0.8-5.7,2.5-7.4s3.8-2.6,6.4-2.6c2.5,0,4.6,0.9,6.2,2.6c1.6,1.7,2.4,4.1,2.4,7.3
		c0,0.2,0,0.5,0,0.9h-14.1c0.1,2.1,0.7,3.7,1.8,4.8c1.1,1.1,2.4,1.7,4,1.7c1.2,0,2.2-0.3,3-0.9C419.2,564.9,419.9,563.9,420.3,562.6
		z M409.8,557.4h10.6c-0.1-1.6-0.5-2.8-1.2-3.6c-1-1.2-2.3-1.9-4-1.9c-1.5,0-2.7,0.5-3.7,1.5C410.5,554.4,409.9,555.7,409.8,557.4z"
		/>
	<path fill="#FFFFFF" d="M428,549.7h14.9v18.9h-3.2v-16.3h-8.5v9.4c0,2.2-0.1,3.6-0.2,4.3s-0.5,1.3-1.2,1.8
		c-0.6,0.5-1.6,0.8-2.8,0.8c-0.7,0-1.6,0-2.6-0.1V566h1.4c0.7,0,1.1-0.1,1.4-0.2s0.5-0.4,0.6-0.7s0.1-1.3,0.1-2.9V549.7z"/>
	<path fill="#FFFFFF" d="M460.7,562.6l3.3,0.4c-0.5,1.9-1.5,3.4-2.9,4.5s-3.2,1.6-5.4,1.6c-2.8,0-5-0.9-6.6-2.6
		c-1.6-1.7-2.4-4.1-2.4-7.2c0-3.2,0.8-5.7,2.5-7.4s3.8-2.6,6.4-2.6c2.5,0,4.6,0.9,6.2,2.6c1.6,1.7,2.4,4.1,2.4,7.3
		c0,0.2,0,0.5,0,0.9H450c0.1,2.1,0.7,3.7,1.8,4.8c1.1,1.1,2.4,1.7,4,1.7c1.2,0,2.2-0.3,3-0.9C459.6,564.9,460.2,563.9,460.7,562.6z
		 M450.2,557.4h10.6c-0.1-1.6-0.5-2.8-1.2-3.6c-1-1.2-2.3-1.9-4-1.9c-1.5,0-2.7,0.5-3.7,1.5C450.9,554.4,450.3,555.7,450.2,557.4z"
		/>
	<path fill="#FFFFFF" d="M467.5,575.9l-0.4-3c0.7,0.2,1.3,0.3,1.8,0.3c0.7,0,1.3-0.1,1.7-0.4c0.4-0.2,0.8-0.6,1.1-1
		c0.2-0.3,0.5-1.1,1-2.4c0.1-0.2,0.2-0.4,0.3-0.8l-7.2-19h3.5l3.9,11c0.5,1.4,1,2.9,1.4,4.4c0.4-1.5,0.8-2.9,1.3-4.3l4-11h3.2
		L476,569c-0.8,2.1-1.4,3.5-1.8,4.3c-0.6,1.1-1.2,1.8-2,2.3c-0.7,0.5-1.6,0.7-2.6,0.7C469,576.3,468.3,576.2,467.5,575.9z"/>
	<path fill="#FFFFFF" d="M497.9,561.7l3.2,0.4c-0.3,2.2-1.2,3.9-2.6,5.1s-3.2,1.8-5.2,1.8c-2.6,0-4.7-0.8-6.2-2.5
		c-1.6-1.7-2.4-4.1-2.4-7.3c0-2,0.3-3.8,1-5.4c0.7-1.5,1.7-2.7,3.1-3.4s2.9-1.1,4.5-1.1c2.1,0,3.7,0.5,5,1.6s2.1,2.5,2.5,4.4
		l-3.1,0.5c-0.3-1.3-0.8-2.2-1.6-2.9c-0.8-0.6-1.7-1-2.7-1c-1.6,0-2.9,0.6-3.9,1.7c-1,1.2-1.5,3-1.5,5.5c0,2.5,0.5,4.4,1.5,5.5
		c1,1.2,2.2,1.7,3.8,1.7c1.3,0,2.3-0.4,3.2-1.2C497.1,564.5,497.6,563.3,497.9,561.7z"/>
	<path fill="#FFFFFF" d="M502,549.7h15.4v2.7h-6.1v16.3h-3.2v-16.3H502V549.7z"/>
	<path fill="#FFFFFF" d="M520.5,575.9v-26.2h2.9v2.5c0.7-1,1.5-1.7,2.3-2.2c0.9-0.5,1.9-0.7,3.2-0.7c1.6,0,3,0.4,4.3,1.2
		c1.2,0.8,2.2,2,2.8,3.5s0.9,3.2,0.9,5c0,1.9-0.3,3.7-1,5.2c-0.7,1.6-1.7,2.7-3,3.6c-1.3,0.8-2.7,1.2-4.2,1.2c-1.1,0-2-0.2-2.9-0.7
		c-0.9-0.5-1.5-1-2.1-1.7v9.2H520.5z M523.4,559.3c0,2.4,0.5,4.2,1.5,5.4c1,1.2,2.2,1.7,3.6,1.7c1.4,0,2.6-0.6,3.7-1.8
		c1-1.2,1.5-3.1,1.5-5.6c0-2.4-0.5-4.2-1.5-5.4s-2.2-1.8-3.6-1.8c-1.4,0-2.6,0.6-3.6,1.9C523.9,555,523.4,556.9,523.4,559.3z"/>
	<path fill="#FFFFFF" d="M553.7,562.6l3.3,0.4c-0.5,1.9-1.5,3.4-2.9,4.5s-3.2,1.6-5.4,1.6c-2.8,0-5-0.9-6.6-2.6
		c-1.6-1.7-2.4-4.1-2.4-7.2c0-3.2,0.8-5.7,2.5-7.4s3.8-2.6,6.4-2.6c2.5,0,4.6,0.9,6.2,2.6c1.6,1.7,2.4,4.1,2.4,7.3
		c0,0.2,0,0.5,0,0.9H543c0.1,2.1,0.7,3.7,1.8,4.8c1.1,1.1,2.4,1.7,4,1.7c1.2,0,2.2-0.3,3-0.9C552.6,564.9,553.2,563.9,553.7,562.6z
		 M543.2,557.4h10.6c-0.1-1.6-0.5-2.8-1.2-3.6c-1-1.2-2.3-1.9-4-1.9c-1.5,0-2.7,0.5-3.7,1.5C543.9,554.4,543.3,555.7,543.2,557.4z"
		/>
	<path fill="#FFFFFF" d="M561.2,549.7h5l5,15.2l5.5-15.2h4.6v18.9h-3.2v-15.2l-5.6,15.2h-2.9l-5.3-16v16h-3.1V549.7z"/>
	<path fill="#FFFFFF" d="M587.7,549.7h14.9v18.9h-3.2v-16.3H591v9.4c0,2.2-0.1,3.6-0.2,4.3s-0.5,1.3-1.2,1.8
		c-0.6,0.5-1.6,0.8-2.8,0.8c-0.7,0-1.6,0-2.6-0.1V566h1.4c0.7,0,1.1-0.1,1.4-0.2s0.5-0.4,0.6-0.7s0.1-1.3,0.1-2.9V549.7z"/>
	<path fill="#FFFFFF" d="M620.4,562.6l3.3,0.4c-0.5,1.9-1.5,3.4-2.9,4.5s-3.2,1.6-5.4,1.6c-2.8,0-5-0.9-6.6-2.6s-2.4-4.1-2.4-7.2
		c0-3.2,0.8-5.7,2.5-7.4c1.6-1.8,3.8-2.6,6.4-2.6c2.5,0,4.6,0.9,6.2,2.6c1.6,1.7,2.4,4.1,2.4,7.3c0,0.2,0,0.5,0,0.9h-14.1
		c0.1,2.1,0.7,3.7,1.8,4.8c1.1,1.1,2.4,1.7,4,1.7c1.2,0,2.2-0.3,3-0.9S619.9,563.9,620.4,562.6z M609.9,557.4h10.6
		c-0.1-1.6-0.5-2.8-1.2-3.6c-1-1.2-2.3-1.9-4-1.9c-1.5,0-2.7,0.5-3.7,1.5C610.6,554.4,610,555.7,609.9,557.4z"/>
	<path fill="#FFFFFF" d="M627.8,549.7h3.2v7.9h8.9v-7.9h3.2v18.9h-3.2v-8.4H631v8.4h-3.2V549.7z"/>
	<path fill="#FFFFFF" d="M648.8,568.6V565h3.7v3.7c0,1.3-0.2,2.4-0.7,3.3c-0.5,0.8-1.2,1.5-2.3,1.9l-0.9-1.4
		c0.7-0.3,1.2-0.7,1.5-1.3c0.3-0.6,0.5-1.4,0.5-2.5H648.8z"/>
</g>
<g enable-background="new    ">
	<path fill="#FFFFFF" d="M172.8,614.6h3.2v8.2c1,0,1.7-0.2,2.1-0.6c0.4-0.4,1-1.5,1.8-3.4c0.6-1.5,1.1-2.5,1.5-3s0.8-0.8,1.4-1
		c0.5-0.2,1.3-0.2,2.5-0.2h0.6v2.7l-0.9,0c-0.8,0-1.4,0.1-1.6,0.4c-0.2,0.3-0.6,1-1.1,2.3c-0.5,1.2-0.9,2.1-1.3,2.6
		c-0.4,0.5-1,0.9-1.9,1.3c1.4,0.4,2.7,1.7,4.1,3.8l3.5,5.9h-3.5l-3.4-5.9c-0.7-1.2-1.3-2-1.8-2.3c-0.5-0.4-1.1-0.6-1.9-0.6v8.8h-3.2
		V614.6z"/>
	<path fill="#FFFFFF" d="M188.8,640.8v-26.2h2.9v2.5c0.7-1,1.5-1.7,2.3-2.2c0.9-0.5,1.9-0.7,3.2-0.7c1.6,0,3,0.4,4.3,1.2
		c1.2,0.8,2.2,2,2.8,3.5s0.9,3.2,0.9,5c0,1.9-0.3,3.7-1,5.2c-0.7,1.6-1.7,2.7-3,3.6c-1.3,0.8-2.7,1.2-4.2,1.2c-1.1,0-2-0.2-2.9-0.7
		c-0.9-0.5-1.5-1-2.1-1.7v9.2H188.8z M191.7,624.1c0,2.4,0.5,4.2,1.5,5.4c1,1.2,2.2,1.7,3.6,1.7c1.4,0,2.6-0.6,3.7-1.8
		c1-1.2,1.5-3.1,1.5-5.6c0-2.4-0.5-4.2-1.5-5.4s-2.2-1.8-3.6-1.8c-1.4,0-2.6,0.6-3.6,1.9C192.2,619.9,191.7,621.7,191.7,624.1z"/>
	<path fill="#FFFFFF" d="M222.1,627.4l3.3,0.4c-0.5,1.9-1.5,3.4-2.9,4.5s-3.2,1.6-5.4,1.6c-2.8,0-5-0.9-6.6-2.6
		c-1.6-1.7-2.4-4.1-2.4-7.2c0-3.2,0.8-5.7,2.5-7.4s3.8-2.6,6.4-2.6c2.5,0,4.6,0.9,6.2,2.6c1.6,1.7,2.4,4.1,2.4,7.3
		c0,0.2,0,0.5,0,0.9h-14.1c0.1,2.1,0.7,3.7,1.8,4.8c1.1,1.1,2.4,1.7,4,1.7c1.2,0,2.2-0.3,3-0.9C220.9,629.8,221.6,628.8,222.1,627.4
		z M211.5,622.2h10.6c-0.1-1.6-0.5-2.8-1.2-3.6c-1-1.2-2.3-1.9-4-1.9c-1.5,0-2.7,0.5-3.7,1.5C212.2,619.3,211.6,620.6,211.5,622.2z"
		/>
	<path fill="#FFFFFF" d="M241.7,631.2c-1.2,1-2.3,1.7-3.4,2.1c-1.1,0.4-2.3,0.6-3.5,0.6c-2.1,0-3.7-0.5-4.8-1.5
		c-1.1-1-1.7-2.3-1.7-3.9c0-0.9,0.2-1.8,0.6-2.5s1-1.4,1.7-1.8c0.7-0.5,1.5-0.8,2.3-1.1c0.6-0.2,1.6-0.3,2.9-0.5
		c2.6-0.3,4.5-0.7,5.7-1.1c0-0.4,0-0.7,0-0.8c0-1.3-0.3-2.2-0.9-2.8c-0.8-0.7-2-1.1-3.7-1.1c-1.5,0-2.6,0.3-3.3,0.8
		c-0.7,0.5-1.3,1.5-1.6,2.8l-3.1-0.4c0.3-1.3,0.8-2.4,1.4-3.3c0.7-0.8,1.6-1.5,2.8-1.9c1.2-0.4,2.7-0.7,4.3-0.7
		c1.6,0,2.9,0.2,3.9,0.6c1,0.4,1.8,0.9,2.2,1.4c0.5,0.6,0.8,1.3,1,2.2c0.1,0.5,0.2,1.5,0.2,3v4.3c0,3,0.1,4.9,0.2,5.7
		c0.1,0.8,0.4,1.5,0.8,2.3h-3.4C242.1,632.8,241.8,632.1,241.7,631.2z M241.5,624c-1.2,0.5-2.9,0.9-5.2,1.2
		c-1.3,0.2-2.3,0.4-2.8,0.6c-0.5,0.2-1,0.6-1.3,1s-0.4,1-0.4,1.5c0,0.9,0.3,1.6,1,2.1c0.6,0.6,1.6,0.9,2.8,0.9
		c1.2,0,2.3-0.3,3.3-0.8c1-0.5,1.7-1.3,2.1-2.2c0.3-0.7,0.5-1.8,0.5-3.2V624z"/>
	<path fill="#FFFFFF" d="M247.2,614.6h15.4v2.7h-6.1v16.3h-3.2v-16.3h-6.1V614.6z"/>
	<path fill="#FFFFFF" d="M265.6,614.6h3.2V629l8.9-14.4h3.5v18.9H278v-14.3l-8.9,14.3h-3.5V614.6z"/>
	<path fill="#FFFFFF" d="M286,614.6h7.4c1.8,0,3.2,0.2,4.1,0.5c0.9,0.3,1.6,0.9,2.3,1.7c0.6,0.8,1,1.8,1,2.9c0,0.9-0.2,1.7-0.6,2.4
		c-0.4,0.7-0.9,1.2-1.7,1.7c0.9,0.3,1.6,0.9,2.2,1.7c0.6,0.8,0.9,1.8,0.9,2.9c-0.1,1.8-0.8,3.1-1.9,4s-2.9,1.3-5.1,1.3H286V614.6z
		 M289.2,622.5h3.4c1.4,0,2.3-0.1,2.8-0.2s1-0.4,1.4-0.9c0.4-0.4,0.6-1,0.6-1.6c0-1-0.4-1.7-1.1-2.1c-0.7-0.4-1.9-0.6-3.6-0.6h-3.5
		V622.5z M289.2,630.9h4.2c1.8,0,3.1-0.2,3.7-0.6s1-1.1,1.1-2.2c0-0.6-0.2-1.2-0.6-1.7c-0.4-0.5-0.9-0.8-1.5-1
		c-0.6-0.1-1.6-0.2-3-0.2h-3.9V630.9z"/>
	<path fill="#FFFFFF" d="M317.9,627.4l3.3,0.4c-0.5,1.9-1.5,3.4-2.9,4.5s-3.2,1.6-5.4,1.6c-2.8,0-5-0.9-6.6-2.6
		c-1.6-1.7-2.4-4.1-2.4-7.2c0-3.2,0.8-5.7,2.5-7.4s3.8-2.6,6.4-2.6c2.5,0,4.6,0.9,6.2,2.6c1.6,1.7,2.4,4.1,2.4,7.3
		c0,0.2,0,0.5,0,0.9h-14.1c0.1,2.1,0.7,3.7,1.8,4.8c1.1,1.1,2.4,1.7,4,1.7c1.2,0,2.2-0.3,3-0.9C316.8,629.8,317.5,628.8,317.9,627.4
		z M307.4,622.2H318c-0.1-1.6-0.5-2.8-1.2-3.6c-1-1.2-2.3-1.9-4-1.9c-1.5,0-2.7,0.5-3.7,1.5C308.1,619.3,307.5,620.6,307.4,622.2z"
		/>
	<path fill="#FFFFFF" d="M325.3,614.6h3.2v7.9h8.9v-7.9h3.2v18.9h-3.2v-8.4h-8.9v8.4h-3.2V614.6z"/>
	<path fill="#FFFFFF" d="M346.3,633.5v-3.7h3.7v3.7c0,1.3-0.2,2.4-0.7,3.3c-0.5,0.8-1.2,1.5-2.3,1.9l-0.9-1.4
		c0.7-0.3,1.2-0.7,1.5-1.3s0.5-1.4,0.5-2.5H346.3z"/>
	<path fill="#FFFFFF" d="M365.7,614.6h3.2v8.2c1,0,1.7-0.2,2.1-0.6c0.4-0.4,1-1.5,1.8-3.4c0.6-1.5,1.1-2.5,1.5-3s0.8-0.8,1.4-1
		c0.5-0.2,1.3-0.2,2.5-0.2h0.6v2.7l-0.9,0c-0.8,0-1.4,0.1-1.6,0.4c-0.2,0.3-0.6,1-1.1,2.3c-0.5,1.2-0.9,2.1-1.3,2.6
		c-0.4,0.5-1,0.9-1.9,1.3c1.4,0.4,2.7,1.7,4.1,3.8l3.5,5.9H376l-3.4-5.9c-0.7-1.2-1.3-2-1.8-2.3c-0.5-0.4-1.1-0.6-1.9-0.6v8.8h-3.2
		V614.6z"/>
	<path fill="#FFFFFF" d="M380.9,624c0-3.5,1-6.1,2.9-7.8c1.6-1.4,3.6-2.1,6-2.1c2.6,0,4.7,0.9,6.4,2.6c1.7,1.7,2.5,4.1,2.5,7.1
		c0,2.4-0.4,4.4-1.1,5.7s-1.8,2.5-3.2,3.3c-1.4,0.8-2.9,1.2-4.6,1.2c-2.6,0-4.8-0.8-6.4-2.5S380.9,627.2,380.9,624z M384.2,624
		c0,2.4,0.5,4.2,1.6,5.4s2.4,1.8,4,1.8c1.6,0,2.9-0.6,4-1.8s1.6-3.1,1.6-5.5c0-2.3-0.5-4.1-1.6-5.3c-1.1-1.2-2.4-1.8-4-1.8
		c-1.6,0-2.9,0.6-4,1.8S384.2,621.6,384.2,624z"/>
	<path fill="#FFFFFF" d="M402.5,614.6h5l5,15.2l5.5-15.2h4.6v18.9h-3.2v-15.2l-5.6,15.2h-2.9l-5.3-16v16h-3.1V614.6z"/>
	<path fill="#FFFFFF" d="M427.6,614.6h5l5,15.2l5.5-15.2h4.6v18.9h-3.2v-15.2l-5.6,15.2H436l-5.3-16v16h-3.1V614.6z"/>
	<path fill="#FFFFFF" d="M452.9,640.8l-0.4-3c0.7,0.2,1.3,0.3,1.8,0.3c0.7,0,1.3-0.1,1.7-0.4c0.4-0.2,0.8-0.6,1.1-1
		c0.2-0.3,0.5-1.1,1-2.4c0.1-0.2,0.2-0.4,0.3-0.8l-7.2-19h3.5l3.9,11c0.5,1.4,1,2.9,1.4,4.4c0.4-1.5,0.8-2.9,1.3-4.3l4-11h3.2
		l-7.2,19.3c-0.8,2.1-1.4,3.5-1.8,4.3c-0.6,1.1-1.2,1.8-2,2.3c-0.7,0.5-1.6,0.7-2.6,0.7C454.3,641.2,453.6,641.1,452.9,640.8z"/>
	<path fill="#FFFFFF" d="M471.3,614.6h3.2v7.9h8.9v-7.9h3.2v18.9h-3.2v-8.4h-8.9v8.4h-3.2V614.6z"/>
	<path fill="#FFFFFF" d="M491.4,614.6h3.2V629l8.9-14.4h3.5v18.9h-3.2v-14.3l-8.9,14.3h-3.5V614.6z"/>
	<path fill="#FFFFFF" d="M511.8,614.6h3.2v8.2c1,0,1.7-0.2,2.1-0.6c0.4-0.4,1-1.5,1.8-3.4c0.6-1.5,1.1-2.5,1.5-3s0.8-0.8,1.4-1
		c0.5-0.2,1.3-0.2,2.5-0.2h0.6v2.7l-0.9,0c-0.8,0-1.4,0.1-1.6,0.4c-0.2,0.3-0.6,1-1.1,2.3c-0.5,1.2-0.9,2.1-1.3,2.6
		c-0.4,0.5-1,0.9-1.9,1.3c1.4,0.4,2.7,1.7,4.1,3.8l3.5,5.9h-3.5l-3.4-5.9c-0.7-1.2-1.3-2-1.8-2.3c-0.5-0.4-1.1-0.6-1.9-0.6v8.8h-3.2
		V614.6z"/>
	<path fill="#FFFFFF" d="M540.9,631.2c-1.2,1-2.3,1.7-3.4,2.1c-1.1,0.4-2.3,0.6-3.5,0.6c-2.1,0-3.7-0.5-4.8-1.5
		c-1.1-1-1.7-2.3-1.7-3.9c0-0.9,0.2-1.8,0.6-2.5s1-1.4,1.7-1.8c0.7-0.5,1.5-0.8,2.3-1.1c0.6-0.2,1.6-0.3,2.9-0.5
		c2.6-0.3,4.5-0.7,5.7-1.1c0-0.4,0-0.7,0-0.8c0-1.3-0.3-2.2-0.9-2.8c-0.8-0.7-2-1.1-3.7-1.1c-1.5,0-2.6,0.3-3.3,0.8
		c-0.7,0.5-1.3,1.5-1.6,2.8l-3.1-0.4c0.3-1.3,0.8-2.4,1.4-3.3c0.7-0.8,1.6-1.5,2.8-1.9c1.2-0.4,2.7-0.7,4.3-0.7
		c1.6,0,2.9,0.2,3.9,0.6c1,0.4,1.8,0.9,2.2,1.4c0.5,0.6,0.8,1.3,1,2.2c0.1,0.5,0.2,1.5,0.2,3v4.3c0,3,0.1,4.9,0.2,5.7
		c0.1,0.8,0.4,1.5,0.8,2.3h-3.4C541.2,632.8,541,632.1,540.9,631.2z M540.7,624c-1.2,0.5-2.9,0.9-5.2,1.2c-1.3,0.2-2.3,0.4-2.8,0.6
		c-0.5,0.2-1,0.6-1.3,1s-0.4,1-0.4,1.5c0,0.9,0.3,1.6,1,2.1c0.6,0.6,1.6,0.9,2.8,0.9c1.2,0,2.3-0.3,3.3-0.8c1-0.5,1.7-1.3,2.1-2.2
		c0.3-0.7,0.5-1.8,0.5-3.2V624z"/>
	<path fill="#FFFFFF" d="M562.8,606.8l2.8,0c-0.1,1.3-0.4,2.2-0.8,2.7c-0.4,0.5-1,0.8-1.7,1s-2,0.2-4,0.2c-2.6,0-4.5,0.3-5.4,0.8
		s-1.7,1.3-2.1,2.5s-0.7,2.6-0.7,4.3c0.8-1.2,1.8-2.1,2.8-2.7c1.1-0.6,2.3-0.9,3.7-0.9c2.5,0,4.5,0.9,6.2,2.6c1.6,1.7,2.4,4,2.4,6.9
		c0,2.2-0.4,4-1.2,5.4c-0.8,1.4-1.8,2.5-2.9,3.3c-1.1,0.8-2.7,1.2-4.6,1.2c-2.2,0-4-0.5-5.2-1.5c-1.2-1-2.2-2.3-2.9-3.9
		c-0.7-1.6-1-4.4-1-8.4c0-5,0.8-8.4,2.5-10.1c1.7-1.7,4.3-2.6,7.8-2.6c2.2,0,3.4,0,3.7-0.1S562.7,607,562.8,606.8z M562.6,624
		c0-2-0.5-3.6-1.4-4.8c-0.9-1.3-2.2-1.9-3.9-1.9c-1.8,0-3.1,0.7-4.1,2c-1,1.3-1.4,3.1-1.4,5.3c0,2.2,0.5,3.9,1.6,5
		c1.1,1.2,2.4,1.7,3.9,1.7c1.6,0,2.9-0.7,3.9-2S562.6,626.2,562.6,624z"/>
	<path fill="#FFFFFF" d="M582.3,627.4l3.3,0.4c-0.5,1.9-1.5,3.4-2.9,4.5s-3.2,1.6-5.4,1.6c-2.8,0-5-0.9-6.6-2.6
		c-1.6-1.7-2.4-4.1-2.4-7.2c0-3.2,0.8-5.7,2.5-7.4s3.8-2.6,6.4-2.6c2.5,0,4.6,0.9,6.2,2.6c1.6,1.7,2.4,4.1,2.4,7.3
		c0,0.2,0,0.5,0,0.9h-14.1c0.1,2.1,0.7,3.7,1.8,4.8c1.1,1.1,2.4,1.7,4,1.7c1.2,0,2.2-0.3,3-0.9C581.2,629.8,581.9,628.8,582.3,627.4
		z M571.8,622.2h10.6c-0.1-1.6-0.5-2.8-1.2-3.6c-1-1.2-2.3-1.9-4-1.9c-1.5,0-2.7,0.5-3.7,1.5C572.5,619.3,571.9,620.6,571.8,622.2z"
		/>
	<path fill="#FFFFFF" d="M590,614.6h14.9v18.9h-3.2v-16.3h-8.5v9.4c0,2.2-0.1,3.6-0.2,4.3s-0.5,1.3-1.2,1.8
		c-0.6,0.5-1.6,0.8-2.8,0.8c-0.7,0-1.6,0-2.6-0.1v-2.7h1.4c0.7,0,1.1-0.1,1.4-0.2s0.5-0.4,0.6-0.7s0.1-1.3,0.1-2.9V614.6z"/>
	<path fill="#FFFFFF" d="M622.7,627.4l3.3,0.4c-0.5,1.9-1.5,3.4-2.9,4.5s-3.2,1.6-5.4,1.6c-2.8,0-5-0.9-6.6-2.6s-2.4-4.1-2.4-7.2
		c0-3.2,0.8-5.7,2.5-7.4c1.6-1.8,3.8-2.6,6.4-2.6c2.5,0,4.6,0.9,6.2,2.6c1.6,1.7,2.4,4.1,2.4,7.3c0,0.2,0,0.5,0,0.9H612
		c0.1,2.1,0.7,3.7,1.8,4.8c1.1,1.1,2.4,1.7,4,1.7c1.2,0,2.2-0.3,3-0.9S622.2,628.8,622.7,627.4z M612.2,622.2h10.6
		c-0.1-1.6-0.5-2.8-1.2-3.6c-1-1.2-2.3-1.9-4-1.9c-1.5,0-2.7,0.5-3.7,1.5C612.9,619.3,612.3,620.6,612.2,622.2z"/>
	<path fill="#FFFFFF" d="M630.1,614.6h3.2v7.9h8.9v-7.9h3.2v18.9h-3.2v-8.4h-8.9v8.4h-3.2V614.6z"/>
	<path fill="#FFFFFF" d="M660.4,614.6h3.2V629l8.9-14.4h3.5v18.9h-3.2v-14.3l-8.9,14.3h-3.5V614.6z"/>
	<path fill="#FFFFFF" d="M690.9,614.6h14.9v18.9h-3.2v-16.3h-8.5v16.3h-3.2V614.6z"/>
	<path fill="#FFFFFF" d="M709.5,624c0-3.5,1-6.1,2.9-7.8c1.6-1.4,3.6-2.1,6-2.1c2.6,0,4.7,0.9,6.4,2.6c1.7,1.7,2.5,4.1,2.5,7.1
		c0,2.4-0.4,4.4-1.1,5.7s-1.8,2.5-3.2,3.3c-1.4,0.8-2.9,1.2-4.6,1.2c-2.6,0-4.8-0.8-6.4-2.5S709.5,627.2,709.5,624z M712.8,624
		c0,2.4,0.5,4.2,1.6,5.4s2.4,1.8,4,1.8c1.6,0,2.9-0.6,4-1.8c1.1-1.2,1.6-3.1,1.6-5.5c0-2.3-0.5-4.1-1.6-5.3s-2.4-1.8-4-1.8
		c-1.6,0-2.9,0.6-4,1.8S712.8,621.6,712.8,624z"/>
	<path fill="#FFFFFF" d="M731.7,614.6h14.9v18.9h-3.2v-16.3h-8.5v9.4c0,2.2-0.1,3.6-0.2,4.3s-0.5,1.3-1.2,1.8
		c-0.6,0.5-1.6,0.8-2.8,0.8c-0.7,0-1.6,0-2.6-0.1v-2.7h1.4c0.7,0,1.1-0.1,1.4-0.2s0.5-0.4,0.6-0.7s0.1-1.3,0.1-2.9V614.6z"/>
	<path fill="#FFFFFF" d="M750.7,624c0-3.5,1-6.1,2.9-7.8c1.6-1.4,3.6-2.1,6-2.1c2.6,0,4.7,0.9,6.4,2.6c1.7,1.7,2.5,4.1,2.5,7.1
		c0,2.4-0.4,4.4-1.1,5.7s-1.8,2.5-3.2,3.3c-1.4,0.8-2.9,1.2-4.6,1.2c-2.6,0-4.8-0.8-6.4-2.5S750.7,627.2,750.7,624z M754,624
		c0,2.4,0.5,4.2,1.6,5.4s2.4,1.8,4,1.8c1.6,0,2.9-0.6,4-1.8c1.1-1.2,1.6-3.1,1.6-5.5c0-2.3-0.5-4.1-1.6-5.3s-2.4-1.8-4-1.8
		c-1.6,0-2.9,0.6-4,1.8S754,621.6,754,624z"/>
	<path fill="#FFFFFF" d="M772.2,614.6h3.2v7.9h8.9v-7.9h3.2v18.9h-3.2v-8.4h-8.9v8.4h-3.2V614.6z"/>
</g>
<g enable-background="new    ">
	<path fill="#FFFFFF" d="M172.8,679.4h3.2v14.4l8.9-14.4h3.5v18.9h-3.2V684l-8.9,14.3h-3.5V679.4z"/>
	<path fill="#FFFFFF" d="M195.7,679.4h13.2v16.3h2v8h-2.6v-5.4h-14.9v5.4h-2.6v-8h1.7C194.8,692.7,195.8,687.2,195.7,679.4z
		 M198.4,682.1c-0.2,6.1-1.2,10.7-2.9,13.6h10.2v-13.6H198.4z"/>
	<path fill="#FFFFFF" d="M227.5,692.3l3.3,0.4c-0.5,1.9-1.5,3.4-2.9,4.5s-3.2,1.6-5.4,1.6c-2.8,0-5-0.9-6.6-2.6
		c-1.6-1.7-2.4-4.1-2.4-7.2c0-3.2,0.8-5.7,2.5-7.4s3.8-2.6,6.4-2.6c2.5,0,4.6,0.9,6.2,2.6c1.6,1.7,2.4,4.1,2.4,7.3
		c0,0.2,0,0.5,0,0.9h-14.1c0.1,2.1,0.7,3.7,1.8,4.8c1.1,1.1,2.4,1.7,4,1.7c1.2,0,2.2-0.3,3-0.9C226.3,694.6,227,693.6,227.5,692.3z
		 M216.9,687.1h10.6c-0.1-1.6-0.5-2.8-1.2-3.6c-1-1.2-2.3-1.9-4-1.9c-1.5,0-2.7,0.5-3.7,1.5C217.6,684.1,217,685.4,216.9,687.1z"/>
	<path fill="#FFFFFF" d="M234.8,679.4h3.2v14.4l8.9-14.4h3.5v18.9h-3.2V684l-8.9,14.3h-3.5V679.4z M246,672.3h2.2
		c-0.2,1.5-0.7,2.6-1.6,3.4c-0.9,0.8-2.1,1.2-3.6,1.2c-1.5,0-2.7-0.4-3.6-1.2s-1.5-1.9-1.6-3.4h2.2c0.2,0.8,0.5,1.4,1,1.8
		c0.5,0.4,1.2,0.6,2,0.6c1,0,1.7-0.2,2.2-0.6C245.5,673.7,245.8,673.1,246,672.3z"/>
	<path fill="#FFFFFF" d="M256,698.4v-3.7h3.7v3.7c0,1.3-0.2,2.4-0.7,3.3c-0.5,0.8-1.2,1.5-2.3,1.9l-0.9-1.4c0.7-0.3,1.2-0.7,1.5-1.3
		s0.5-1.4,0.5-2.5H256z"/>
	<path fill="#FFFFFF" d="M273.8,679.4h15.4v2.7H283v16.3h-3.2v-16.3h-6.1V679.4z"/>
	<path fill="#FFFFFF" d="M290.6,688.9c0-3.5,1-6.1,2.9-7.8c1.6-1.4,3.6-2.1,6-2.1c2.6,0,4.7,0.9,6.4,2.6c1.7,1.7,2.5,4.1,2.5,7.1
		c0,2.4-0.4,4.4-1.1,5.7s-1.8,2.5-3.2,3.3c-1.4,0.8-2.9,1.2-4.6,1.2c-2.6,0-4.8-0.8-6.4-2.5S290.6,692.1,290.6,688.9z M293.9,688.9
		c0,2.4,0.5,4.2,1.6,5.4s2.4,1.8,4,1.8c1.6,0,2.9-0.6,4-1.8s1.6-3.1,1.6-5.5c0-2.3-0.5-4.1-1.6-5.3c-1.1-1.2-2.4-1.8-4-1.8
		c-1.6,0-2.9,0.6-4,1.8S293.9,686.5,293.9,688.9z"/>
	<path fill="#FFFFFF" d="M312.1,679.4H323v2.7h-7.7v16.3h-3.2V679.4z"/>
	<path fill="#FFFFFF" d="M326.3,679.4h13.2v16.3h2v8h-2.6v-5.4H324v5.4h-2.6v-8h1.7C325.3,692.7,326.4,687.2,326.3,679.4z
		 M329,682.1c-0.2,6.1-1.2,10.7-2.9,13.6h10.2v-13.6H329z"/>
	<path fill="#FFFFFF" d="M357.4,696c-1.2,1-2.3,1.7-3.4,2.1c-1.1,0.4-2.3,0.6-3.5,0.6c-2.1,0-3.7-0.5-4.8-1.5
		c-1.1-1-1.7-2.3-1.7-3.9c0-0.9,0.2-1.8,0.6-2.5s1-1.4,1.7-1.8c0.7-0.5,1.5-0.8,2.3-1.1c0.6-0.2,1.6-0.3,2.9-0.5
		c2.6-0.3,4.5-0.7,5.7-1.1c0-0.4,0-0.7,0-0.8c0-1.3-0.3-2.2-0.9-2.8c-0.8-0.7-2-1.1-3.7-1.1c-1.5,0-2.6,0.3-3.3,0.8
		c-0.7,0.5-1.3,1.5-1.6,2.8l-3.1-0.4c0.3-1.3,0.8-2.4,1.4-3.3c0.7-0.8,1.6-1.5,2.8-1.9c1.2-0.4,2.7-0.7,4.3-0.7
		c1.6,0,2.9,0.2,3.9,0.6c1,0.4,1.8,0.9,2.2,1.4c0.5,0.6,0.8,1.3,1,2.2c0.1,0.5,0.2,1.5,0.2,3v4.3c0,3,0.1,4.9,0.2,5.7
		c0.1,0.8,0.4,1.5,0.8,2.3h-3.4C357.7,697.7,357.5,696.9,357.4,696z M357.2,688.9c-1.2,0.5-2.9,0.9-5.2,1.2
		c-1.3,0.2-2.3,0.4-2.8,0.6c-0.5,0.2-1,0.6-1.3,1s-0.4,1-0.4,1.5c0,0.9,0.3,1.6,1,2.1c0.6,0.6,1.6,0.9,2.8,0.9
		c1.2,0,2.3-0.3,3.3-0.8c1-0.5,1.7-1.3,2.1-2.2c0.3-0.7,0.5-1.8,0.5-3.2V688.9z"/>
	<path fill="#FFFFFF" d="M387,679.4v8.2c1,0,1.7-0.2,2.2-0.6c0.4-0.4,1-1.5,1.8-3.4c0.7-1.8,1.4-2.9,2-3.4c0.6-0.5,1.5-0.7,2.8-0.7
		h1.2v2.7l-0.9,0c-0.9,0-1.4,0.1-1.6,0.4c-0.2,0.3-0.6,1-1.1,2.3c-0.5,1.2-0.9,2.1-1.3,2.6c-0.4,0.5-1,0.9-1.9,1.3
		c1.4,0.4,2.7,1.7,4.1,3.8l3.5,5.9h-3.5l-3.4-5.9c-0.7-1.2-1.3-2-1.8-2.3c-0.5-0.4-1.1-0.6-1.9-0.6v8.8h-3.3v-8.8
		c-0.7,0-1.3,0.2-1.9,0.5s-1.1,1.1-1.8,2.3l-3.4,5.9H373l3.5-5.9c1.3-2.2,2.7-3.5,4.1-3.8c-1-0.4-1.6-0.9-2-1.4
		c-0.4-0.5-1-1.8-1.7-3.7c-0.3-0.7-0.5-1.1-0.8-1.2c-0.3-0.2-0.8-0.2-1.4-0.2c-0.2,0-0.5,0-0.9,0v-2.7h0.4c1.2,0,2.1,0.1,2.6,0.2
		s1,0.5,1.4,0.9c0.4,0.5,0.9,1.5,1.6,3c0.8,1.9,1.4,3,1.8,3.4c0.4,0.4,1.1,0.6,2.2,0.6v-8.2H387z"/>
	<path fill="#FFFFFF" d="M402.5,679.4h13.2v16.3h2v8h-2.6v-5.4h-14.9v5.4h-2.6v-8h1.7C401.5,692.7,402.6,687.2,402.5,679.4z
		 M405.1,682.1c-0.2,6.1-1.2,10.7-2.9,13.6h10.2v-13.6H405.1z"/>
	<path fill="#FFFFFF" d="M434.2,692.3l3.3,0.4c-0.5,1.9-1.5,3.4-2.9,4.5s-3.2,1.6-5.4,1.6c-2.8,0-5-0.9-6.6-2.6
		c-1.6-1.7-2.4-4.1-2.4-7.2c0-3.2,0.8-5.7,2.5-7.4s3.8-2.6,6.4-2.6c2.5,0,4.6,0.9,6.2,2.6c1.6,1.7,2.4,4.1,2.4,7.3
		c0,0.2,0,0.5,0,0.9h-14.1c0.1,2.1,0.7,3.7,1.8,4.8c1.1,1.1,2.4,1.7,4,1.7c1.2,0,2.2-0.3,3-0.9C433,694.6,433.7,693.6,434.2,692.3z
		 M423.7,687.1h10.6c-0.1-1.6-0.5-2.8-1.2-3.6c-1-1.2-2.3-1.9-4-1.9c-1.5,0-2.7,0.5-3.7,1.5C424.3,684.1,423.8,685.4,423.7,687.1z"
		/>
	<path fill="#FFFFFF" d="M441.6,679.4h5l5,15.2l5.5-15.2h4.6v18.9h-3.2v-15.2l-5.6,15.2h-2.9l-5.3-16v16h-3.1V679.4z"/>
	<path fill="#FFFFFF" d="M475,679.4h15.4v2.7h-6.1v16.3h-3.2v-16.3H475V679.4z"/>
	<path fill="#FFFFFF" d="M493.5,679.4h7.4c1.8,0,3.2,0.2,4.1,0.5c0.9,0.3,1.6,0.9,2.3,1.7c0.6,0.8,1,1.8,1,2.9
		c0,0.9-0.2,1.7-0.6,2.4c-0.4,0.7-0.9,1.2-1.7,1.7c0.9,0.3,1.6,0.9,2.2,1.7c0.6,0.8,0.9,1.8,0.9,2.9c-0.1,1.8-0.8,3.1-1.9,4
		s-2.9,1.3-5.1,1.3h-8.5V679.4z M496.7,687.4h3.4c1.4,0,2.3-0.1,2.8-0.2s1-0.4,1.4-0.9c0.4-0.4,0.6-1,0.6-1.6c0-1-0.4-1.7-1.1-2.1
		c-0.7-0.4-1.9-0.6-3.6-0.6h-3.5V687.4z M496.7,695.7h4.2c1.8,0,3.1-0.2,3.7-0.6s1-1.1,1.1-2.2c0-0.6-0.2-1.2-0.6-1.7
		c-0.4-0.5-0.9-0.8-1.5-1c-0.6-0.1-1.6-0.2-3-0.2h-3.9V695.7z"/>
	<path fill="#FFFFFF" d="M511.3,688.9c0-3.5,1-6.1,2.9-7.8c1.6-1.4,3.6-2.1,6-2.1c2.6,0,4.7,0.9,6.4,2.6c1.7,1.7,2.5,4.1,2.5,7.1
		c0,2.4-0.4,4.4-1.1,5.7s-1.8,2.5-3.2,3.3c-1.4,0.8-2.9,1.2-4.6,1.2c-2.6,0-4.8-0.8-6.4-2.5S511.3,692.1,511.3,688.9z M514.6,688.9
		c0,2.4,0.5,4.2,1.6,5.4s2.4,1.8,4,1.8c1.6,0,2.9-0.6,4-1.8s1.6-3.1,1.6-5.5c0-2.3-0.5-4.1-1.6-5.3c-1.1-1.2-2.4-1.8-4-1.8
		c-1.6,0-2.9,0.6-4,1.8S514.6,686.5,514.6,688.9z"/>
	<path fill="#FFFFFF" d="M545.7,692.3l3.3,0.4c-0.5,1.9-1.5,3.4-2.9,4.5s-3.2,1.6-5.4,1.6c-2.8,0-5-0.9-6.6-2.6
		c-1.6-1.7-2.4-4.1-2.4-7.2c0-3.2,0.8-5.7,2.5-7.4s3.8-2.6,6.4-2.6c2.5,0,4.6,0.9,6.2,2.6c1.6,1.7,2.4,4.1,2.4,7.3
		c0,0.2,0,0.5,0,0.9H535c0.1,2.1,0.7,3.7,1.8,4.8c1.1,1.1,2.4,1.7,4,1.7c1.2,0,2.2-0.3,3-0.9C544.6,694.6,545.2,693.6,545.7,692.3z
		 M535.2,687.1h10.6c-0.1-1.6-0.5-2.8-1.2-3.6c-1-1.2-2.3-1.9-4-1.9c-1.5,0-2.7,0.5-3.7,1.5C535.9,684.1,535.3,685.4,535.2,687.1z"
		/>
	<path fill="#FFFFFF" d="M563.2,705.6v-26.2h2.9v2.5c0.7-1,1.5-1.7,2.3-2.2c0.9-0.5,1.9-0.7,3.2-0.7c1.6,0,3,0.4,4.3,1.2
		c1.2,0.8,2.2,2,2.8,3.5s0.9,3.2,0.9,5c0,1.9-0.3,3.7-1,5.2c-0.7,1.6-1.7,2.7-3,3.6c-1.3,0.8-2.7,1.2-4.2,1.2c-1.1,0-2-0.2-2.9-0.7
		c-0.9-0.5-1.5-1-2.1-1.7v9.2H563.2z M566.1,689c0,2.4,0.5,4.2,1.5,5.4c1,1.2,2.2,1.7,3.6,1.7c1.4,0,2.6-0.6,3.7-1.8
		c1-1.2,1.5-3.1,1.5-5.6c0-2.4-0.5-4.2-1.5-5.4s-2.2-1.8-3.6-1.8c-1.4,0-2.6,0.6-3.6,1.9C566.6,684.7,566.1,686.6,566.1,689z"/>
	<path fill="#FFFFFF" d="M596.5,692.3l3.3,0.4c-0.5,1.9-1.5,3.4-2.9,4.5s-3.2,1.6-5.4,1.6c-2.8,0-5-0.9-6.6-2.6
		c-1.6-1.7-2.4-4.1-2.4-7.2c0-3.2,0.8-5.7,2.5-7.4s3.8-2.6,6.4-2.6c2.5,0,4.6,0.9,6.2,2.6c1.6,1.7,2.4,4.1,2.4,7.3
		c0,0.2,0,0.5,0,0.9h-14.1c0.1,2.1,0.7,3.7,1.8,4.8c1.1,1.1,2.4,1.7,4,1.7c1.2,0,2.2-0.3,3-0.9C595.3,694.6,596,693.6,596.5,692.3z
		 M585.9,687.1h10.6c-0.1-1.6-0.5-2.8-1.2-3.6c-1-1.2-2.3-1.9-4-1.9c-1.5,0-2.7,0.5-3.7,1.5C586.6,684.1,586,685.4,585.9,687.1z"/>
	<path fill="#FFFFFF" d="M607.2,689.8v-2.5c1.4,0,2.3-0.1,2.8-0.2c0.5-0.1,1-0.4,1.4-0.9c0.4-0.5,0.7-1.1,0.7-1.8
		c0-0.9-0.3-1.6-0.9-2.1s-1.3-0.8-2.2-0.8c-1.8,0-3.1,1.1-3.8,3.2l-3-0.5c1-3.6,3.2-5.3,6.9-5.3c2,0,3.6,0.6,4.8,1.7
		c1.1,1.1,1.7,2.4,1.7,4c0,1.5-0.7,2.8-2.2,3.7c1,0.5,1.7,1.2,2.1,2c0.5,0.8,0.7,1.7,0.7,2.8c0,1.7-0.6,3.1-1.9,4.1
		c-1.2,1.1-3,1.6-5.2,1.6c-4.3,0-6.8-1.9-7.5-5.8l3-0.6c0.3,1.2,0.8,2.2,1.7,2.8c0.8,0.7,1.8,1,2.9,1s2-0.3,2.7-0.9
		c0.7-0.6,1.1-1.4,1.1-2.3c0-0.7-0.2-1.4-0.7-1.9c-0.5-0.5-0.9-0.9-1.4-1c-0.5-0.1-1.4-0.2-2.8-0.2
		C607.8,689.8,607.6,689.8,607.2,689.8z"/>
	<path fill="#FFFFFF" d="M619.8,679.4h3.2v7.9h3.9c0.3-2.7,1.1-4.8,2.5-6.2c1.4-1.4,3.2-2.1,5.5-2.1c1.9,0,3.4,0.4,4.5,1.2
		c1.1,0.8,2,1.8,2.7,3.2s1.1,3.2,1.1,5.5c0,3.3-0.7,5.7-2.2,7.4c-1.5,1.7-3.5,2.5-6,2.5c-2.4,0-4.3-0.8-5.7-2.4
		c-1.4-1.6-2.2-3.7-2.4-6.5H623v8.4h-3.2V679.4z M635.1,681.7c-1.6,0-2.8,0.6-3.7,1.8c-0.9,1.2-1.3,2.9-1.3,5.1
		c0,2.6,0.4,4.5,1.3,5.7c0.9,1.2,2.1,1.8,3.5,1.8c1.5,0,2.7-0.6,3.6-1.7s1.4-2.9,1.4-5.4c0-2.4-0.4-4.3-1.2-5.5
		C637.9,682.3,636.7,681.7,635.1,681.7z"/>
	<path fill="#FFFFFF" d="M646.8,679.4h5l5,15.2l5.5-15.2h4.6v18.9h-3.2v-15.2l-5.6,15.2h-2.9l-5.3-16v16h-3.1V679.4z"/>
	<path fill="#FFFFFF" d="M684.8,692.3l3.3,0.4c-0.5,1.9-1.5,3.4-2.9,4.5s-3.2,1.6-5.4,1.6c-2.8,0-5-0.9-6.6-2.6s-2.4-4.1-2.4-7.2
		c0-3.2,0.8-5.7,2.5-7.4c1.6-1.8,3.8-2.6,6.4-2.6c2.5,0,4.6,0.9,6.2,2.6c1.6,1.7,2.4,4.1,2.4,7.3c0,0.2,0,0.5,0,0.9h-14.1
		c0.1,2.1,0.7,3.7,1.8,4.8c1.1,1.1,2.4,1.7,4,1.7c1.2,0,2.2-0.3,3-0.9S684.3,693.6,684.8,692.3z M674.2,687.1h10.6
		c-0.1-1.6-0.5-2.8-1.2-3.6c-1-1.2-2.3-1.9-4-1.9c-1.5,0-2.7,0.5-3.7,1.5C674.9,684.1,674.3,685.4,674.2,687.1z"/>
	<path fill="#FFFFFF" d="M693,698.4v-3.7h3.7v3.7H693z"/>
</g>
</svg>
