<?xml version="1.0" encoding="utf-8"?>
<!-- Generator: Adobe Illustrator 18.0.0, SVG Export Plug-In . SVG Version: 6.00 Build 0)  -->
<!DOCTYPE svg PUBLIC "-//W3C//DTD SVG 1.1//EN" "http://www.w3.org/Graphics/SVG/1.1/DTD/svg11.dtd">
<svg version="1.1" id="Слой_1" xmlns="http://www.w3.org/2000/svg" xmlns:xlink="http://www.w3.org/1999/xlink" x="0px" y="0px"
	 viewBox="0 0 91 60" enable-background="new 0 0 91 60" xml:space="preserve">
<path fill="#ffffff" d="M70.9,30.9c-1.9,0.4-3.8,0.7-5.9,1c-2,0.3-4.1,0.5-6.2,0.9c-2.1,0.3-3.9,0.8-5.6,1.5c-1.6,0.7-3,1.7-4,3.1
	c-1,1.3-1.5,3.1-1.5,5.4c0,1.5,0.3,2.8,0.9,3.8c0.6,1,1.4,1.9,2.4,2.5c1,0.6,2.1,1.1,3.4,1.4c1.3,0.3,2.7,0.4,4,0.4
	c3,0,5.6-0.4,7.7-1.2c2.1-0.8,3.9-1.8,5.2-3.1c1.4-1.3,2.4-2.6,3-4.1c0.6-1.5,1-2.8,1-4.1V29C74.3,29.9,72.8,30.5,70.9,30.9
	 M83.7,58.8c-2.4,0-4.2-0.7-5.6-2c-1.4-1.3-2.1-3.5-2.1-6.5c-2.5,3-5.4,5.2-8.7,6.5c-3.3,1.3-6.9,2-10.8,2c-2.5,0-4.9-0.3-7.1-0.8
	c-2.2-0.5-4.2-1.4-5.8-2.7c-1.7-1.2-3-2.9-4-4.8c-1-2-1.4-4.4-1.4-7.1c0-3.1,0.5-5.7,1.6-7.7c1.1-2,2.5-3.6,4.2-4.9
	c1.7-1.2,3.8-2.2,6-2.8c2.3-0.6,4.6-1.2,6.9-1.6c2.5-0.5,4.9-0.9,7.1-1.1c2.3-0.2,4.2-0.6,6-1.1c1.7-0.5,3.1-1.1,4.1-2.1
	c1-0.9,1.5-2.2,1.5-3.9c0-2-0.4-3.6-1.1-4.8c-0.8-1.2-1.7-2.1-2.9-2.8c-1.2-0.6-2.5-1.1-4-1.3c-1.5-0.2-2.9-0.3-4.4-0.3
	c-3.8,0-7.1,0.7-9.7,2.2c-2.6,1.5-4,4.2-4.2,8.3h-9.1c0.1-3.4,0.8-6.3,2.1-8.7c1.3-2.4,3-4.3,5.1-5.7c2.1-1.5,4.6-2.5,7.4-3.2
	c2.8-0.6,5.7-1,8.8-1c2.5,0,5,0.2,7.5,0.5c2.5,0.4,4.7,1.1,6.7,2.2c2,1.1,3.6,2.7,4.8,4.7c1.2,2,1.8,4.6,1.8,7.8v28.5
	c0,2.1,0.1,3.7,0.4,4.7c0.3,1,1.1,1.5,2.5,1.5c0.8,0,1.7-0.2,2.8-0.5v7.1C88.7,58.3,86.5,58.8,83.7,58.8"/>
<path fill="#ffffff" d="M9.7,6c-3,0-5.4,2.4-5.4,5.4c0,3,2.4,5.4,5.4,5.4c3,0,5.4-2.4,5.4-5.4C15.1,8.4,12.7,6,9.7,6 M9.7,20.3
	c-4.9,0-9-4-9-9c0-4.9,4-9,9-9c4.9,0,9,4,9,9C18.6,16.3,14.6,20.3,9.7,20.3"/>
</svg>
