<?xml version="1.0" encoding="utf-8"?>
<!-- Generator: Adobe Illustrator 18.0.0, SVG Export Plug-In . SVG Version: 6.00 Build 0)  -->
<!DOCTYPE svg PUBLIC "-//W3C//DTD SVG 1.1//EN" "http://www.w3.org/Graphics/SVG/1.1/DTD/svg11.dtd">
<svg version="1.1" id="Слой_1" xmlns="http://www.w3.org/2000/svg" xmlns:xlink="http://www.w3.org/1999/xlink" x="0px" y="0px"
	 viewBox="0 0 267 56" enable-background="new 0 0 267 56" xml:space="preserve">
<g>
	<path fill="#59595B" d="M215.2,16.5v1.5h0c0.3-0.6,0.8-1.1,1.5-1.4c0.7-0.3,1.4-0.4,2.2-0.4c0.9,0,1.7,0.2,2.3,0.5
		c0.7,0.3,1.2,0.8,1.6,1.3c0.4,0.6,0.8,1.2,1,1.9c0.2,0.7,0.3,1.5,0.3,2.3c0,0.8-0.1,1.6-0.3,2.3c-0.2,0.7-0.5,1.4-1,1.9
		c-0.4,0.5-1,1-1.6,1.3c-0.7,0.3-1.4,0.5-2.3,0.5c-0.3,0-0.6,0-0.9-0.1c-0.3-0.1-0.7-0.2-1-0.3c-0.3-0.1-0.7-0.3-1-0.5
		c-0.3-0.2-0.6-0.5-0.8-0.9h0v5.9h-1.9V16.5H215.2z M221.9,20.6c-0.1-0.5-0.4-1-0.6-1.4c-0.3-0.4-0.7-0.7-1.1-1
		c-0.4-0.2-1-0.4-1.6-0.4c-0.6,0-1.2,0.1-1.6,0.4c-0.4,0.3-0.8,0.6-1.1,1c-0.3,0.4-0.5,0.9-0.6,1.4c-0.1,0.5-0.2,1-0.2,1.6
		c0,0.6,0.1,1.1,0.2,1.6c0.1,0.5,0.3,1,0.6,1.4c0.3,0.4,0.7,0.7,1.1,1c0.5,0.2,1,0.4,1.7,0.4c0.6,0,1.2-0.1,1.6-0.4
		c0.4-0.3,0.8-0.6,1-1c0.3-0.4,0.5-0.9,0.6-1.4c0.1-0.5,0.2-1.1,0.2-1.6C222.1,21.6,222.1,21.1,221.9,20.6"/>
	<path fill="#59595B" d="M239.1,16.5v2.4h0c0.5-0.9,1-1.6,1.7-2.1c0.7-0.4,1.5-0.6,2.5-0.6v2c-0.8,0-1.4,0.1-1.9,0.3
		c-0.5,0.2-1,0.5-1.3,0.9c-0.3,0.4-0.6,0.9-0.7,1.4c-0.1,0.6-0.2,1.2-0.2,2V28h-1.9V16.5H239.1z"/>
	<path fill="#59595B" d="M255.1,19.9c0.2-0.7,0.6-1.4,1.1-1.9c0.5-0.5,1.1-1,1.7-1.3c0.7-0.3,1.5-0.5,2.4-0.5c0.9,0,1.7,0.2,2.4,0.5
		c0.7,0.3,1.3,0.7,1.7,1.3c0.5,0.5,0.8,1.2,1.1,1.9c0.2,0.7,0.4,1.5,0.4,2.4c0,0.8-0.1,1.6-0.4,2.3c-0.2,0.7-0.6,1.4-1.1,1.9
		c-0.5,0.5-1,1-1.7,1.3c-0.7,0.3-1.5,0.5-2.4,0.5c-0.9,0-1.7-0.2-2.4-0.5c-0.7-0.3-1.3-0.7-1.7-1.3c-0.5-0.5-0.8-1.2-1.1-1.9
		c-0.2-0.7-0.4-1.5-0.4-2.3C254.8,21.4,254.9,20.6,255.1,19.9 M257,24.1c0.2,0.5,0.4,1,0.8,1.3c0.3,0.4,0.7,0.6,1.1,0.8
		c0.4,0.2,0.9,0.3,1.4,0.3c0.5,0,0.9-0.1,1.4-0.3c0.4-0.2,0.8-0.5,1.1-0.8c0.3-0.4,0.6-0.8,0.8-1.3c0.2-0.5,0.3-1.2,0.3-1.8
		c0-0.7-0.1-1.3-0.3-1.8c-0.2-0.5-0.4-1-0.8-1.4c-0.3-0.4-0.7-0.6-1.1-0.8c-0.4-0.2-0.9-0.3-1.4-0.3c-0.5,0-0.9,0.1-1.4,0.3
		c-0.4,0.2-0.8,0.5-1.1,0.8c-0.3,0.4-0.6,0.8-0.8,1.4c-0.2,0.5-0.3,1.2-0.3,1.8C256.8,23,256.8,23.6,257,24.1"/>
	<path fill="#CACE45" d="M59.2,55.3c-1.7,0-3-0.5-3.9-1.4c-1-0.9-1.5-2.4-1.5-4.5c-1.8,2.1-3.8,3.6-6.1,4.5
		c-2.3,0.9-4.9,1.4-7.6,1.4c-1.8,0-3.4-0.2-5-0.6c-1.6-0.4-2.9-1-4.1-1.9c-1.2-0.9-2.1-2-2.8-3.4c-0.7-1.4-1-3.1-1-5
		c0-2.2,0.4-4,1.1-5.4c0.8-1.4,1.7-2.6,3-3.4c1.2-0.9,2.6-1.5,4.2-2c1.6-0.5,3.2-0.8,4.9-1.1c1.8-0.3,3.4-0.6,5-0.8
		c1.6-0.2,3-0.4,4.2-0.7c1.2-0.3,2.2-0.8,2.9-1.4c0.7-0.6,1.1-1.5,1.1-2.7c0-1.4-0.3-2.5-0.8-3.4c-0.5-0.9-1.2-1.5-2-2
		c-0.8-0.5-1.8-0.8-2.8-0.9c-1-0.1-2.1-0.2-3.1-0.2c-2.7,0-5,0.5-6.8,1.5c-1.8,1-2.8,3-2.9,5.8h-6.4c0.1-2.4,0.6-4.4,1.5-6.1
		c0.9-1.7,2.1-3,3.6-4c1.5-1,3.2-1.8,5.2-2.2c2-0.4,4-0.7,6.2-0.7c1.8,0,3.5,0.1,5.2,0.4c1.7,0.2,3.3,0.8,4.7,1.5
		c1.4,0.8,2.5,1.9,3.4,3.3c0.8,1.4,1.3,3.2,1.3,5.5v20c0,1.5,0.1,2.6,0.3,3.3c0.2,0.7,0.8,1,1.8,1c0.5,0,1.2-0.1,2-0.4v5
		C62.6,55,61.1,55.3,59.2,55.3 M50.2,35.7c-1.3,0.3-2.7,0.5-4.1,0.7c-1.4,0.2-2.9,0.4-4.3,0.6c-1.5,0.2-2.8,0.6-3.9,1.1
		c-1.2,0.5-2.1,1.2-2.8,2.2c-0.7,0.9-1.1,2.2-1.1,3.8c0,1.1,0.2,1.9,0.6,2.7c0.4,0.7,1,1.3,1.7,1.8c0.7,0.5,1.5,0.8,2.4,1
		c0.9,0.2,1.9,0.3,2.8,0.3c2.1,0,3.9-0.3,5.4-0.9c1.5-0.6,2.7-1.3,3.7-2.2c1-0.9,1.7-1.8,2.1-2.9c0.4-1,0.7-2,0.7-2.9v-6.6
		C52.6,35,51.5,35.4,50.2,35.7"/>
	<rect x="67.8" y="0.7" fill="#5A5A5C" width="6.4" height="53.7"/>
	<path fill="#5A5A5C" d="M109.2,52c-2.9,2.2-6.6,3.3-11,3.3c-3.1,0-5.8-0.5-8.1-1.5c-2.3-1-4.2-2.4-5.8-4.2c-1.6-1.8-2.7-4-3.5-6.5
		c-0.8-2.5-1.2-5.2-1.3-8.2c0-3,0.4-5.7,1.4-8.1c0.9-2.4,2.2-4.6,3.8-6.4c1.6-1.8,3.6-3.2,5.8-4.2c2.2-1,4.7-1.5,7.3-1.5
		c3.5,0,6.3,0.7,8.6,2.1c2.3,1.4,4.1,3.3,5.5,5.5c1.4,2.2,2.3,4.6,2.9,7.2c0.5,2.6,0.7,5.1,0.6,7.5H86.3c0,1.7,0.2,3.3,0.6,4.8
		c0.5,1.5,1.2,2.9,2.2,4.1c1,1.2,2.3,2.1,3.8,2.8c1.5,0.7,3.4,1,5.5,1c2.7,0,4.9-0.6,6.7-1.9c1.7-1.2,2.9-3.2,3.4-5.7h6.3
		C114,46.5,112.1,49.8,109.2,52 M107.7,27c-0.6-1.4-1.4-2.5-2.3-3.5c-1-1-2.1-1.7-3.5-2.3c-1.3-0.6-2.8-0.9-4.4-0.9
		c-1.7,0-3.1,0.3-4.5,0.9c-1.3,0.6-2.5,1.4-3.4,2.4c-0.9,1-1.7,2.2-2.3,3.5c-0.6,1.3-0.9,2.7-1,4.3h22.4
		C108.6,29.8,108.2,28.4,107.7,27"/>
	<path fill="#5A5A5C" d="M149.9,54.5v-5.3h-0.1c-1.1,2.2-2.7,3.7-5,4.7c-2.3,0.9-4.7,1.4-7.4,1.4c-3,0-5.6-0.6-7.9-1.7
		c-2.2-1.1-4.1-2.6-5.6-4.4c-1.5-1.9-2.6-4-3.3-6.5c-0.8-2.5-1.1-5.1-1.1-7.8c0-2.8,0.4-5.4,1.1-7.8c0.7-2.5,1.8-4.6,3.3-6.4
		c1.5-1.8,3.3-3.3,5.6-4.4c2.2-1.1,4.8-1.6,7.8-1.6c1,0,2.1,0.1,3.2,0.3c1.1,0.2,2.3,0.5,3.5,1c1.2,0.5,2.2,1.1,3.3,1.9
		c1,0.8,1.9,1.7,2.6,2.9h0.1v-20h6.4v53.7H149.9z M126.9,40.7c0.5,1.7,1.2,3.3,2.2,4.6c1,1.4,2.2,2.4,3.8,3.2
		c1.5,0.8,3.3,1.2,5.4,1.2c2.2,0,4-0.4,5.5-1.3c1.5-0.8,2.7-2,3.7-3.3c1-1.4,1.6-3,2.1-4.7c0.4-1.8,0.6-3.5,0.6-5.3
		c0-1.9-0.2-3.8-0.7-5.5c-0.5-1.8-1.2-3.3-2.1-4.7c-1-1.4-2.2-2.4-3.8-3.3c-1.6-0.8-3.4-1.2-5.6-1.2c-2.2,0-4,0.4-5.5,1.3
		c-1.5,0.9-2.7,2-3.6,3.4c-0.9,1.4-1.6,3-2,4.8c-0.4,1.8-0.6,3.7-0.6,5.6C126.2,37.2,126.4,38.9,126.9,40.7"/>
	<path fill="#5A5A5C" d="M161.5,27c0.8-2.5,2-4.6,3.6-6.5c1.6-1.8,3.6-3.3,5.9-4.3c2.4-1.1,5.1-1.6,8.1-1.6c3.1,0,5.8,0.5,8.2,1.6
		c2.3,1.1,4.3,2.5,5.9,4.3c1.6,1.8,2.8,4,3.6,6.5c0.8,2.5,1.2,5.2,1.2,8c0,2.9-0.4,5.5-1.2,8c-0.8,2.5-2,4.6-3.6,6.4
		c-1.6,1.8-3.6,3.3-5.9,4.3c-2.3,1-5.1,1.5-8.2,1.5c-3.1,0-5.8-0.5-8.1-1.5c-2.4-1-4.3-2.5-5.9-4.3c-1.6-1.8-2.8-4-3.6-6.4
		c-0.8-2.5-1.2-5.1-1.2-8C160.3,32.2,160.7,29.5,161.5,27 M168,41.3c0.6,1.8,1.5,3.4,2.6,4.6c1.1,1.2,2.4,2.2,3.9,2.8
		c1.5,0.6,3,1,4.7,1c1.7,0,3.2-0.3,4.7-1c1.5-0.7,2.8-1.6,3.9-2.8c1.1-1.2,2-2.8,2.6-4.6c0.6-1.8,1-3.9,1-6.3c0-2.4-0.3-4.5-1-6.3
		c-0.6-1.8-1.5-3.4-2.6-4.6c-1.1-1.3-2.4-2.2-3.9-2.9c-1.5-0.6-3.1-1-4.7-1c-1.7,0-3.2,0.3-4.7,1c-1.5,0.7-2.8,1.6-3.9,2.9
		c-1.1,1.3-2,2.8-2.6,4.6c-0.6,1.8-0.9,3.9-0.9,6.3C167.1,37.4,167.4,39.5,168,41.3"/>
	<path fill="#CACE45" d="M7.2,28.3c-3.5,0-6.3-2.8-6.3-6.3c0-3.5,2.8-6.3,6.3-6.3c3.5,0,6.3,2.8,6.3,6.3
		C13.5,25.5,10.7,28.3,7.2,28.3 M7.2,18.2c-2.1,0-3.8,1.7-3.8,3.8c0,2.1,1.7,3.8,3.8,3.8c2.1,0,3.8-1.7,3.8-3.8
		C11,19.9,9.3,18.2,7.2,18.2"/>
</g>
</svg>
