<?xml version="1.0" encoding="utf-8"?>
<!-- Generator: Adobe Illustrator 17.1.0, SVG Export Plug-In . SVG Version: 6.00 Build 0)  -->
<!DOCTYPE svg PUBLIC "-//W3C//DTD SVG 1.1//EN" "http://www.w3.org/Graphics/SVG/1.1/DTD/svg11.dtd">
<svg version="1.1" xmlns="http://www.w3.org/2000/svg" xmlns:xlink="http://www.w3.org/1999/xlink" x="0px" y="0px"
	 viewBox="0 0 19 630" enable-background="new 0 0 19 630" xml:space="preserve">
<g id="Layer_1">
</g>
<g id="Layer_2">
</g>
<g id="pop_up_decision">
	<g>
		<rect x="3.6" y="341.4" fill="#AAAAAA" width="2" height="15.5"/>
	</g>
	<g>
		<path fill="#AAAAAA" d="M10.6,228h-2v-3.8c0,0-0.2-4.3-3.5-6.3l1-1.7c4.3,2.6,4.5,7.8,4.5,8V228z"/>
	</g>
	<g>
		<polygon fill="#757575" points="13.8,14.8 11.8,14.8 11.8,4.3 10.5,3.5 4.6,9.4 3.2,8 10.2,0.9 13.8,3.3 		"/>
	</g>
	<g>
		<polygon fill="#757575" points="8.8,10 2.5,10 2.5,3.6 4.5,3.6 4.5,8 8.8,8 		"/>
	</g>
	<g>
		<polygon fill="#AAAAAA" points="13.8,174.3 11.8,174.3 11.8,166.8 10.5,166 4.6,171.9 3.2,170.5 10.2,163.4 13.8,165.8 		"/>
	</g>
	<g>
		<polygon fill="#AAAAAA" points="8.8,172.5 2.5,172.5 2.5,166.1 4.5,166.1 4.5,170.5 8.8,170.5 		"/>
	</g>
	<g>
		<polygon fill="#AAAAAA" points="6.5,192.6 4.5,192.6 4.5,183.1 8.1,180.7 15.1,187.8 13.7,189.2 7.8,183.3 6.5,184.1 		"/>
	</g>
	<g>
		<polygon fill="#AAAAAA" points="15.8,189.8 9.5,189.8 9.5,187.8 13.8,187.8 13.8,183.4 15.8,183.4 		"/>
	</g>
	<g>
		<polygon fill="#AAAAAA" points="7.3,26.1 2.8,21.7 7.4,17.1 8.8,18.6 5.7,21.7 8.7,24.7 		"/>
	</g>
	<g>
		<polygon fill="#757575" points="13.2,47.7 8.7,43.2 10.1,41.8 13.2,44.9 16.2,41.9 17.7,43.3 		"/>
	</g>
	<g>
		<polygon fill="#757575" points="12.5,59 10.5,59 10.5,54.6 6.3,54.6 6.3,52.6 12.5,52.6 		"/>
	</g>
	<g>
		<polygon fill="#AAAAAA" points="15.2,31 13.3,31 13.3,22.6 4.3,22.6 4.3,20.6 15.3,20.6 15.3,30 15.2,30 		"/>
	</g>
	<g>
		<path fill="#757575" d="M5.6,49.1h-2v-7.9c0-2.9,2.4-5.3,5.3-5.3s5.3,2.4,5.3,5.3v4.6h-2v-4.6c0-1.8-1.5-3.3-3.3-3.3
			s-3.3,1.5-3.3,3.3V49.1z"/>
	</g>
	<g>
		<polygon fill="#757575" points="13.2,334.4 8.7,329.9 10.1,328.5 13.2,331.6 16.2,328.6 17.7,330 		"/>
	</g>
	<g>
		<path fill="#757575" d="M5.6,335.9h-2v-7.9c0-2.9,2.4-5.3,5.3-5.3s5.3,2.4,5.3,5.3v4.6h-2v-4.6c0-1.8-1.5-3.3-3.3-3.3
			s-3.3,1.5-3.3,3.3V335.9z"/>
	</g>
	<g>
		<polygon fill="#757575" points="6.3,317.5 1.9,313.1 3.3,311.6 6.3,314.7 9.4,311.6 10.8,313 		"/>
	</g>
	<g>
		<path fill="#757575" d="M16,318.9h-2V311c0-1.8-1.5-3.3-3.3-3.3s-3.3,1.5-3.3,3.3v4.6h-2V311c0-2.9,2.4-5.3,5.3-5.3
			c2.9,0,5.3,2.4,5.3,5.3V318.9z"/>
	</g>
	<g>
		<polygon fill="#AAAAAA" points="6.3,477.6 1.9,473.1 3.3,471.7 6.3,474.8 9.4,471.7 10.8,473.1 		"/>
	</g>
	<g>
		<path fill="#AAAAAA" d="M16,479h-2v-7.9c0-1.8-1.5-3.3-3.3-3.3s-3.3,1.5-3.3,3.3v4.6h-2v-4.6c0-2.9,2.4-5.3,5.3-5.3
			c2.9,0,5.3,2.4,5.3,5.3V479z"/>
	</g>
	<g>
		<path fill="#757575" d="M13.4,158.9h-2V155c0-1.2-0.9-2.1-2.1-2.1c-1.2,0-2.1,0.9-2.1,2.1v3.9h-2V155c0-2.3,1.8-4.1,4.1-4.1
			c2.3,0,4.1,1.8,4.1,4.1V158.9z"/>
	</g>
	<g>
		<polygon fill="#757575" points="5.6,67 3.6,67 3.6,60.4 10,54 11.4,55.4 5.6,61.2 		"/>
	</g>
	<g>
		<polygon fill="#AAAAAA" points="12.5,93.2 10.5,93.2 10.5,88.8 6.3,88.8 6.3,86.8 12.5,86.8 		"/>
	</g>
	<g>
		<polygon fill="#AAAAAA" points="5.6,101.2 3.6,101.2 3.6,94.6 10,88.2 11.4,89.6 5.6,95.5 		"/>
	</g>
	<g>
		<polygon fill="#AAAAAA" points="8.2,454.3 6.2,454.3 6.2,447.9 12.5,447.9 12.5,449.9 8.2,449.9 		"/>
	</g>
	<g>
		<polygon fill="#AAAAAA" points="15.1,462.3 13.1,462.3 13.1,456.5 7.3,450.7 8.7,449.3 15.1,455.7 		"/>
	</g>
	<g>
		<polygon fill="#AAAAAA" points="12.8,112.8 9.7,109.7 6.7,112.7 5.3,111.3 9.7,106.8 14.2,111.3 		"/>
	</g>
	<g>
		<g>
			<polygon fill="#AAAAAA" points="11.3,77.6 9.8,76.2 12.9,73.2 9.8,70.1 11.2,68.7 15.7,73.2 			"/>
		</g>
		<g>
			<polygon fill="#AAAAAA" points="6.2,80.5 4.2,80.5 4.2,72.1 14.3,72.1 14.3,74.1 6.2,74.1 			"/>
		</g>
	</g>
	<g>
		<rect x="8.7" y="109.2" fill="#AAAAAA" width="2" height="10.7"/>
	</g>
	<g>
		<g>
			<polygon fill="#757575" points="12.3,148.6 9.2,145.5 6.2,148.6 4.8,147.2 9.2,142.7 13.7,147.2 			"/>
		</g>
		<g>
			<rect x="8.3" y="145" fill="#757575" width="2" height="8"/>
		</g>
	</g>
	<g>
		<path fill="#AAAAAA" d="M13.4,284h-2v-3.9c0-1.2-0.9-2.1-2.1-2.1c-1.2,0-2.1,0.9-2.1,2.1v3.9h-2v-3.9c0-2.3,1.8-4.1,4.1-4.1
			c2.3,0,4.1,1.8,4.1,4.1V284z"/>
	</g>
	<g>
		<g>
			<polygon fill="#AAAAAA" points="12.3,273.7 9.2,270.6 6.2,273.7 4.8,272.2 9.2,267.8 13.7,272.3 			"/>
		</g>
		<g>
			<rect x="8.3" y="270.1" fill="#AAAAAA" width="2" height="8"/>
		</g>
	</g>
	<g>
		<g>
			<polygon fill="#AAAAAA" points="15.9,133.3 12.8,130.2 9.8,133.3 8.4,131.8 12.8,127.4 17.3,131.9 			"/>
		</g>
		<g>
			<path fill="#AAAAAA" d="M8.2,137.4c-3.1,0-5.6-2.5-5.6-5.6s2.5-5.6,5.6-5.6c3.1,0,5.6,2.5,5.6,5.6S11.3,137.4,8.2,137.4z
				 M8.2,128.1c-2,0-3.6,1.6-3.6,3.6s1.6,3.6,3.6,3.6c2,0,3.6-1.6,3.6-3.6S10.2,128.1,8.2,128.1z"/>
		</g>
		<g>
			<rect x="7.2" y="136.4" fill="#AAAAAA" width="2" height="3.4"/>
		</g>
	</g>
	<g>
		<g>
			<polygon fill="#AAAAAA" points="1.6,257.1 0.1,255.7 4.6,251.2 9.1,255.6 7.7,257 4.6,254 			"/>
		</g>
		<g>
			<path fill="#AAAAAA" d="M9.2,261.1c-3.1,0-5.6-2.5-5.6-5.6s2.5-5.6,5.6-5.6c3.1,0,5.6,2.5,5.6,5.6S12.4,261.1,9.2,261.1z
				 M9.2,251.9c-2,0-3.6,1.6-3.6,3.6s1.6,3.6,3.6,3.6c2,0,3.6-1.6,3.6-3.6S11.2,251.9,9.2,251.9z"/>
		</g>
		<g>
			<rect x="8.2" y="260.1" fill="#AAAAAA" width="2" height="3.4"/>
		</g>
	</g>
	<g>
		<g>
			<polygon fill="#757575" points="15.9,239.7 12.8,236.6 9.8,239.6 8.4,238.2 12.8,233.8 17.3,238.3 			"/>
		</g>
		<g>
			<path fill="#757575" d="M8.2,243.7c-3.1,0-5.6-2.5-5.6-5.6s2.5-5.6,5.6-5.6c3.1,0,5.6,2.5,5.6,5.6S11.3,243.7,8.2,243.7z
				 M8.2,234.5c-2,0-3.6,1.6-3.6,3.6s1.6,3.6,3.6,3.6c2,0,3.6-1.6,3.6-3.6S10.2,234.5,8.2,234.5z"/>
		</g>
		<g>
			<rect x="7.2" y="242.7" fill="#757575" width="2" height="3.4"/>
		</g>
	</g>
	<g>
		<polygon fill="#757575" points="2.9,204.7 1.5,203.3 6,198.8 10.4,203.2 9,204.7 6,201.6 		"/>
	</g>
	<g>
		<polygon fill="#757575" points="15.4,220.9 13.4,220.9 13.4,217 9.5,217 9.5,215 15.4,215 		"/>
	</g>
	<g>
		<path fill="#757575" d="M10,208.8c-3.1,0-5.6-2.5-5.6-5.6s2.5-5.6,5.6-5.6c3.1,0,5.6,2.5,5.6,5.6S13.1,208.8,10,208.8z M10,199.5
			c-2,0-3.6,1.6-3.6,3.6c0,2,1.6,3.6,3.6,3.6c2,0,3.6-1.6,3.6-3.6C13.6,201.1,12,199.5,10,199.5z"/>
	</g>
	<g>
		<rect x="9" y="207.8" fill="#757575" width="2" height="3.4"/>
	</g>
	<g>
		<path fill="#757575" d="M10.5,228h-2v-3.8c0-0.2,0.2-5.5,4.5-8l1,1.7c-3.4,2-3.5,6.3-3.5,6.3L10.5,228z"/>
	</g>
	<g>
		<polygon fill="#757575" points="15.4,347.2 13.4,347.2 13.4,343.4 9.5,343.4 9.5,341.4 15.4,341.4 		"/>
	</g>
	<g>
		<path fill="#757575" d="M5.6,356.4h-2v-6.2l0.3-0.3c0.2-0.2,5.2-5,9.1-7.3l1,1.7c-3.2,1.9-7.3,5.7-8.4,6.7V356.4z"/>
	</g>
	<g>
		<g>
			<rect x="3.6" y="432.7" fill="#AAAAAA" width="2" height="12.7"/>
		</g>
		<g>
			<polygon fill="#757575" points="13.7,437.5 11.7,437.5 11.7,434.5 8.6,434.5 8.6,432.5 13.7,432.5 			"/>
		</g>
		<g>
			<path fill="#757575" d="M5.6,445h-2v-5.2l0.3-0.3c0.2-0.2,4.2-4.1,7.5-6l1,1.7c-2.6,1.5-5.8,4.5-6.8,5.4V445z"/>
		</g>
	</g>
	<g>
		<g>
			<rect x="12.7" y="518" fill="#AAAAAA" width="2" height="12.7"/>
		</g>
		<g>
			<polygon fill="#757575" points="7.6,522.9 5.6,522.9 5.6,517.9 10.7,517.9 10.7,519.9 7.6,519.9 			"/>
		</g>
		<g>
			<path fill="#757575" d="M14.7,530.3h-2V526c-0.7-0.9-3.3-3.9-5.8-5.4l1-1.7c3.3,2,6.4,5.9,6.6,6.1l0.2,0.3V530.3z"/>
		</g>
	</g>
	<g>
		<g>
			<rect x="11.7" y="601.1" fill="#AAAAAA" width="2" height="12.7"/>
		</g>
		<g>
			<polygon fill="#757575" points="5.6,606 3.6,606 3.6,601 8.7,601 8.7,603 5.6,603 			"/>
		</g>
		<g>
			<path fill="#757575" d="M13.7,613.4h-2v-4.3c-1-0.9-4.3-3.9-6.8-5.4l1-1.7c3.2,1.9,7.3,5.8,7.5,6l0.3,0.3V613.4z"/>
		</g>
	</g>
	<g>
		<path fill="#AAAAAA" d="M11.4,301h-2v-3.8c0-0.2,0.2-5.5,4.5-8l1,1.7c-3.3,2-3.5,6.3-3.5,6.3V301z"/>
	</g>
	<g>
		<polygon fill="#757575" points="6.6,293.9 4.6,293.9 4.6,288 10.6,288 10.6,290 6.6,290 		"/>
	</g>
	<g>
		<path fill="#757575" d="M11.5,301h-2v-3.8c0,0-0.2-4.3-3.5-6.3l1-1.7c4.3,2.6,4.5,7.8,4.5,8V301z"/>
	</g>
	<g>
		<path fill="#AAAAAA" d="M9.6,514.3h-2v-4.8c0,0-0.2-4.3-3.5-6.3l1-1.7c4.3,2.6,4.5,7.8,4.5,8L9.6,514.3z"/>
	</g>
	<g>
		<polygon fill="#757575" points="14.4,506.1 12.4,506.1 12.4,502.3 8.5,502.3 8.5,500.3 14.4,500.3 		"/>
	</g>
	<g>
		<path fill="#757575" d="M9.5,514.3h-2v-4.8c0-0.2,0.2-5.5,4.5-8l1,1.7c-3.4,2-3.5,6.3-3.5,6.3L9.5,514.3z"/>
	</g>
	<g>
		<path fill="none" stroke="#757575" stroke-width="2" stroke-miterlimit="10" d="M4.6,342.4"/>
	</g>
	<g>
		<g>
			<path fill="#AAAAAA" d="M7.4,364.7h-1v-0.6c0-2.2,1.8-3.9,3.9-3.9s3.9,1.8,3.9,3.9v0.5h-1v-0.5c0-1.6-1.3-2.9-2.9-2.9
				c-1.6,0-2.9,1.3-2.9,2.9V364.7z"/>
		</g>
		<g>
			<rect x="4.6" y="366.1" fill="#AAAAAA" width="11.1" height="1.6"/>
		</g>
		<g>
			<polygon fill="#AAAAAA" points="6.4,364.5 14.4,364.5 13.2,372.3 7,371 			"/>
		</g>
		<g>
			<polygon fill="#AAAAAA" points="17.9,373.1 13.1,373.1 6.9,371.4 2.8,371.4 2.8,370.4 7.1,370.4 13.3,372.1 17.9,372.1 			"/>
		</g>
		<g>
			<polygon fill="#AAAAAA" points="17.9,375.8 13.1,375.8 6.9,374.1 2.8,374.1 2.8,373.1 7.1,373.1 13.3,374.8 17.9,374.8 			"/>
		</g>
	</g>
	<g>
		<path fill="#757575" d="M6.4,620.2h-1v-0.6c0-2.2,1.8-3.9,3.9-3.9c2.2,0,3.9,1.8,3.9,3.9v0.5h-1v-0.5c0-1.6-1.3-2.9-2.9-2.9
			s-2.9,1.3-2.9,2.9V620.2z"/>
	</g>
	<g>
		<rect x="3.6" y="621.6" fill="#757575" width="11.1" height="1.6"/>
	</g>
	<g>
		<polygon fill="#757575" points="5.4,620 13.4,620 12.2,627.8 6,626.6 		"/>
	</g>
	<g>
		<polygon fill="#757575" points="16.9,628.6 12.1,628.6 5.9,626.9 1.8,626.9 1.8,625.9 6.1,625.9 12.3,627.6 16.9,627.6 		"/>
	</g>
	<g>
		<polygon fill="#757575" points="16.9,631.3 12.1,631.3 5.9,629.6 1.8,629.6 1.8,628.6 6.1,628.6 12.3,630.3 16.9,630.3 		"/>
	</g>
	<g>
		<path fill="#AAAAAA" d="M11.2,563.8h-2V560c0-0.2,0.2-5.5,4.5-8l1,1.7c-3.3,2-3.5,6.3-3.5,6.3V563.8z"/>
	</g>
	<g>
		<g>
			<polygon fill="#757575" points="5.8,596.2 3.8,596.2 3.8,587.2 6.2,584.6 13.4,591.8 12,593.2 6.3,587.5 5.8,588 			"/>
		</g>
		<g>
			<polygon fill="#757575" points="14.1,593.8 7.8,593.8 7.8,591.8 12.1,591.8 12.1,587.4 14.1,587.4 			"/>
		</g>
	</g>
	<g>
		<polygon fill="#757575" points="7.4,385.2 5.4,385.2 5.4,378.8 11.7,378.8 11.7,380.8 7.4,380.8 		"/>
	</g>
	<g>
		<polygon fill="#757575" points="14.9,391.2 12.9,391.2 12.9,387.5 6.2,381.1 7.6,379.6 14.9,386.6 		"/>
	</g>
	<g>
		<polygon fill="#757575" points="12,540.5 8.9,537.4 5.8,540.4 4.4,539 8.9,534.6 13.4,539.1 		"/>
	</g>
	<g>
		<rect x="7.9" y="536.9" fill="#757575" width="2" height="10.7"/>
	</g>
	<g>
		<polygon fill="#757575" points="6.4,556.6 4.4,556.6 4.4,550.8 10.4,550.8 10.4,552.8 6.4,552.8 		"/>
	</g>
	<g>
		<path fill="#757575" d="M11.3,563.8h-2V560c0,0-0.2-4.3-3.5-6.3l1-1.7c4.3,2.6,4.5,7.8,4.5,8V563.8z"/>
	</g>
	<g>
		<g>
			<g>
				<polygon fill="#AAAAAA" points="18.9,408.1 1.8,408.1 1.8,404.3 3.8,404.3 3.8,406.1 16.9,406.1 16.9,404.3 18.9,404.3 				"/>
			</g>
		</g>
		<g>
			<g>
				
					<rect x="4.5" y="406.9" transform="matrix(0.9044 0.4268 -0.4268 0.9044 175.0768 36.7721)" fill="#AAAAAA" width="2" height="4.2"/>
			</g>
		</g>
		<g>
			<g>
				
					<rect x="12.7" y="408" transform="matrix(0.4878 0.873 -0.873 0.4878 364.6823 196.48)" fill="#AAAAAA" width="4.4" height="2"/>
			</g>
		</g>
		<g>
			<g>
				<polygon fill="#AAAAAA" points="5,399.7 4.2,399.2 6.5,394.9 14.2,394.9 16.1,399.2 15.2,399.7 13.5,395.9 7.1,395.9 				"/>
			</g>
		</g>
		<g>
			<g>
				<rect x="4.1" y="399.2" fill="#AAAAAA" width="12.1" height="4.2"/>
			</g>
		</g>
		<g>
			<g>
				<rect x="5.5" y="401.3" fill="#FFFFFF" width="1.8" height="0.9"/>
			</g>
		</g>
		<g>
			<g>
				<rect x="13" y="401.3" fill="#FFFFFF" width="1.8" height="0.9"/>
			</g>
		</g>
		<g>
			<g>
				<rect x="5.8" y="403" fill="#AAAAAA" width="1.4" height="1.9"/>
			</g>
		</g>
		<g>
			<g>
				<rect x="13" y="403" fill="#AAAAAA" width="1.4" height="1.9"/>
			</g>
		</g>
	</g>
	<g>
		<polygon fill="#757575" points="18.9,579.4 1.8,579.4 1.8,575.5 3.8,575.5 3.8,577.4 16.9,577.4 16.9,575.5 18.9,575.5 		"/>
	</g>
	<g>
		
			<rect x="4.5" y="578.2" transform="matrix(0.9044 0.4268 -0.4268 0.9044 248.1797 53.1552)" fill="#757575" width="2" height="4.2"/>
	</g>
	<g>
		
			<rect x="12.7" y="579.3" transform="matrix(0.4877 0.873 -0.873 0.4877 514.2454 284.2756)" fill="#757575" width="4.4" height="2"/>
	</g>
	<g>
		<polygon fill="#757575" points="5,571 4.2,570.5 6.5,566.2 14.2,566.2 16.1,570.5 15.2,570.9 13.5,567.2 7.1,567.2 		"/>
	</g>
	<g>
		<rect x="4.1" y="570.5" fill="#757575" width="12.1" height="4.2"/>
	</g>
	<g>
		<rect x="5.5" y="572.6" fill="#FFFFFF" width="1.8" height="0.9"/>
	</g>
	<g>
		<rect x="13" y="572.6" fill="#FFFFFF" width="1.8" height="0.9"/>
	</g>
	<g>
		<rect x="5.8" y="574.3" fill="#757575" width="1.4" height="1.9"/>
	</g>
	<g>
		<rect x="13" y="574.3" fill="#757575" width="1.4" height="1.9"/>
	</g>
	<g>
		<polygon fill="#757575" points="7,424.5 2.6,420 7.1,415.5 8.5,417 5.4,420 8.4,423.1 		"/>
	</g>
	<g>
		<polygon fill="#757575" points="14.9,429.4 13,429.4 13,421 4,421 4,419 15,419 15,428.4 14.9,428.4 		"/>
	</g>
	<g>
		<polygon fill="#757575" points="10.9,495.4 9.5,494 12.5,491 9.4,487.9 10.8,486.5 15.3,491 		"/>
	</g>
	<g>
		<polygon fill="#757575" points="5.9,498.5 3.9,498.5 3.9,490 13.9,490 13.9,492 5.9,492 		"/>
	</g>
</g>
</svg>
