<?xml version="1.0" encoding="utf-8"?>
<!-- Generator: Adobe Illustrator 17.1.0, SVG Export Plug-In . SVG Version: 6.00 Build 0)  -->
<!DOCTYPE svg PUBLIC "-//W3C//DTD SVG 1.1//EN" "http://www.w3.org/Graphics/SVG/1.1/DTD/svg11.dtd">
<svg version="1.1" id="Слой_1" xmlns="http://www.w3.org/2000/svg" xmlns:xlink="http://www.w3.org/1999/xlink" x="0px" y="0px"
	 viewBox="96 0 1000 841.9" enable-background="new 96 0 1000 841.9" xml:space="preserve">
<g>
	<polygon fill="none" stroke="#FFFFFF" stroke-width="4" stroke-miterlimit="10" points="181.2,834.4 181.2,476.4 106.2,476.4 
		106.2,10.5 900.7,10.5 900.7,468.9 1087,468.9 1087,834.4 	"/>
	<g>
		<g>
			<g>
				<g>
					<path fill="#FFFFFF" d="M324.2,301.7c-3.7,0-6.7-1.1-9-3c-2.2-2.2-3.4-5.6-3.4-10.1c-4.1,4.9-8.6,8.2-13.8,10.1
						c-5.2,2.2-10.8,3-16.8,3c-4.1,0-7.5-0.4-11.2-1.1c-3.4-0.7-6.3-2.2-9.3-4.1c-2.6-1.9-4.9-4.5-6.3-7.5s-2.2-6.7-2.2-11.2
						c0-4.9,0.7-9,2.6-11.9s3.7-5.6,6.7-7.8c2.6-1.9,6-3.4,9.3-4.5c3.4-1.1,7.1-1.9,10.8-2.6c3.7-0.7,7.8-1.5,11.2-1.9
						c3.4-0.4,6.7-1.1,9.3-1.5c2.6-0.7,4.9-1.9,6.3-3.4c1.5-1.5,2.2-3.4,2.2-6c0-3-0.7-5.6-1.9-7.5c-1.1-1.9-2.6-3.4-4.5-4.5
						s-4.1-1.9-6.3-1.9c-2.2-0.4-4.5-0.4-6.7-0.4c-6,0-11.2,1.1-15.3,3.4s-6.3,6.7-6.7,13.1h-14.2c0.4-5.2,1.5-10.1,3.4-13.4
						c1.9-3.7,4.9-6.7,8.2-9c3.4-2.2,7.1-4.1,11.6-4.9c4.5-1.1,9-1.5,13.8-1.5c4.1,0,7.8,0.4,11.6,0.7c3.7,0.4,7.5,1.9,10.5,3.4
						c3,1.9,5.6,4.1,7.5,7.5c1.9,3,3,7.1,3,12.3v44.8c0,3.4,0.4,6,0.7,7.5c0.4,1.5,1.9,2.2,4.1,2.2c1.1,0,2.6-0.4,4.5-0.7v11.2
						C332.1,300.9,328.7,301.7,324.2,301.7z M304.1,258c-3,0.7-6,1.1-9.3,1.5c-3.4,0.4-6.3,0.7-9.7,1.5c-3.4,0.4-6,1.5-8.6,2.2
						c-2.6,1.1-4.9,2.6-6.3,4.9c-1.5,2.2-2.2,4.9-2.2,8.6c0,2.2,0.4,4.5,1.5,6c1.1,1.5,2.2,3,3.7,4.1s3.4,1.9,5.2,2.2
						c2.2,0.4,4.1,0.7,6.3,0.7c4.9,0,8.6-0.7,11.9-1.9c3.4-1.1,6-3,8.2-4.9c2.2-1.9,3.7-4.1,4.9-6.3c1.1-2.2,1.5-4.5,1.5-6.3v-14.6
						C309.7,256.5,307.1,257.2,304.1,258z"/>
				</g>
			</g>
			<path fill="#FFFFFF" d="M357.8,180v120.2h-14.2V180H357.8z"/>
			<path fill="#FFFFFF" d="M436.2,294.2c-6.3,4.9-14.6,7.5-24.6,7.5c-7.1,0-13.1-1.1-17.9-3.4c-5.2-2.2-9.3-5.2-12.7-9.3
				c-3.4-4.1-6-9-7.8-14.6c-1.9-5.6-2.6-11.6-3-18.3c0-6.7,1.1-12.7,3-18.3c1.9-5.6,4.9-10.1,8.6-14.2s7.8-7.1,13.1-9.3
				c4.9-2.2,10.5-3.4,16.4-3.4c7.8,0,14.2,1.5,19.4,4.9s9.3,7.1,12.3,12.3c3,4.9,5.2,10.5,6.3,16.1c1.1,6,1.5,11.2,1.5,16.8h-65.7
				c0,3.7,0.4,7.5,1.5,10.8c1.1,3.4,2.6,6.3,4.9,9s5.2,4.9,8.6,6.3c3.4,1.5,7.5,2.2,12.3,2.2c6,0,11.2-1.5,14.9-4.1
				c3.7-2.6,6.3-7.1,7.5-12.7h14.2C446.7,281.9,442.6,289.3,436.2,294.2z M432.5,238.6c-1.1-3-3-5.6-5.2-7.8
				c-2.2-2.2-4.9-3.7-7.8-5.2c-3-1.1-6.3-1.9-9.7-1.9c-3.7,0-7.1,0.7-10.1,1.9c-3,1.1-5.6,3-7.8,5.2c-2.2,2.2-3.7,4.9-5.2,7.8
				c-1.1,3-1.9,6-2.2,9.3h50.4C434.7,244.9,434,241.6,432.5,238.6z"/>
			<path fill="#FFFFFF" d="M527,299.8v-11.9h-0.4c-2.2,4.9-6,8.2-11.2,10.5c-4.9,2.2-10.5,3.4-16.8,3.4c-6.7,0-12.7-1.1-17.5-3.7
				c-4.9-2.6-9.3-5.6-12.3-10.1c-3.4-4.1-6-9-7.5-14.6c-1.9-5.6-2.6-11.2-2.6-17.5c0-6,0.7-11.9,2.6-17.5c1.5-5.6,4.1-10.5,7.5-14.6
				c3.4-4.1,7.5-7.5,12.3-9.7c4.9-2.2,10.8-3.7,17.5-3.7c2.2,0,4.5,0.4,7.1,0.7c2.6,0.4,5.2,1.1,7.8,2.2s4.9,2.6,7.5,4.1
				c2.2,1.9,4.1,3.7,6,6.3h0.4v-44.8h14.2V299H527V299.8z M475.8,269.2c1.1,3.7,2.6,7.5,4.9,10.5c2.2,3,4.9,5.6,8.2,7.1
				c3.4,1.9,7.5,2.6,11.9,2.6c4.9,0,9-1.1,12.3-3c3.4-1.9,6-4.5,8.2-7.5s3.7-6.7,4.5-10.5c1.1-3.7,1.5-7.8,1.5-11.9
				c0-4.1-0.4-8.2-1.5-12.3c-1.1-4.1-2.6-7.5-4.9-10.5c-2.2-3-4.9-5.6-8.6-7.5c-3.4-1.9-7.8-2.6-12.7-2.6s-9,1.1-12.3,3
				c-3.4,1.9-6,4.5-8.2,7.5c-1.9,3-3.4,6.7-4.5,10.8c-0.7,4.1-1.5,8.2-1.5,12.3C473.9,261.3,474.7,265.1,475.8,269.2z"/>
			<path fill="#FFFFFF" d="M553.1,238.6c1.9-5.6,4.5-10.5,8.2-14.6s7.8-7.5,13.4-9.7c5.2-2.2,11.2-3.4,18.3-3.4s13.1,1.1,18.3,3.4
				c5.2,2.2,9.7,5.6,13.1,9.7c3.7,4.1,6.3,9,8.2,14.6s2.6,11.6,2.6,17.9c0,6.3-0.7,12.3-2.6,17.9s-4.5,10.5-8.2,14.6
				c-3.7,4.1-7.8,7.1-13.1,9.7c-5.2,2.2-11.2,3.4-18.3,3.4c-6.7,0-13.1-1.1-18.3-3.4c-5.2-2.2-9.7-5.6-13.4-9.7
				c-3.7-4.1-6.3-9-8.2-14.6c-1.9-5.6-2.6-11.6-2.6-17.9C550.1,250.1,551.2,244.2,553.1,238.6z M567.6,270.7c1.5,4.1,3.4,7.5,6,10.5
				c2.6,2.6,5.2,4.9,8.6,6.3c3.4,1.5,6.7,2.2,10.5,2.2s7.1-0.7,10.5-2.2s6.3-3.7,8.6-6.3c2.6-2.6,4.5-6.3,5.6-10.5
				c1.5-4.1,2.2-8.6,2.2-14.2c0-5.2-0.7-10.1-2.2-14.2c-1.5-4.1-3.4-7.5-5.6-10.5c-2.6-2.6-5.2-4.9-8.6-6.3
				c-3.4-1.5-6.7-2.2-10.5-2.2s-7.1,0.7-10.5,2.2c-3.4,1.5-6.3,3.7-8.6,6.3c-2.6,3-4.5,6.3-6,10.5c-1.5,4.1-2.2,8.6-2.2,14.2
				C565.4,261.7,566.2,266.6,567.6,270.7z"/>
			<g>
				<g>
					<path fill="#FFFFFF" d="M208.1,241.6c-7.8,0-14.2-6.3-14.2-14.2c0-7.8,6.3-14.2,14.2-14.2s14.2,6.3,14.2,14.2
						C222.3,235.2,216,241.6,208.1,241.6z M208.1,218.8c-4.9,0-8.6,3.7-8.6,8.6c0,4.9,3.7,8.6,8.6,8.6c4.9,0,8.6-3.7,8.6-8.6
						C216.7,222.9,213,218.8,208.1,218.8z"/>
				</g>
			</g>
			<path fill="#FFFFFF" d="M684.5,240.1c-7.1,0-12.7-5.6-12.7-12.7s5.6-12.7,12.7-12.7s12.7,5.6,12.7,12.7
				C697.2,234.5,691.6,240.1,684.5,240.1z M684.5,217.7c-5.6,0-10.1,4.5-10.1,9.7c0,5.6,4.5,10.1,10.1,10.1s9.7-4.5,9.7-10.1
				C694.6,221.8,690.1,217.7,684.5,217.7z"/>
			<path fill="#FFFFFF" d="M731.9,240.1c-7.1,0-12.7-5.6-12.7-12.7s5.6-12.7,12.7-12.7s12.7,5.6,12.7,12.7
				C744.6,234.5,738.6,240.1,731.9,240.1z M731.9,217.7c-5.6,0-9.7,4.5-9.7,9.7c0,5.6,4.5,10.1,9.7,10.1c5.6,0,10.1-4.5,10.1-10.1
				C741.6,221.8,737.1,217.7,731.9,217.7z"/>
			<path fill="#FFFFFF" d="M779.3,239.3c-7.1,0-12.7-5.6-12.7-12.7s5.6-12.7,12.7-12.7s12.7,5.6,12.7,12.7
				C792,233.3,786.1,239.3,779.3,239.3z M779.3,216.5c-5.6,0-9.7,4.5-9.7,9.7c0,5.6,4.5,10.1,9.7,10.1c5.6,0,9.7-4.5,9.7-10.1
				C789,221,784.6,216.5,779.3,216.5z"/>
			<path fill="#FFFFFF" d="M826.4,240.1c-7.1,0-12.7-5.6-12.7-12.7s5.6-12.7,12.7-12.7s12.7,5.6,12.7,12.7
				C839.1,234.5,833.5,240.1,826.4,240.1z M826.4,217.7c-5.6,0-10.1,4.5-10.1,9.7c0,5.6,4.5,10.1,10.1,10.1c5.6,0,9.7-4.5,9.7-10.1
				C836.5,221.8,832,217.7,826.4,217.7z"/>
		</g>
	</g>
	
		<line fill="none" stroke="#FFFFFF" stroke-width="1.001" stroke-miterlimit="10" stroke-dasharray="1,1" x1="846.5" y1="473.8" x2="236.9" y2="473.8"/>
	<rect x="357.8" y="600.3" fill="none" width="837.8" height="264.7"/>
	<g enable-background="new    ">
		<path fill="#FFFFFF" d="M364.1,618.7h12.8v19.9c2.1-0.2,3.6-0.9,4.5-2c0.9-1.1,2-3.4,3.2-7c1.6-4.8,3.4-7.9,5.4-9.2
			c2-1.3,4.5-2,7.7-2c1,0,2.7,0.1,5.1,0.2l0,8.5c-3.4,0-5.6,0.3-6.5,1c-0.9,0.7-2,2.7-3.1,6c-1.5,4.5-3.6,7.2-6.5,8.3
			c4.1,1.1,7.5,4.7,10.3,10.6c0.2,0.3,0.3,0.6,0.5,1l7.2,13.4H391l-6.4-14c-1.3-2.8-2.4-4.7-3.4-5.5c-1-0.8-2.4-1.2-4.3-1.2v20.7
			h-12.8V618.7z"/>
		<path fill="#FFFFFF" d="M424.8,633.5l-11.7-2.1c1.3-4.7,3.6-8.2,6.8-10.4c3.2-2.3,8-3.4,14.3-3.4c5.7,0,10,0.7,12.8,2
			c2.8,1.4,4.8,3.1,5.9,5.2s1.7,5.9,1.7,11.5l-0.1,15c0,4.3,0.2,7.4,0.6,9.5c0.4,2,1.2,4.2,2.3,6.5h-12.7c-0.3-0.9-0.7-2.1-1.2-3.8
			c-0.2-0.8-0.4-1.3-0.5-1.5c-2.2,2.1-4.5,3.7-7,4.8c-2.5,1.1-5.2,1.6-8,1.6c-5,0-8.9-1.4-11.8-4.1c-2.9-2.7-4.3-6.1-4.3-10.3
			c0-2.7,0.7-5.2,2-7.3c1.3-2.2,3.1-3.8,5.5-4.9c2.4-1.1,5.8-2.1,10.2-3c6-1.1,10.2-2.2,12.5-3.2v-1.3c0-2.5-0.6-4.2-1.8-5.3
			s-3.5-1.6-6.9-1.6c-2.3,0-4.1,0.5-5.4,1.4C426.6,629.7,425.6,631.3,424.8,633.5z M442,644c-1.6,0.5-4.3,1.2-7.8,2
			c-3.6,0.8-5.9,1.5-7,2.2c-1.7,1.2-2.5,2.7-2.5,4.5c0,1.8,0.7,3.4,2,4.7c1.3,1.3,3.1,2,5.1,2c2.3,0,4.5-0.8,6.6-2.3
			c1.6-1.2,2.6-2.6,3.1-4.3c0.3-1.1,0.5-3.2,0.5-6.3V644z"/>
		<path fill="#FFFFFF" d="M465.2,618.7h44v10.4h-15.6v38.2h-12.9v-38.2h-15.6V618.7z"/>
		<path fill="#FFFFFF" d="M530.1,633.5l-11.7-2.1c1.3-4.7,3.6-8.2,6.8-10.4c3.2-2.3,8-3.4,14.3-3.4c5.7,0,10,0.7,12.8,2
			c2.8,1.4,4.8,3.1,5.9,5.2s1.7,5.9,1.7,11.5l-0.1,15c0,4.3,0.2,7.4,0.6,9.5c0.4,2,1.2,4.2,2.3,6.5H550c-0.3-0.9-0.7-2.1-1.2-3.8
			c-0.2-0.8-0.4-1.3-0.5-1.5c-2.2,2.1-4.5,3.7-7,4.8c-2.5,1.1-5.2,1.6-8,1.6c-5,0-8.9-1.4-11.8-4.1c-2.9-2.7-4.3-6.1-4.3-10.3
			c0-2.7,0.7-5.2,2-7.3c1.3-2.2,3.1-3.8,5.5-4.9c2.4-1.1,5.8-2.1,10.2-3c6-1.1,10.2-2.2,12.5-3.2v-1.3c0-2.5-0.6-4.2-1.8-5.3
			s-3.5-1.6-6.9-1.6c-2.3,0-4.1,0.5-5.4,1.4C532,629.7,530.9,631.3,530.1,633.5z M547.3,644c-1.6,0.5-4.3,1.2-7.8,2
			c-3.6,0.8-5.9,1.5-7,2.2c-1.7,1.2-2.5,2.7-2.5,4.5c0,1.8,0.7,3.4,2,4.7c1.3,1.3,3.1,2,5.1,2c2.3,0,4.5-0.8,6.6-2.3
			c1.6-1.2,2.6-2.6,3.1-4.3c0.3-1.1,0.5-3.2,0.5-6.3V644z"/>
		<path fill="#FFFFFF" d="M579.8,618.7h43.1v48.6H610v-38.2h-17.5V651c0,5.6-0.6,9.5-1.9,11.7c-1.3,2.2-2.7,3.7-4.3,4.4
			c-1.6,0.7-4.1,1.1-7.5,1.1c-2,0-4.7-0.3-8.1-0.8v-9.5c0.3,0,1,0,2.2,0.1c1.3,0.1,2.4,0.1,3.1,0.1c1.7,0,2.8-0.6,3.2-1.7
			c0.4-1.1,0.6-4.3,0.6-9.5V618.7z"/>
		<path fill="#FFFFFF" d="M635.3,642.3c0-4.3,1.1-8.4,3.2-12.4c2.1-4,5.1-7,8.9-9.2c3.9-2.1,8.2-3.2,12.9-3.2
			c7.4,0,13.4,2.4,18.1,7.2c4.7,4.8,7,10.8,7,18.1c0,7.4-2.4,13.4-7.1,18.3c-4.7,4.8-10.7,7.3-17.9,7.3c-4.5,0-8.7-1-12.7-3
			s-7.1-5-9.2-8.9C636.4,652.7,635.3,647.9,635.3,642.3z M648.5,643c0,4.8,1.1,8.5,3.4,11.1c2.3,2.6,5.1,3.8,8.5,3.8
			c3.4,0,6.2-1.3,8.4-3.8c2.3-2.6,3.4-6.3,3.4-11.2c0-4.8-1.1-8.4-3.4-11c-2.3-2.6-5.1-3.8-8.4-3.8c-3.4,0-6.2,1.3-8.5,3.8
			C649.6,634.5,648.5,638.2,648.5,643z"/>
		<path fill="#FFFFFF" d="M698.7,618.7h32.8v10.4h-20v38.2h-12.9V618.7z"/>
		<path fill="#FFFFFF" d="M741.6,618.7h12.4v30.5l19.8-30.5h12.6v48.6H774v-31.1l-20,31.1h-12.4V618.7z"/>
	</g>
</g>
</svg>
