<?xml version="1.0" encoding="utf-8"?>
<!-- Generator: Adobe Illustrator 17.1.0, SVG Export Plug-In . SVG Version: 6.00 Build 0)  -->
<!DOCTYPE svg PUBLIC "-//W3C//DTD SVG 1.1//EN" "http://www.w3.org/Graphics/SVG/1.1/DTD/svg11.dtd">
<svg version="1.1" id="Слой_1" xmlns="http://www.w3.org/2000/svg" xmlns:xlink="http://www.w3.org/1999/xlink" x="0px" y="0px"
	 viewBox="71 0 1048 841.9" enable-background="new 71 0 1048 841.9" xml:space="preserve">
<polygon fill="none" stroke="#FFFFFF" stroke-width="4" stroke-miterlimit="10" points="160.9,832.9 160.9,497.7 82.3,497.7 
	82.3,9.8 913.7,9.8 913.7,489.9 1108.6,489.9 1108.6,832.9 "/>
<g>
	<g>
		<g>
			<g>
				<path fill="#FFFFFF" d="M310.9,314.5c-3.9,0-7-1.2-9.4-3.1c-2.3-2.3-3.5-5.9-3.5-10.5c-4.3,5.1-9,8.6-14.5,10.5
					c-5.5,2.3-11.3,3.1-17.6,3.1c-4.3,0-7.8-0.4-11.7-1.2c-3.5-0.8-6.6-2.3-9.8-4.3c-2.7-2-5.1-4.7-6.6-7.8c-1.6-3.1-2.3-7-2.3-11.7
					c0-5.1,0.8-9.4,2.7-12.5s3.9-5.9,7-8.2c2.7-2,6.3-3.5,9.8-4.7s7.4-2,11.3-2.7c3.9-0.8,8.2-1.6,11.7-2c3.5-0.4,7-1.2,9.8-1.6
					c2.7-0.8,5.1-2,6.6-3.5c1.6-1.6,2.3-3.5,2.3-6.3c0-3.1-0.8-5.9-2-7.8s-2.7-3.5-4.7-4.7s-4.3-2-6.6-2c-2.3-0.4-4.7-0.4-7-0.4
					c-6.3,0-11.7,1.2-16,3.5c-4.3,2.3-6.6,7-7,13.7h-14.8c0.4-5.5,1.6-10.5,3.5-14.1c2-3.9,5.1-7,8.6-9.4c3.5-2.3,7.4-4.3,12.1-5.1
					c4.7-1.2,9.4-1.6,14.5-1.6c4.3,0,8.2,0.4,12.1,0.8c3.9,0.4,7.8,2,10.9,3.5c3.1,2,5.9,4.3,7.8,7.8c2,3.1,3.1,7.4,3.1,12.9v46.9
					c0,3.5,0.4,6.3,0.8,7.8s2,2.3,4.3,2.3c1.2,0,2.7-0.4,4.7-0.8v11.7C318.7,313.7,315.2,314.5,310.9,314.5z M289.8,268.8
					c-3.1,0.8-6.3,1.2-9.8,1.6c-3.5,0.4-6.6,0.8-10.2,1.6c-3.5,0.4-6.3,1.6-9,2.3c-2.7,1.2-5.1,2.7-6.6,5.1c-1.6,2.3-2.3,5.1-2.3,9
					c0,2.3,0.4,4.7,1.6,6.3s2.3,3.1,3.9,4.3s3.5,2,5.5,2.3c2.3,0.4,4.3,0.8,6.6,0.8c5.1,0,9-0.8,12.5-2c3.5-1.2,6.3-3.1,8.6-5.1
					c2.3-2,3.9-4.3,5.1-6.6c1.2-2.3,1.6-4.7,1.6-6.6v-16C295.2,267.2,292.9,268,289.8,268.8z"/>
			</g>
		</g>
		<path fill="#FFFFFF" d="M346,187.1v125.4h-14.8V187.1H346z"/>
		<path fill="#FFFFFF" d="M427.7,307.1c-6.6,5.1-15.2,7.8-25.8,7.8c-7.4,0-13.7-1.2-18.8-3.5c-5.5-2.3-9.8-5.5-13.3-9.8
			s-6.3-9.4-8.2-15.2c-2-5.9-2.7-12.1-3.1-19.1c0-7,1.2-13.3,3.1-19.1c2-5.9,5.1-10.5,9-14.8c3.9-4.3,8.2-7.4,13.7-9.8
			c5.1-2.3,10.9-3.5,17.2-3.5c8.2,0,14.8,1.6,20.3,5.1c5.5,3.5,9.8,7.4,12.9,12.9c3.1,5.1,5.5,10.9,6.6,16.8
			c1.2,6.3,1.6,11.7,1.6,17.6h-68.8c0,3.9,0.4,7.8,1.6,11.3c1.2,3.5,2.7,6.6,5.1,9.4s5.5,5.1,9,6.6c3.5,1.6,7.8,2.3,12.9,2.3
			c6.3,0,11.7-1.6,15.6-4.3c3.9-2.7,6.6-7.4,7.8-13.3H441C439,294.2,434.3,301.6,427.7,307.1z M424.2,248.5
			c-1.2-3.1-3.1-5.9-5.5-8.2c-2.3-2.3-5.1-3.9-8.2-5.5c-3.1-1.2-6.6-2-10.2-2c-3.9,0-7.4,0.8-10.5,2s-5.9,3.1-8.2,5.5
			c-2.3,2.3-3.9,5.1-5.5,8.2c-1.2,3.1-2,6.3-2.3,9.8h52.3C426.1,255.1,425.3,251.6,424.2,248.5z"/>
		<path fill="#FFFFFF" d="M523,312.5V300h-0.4c-2.3,5.1-6.3,8.6-11.7,10.9c-5.1,2.3-10.9,3.5-17.6,3.5c-7,0-13.3-1.2-18.4-3.9
			s-9.8-5.9-12.9-10.5c-3.5-4.3-6.3-9.4-7.8-15.2c-2-5.9-2.7-11.7-2.7-18.4c0-6.3,0.8-12.5,2.7-18.4c1.6-5.9,4.3-10.9,7.8-15.2
			c3.5-4.3,7.8-7.8,12.9-10.2c5.1-2.3,11.3-3.9,18.4-3.9c2.3,0,4.7,0.4,7.4,0.8c2.7,0.4,5.5,1.2,8.2,2.3c2.7,1.2,5.1,2.7,7.8,4.3
			c2.3,2,4.3,3.9,6.3,6.6h0.4V186h14.8v126.6H523z M469.1,280.5c1.2,3.9,2.7,7.8,5.1,10.9c2.3,3.1,5.1,5.9,8.6,7.4
			c3.5,2,7.8,2.7,12.5,2.7c5.1,0,9.4-1.2,12.9-3.1s6.3-4.7,8.6-7.8s3.9-7,4.7-10.9c1.2-3.9,1.6-8.2,1.6-12.5s-0.4-8.6-1.6-12.9
			c-1.2-4.3-2.7-7.8-5.1-10.9c-2.3-3.1-5.1-5.9-9-7.8c-3.5-2-8.2-2.7-13.3-2.7s-9.4,1.2-12.9,3.1c-3.5,2-6.3,4.7-8.6,7.8
			c-2,3.1-3.5,7-4.7,11.3c-0.8,4.3-1.6,8.6-1.6,12.9C467.5,272.3,467.9,276.2,469.1,280.5z"/>
		<path fill="#FFFFFF" d="M550,248.5c2-5.9,4.7-10.9,8.6-15.2c3.9-4.3,8.2-7.8,14.1-10.2c5.5-2.3,11.7-3.5,19.1-3.5
			c7.4,0,13.7,1.2,19.1,3.5c5.5,2.3,10.2,5.9,13.7,10.2c3.9,4.3,6.6,9.4,8.6,15.2c2,5.9,2.7,12.1,2.7,18.8c0,6.6-0.8,12.9-2.7,18.8
			c-2,5.9-4.7,10.9-8.6,15.2c-3.9,4.3-8.2,7.4-13.7,10.2c-5.5,2.3-11.7,3.5-19.1,3.5c-7,0-13.7-1.2-19.1-3.5
			c-5.5-2.3-10.2-5.9-14.1-10.2c-3.9-4.3-6.6-9.4-8.6-15.2c-2-5.9-2.7-12.1-2.7-18.8S548,254.3,550,248.5z M565.2,282.1
			c1.6,4.3,3.5,7.8,6.3,10.9c2.7,2.7,5.5,5.1,9,6.6c3.5,1.6,7,2.3,10.9,2.3c3.9,0,7.4-0.8,10.9-2.3s6.6-3.9,9-6.6
			c2.7-2.7,4.7-6.6,5.9-10.9c1.6-4.3,2.3-9,2.3-14.8c0-5.5-0.8-10.5-2.3-14.8c-1.6-4.3-3.5-7.8-5.9-10.9c-2.7-2.7-5.5-5.1-9-6.6
			c-3.5-1.6-7-2.3-10.9-2.3c-3.9,0-7.4,0.8-10.9,2.3c-3.5,1.6-6.6,3.9-9,6.6c-2.7,3.1-4.7,6.6-6.3,10.9c-1.6,4.3-2.3,9-2.3,14.8
			C562.8,272.7,563.6,277.8,565.2,282.1z"/>
		<g>
			<g>
				<path fill="#FFFFFF" d="M189.4,251.6c-8.2,0-14.8-6.6-14.8-14.8s6.6-14.8,14.8-14.8c8.2,0,14.8,6.6,14.8,14.8
					C203.8,244.9,197.6,251.6,189.4,251.6z M189.4,227.8c-5.1,0-9,3.9-9,9c0,5.1,3.9,9,9,9c5.1,0,9-3.9,9-9
					C198.4,232.1,194.1,227.8,189.4,227.8z"/>
			</g>
		</g>
		<path fill="#FFFFFF" d="M687.5,250c-7.4,0-13.3-5.9-13.3-13.3c0-7.4,5.9-13.3,13.3-13.3s13.3,5.9,13.3,13.3
			C700.8,244.2,694.9,250,687.5,250z M687.5,226.6c-5.9,0-10.5,4.7-10.5,10.2c0,5.9,4.7,10.5,10.5,10.5s10.2-4.7,10.2-10.5
			C698,231.3,693.3,226.6,687.5,226.6z"/>
		<path fill="#FFFFFF" d="M737.1,250c-7.4,0-13.3-5.9-13.3-13.3c0-7.4,5.9-13.3,13.3-13.3s13.3,5.9,13.3,13.3
			C750.4,244.2,744.5,250,737.1,250z M737.1,226.6c-5.9,0-10.2,4.7-10.2,10.2c0,5.9,4.7,10.5,10.2,10.5c5.9,0,10.5-4.7,10.5-10.5
			C747.6,231.3,742.9,226.6,737.1,226.6z"/>
		<path fill="#FFFFFF" d="M786.7,249.2c-7.4,0-13.3-5.9-13.3-13.3c0-7.4,5.9-13.3,13.3-13.3S800,228.5,800,236
			C800,243,794.1,249.2,786.7,249.2z M786.7,225.4c-5.9,0-10.2,4.7-10.2,10.2c0,5.9,4.7,10.5,10.2,10.5c5.9,0,10.2-4.7,10.2-10.5
			C797.3,230.1,792.6,225.4,786.7,225.4z"/>
		<path fill="#FFFFFF" d="M836.3,250c-7.4,0-13.3-5.9-13.3-13.3c0-7.4,5.9-13.3,13.3-13.3s13.3,5.9,13.3,13.3
			C849.6,244.2,843.7,250,836.3,250z M836.3,226.6c-5.9,0-10.5,4.7-10.5,10.2c0,5.9,4.7,10.5,10.5,10.5c5.9,0,10.2-4.7,10.2-10.5
			C846.5,231.3,841.8,226.6,836.3,226.6z"/>
	</g>
</g>
<line fill="none" stroke="#FFFFFF" stroke-width="1.001" stroke-miterlimit="10" stroke-dasharray="1,1" x1="857" y1="494.6" x2="219.1" y2="494.6"/>
<rect x="199.9" y="627" fill="none" width="876.7" height="277"/>
<g enable-background="new    ">
	<path fill="#FFFFFF" d="M299.9,659.6l-12.6,2.3c-0.4-2.5-1.4-4.4-2.9-5.7c-1.5-1.3-3.4-1.9-5.8-1.9c-3.2,0-5.7,1.1-7.6,3.3
		c-1.9,2.2-2.8,5.9-2.8,11c0,5.7,1,9.8,2.9,12.1c1.9,2.4,4.5,3.5,7.7,3.5c2.4,0,4.4-0.7,6-2.1c1.5-1.4,2.6-3.7,3.3-7.1l12.5,2.1
		c-1.3,5.8-3.8,10.1-7.5,13s-8.6,4.4-14.9,4.4c-7.1,0-12.7-2.2-16.9-6.7c-4.2-4.5-6.3-10.6-6.3-18.5c0-8,2.1-14.2,6.3-18.6
		c4.2-4.4,9.9-6.7,17.1-6.7c5.9,0,10.5,1.3,14,3.8S298.4,654.4,299.9,659.6z"/>
	<path fill="#FFFFFF" d="M341.4,678.2l12.7,2.1c-1.6,4.7-4.2,8.2-7.7,10.7c-3.5,2.4-7.9,3.7-13.2,3.7c-8.4,0-14.6-2.7-18.6-8.2
		c-3.2-4.4-4.8-9.9-4.8-16.6c0-8,2.1-14.3,6.3-18.8c4.2-4.5,9.5-6.8,15.9-6.8c7.2,0,12.8,2.4,17,7.1c4.1,4.7,6.1,12,6,21.8h-32
		c0.1,3.8,1.1,6.7,3.1,8.8c2,2.1,4.4,3.2,7.4,3.2c2,0,3.7-0.5,5-1.6C339.6,682.4,340.7,680.6,341.4,678.2z M342.1,665.3
		c-0.1-3.7-1-6.5-2.9-8.4c-1.8-1.9-4-2.9-6.6-2.9c-2.8,0-5.1,1-6.9,3c-1.8,2-2.7,4.8-2.7,8.3H342.1z"/>
	<path fill="#FFFFFF" d="M368.6,645.3h11.9v7.1c1.5-2.4,3.6-4.4,6.3-5.9c2.6-1.5,5.6-2.3,8.8-2.3c5.6,0,10.4,2.2,14.3,6.6
		c3.9,4.4,5.9,10.5,5.9,18.4c0,8.1-2,14.3-5.9,18.8c-3.9,4.5-8.7,6.7-14.3,6.7c-2.7,0-5.1-0.5-7.2-1.6c-2.2-1.1-4.4-2.9-6.8-5.5
		v24.3h-12.8V645.3z M381.2,668.6c0,5.4,1.1,9.4,3.2,12c2.1,2.6,4.8,3.9,7.9,3.9c3,0,5.4-1.2,7.4-3.6c2-2.4,3-6.3,3-11.7
		c0-5.1-1-8.8-3-11.3c-2-2.5-4.5-3.7-7.5-3.7c-3.1,0-5.7,1.2-7.8,3.6C382.3,660.3,381.2,663.9,381.2,668.6z"/>
	<path fill="#FFFFFF" d="M422.7,645.3h43.6v10.3h-15.4v37.9h-12.8v-37.9h-15.4V645.3z"/>
	<path fill="#FFFFFF" d="M477.4,645.3h12.3v30.3l19.6-30.3h12.5v48.2h-12.3v-30.8l-19.9,30.8h-12.3V645.3z"/>
	<path fill="#FFFFFF" d="M566.5,627h12.7v24.5c1.5-2.4,3.4-4.2,5.5-5.4c2.1-1.2,4.6-1.8,7.4-1.8c5.2,0,9.4,2.5,12.7,7.5
		c3.3,5,4.9,11,4.9,18c0,7-1.8,12.9-5.5,17.7c-3.7,4.8-8,7.2-13.1,7.2c-2.3,0-4.4-0.6-6.4-1.7c-2-1.1-3.8-2.8-5.5-5.1v24h-12.7v-24
		c-1.8,2.2-3.8,3.9-5.9,5.1c-2.1,1.1-4.3,1.7-6.7,1.7c-5.2,0-9.5-2.4-12.9-7.2c-3.4-4.8-5.1-10.9-5.1-18.2c0-7.2,1.9-13.2,5.8-17.9
		c3.9-4.7,8.1-7.1,12.6-7.1c2.5,0,4.7,0.6,6.7,1.7c2,1.2,3.9,2.9,5.5,5.2V627z M558,654c-2.4,0-4.4,1.4-6.2,4.2s-2.7,6.6-2.7,11.2
		c0,4.7,0.8,8.4,2.5,11.2c1.6,2.8,3.7,4.2,6.2,4.2c2.5,0,4.6-1.4,6.3-4.2c1.7-2.8,2.6-6.7,2.6-11.5c0-5.3-0.9-9.1-2.8-11.5
		C561.9,655.2,560,654,558,654z M587.8,654.1c-2.6,0-4.7,1.5-6.4,4.6c-1.6,3-2.5,6.9-2.5,11.4s0.9,8.2,2.6,10.9s3.8,4,6.2,4
		c2.4,0,4.5-1.5,6.2-4.5c1.7-3,2.6-6.6,2.6-10.7c0-4.4-0.8-8.1-2.4-11.1C592.6,655.6,590.5,654.1,587.8,654.1z"/>
	<path fill="#FFFFFF" d="M623.6,645.3h12.3v30.3l19.6-30.3h12.5v48.2h-12.3v-30.8l-19.9,30.8h-12.3V645.3z"/>
	<path fill="#FFFFFF" d="M684.5,645.3h12.7V665c2.1-0.2,3.6-0.9,4.5-2c0.9-1.1,1.9-3.4,3.2-6.9c1.6-4.8,3.4-7.8,5.4-9.1
		c1.9-1.3,4.5-2,7.6-2c1,0,2.6,0.1,5,0.2l0,8.4c-3.4,0-5.5,0.3-6.4,1c-0.9,0.7-2,2.7-3,6c-1.5,4.5-3.6,7.2-6.4,8.2
		c4,1.1,7.4,4.6,10.2,10.5c0.2,0.3,0.3,0.6,0.5,1l7.1,13.3h-13.7l-6.4-13.9c-1.3-2.8-2.4-4.6-3.4-5.4c-1-0.8-2.4-1.2-4.2-1.2v20.6
		h-12.7V645.3z"/>
	<path fill="#FFFFFF" d="M744.9,660l-11.6-2.1c1.3-4.7,3.5-8.1,6.7-10.4c3.2-2.2,7.9-3.4,14.2-3.4c5.7,0,9.9,0.7,12.7,2
		s4.7,3.1,5.9,5.1c1.1,2.1,1.7,5.9,1.7,11.4l-0.1,14.9c0,4.2,0.2,7.4,0.6,9.4c0.4,2,1.2,4.2,2.3,6.5h-12.6c-0.3-0.8-0.7-2.1-1.2-3.8
		c-0.2-0.8-0.4-1.3-0.5-1.5c-2.2,2.1-4.5,3.7-7,4.8c-2.5,1.1-5.1,1.6-7.9,1.6c-5,0-8.9-1.3-11.7-4c-2.9-2.7-4.3-6.1-4.3-10.2
		c0-2.7,0.7-5.2,2-7.3s3.1-3.8,5.5-4.9c2.3-1.1,5.7-2.1,10.2-3c6-1.1,10.1-2.2,12.4-3.1v-1.3c0-2.5-0.6-4.2-1.8-5.2
		c-1.2-1-3.5-1.6-6.9-1.6c-2.3,0-4,0.4-5.3,1.3C746.7,656.2,745.7,657.8,744.9,660z M761.9,670.4c-1.6,0.5-4.2,1.2-7.8,2
		c-3.5,0.8-5.9,1.5-6.9,2.2c-1.7,1.2-2.5,2.7-2.5,4.5c0,1.8,0.7,3.3,2,4.6c1.3,1.3,3,2,5.1,2c2.3,0,4.5-0.8,6.6-2.3
		c1.5-1.2,2.6-2.6,3-4.2c0.3-1.1,0.5-3.2,0.5-6.2V670.4z"/>
	<path fill="#FFFFFF" d="M785.2,645.3h43.6v10.3h-15.4v37.9h-12.8v-37.9h-15.4V645.3z"/>
	<path fill="#FFFFFF" d="M840.3,645.3h12.8v20h12.8c5,0,8.9,0.4,11.5,1.1s4.9,2.3,6.7,4.7c1.8,2.4,2.7,5.2,2.7,8.4
		c0,4.7-1.6,8.2-4.8,10.5c-3.2,2.3-8,3.5-14.4,3.5h-27.3V645.3z M853.1,685.5H865c3.1,0,5.3-0.5,6.7-1.5c1.4-1,2.1-2.5,2.1-4.7
		c0-2.3-0.9-3.9-2.7-4.8c-1.8-0.9-5-1.3-9.7-1.3h-8.3V685.5z M894.2,645.3h12.8v48.2h-12.8V645.3z"/>
</g>
</svg>
