<?xml version="1.0" encoding="utf-8"?>
<!-- Generator: Adobe Illustrator 17.1.0, SVG Export Plug-In . SVG Version: 6.00 Build 0)  -->
<!DOCTYPE svg PUBLIC "-//W3C//DTD SVG 1.0//EN" "http://www.w3.org/TR/2001/REC-SVG-20010904/DTD/svg10.dtd">
<svg version="1.0" xmlns="http://www.w3.org/2000/svg" xmlns:xlink="http://www.w3.org/1999/xlink" x="0px" y="0px"
	 viewBox="0 0 577.3 270" enable-background="new 0 0 577.3 270" xml:space="preserve">
<g id="Layer_1">
</g>
<g id="pop_up_decision">
	<g>
		<g>
			<g>
				<line fill="none" stroke="#DDDD14" stroke-miterlimit="10" x1="13.7" y1="61.3" x2="14.1" y2="60.9"/>
				
					<line fill="none" stroke="#DDDD14" stroke-miterlimit="10" stroke-dasharray="1.0076,1.0076" x1="14.8" y1="60.2" x2="48.6" y2="26.4"/>
				<line fill="none" stroke="#DDDD14" stroke-miterlimit="10" x1="49" y1="26" x2="49.3" y2="25.7"/>
			</g>
		</g>
		<polyline fill="none" stroke="#DDDD14" stroke-width="1.5" stroke-miterlimit="10" points="13.7,32.6 13.7,61.3 42.4,61.3 		"/>
	</g>
	<g>
		<g>
			<path fill="#979797" d="M577.7-0.1h-1v1l0,0v0.6h1V-0.1L577.7-0.1z M575.7-0.1h-1v1h1V-0.1L575.7-0.1z M573.7-0.1h-1v1h1V-0.1
				L573.7-0.1z M571.7-0.1h-1v1h1V-0.1L571.7-0.1z M569.7-0.1h-1v1h1V-0.1L569.7-0.1z M567.7-0.1h-1v1h1V-0.1L567.7-0.1z M565.7-0.1
				h-1v1h1V-0.1L565.7-0.1z M563.7-0.1h-1v1h1V-0.1L563.7-0.1z M561.7-0.1h-1v1h1V-0.1L561.7-0.1z M559.7-0.1h-1v1h1V-0.1L559.7-0.1
				z M557.7-0.1h-1v1h1V-0.1L557.7-0.1z M555.7-0.1h-1v1h1V-0.1L555.7-0.1z M553.7-0.1h-1v1h1V-0.1L553.7-0.1z M551.7-0.1h-1v1h1
				V-0.1L551.7-0.1z M549.7-0.1h-1v1h1V-0.1L549.7-0.1z M547.7-0.1h-1v1h1V-0.1L547.7-0.1z M545.7-0.1h-1v1h1V-0.1L545.7-0.1z
				 M543.7-0.1h-1v1h1V-0.1L543.7-0.1z M541.7-0.1h-1v1h1V-0.1L541.7-0.1z M539.7-0.1h-1v1h1V-0.1L539.7-0.1z M537.7-0.1h-1v1h1
				V-0.1L537.7-0.1z M535.7-0.1h-1v1h1V-0.1L535.7-0.1z M533.7-0.1h-1v1h1V-0.1L533.7-0.1z M531.7-0.1h-1v1h1V-0.1L531.7-0.1z
				 M529.7-0.1h-1v1h1V-0.1L529.7-0.1z M527.7-0.1h-1v1h1V-0.1L527.7-0.1z M525.7-0.1h-1v1h1V-0.1L525.7-0.1z M523.7-0.1h-1v1h1
				V-0.1L523.7-0.1z M521.7-0.1h-1v1h1V-0.1L521.7-0.1z M519.7-0.1h-1v1h1V-0.1L519.7-0.1z M517.7-0.1h-1v1h1V-0.1L517.7-0.1z
				 M515.7-0.1h-1v1h1V-0.1L515.7-0.1z M513.7-0.1h-1v1h1V-0.1L513.7-0.1z M511.7-0.1h-1v1h1V-0.1L511.7-0.1z M509.7-0.1h-1v1h1
				V-0.1L509.7-0.1z M507.7-0.1h-1v1h1V-0.1L507.7-0.1z M505.7-0.1h-1v1h1V-0.1L505.7-0.1z M503.7-0.1h-1v1h1V-0.1L503.7-0.1z
				 M501.7-0.1h-1v1h1V-0.1L501.7-0.1z M499.7-0.1h-1v1h1V-0.1L499.7-0.1z M497.7-0.1h-1v1h1V-0.1L497.7-0.1z M495.7-0.1h-1v1h1
				V-0.1L495.7-0.1z M493.7-0.1h-1v1h1V-0.1L493.7-0.1z M491.7-0.1h-1v1h1V-0.1L491.7-0.1z M489.7-0.1h-1v1h1V-0.1L489.7-0.1z
				 M487.7-0.1h-1v1h1V-0.1L487.7-0.1z M485.7-0.1h-1v1h1V-0.1L485.7-0.1z M483.7-0.1h-1v1h1V-0.1L483.7-0.1z M481.7-0.1h-1v1h1
				V-0.1L481.7-0.1z M479.7-0.1h-1v1h1V-0.1L479.7-0.1z M477.7-0.1h-1v1h1V-0.1L477.7-0.1z M475.7-0.1h-1v1h1V-0.1L475.7-0.1z
				 M473.7-0.1h-1v1h1V-0.1L473.7-0.1z M471.7-0.1h-1v1h1V-0.1L471.7-0.1z M469.7-0.1h-1v1h1V-0.1L469.7-0.1z M467.7-0.1h-1v1h1
				V-0.1L467.7-0.1z M465.7-0.1h-1v1h1V-0.1L465.7-0.1z M463.7-0.1h-1v1h1V-0.1L463.7-0.1z M461.7-0.1h-1v1h1V-0.1L461.7-0.1z
				 M459.7-0.1h-1v1h1V-0.1L459.7-0.1z M457.7-0.1h-1v1h1V-0.1L457.7-0.1z M455.7-0.1h-1v1h1V-0.1L455.7-0.1z M453.7-0.1h-1v1h1
				V-0.1L453.7-0.1z M451.7-0.1h-1v1h1V-0.1L451.7-0.1z M449.7-0.1h-1v1h1V-0.1L449.7-0.1z M447.7-0.1h-1v1h1V-0.1L447.7-0.1z
				 M445.7-0.1h-1v1h1V-0.1L445.7-0.1z M443.7-0.1h-1v1h1V-0.1L443.7-0.1z M441.7-0.1h-1v1h1V-0.1L441.7-0.1z M439.7-0.1h-1v1h1
				V-0.1L439.7-0.1z M437.7-0.1h-1v1h1V-0.1L437.7-0.1z M435.7-0.1h-1v1h1V-0.1L435.7-0.1z M433.7-0.1h-1v1h1V-0.1L433.7-0.1z
				 M431.7-0.1h-1v1h1V-0.1L431.7-0.1z M429.7-0.1h-1v1h1V-0.1L429.7-0.1z M427.7-0.1h-1v1h1V-0.1L427.7-0.1z M425.7-0.1h-1v1h1
				V-0.1L425.7-0.1z M423.7-0.1h-1v1h1V-0.1L423.7-0.1z M421.7-0.1h-1v1h1V-0.1L421.7-0.1z M419.7-0.1h-1v1h1V-0.1L419.7-0.1z
				 M417.7-0.1h-1v1h1V-0.1L417.7-0.1z M415.7-0.1h-1v1h1V-0.1L415.7-0.1z M413.7-0.1h-1v1h1V-0.1L413.7-0.1z M411.7-0.1h-1v1h1
				V-0.1L411.7-0.1z M409.7-0.1h-1v1h1V-0.1L409.7-0.1z M407.7-0.1h-1v1h1V-0.1L407.7-0.1z M405.7-0.1h-1v1h1V-0.1L405.7-0.1z
				 M403.7-0.1h-1v1h1V-0.1L403.7-0.1z M401.7-0.1h-1v1h1V-0.1L401.7-0.1z M399.7-0.1h-1v1h1V-0.1L399.7-0.1z M397.7-0.1h-1v1h1
				V-0.1L397.7-0.1z M395.7-0.1h-1v1h1V-0.1L395.7-0.1z M393.7-0.1h-1v1h1V-0.1L393.7-0.1z M391.7-0.1h-1v1h1V-0.1L391.7-0.1z
				 M389.7-0.1h-1v1h1V-0.1L389.7-0.1z M387.7-0.1h-1v1h1V-0.1L387.7-0.1z M385.7-0.1h-1v1h1V-0.1L385.7-0.1z M383.7-0.1h-1v1h1
				V-0.1L383.7-0.1z M381.7-0.1h-1v1h1V-0.1L381.7-0.1z M379.7-0.1h-1v1h1V-0.1L379.7-0.1z M377.7-0.1h-1v1h1V-0.1L377.7-0.1z
				 M375.7-0.1h-1v1h1V-0.1L375.7-0.1z M373.7-0.1h-1v1h1V-0.1L373.7-0.1z M371.7-0.1h-1v1h1V-0.1L371.7-0.1z M369.7-0.1h-1v1h1
				V-0.1L369.7-0.1z M367.7-0.1h-1v1h1V-0.1L367.7-0.1z M365.7-0.1h-1v1h1V-0.1L365.7-0.1z M363.7-0.1h-1v1h1V-0.1L363.7-0.1z
				 M361.7-0.1h-1v1h1V-0.1L361.7-0.1z M359.7-0.1h-1v1h1V-0.1L359.7-0.1z M357.7-0.1h-1v1h1V-0.1L357.7-0.1z M355.7-0.1h-1v1h1
				V-0.1L355.7-0.1z M353.7-0.1h-1v1h1V-0.1L353.7-0.1z M351.7-0.1h-1v1h1V-0.1L351.7-0.1z M349.7-0.1h-1v1h1V-0.1L349.7-0.1z
				 M347.7-0.1h-1v1h1V-0.1L347.7-0.1z M345.7-0.1h-1v1h1V-0.1L345.7-0.1z M343.7-0.1h-1v1h1V-0.1L343.7-0.1z M341.7-0.1h-1v1h1
				V-0.1L341.7-0.1z M339.7-0.1h-1v1h1V-0.1L339.7-0.1z M337.7-0.1h-1v1h1V-0.1L337.7-0.1z M335.7-0.1h-1v1h1V-0.1L335.7-0.1z
				 M333.7-0.1h-1v1h1V-0.1L333.7-0.1z M331.7-0.1h-1v1h1V-0.1L331.7-0.1z M329.7-0.1h-1v1h1V-0.1L329.7-0.1z M327.7-0.1h-1v1h1
				V-0.1L327.7-0.1z M325.7-0.1h-1v1h1V-0.1L325.7-0.1z M323.7-0.1h-1v1h1V-0.1L323.7-0.1z M321.7-0.1h-1v1h1V-0.1L321.7-0.1z
				 M319.7-0.1h-1v1h1V-0.1L319.7-0.1z M317.7-0.1h-1v1h1V-0.1L317.7-0.1z M315.7-0.1h-1v1h1V-0.1L315.7-0.1z M313.7-0.1h-1v1h1
				V-0.1L313.7-0.1z M311.7-0.1h-1v1h1V-0.1L311.7-0.1z M309.7-0.1h-1v1h1V-0.1L309.7-0.1z M307.7-0.1h-1v1h1V-0.1L307.7-0.1z
				 M305.7-0.1h-1v1h1V-0.1L305.7-0.1z M303.7-0.1h-1v1h1V-0.1L303.7-0.1z M301.7-0.1h-1v1h1V-0.1L301.7-0.1z M299.7-0.1h-1v1h1
				V-0.1L299.7-0.1z M297.7-0.1h-1v1h1V-0.1L297.7-0.1z M295.7-0.1h-1v1h1V-0.1L295.7-0.1z M293.7-0.1h-1v1h1V-0.1L293.7-0.1z
				 M291.7-0.1h-1v1h1V-0.1L291.7-0.1z M289.7-0.1h-1v1h1V-0.1L289.7-0.1z M287.7-0.1h-1v1h1V-0.1L287.7-0.1z M285.7-0.1h-1v1h1
				V-0.1L285.7-0.1z M283.7-0.1h-1v1h1V-0.1L283.7-0.1z M281.7-0.1h-1v1h1V-0.1L281.7-0.1z M279.7-0.1h-1v1h1V-0.1L279.7-0.1z
				 M277.7-0.1h-1v1h1V-0.1L277.7-0.1z M275.7-0.1h-1v1h1V-0.1L275.7-0.1z M273.7-0.1h-1v1h1V-0.1L273.7-0.1z M271.7-0.1h-1v1h1
				V-0.1L271.7-0.1z M269.7-0.1h-1v1h1V-0.1L269.7-0.1z M267.7-0.1h-1v1h1V-0.1L267.7-0.1z M265.7-0.1h-1v1h1V-0.1L265.7-0.1z
				 M263.7-0.1h-1v1h1V-0.1L263.7-0.1z M261.7-0.1h-1v1h1V-0.1L261.7-0.1z M259.7-0.1h-1v1h1V-0.1L259.7-0.1z M257.7-0.1h-1v1h1
				V-0.1L257.7-0.1z M255.7-0.1h-1v1h1V-0.1L255.7-0.1z M253.7-0.1h-1v1h1V-0.1L253.7-0.1z M251.7-0.1h-1v1h1V-0.1L251.7-0.1z
				 M249.7-0.1h-1v1h1V-0.1L249.7-0.1z M247.7-0.1h-1v1h1V-0.1L247.7-0.1z M245.7-0.1h-1v1h1V-0.1L245.7-0.1z M243.7-0.1h-1v1h1
				V-0.1L243.7-0.1z M241.7-0.1h-1v1h1V-0.1L241.7-0.1z M239.7-0.1h-1v1h1V-0.1L239.7-0.1z M237.7-0.1h-1v1h1V-0.1L237.7-0.1z
				 M235.7-0.1h-1v1h1V-0.1L235.7-0.1z M233.7-0.1h-1v1h1V-0.1L233.7-0.1z M231.7-0.1h-1v1h1V-0.1L231.7-0.1z M229.7-0.1h-1v1h1
				V-0.1L229.7-0.1z M227.7-0.1h-1v1h1V-0.1L227.7-0.1z M225.7-0.1h-1v1h1V-0.1L225.7-0.1z M223.7-0.1h-1v1h1V-0.1L223.7-0.1z
				 M221.7-0.1h-1v1h1V-0.1L221.7-0.1z M219.7-0.1h-1v1h1V-0.1L219.7-0.1z M217.7-0.1h-1v1h1V-0.1L217.7-0.1z M215.7-0.1h-1v1h1
				V-0.1L215.7-0.1z M213.7-0.1h-1v1h1V-0.1L213.7-0.1z M211.7-0.1h-1v1h1V-0.1L211.7-0.1z M209.7-0.1h-1v1h1V-0.1L209.7-0.1z
				 M207.7-0.1h-1v1h1V-0.1L207.7-0.1z M205.7-0.1h-1v1h1V-0.1L205.7-0.1z M203.7-0.1h-1v1h1V-0.1L203.7-0.1z M201.7-0.1h-1v1h1
				V-0.1L201.7-0.1z M199.7-0.1h-1v1h1V-0.1L199.7-0.1z M197.7-0.1h-1v1h1V-0.1L197.7-0.1z M195.7-0.1h-1v1h1V-0.1L195.7-0.1z
				 M193.7-0.1h-1v1h1V-0.1L193.7-0.1z M191.7-0.1h-1v1h1V-0.1L191.7-0.1z M189.7-0.1h-1v1h1V-0.1L189.7-0.1z M187.7-0.1h-1v1h1
				V-0.1L187.7-0.1z M185.7-0.1h-1v1h1V-0.1L185.7-0.1z M183.7-0.1h-1v1h1V-0.1L183.7-0.1z M181.7-0.1h-1v1h1V-0.1L181.7-0.1z
				 M179.7-0.1h-1v1h1V-0.1L179.7-0.1z M177.7-0.1h-1v1h1V-0.1L177.7-0.1z M175.7-0.1h-1v1h1V-0.1L175.7-0.1z M173.7-0.1h-1v1h1
				V-0.1L173.7-0.1z M171.7-0.1h-1v1h1V-0.1L171.7-0.1z M169.7-0.1h-1v1h1V-0.1L169.7-0.1z M167.7-0.1h-1v1h1V-0.1L167.7-0.1z
				 M165.7-0.1h-1v1h1V-0.1L165.7-0.1z M163.7-0.1h-1v1h1V-0.1L163.7-0.1z M161.7-0.1h-1v1h1V-0.1L161.7-0.1z M159.7-0.1h-1v1h1
				V-0.1L159.7-0.1z M157.7-0.1h-1v1h1V-0.1L157.7-0.1z M155.7-0.1h-1v1h1V-0.1L155.7-0.1z M153.7-0.1h-1v1h1V-0.1L153.7-0.1z
				 M151.7-0.1h-1v1h1V-0.1L151.7-0.1z M149.7-0.1h-1v1h1V-0.1L149.7-0.1z M147.7-0.1h-1v1h1V-0.1L147.7-0.1z M145.7-0.1h-1v1h1
				V-0.1L145.7-0.1z M143.7-0.1h-1v1h1V-0.1L143.7-0.1z M141.7-0.1h-1v1h1V-0.1L141.7-0.1z M139.7-0.1h-1v1h1V-0.1L139.7-0.1z
				 M137.7-0.1h-1v1h1V-0.1L137.7-0.1z M135.7-0.1h-1v1h1V-0.1L135.7-0.1z M133.7-0.1h-1v1h1V-0.1L133.7-0.1z M131.7-0.1h-1v1h1
				V-0.1L131.7-0.1z M129.7-0.1h-1v1h1V-0.1L129.7-0.1z M127.7-0.1h-1v1h1V-0.1L127.7-0.1z M125.7-0.1h-1v1h1V-0.1L125.7-0.1z
				 M123.7-0.1h-1v1h1V-0.1L123.7-0.1z M121.7-0.1h-1v1h1V-0.1L121.7-0.1z M119.7-0.1h-1v1h1V-0.1L119.7-0.1z M117.7-0.1h-1v1h1
				V-0.1L117.7-0.1z M115.7-0.1h-1v1h1V-0.1L115.7-0.1z M113.7-0.1h-1v1h1V-0.1L113.7-0.1z M111.7-0.1h-1v1h1V-0.1L111.7-0.1z
				 M109.7-0.1h-1v1h1V-0.1L109.7-0.1z M107.7-0.1h-1v1h1V-0.1L107.7-0.1z M105.7-0.1h-1v1h1V-0.1L105.7-0.1z M103.7-0.1h-1v1h1
				V-0.1L103.7-0.1z M101.7-0.1h-1v1h1V-0.1L101.7-0.1z M99.7-0.1h-1v1h1V-0.1L99.7-0.1z M97.7-0.1h-1v1h1V-0.1L97.7-0.1z M95.7-0.1
				h-1v1h1V-0.1L95.7-0.1z M93.7-0.1h-1v1h1V-0.1L93.7-0.1z M91.7-0.1h-1v1h1V-0.1L91.7-0.1z M89.7-0.1h-1v1h1V-0.1L89.7-0.1z
				 M87.7-0.1h-1v1h1V-0.1L87.7-0.1z M85.7-0.1h-1v1h1V-0.1L85.7-0.1z M83.7-0.1h-1v1h1V-0.1L83.7-0.1z M81.7-0.1h-1v1h1V-0.1
				L81.7-0.1z M79.7-0.1h-1v1h1V-0.1L79.7-0.1z M77.7-0.1h-1v1h1V-0.1L77.7-0.1z M75.7-0.1h-1v1h1V-0.1L75.7-0.1z M73.7-0.1h-1v1h1
				V-0.1L73.7-0.1z M71.7-0.1h-1v1h1V-0.1L71.7-0.1z M69.7-0.1h-1v1h1V-0.1L69.7-0.1z M67.7-0.1h-1v1h1V-0.1L67.7-0.1z M65.7-0.1h-1
				v1h1V-0.1L65.7-0.1z M63.7-0.1h-1v1h1V-0.1L63.7-0.1z M61.7-0.1h-1v1h1V-0.1L61.7-0.1z M59.7-0.1h-1v1h1V-0.1L59.7-0.1z
				 M57.7-0.1h-1v1h1V-0.1L57.7-0.1z M55.7-0.1h-1v1h1V-0.1L55.7-0.1z M53.7-0.1h-1v1h1V-0.1L53.7-0.1z M51.7-0.1h-1v1h1V-0.1
				L51.7-0.1z M49.7-0.1h-1v1h1V-0.1L49.7-0.1z M47.7-0.1h-1v1h1V-0.1L47.7-0.1z M45.7-0.1h-1v1h1V-0.1L45.7-0.1z M43.7-0.1h-1v1h1
				V-0.1L43.7-0.1z M41.7-0.1h-1v1h1V-0.1L41.7-0.1z M39.7-0.1h-1v1h1V-0.1L39.7-0.1z M37.7-0.1h-1v1h1V-0.1L37.7-0.1z M35.7-0.1h-1
				v1h1V-0.1L35.7-0.1z M33.7-0.1h-1v1h1V-0.1L33.7-0.1z M31.7-0.1h-1v1h1V-0.1L31.7-0.1z M29.7-0.1h-1v1h1V-0.1L29.7-0.1z
				 M27.7-0.1h-1v1h1V-0.1L27.7-0.1z M25.7-0.1h-1v1h1V-0.1L25.7-0.1z M23.7-0.1h-1v1h1V-0.1L23.7-0.1z M21.7-0.1h-1v1h1V-0.1
				L21.7-0.1z M19.7-0.1h-1v1h1V-0.1L19.7-0.1z M17.7-0.1h-1v1h1V-0.1L17.7-0.1z M15.7-0.1h-1v1h1V-0.1L15.7-0.1z M13.7-0.1h-1v1h1
				V-0.1L13.7-0.1z M11.7-0.1h-1v1h1V-0.1L11.7-0.1z M9.7-0.1h-1v1h1V-0.1L9.7-0.1z M7.7-0.1h-1v1h1V-0.1L7.7-0.1z M5.7-0.1h-1v1h1
				V-0.1L5.7-0.1z M3.7-0.1h-1v1h1V-0.1L3.7-0.1z M1.7-0.1h-1v1l0,0v1h1v-1l0,0V-0.1L1.7-0.1z M1.7,2.9h-1v1h1V2.9L1.7,2.9z
				 M1.7,4.9h-1v1h1V4.9L1.7,4.9z M1.7,6.9h-1v1h1V6.9L1.7,6.9z M1.7,8.9h-1v1h1V8.9L1.7,8.9z M1.7,10.9h-1v1h1V10.9L1.7,10.9z
				 M1.7,12.9h-1v1h1V12.9L1.7,12.9z M1.7,14.9h-1v1h1V14.9L1.7,14.9z M1.7,16.9h-1v1h1V16.9L1.7,16.9z M1.7,18.9h-1v1h1V18.9
				L1.7,18.9z M1.7,20.9h-1v1h1V20.9L1.7,20.9z M1.7,22.9h-1v1h1V22.9L1.7,22.9z M1.7,24.9h-1v1h1V24.9L1.7,24.9z M1.7,26.9h-1v1h1
				V26.9L1.7,26.9z M1.7,28.9h-1v1h1V28.9L1.7,28.9z M1.7,30.9h-1v1h1V30.9L1.7,30.9z M1.7,32.9h-1v1h1V32.9L1.7,32.9z M1.7,34.9h-1
				v1h1V34.9L1.7,34.9z M1.7,36.9h-1v1h1V36.9L1.7,36.9z M1.7,38.9h-1v1h1V38.9L1.7,38.9z M1.7,40.9h-1v1h1V40.9L1.7,40.9z
				 M1.7,42.9h-1v1h1V42.9L1.7,42.9z M1.7,44.9h-1v1h1V44.9L1.7,44.9z M1.7,46.9h-1v1h1V46.9L1.7,46.9z M1.7,48.9h-1v1h1V48.9
				L1.7,48.9z M1.7,50.9h-1v1h1V50.9L1.7,50.9z M1.7,52.9h-1v1h1V52.9L1.7,52.9z M1.7,54.9h-1v1h1V54.9L1.7,54.9z M1.7,56.9h-1v1h1
				V56.9L1.7,56.9z M1.7,58.9h-1v1h1V58.9L1.7,58.9z M1.7,60.9h-1v1h1V60.9L1.7,60.9z M1.7,62.9h-1v1h1V62.9L1.7,62.9z M1.7,64.9h-1
				v1h1V64.9L1.7,64.9z M1.7,66.9h-1v1h1V66.9L1.7,66.9z M1.7,68.9h-1v1h1V68.9L1.7,68.9z M1.7,70.9h-1v1h1V70.9L1.7,70.9z
				 M1.7,72.9h-1v1h1V72.9L1.7,72.9z M1.7,74.9h-1v1h1V74.9L1.7,74.9z M1.7,76.9h-1v1h1V76.9L1.7,76.9z M1.7,78.9h-1v1h1V78.9
				L1.7,78.9z M1.7,80.9h-1v1h1V80.9L1.7,80.9z M1.7,82.9h-1v1h1V82.9L1.7,82.9z M1.7,84.9h-1v1h1V84.9L1.7,84.9z M1.7,86.9h-1v1h1
				V86.9L1.7,86.9z M1.7,88.9h-1v1h1V88.9L1.7,88.9z M1.7,90.9h-1v1h1V90.9L1.7,90.9z M1.7,92.9h-1v1h1V92.9L1.7,92.9z M1.7,94.9h-1
				v1h1V94.9L1.7,94.9z M1.7,96.9h-1v1h1V96.9L1.7,96.9z M1.7,98.9h-1v1h1V98.9L1.7,98.9z M1.7,100.9h-1v1h1V100.9L1.7,100.9z
				 M1.7,102.9h-1v1h1V102.9L1.7,102.9z M1.7,104.9h-1v1h1V104.9L1.7,104.9z M1.7,106.9h-1v1h1V106.9L1.7,106.9z M1.7,108.9h-1v1h1
				V108.9L1.7,108.9z M1.7,110.9h-1v1h1V110.9L1.7,110.9z M1.7,112.9h-1v1h1V112.9L1.7,112.9z M1.7,114.9h-1v1h1V114.9L1.7,114.9z
				 M1.7,116.9h-1v1h1V116.9L1.7,116.9z M1.7,118.9h-1v1h1V118.9L1.7,118.9z M1.7,120.9h-1v1h1V120.9L1.7,120.9z M1.7,122.9h-1v1h1
				V122.9L1.7,122.9z M1.7,124.9h-1v1h1V124.9L1.7,124.9z M1.7,126.9h-1v1h1V126.9L1.7,126.9z M1.7,128.9h-1v1h1V128.9L1.7,128.9z
				 M1.7,130.9h-1v1h1V130.9L1.7,130.9z M1.7,132.9h-1v1h1V132.9L1.7,132.9z M1.7,134.9h-1v1h1V134.9L1.7,134.9z M1.7,136.9h-1v1h1
				V136.9L1.7,136.9z M1.7,138.9h-1v1h1V138.9L1.7,138.9z M1.7,140.9h-1v1h1V140.9L1.7,140.9z M1.7,142.9h-1v1h1V142.9L1.7,142.9z
				 M1.7,144.9h-1v1h1V144.9L1.7,144.9z M1.7,146.9h-1v1h1V146.9L1.7,146.9z M1.7,148.9h-1v1h1V148.9L1.7,148.9z M1.7,150.9h-1v1h1
				V150.9L1.7,150.9z M1.7,152.9h-1v1h1V152.9L1.7,152.9z M1.7,154.9h-1v1h1V154.9L1.7,154.9z M1.7,156.9h-1v1h1V156.9L1.7,156.9z
				 M1.7,158.9h-1v1h1V158.9L1.7,158.9z M1.7,160.9h-1v1h1V160.9L1.7,160.9z M1.7,162.9h-1v1h1V162.9L1.7,162.9z M1.7,164.9h-1v1h1
				V164.9L1.7,164.9z M1.7,166.9h-1v1h1V166.9L1.7,166.9z M1.7,168.9h-1v1h1V168.9L1.7,168.9z M1.7,170.9h-1v1h1V170.9L1.7,170.9z
				 M1.7,172.9h-1v1h1V172.9L1.7,172.9z M1.7,174.9h-1v1h1V174.9L1.7,174.9z M1.7,176.9h-1v1h1V176.9L1.7,176.9z M1.7,178.9h-1v1h1
				V178.9L1.7,178.9z M1.7,180.9h-1v1h1V180.9L1.7,180.9z M1.7,182.9h-1v1h1V182.9L1.7,182.9z M1.7,184.9h-1v1h1V184.9L1.7,184.9z
				 M1.7,186.9h-1v1h1V186.9L1.7,186.9z M1.7,188.9h-1v1h1V188.9L1.7,188.9z M1.7,190.9h-1v1h1V190.9L1.7,190.9z M1.7,192.9h-1v1h1
				V192.9L1.7,192.9z M1.7,194.9h-1v1h1V194.9L1.7,194.9z M1.7,196.9h-1v1h1V196.9L1.7,196.9z M1.7,198.9h-1v1h1V198.9L1.7,198.9z
				 M1.7,200.9h-1v1h1V200.9L1.7,200.9z M1.7,202.9h-1v1h1V202.9L1.7,202.9z M1.7,204.9h-1v1h1V204.9L1.7,204.9z M1.7,206.9h-1v1h1
				V206.9L1.7,206.9z M1.7,208.9h-1v1h1V208.9L1.7,208.9z M1.7,210.9h-1v1h1V210.9L1.7,210.9z M1.7,212.9h-1v1h1V212.9L1.7,212.9z
				 M1.7,214.9h-1v1h1V214.9L1.7,214.9z M1.7,216.9h-1v1h1V216.9L1.7,216.9z M1.7,218.9h-1v1h1V218.9L1.7,218.9z M1.7,220.9h-1v1h1
				V220.9L1.7,220.9z M1.7,222.9h-1v1h1V222.9L1.7,222.9z M1.7,224.9h-1v1h1V224.9L1.7,224.9z M1.7,226.9h-1v1h1V226.9L1.7,226.9z
				 M1.7,228.9h-1v1h1V228.9L1.7,228.9z M1.7,230.9h-1v1h1V230.9L1.7,230.9z M1.7,232.9h-1v1h1V232.9L1.7,232.9z M1.7,234.9h-1v1h1
				V234.9L1.7,234.9z M1.7,236.9h-1v1h1V236.9L1.7,236.9z M1.7,238.9h-1v1h1V238.9L1.7,238.9z M1.7,240.9h-1v1h1V240.9L1.7,240.9z
				 M1.7,242.9h-1v1h1V242.9L1.7,242.9z M1.7,244.9h-1v1h1V244.9L1.7,244.9z M1.7,246.9h-1v1h1V246.9L1.7,246.9z M1.7,248.9h-1v1h1
				V248.9L1.7,248.9z M1.7,250.9h-1v1h1V250.9L1.7,250.9z M1.7,252.9h-1v1h1V252.9L1.7,252.9z M1.7,254.9h-1v1h1V254.9L1.7,254.9z
				 M1.7,256.9h-1v1h1V256.9L1.7,256.9z M1.7,258.9h-1v1h1V258.9L1.7,258.9z M1.7,260.9h-1v1h1V260.9L1.7,260.9z M1.7,262.9h-1v1h1
				V262.9L1.7,262.9z M1.7,264.9h-1v1h1V264.9L1.7,264.9z M1.7,266.9h-1v1h1V266.9L1.7,266.9z M0.9,268.7H0.7v0.2l0,0v-0.2v0.2l0,0
				v0.8h1l0,0l0,0l0,0v-0.8H0.9V268.7L0.9,268.7z M2.9,268.7h-1v1h1V268.7L2.9,268.7z M4.9,268.7h-1v1h1V268.7L4.9,268.7z
				 M6.9,268.7h-1v1h1V268.7L6.9,268.7z M8.9,268.7h-1v1h1V268.7L8.9,268.7z M10.9,268.7h-1v1h1V268.7L10.9,268.7z M12.9,268.7h-1v1
				h1V268.7L12.9,268.7z M14.9,268.7h-1v1h1V268.7L14.9,268.7z M16.9,268.7h-1v1h1V268.7L16.9,268.7z M18.9,268.7h-1v1h1V268.7
				L18.9,268.7z M20.9,268.7h-1v1h1V268.7L20.9,268.7z M22.9,268.7h-1v1h1V268.7L22.9,268.7z M24.9,268.7h-1v1h1V268.7L24.9,268.7z
				 M26.9,268.7h-1v1h1V268.7L26.9,268.7z M28.9,268.7h-1v1h1V268.7L28.9,268.7z M30.9,268.7h-1v1h1V268.7L30.9,268.7z M32.9,268.7
				h-1v1h1V268.7L32.9,268.7z M34.9,268.7h-1v1h1V268.7L34.9,268.7z M36.9,268.7h-1v1h1V268.7L36.9,268.7z M38.9,268.7h-1v1h1V268.7
				L38.9,268.7z M40.9,268.7h-1v1h1V268.7L40.9,268.7z M42.9,268.7h-1v1h1V268.7L42.9,268.7z M44.9,268.7h-1v1h1V268.7L44.9,268.7z
				 M46.9,268.7h-1v1h1V268.7L46.9,268.7z M48.9,268.7h-1v1h1V268.7L48.9,268.7z M50.9,268.7h-1v1h1V268.7L50.9,268.7z M52.9,268.7
				h-1v1h1V268.7L52.9,268.7z M54.9,268.7h-1v1h1V268.7L54.9,268.7z M56.9,268.7h-1v1h1V268.7L56.9,268.7z M58.9,268.7h-1v1h1V268.7
				L58.9,268.7z M60.9,268.7h-1v1h1V268.7L60.9,268.7z M62.9,268.7h-1v1h1V268.7L62.9,268.7z M64.9,268.7h-1v1h1V268.7L64.9,268.7z
				 M66.9,268.7h-1v1h1V268.7L66.9,268.7z M68.9,268.7h-1v1h1V268.7L68.9,268.7z M70.9,268.7h-1v1h1V268.7L70.9,268.7z M72.9,268.7
				h-1v1h1V268.7L72.9,268.7z M74.9,268.7h-1v1h1V268.7L74.9,268.7z M76.9,268.7h-1v1h1V268.7L76.9,268.7z M78.9,268.7h-1v1h1V268.7
				L78.9,268.7z M80.9,268.7h-1v1h1V268.7L80.9,268.7z M82.9,268.7h-1v1h1V268.7L82.9,268.7z M84.9,268.7h-1v1h1V268.7L84.9,268.7z
				 M86.9,268.7h-1v1h1V268.7L86.9,268.7z M88.9,268.7h-1v1h1V268.7L88.9,268.7z M90.9,268.7h-1v1h1V268.7L90.9,268.7z M92.9,268.7
				h-1v1h1V268.7L92.9,268.7z M94.9,268.7h-1v1h1V268.7L94.9,268.7z M96.9,268.7h-1v1h1V268.7L96.9,268.7z M98.9,268.7h-1v1h1V268.7
				L98.9,268.7z M100.9,268.7h-1v1h1V268.7L100.9,268.7z M102.9,268.7h-1v1h1V268.7L102.9,268.7z M104.9,268.7h-1v1h1V268.7
				L104.9,268.7z M106.9,268.7h-1v1h1V268.7L106.9,268.7z M108.9,268.7h-1v1h1V268.7L108.9,268.7z M110.9,268.7h-1v1h1V268.7
				L110.9,268.7z M112.9,268.7h-1v1h1V268.7L112.9,268.7z M114.9,268.7h-1v1h1V268.7L114.9,268.7z M116.9,268.7h-1v1h1V268.7
				L116.9,268.7z M118.9,268.7h-1v1h1V268.7L118.9,268.7z M120.9,268.7h-1v1h1V268.7L120.9,268.7z M122.9,268.7h-1v1h1V268.7
				L122.9,268.7z M124.9,268.7h-1v1h1V268.7L124.9,268.7z M126.9,268.7h-1v1h1V268.7L126.9,268.7z M128.9,268.7h-1v1h1V268.7
				L128.9,268.7z M130.9,268.7h-1v1h1V268.7L130.9,268.7z M132.9,268.7h-1v1h1V268.7L132.9,268.7z M134.9,268.7h-1v1h1V268.7
				L134.9,268.7z M136.9,268.7h-1v1h1V268.7L136.9,268.7z M138.9,268.7h-1v1h1V268.7L138.9,268.7z M140.9,268.7h-1v1h1V268.7
				L140.9,268.7z M142.9,268.7h-1v1h1V268.7L142.9,268.7z M144.9,268.7h-1v1h1V268.7L144.9,268.7z M146.9,268.7h-1v1h1V268.7
				L146.9,268.7z M148.9,268.7h-1v1h1V268.7L148.9,268.7z M150.9,268.7h-1v1h1V268.7L150.9,268.7z M152.9,268.7h-1v1h1V268.7
				L152.9,268.7z M154.9,268.7h-1v1h1V268.7L154.9,268.7z M156.9,268.7h-1v1h1V268.7L156.9,268.7z M158.9,268.7h-1v1h1V268.7
				L158.9,268.7z M160.9,268.7h-1v1h1V268.7L160.9,268.7z M162.9,268.7h-1v1h1V268.7L162.9,268.7z M164.9,268.7h-1v1h1V268.7
				L164.9,268.7z M166.9,268.7h-1v1h1V268.7L166.9,268.7z M168.9,268.7h-1v1h1V268.7L168.9,268.7z M170.9,268.7h-1v1h1V268.7
				L170.9,268.7z M172.9,268.7h-1v1h1V268.7L172.9,268.7z M174.9,268.7h-1v1h1V268.7L174.9,268.7z M176.9,268.7h-1v1h1V268.7
				L176.9,268.7z M178.9,268.7h-1v1h1V268.7L178.9,268.7z M180.9,268.7h-1v1h1V268.7L180.9,268.7z M182.9,268.7h-1v1h1V268.7
				L182.9,268.7z M184.9,268.7h-1v1h1V268.7L184.9,268.7z M186.9,268.7h-1v1h1V268.7L186.9,268.7z M188.9,268.7h-1v1h1V268.7
				L188.9,268.7z M190.9,268.7h-1v1h1V268.7L190.9,268.7z M192.9,268.7h-1v1h1V268.7L192.9,268.7z M194.9,268.7h-1v1h1V268.7
				L194.9,268.7z M196.9,268.7h-1v1h1V268.7L196.9,268.7z M198.9,268.7h-1v1h1V268.7L198.9,268.7z M200.9,268.7h-1v1h1V268.7
				L200.9,268.7z M202.9,268.7h-1v1h1V268.7L202.9,268.7z M204.9,268.7h-1v1h1V268.7L204.9,268.7z M206.9,268.7h-1v1h1V268.7
				L206.9,268.7z M208.9,268.7h-1v1h1V268.7L208.9,268.7z M210.9,268.7h-1v1h1V268.7L210.9,268.7z M212.9,268.7h-1v1h1V268.7
				L212.9,268.7z M214.9,268.7h-1v1h1V268.7L214.9,268.7z M216.9,268.7h-1v1h1V268.7L216.9,268.7z M218.9,268.7h-1v1h1V268.7
				L218.9,268.7z M220.9,268.7h-1v1h1V268.7L220.9,268.7z M222.9,268.7h-1v1h1V268.7L222.9,268.7z M224.9,268.7h-1v1h1V268.7
				L224.9,268.7z M226.9,268.7h-1v1h1V268.7L226.9,268.7z M228.9,268.7h-1v1h1V268.7L228.9,268.7z M230.9,268.7h-1v1h1V268.7
				L230.9,268.7z M232.9,268.7h-1v1h1V268.7L232.9,268.7z M234.9,268.7h-1v1h1V268.7L234.9,268.7z M236.9,268.7h-1v1h1V268.7
				L236.9,268.7z M238.9,268.7h-1v1h1V268.7L238.9,268.7z M240.9,268.7h-1v1h1V268.7L240.9,268.7z M242.9,268.7h-1v1h1V268.7
				L242.9,268.7z M244.9,268.7h-1v1h1V268.7L244.9,268.7z M246.9,268.7h-1v1h1V268.7L246.9,268.7z M248.9,268.7h-1v1h1V268.7
				L248.9,268.7z M250.9,268.7h-1v1h1V268.7L250.9,268.7z M252.9,268.7h-1v1h1V268.7L252.9,268.7z M254.9,268.7h-1v1h1V268.7
				L254.9,268.7z M256.9,268.7h-1v1h1V268.7L256.9,268.7z M258.9,268.7h-1v1h1V268.7L258.9,268.7z M260.9,268.7h-1v1h1V268.7
				L260.9,268.7z M262.9,268.7h-1v1h1V268.7L262.9,268.7z M264.9,268.7h-1v1h1V268.7L264.9,268.7z M266.9,268.7h-1v1h1V268.7
				L266.9,268.7z M268.9,268.7h-1v1h1V268.7L268.9,268.7z M270.9,268.7h-1v1h1V268.7L270.9,268.7z M272.9,268.7h-1v1h1V268.7
				L272.9,268.7z M274.9,268.7h-1v1h1V268.7L274.9,268.7z M276.9,268.7h-1v1h1V268.7L276.9,268.7z M278.9,268.7h-1v1h1V268.7
				L278.9,268.7z M280.9,268.7h-1v1h1V268.7L280.9,268.7z M282.9,268.7h-1v1h1V268.7L282.9,268.7z M284.9,268.7h-1v1h1V268.7
				L284.9,268.7z M286.9,268.7h-1v1h1V268.7L286.9,268.7z M288.9,268.7h-1v1h1V268.7L288.9,268.7z M290.9,268.7h-1v1h1V268.7
				L290.9,268.7z M292.9,268.7h-1v1h1V268.7L292.9,268.7z M294.9,268.7h-1v1h1V268.7L294.9,268.7z M296.9,268.7h-1v1h1V268.7
				L296.9,268.7z M298.9,268.7h-1v1h1V268.7L298.9,268.7z M300.9,268.7h-1v1h1V268.7L300.9,268.7z M302.9,268.7h-1v1h1V268.7
				L302.9,268.7z M304.9,268.7h-1v1h1V268.7L304.9,268.7z M306.9,268.7h-1v1h1V268.7L306.9,268.7z M308.9,268.7h-1v1h1V268.7
				L308.9,268.7z M310.9,268.7h-1v1h1V268.7L310.9,268.7z M312.9,268.7h-1v1h1V268.7L312.9,268.7z M314.9,268.7h-1v1h1V268.7
				L314.9,268.7z M316.9,268.7h-1v1h1V268.7L316.9,268.7z M318.9,268.7h-1v1h1V268.7L318.9,268.7z M320.9,268.7h-1v1h1V268.7
				L320.9,268.7z M322.9,268.7h-1v1h1V268.7L322.9,268.7z M324.9,268.7h-1v1h1V268.7L324.9,268.7z M326.9,268.7h-1v1h1V268.7
				L326.9,268.7z M328.9,268.7h-1v1h1V268.7L328.9,268.7z M330.9,268.7h-1v1h1V268.7L330.9,268.7z M332.9,268.7h-1v1h1V268.7
				L332.9,268.7z M334.9,268.7h-1v1h1V268.7L334.9,268.7z M336.9,268.7h-1v1h1V268.7L336.9,268.7z M338.9,268.7h-1v1h1V268.7
				L338.9,268.7z M340.9,268.7h-1v1h1V268.7L340.9,268.7z M342.9,268.7h-1v1h1V268.7L342.9,268.7z M344.9,268.7h-1v1h1V268.7
				L344.9,268.7z M346.9,268.7h-1v1h1V268.7L346.9,268.7z M348.9,268.7h-1v1h1V268.7L348.9,268.7z M350.9,268.7h-1v1h1V268.7
				L350.9,268.7z M352.9,268.7h-1v1h1V268.7L352.9,268.7z M354.9,268.7h-1v1h1V268.7L354.9,268.7z M356.9,268.7h-1v1h1V268.7
				L356.9,268.7z M358.9,268.7h-1v1h1V268.7L358.9,268.7z M360.9,268.7h-1v1h1V268.7L360.9,268.7z M362.9,268.7h-1v1h1V268.7
				L362.9,268.7z M364.9,268.7h-1v1h1V268.7L364.9,268.7z M366.9,268.7h-1v1h1V268.7L366.9,268.7z M368.9,268.7h-1v1h1V268.7
				L368.9,268.7z M370.9,268.7h-1v1h1V268.7L370.9,268.7z M372.9,268.7h-1v1h1V268.7L372.9,268.7z M374.9,268.7h-1v1h1V268.7
				L374.9,268.7z M376.9,268.7h-1v1h1V268.7L376.9,268.7z M378.9,268.7h-1v1h1V268.7L378.9,268.7z M380.9,268.7h-1v1h1V268.7
				L380.9,268.7z M382.9,268.7h-1v1h1V268.7L382.9,268.7z M384.9,268.7h-1v1h1V268.7L384.9,268.7z M386.9,268.7h-1v1h1V268.7
				L386.9,268.7z M388.9,268.7h-1v1h1V268.7L388.9,268.7z M390.9,268.7h-1v1h1V268.7L390.9,268.7z M392.9,268.7h-1v1h1V268.7
				L392.9,268.7z M394.9,268.7h-1v1h1V268.7L394.9,268.7z M396.9,268.7h-1v1h1V268.7L396.9,268.7z M398.9,268.7h-1v1h1V268.7
				L398.9,268.7z M400.9,268.7h-1v1h1V268.7L400.9,268.7z M402.9,268.7h-1v1h1V268.7L402.9,268.7z M404.9,268.7h-1v1h1V268.7
				L404.9,268.7z M406.9,268.7h-1v1h1V268.7L406.9,268.7z M408.9,268.7h-1v1h1V268.7L408.9,268.7z M410.9,268.7h-1v1h1V268.7
				L410.9,268.7z M412.9,268.7h-1v1h1V268.7L412.9,268.7z M414.9,268.7h-1v1h1V268.7L414.9,268.7z M416.9,268.7h-1v1h1V268.7
				L416.9,268.7z M418.9,268.7h-1v1h1V268.7L418.9,268.7z M420.9,268.7h-1v1h1V268.7L420.9,268.7z M422.9,268.7h-1v1h1V268.7
				L422.9,268.7z M424.9,268.7h-1v1h1V268.7L424.9,268.7z M426.9,268.7h-1v1h1V268.7L426.9,268.7z M428.9,268.7h-1v1h1V268.7
				L428.9,268.7z M430.9,268.7h-1v1h1V268.7L430.9,268.7z M432.9,268.7h-1v1h1V268.7L432.9,268.7z M434.9,268.7h-1v1h1V268.7
				L434.9,268.7z M436.9,268.7h-1v1h1V268.7L436.9,268.7z M438.9,268.7h-1v1h1V268.7L438.9,268.7z M440.9,268.7h-1v1h1V268.7
				L440.9,268.7z M442.9,268.7h-1v1h1V268.7L442.9,268.7z M444.9,268.7h-1v1h1V268.7L444.9,268.7z M446.9,268.7h-1v1h1V268.7
				L446.9,268.7z M448.9,268.7h-1v1h1V268.7L448.9,268.7z M450.9,268.7h-1v1h1V268.7L450.9,268.7z M452.9,268.7h-1v1h1V268.7
				L452.9,268.7z M454.9,268.7h-1v1h1V268.7L454.9,268.7z M456.9,268.7h-1v1h1V268.7L456.9,268.7z M458.9,268.7h-1v1h1V268.7
				L458.9,268.7z M460.9,268.7h-1v1h1V268.7L460.9,268.7z M462.9,268.7h-1v1h1V268.7L462.9,268.7z M464.9,268.7h-1v1h1V268.7
				L464.9,268.7z M466.9,268.7h-1v1h1V268.7L466.9,268.7z M468.9,268.7h-1v1h1V268.7L468.9,268.7z M470.9,268.7h-1v1h1V268.7
				L470.9,268.7z M472.9,268.7h-1v1h1V268.7L472.9,268.7z M474.9,268.7h-1v1h1V268.7L474.9,268.7z M476.9,268.7h-1v1h1V268.7
				L476.9,268.7z M478.9,268.7h-1v1h1V268.7L478.9,268.7z M480.9,268.7h-1v1h1V268.7L480.9,268.7z M482.9,268.7h-1v1h1V268.7
				L482.9,268.7z M484.9,268.7h-1v1h1V268.7L484.9,268.7z M486.9,268.7h-1v1h1V268.7L486.9,268.7z M488.9,268.7h-1v1h1V268.7
				L488.9,268.7z M490.9,268.7h-1v1h1V268.7L490.9,268.7z M492.9,268.7h-1v1h1V268.7L492.9,268.7z M494.9,268.7h-1v1h1V268.7
				L494.9,268.7z M496.9,268.7h-1v1h1V268.7L496.9,268.7z M498.9,268.7h-1v1h1V268.7L498.9,268.7z M500.9,268.7h-1v1h1V268.7
				L500.9,268.7z M502.9,268.7h-1v1h1V268.7L502.9,268.7z M504.9,268.7h-1v1h1V268.7L504.9,268.7z M506.9,268.7h-1v1h1V268.7
				L506.9,268.7z M508.9,268.7h-1v1h1V268.7L508.9,268.7z M510.9,268.7h-1v1h1V268.7L510.9,268.7z M512.9,268.7h-1v1h1V268.7
				L512.9,268.7z M514.9,268.7h-1v1h1V268.7L514.9,268.7z M516.9,268.7h-1v1h1V268.7L516.9,268.7z M518.9,268.7h-1v1h1V268.7
				L518.9,268.7z M520.9,268.7h-1v1h1V268.7L520.9,268.7z M522.9,268.7h-1v1h1V268.7L522.9,268.7z M524.9,268.7h-1v1h1V268.7
				L524.9,268.7z M526.9,268.7h-1v1h1V268.7L526.9,268.7z M528.9,268.7h-1v1h1V268.7L528.9,268.7z M530.9,268.7h-1v1h1V268.7
				L530.9,268.7z M532.9,268.7h-1v1h1V268.7L532.9,268.7z M534.9,268.7h-1v1h1V268.7L534.9,268.7z M536.9,268.7h-1v1h1V268.7
				L536.9,268.7z M538.9,268.7h-1v1h1V268.7L538.9,268.7z M540.9,268.7h-1v1h1V268.7L540.9,268.7z M542.9,268.7h-1v1h1V268.7
				L542.9,268.7z M544.9,268.7h-1v1h1V268.7L544.9,268.7z M546.9,268.7h-1v1h1V268.7L546.9,268.7z M548.9,268.7h-1v1h1V268.7
				L548.9,268.7z M550.9,268.7h-1v1h1V268.7L550.9,268.7z M552.9,268.7h-1v1h1V268.7L552.9,268.7z M554.9,268.7h-1v1h1V268.7
				L554.9,268.7z M556.9,268.7h-1v1h1V268.7L556.9,268.7z M558.9,268.7h-1v1h1V268.7L558.9,268.7z M560.9,268.7h-1v1h1V268.7
				L560.9,268.7z M562.9,268.7h-1v1h1V268.7L562.9,268.7z M564.9,268.7h-1v1h1V268.7L564.9,268.7z M566.9,268.7h-1v1h1V268.7
				L566.9,268.7z M568.9,268.7h-1v1h1V268.7L568.9,268.7z M570.9,268.7h-1v1h1V268.7L570.9,268.7z M572.9,268.7h-1v1h1V268.7
				L572.9,268.7z M574.9,268.7h-1v1h1V268.7L574.9,268.7z M577.7,268.5h-1v0.2h-0.8v1h1v-0.2h0.8V268.5L577.7,268.5z M577.7,266.5
				h-1v1h1V266.5L577.7,266.5z M577.7,264.5h-1v1h1V264.5L577.7,264.5z M577.7,262.5h-1v1h1V262.5L577.7,262.5z M577.7,260.5h-1v1h1
				V260.5L577.7,260.5z M577.7,258.5h-1v1h1V258.5L577.7,258.5z M577.7,256.5h-1v1h1V256.5L577.7,256.5z M577.7,254.5h-1v1h1V254.5
				L577.7,254.5z M577.7,252.5h-1v1h1V252.5L577.7,252.5z M577.7,250.5h-1v1h1V250.5L577.7,250.5z M577.7,248.5h-1v1h1V248.5
				L577.7,248.5z M577.7,246.5h-1v1h1V246.5L577.7,246.5z M577.7,244.5h-1v1h1V244.5L577.7,244.5z M577.7,242.5h-1v1h1V242.5
				L577.7,242.5z M577.7,240.5h-1v1h1V240.5L577.7,240.5z M577.7,238.5h-1v1h1V238.5L577.7,238.5z M577.7,236.5h-1v1h1V236.5
				L577.7,236.5z M577.7,234.5h-1v1h1V234.5L577.7,234.5z M577.7,232.5h-1v1h1V232.5L577.7,232.5z M577.7,230.5h-1v1h1V230.5
				L577.7,230.5z M577.7,228.5h-1v1h1V228.5L577.7,228.5z M577.7,226.5h-1v1h1V226.5L577.7,226.5z M577.7,224.5h-1v1h1V224.5
				L577.7,224.5z M577.7,222.5h-1v1h1V222.5L577.7,222.5z M577.7,220.5h-1v1h1V220.5L577.7,220.5z M577.7,218.5h-1v1h1V218.5
				L577.7,218.5z M577.7,216.5h-1v1h1V216.5L577.7,216.5z M577.7,214.5h-1v1h1V214.5L577.7,214.5z M577.7,212.5h-1v1h1V212.5
				L577.7,212.5z M577.7,210.5h-1v1h1V210.5L577.7,210.5z M577.7,208.5h-1v1h1V208.5L577.7,208.5z M577.7,206.5h-1v1h1V206.5
				L577.7,206.5z M577.7,204.5h-1v1h1V204.5L577.7,204.5z M577.7,202.5h-1v1h1V202.5L577.7,202.5z M577.7,200.5h-1v1h1V200.5
				L577.7,200.5z M577.7,198.5h-1v1h1V198.5L577.7,198.5z M577.7,196.5h-1v1h1V196.5L577.7,196.5z M577.7,194.5h-1v1h1V194.5
				L577.7,194.5z M577.7,192.5h-1v1h1V192.5L577.7,192.5z M577.7,190.5h-1v1h1V190.5L577.7,190.5z M577.7,188.5h-1v1h1V188.5
				L577.7,188.5z M577.7,186.5h-1v1h1V186.5L577.7,186.5z M577.7,184.5h-1v1h1V184.5L577.7,184.5z M577.7,182.5h-1v1h1V182.5
				L577.7,182.5z M577.7,180.5h-1v1h1V180.5L577.7,180.5z M577.7,178.5h-1v1h1V178.5L577.7,178.5z M577.7,176.5h-1v1h1V176.5
				L577.7,176.5z M577.7,174.5h-1v1h1V174.5L577.7,174.5z M577.7,172.5h-1v1h1V172.5L577.7,172.5z M577.7,170.5h-1v1h1V170.5
				L577.7,170.5z M577.7,168.5h-1v1h1V168.5L577.7,168.5z M577.7,166.5h-1v1h1V166.5L577.7,166.5z M577.7,164.5h-1v1h1V164.5
				L577.7,164.5z M577.7,162.5h-1v1h1V162.5L577.7,162.5z M577.7,160.5h-1v1h1V160.5L577.7,160.5z M577.7,158.5h-1v1h1V158.5
				L577.7,158.5z M577.7,156.5h-1v1h1V156.5L577.7,156.5z M577.7,154.5h-1v1h1V154.5L577.7,154.5z M577.7,152.5h-1v1h1V152.5
				L577.7,152.5z M577.7,150.5h-1v1h1V150.5L577.7,150.5z M577.7,148.5h-1v1h1V148.5L577.7,148.5z M577.7,146.5h-1v1h1V146.5
				L577.7,146.5z M577.7,144.5h-1v1h1V144.5L577.7,144.5z M577.7,142.5h-1v1h1V142.5L577.7,142.5z M577.7,140.5h-1v1h1V140.5
				L577.7,140.5z M577.7,138.5h-1v1h1V138.5L577.7,138.5z M577.7,136.5h-1v1h1V136.5L577.7,136.5z M577.7,134.5h-1v1h1V134.5
				L577.7,134.5z M577.7,132.5h-1v1h1V132.5L577.7,132.5z M577.7,130.5h-1v1h1V130.5L577.7,130.5z M577.7,128.5h-1v1h1V128.5
				L577.7,128.5z M577.7,126.5h-1v1h1V126.5L577.7,126.5z M577.7,124.5h-1v1h1V124.5L577.7,124.5z M577.7,122.5h-1v1h1V122.5
				L577.7,122.5z M577.7,120.5h-1v1h1V120.5L577.7,120.5z M577.7,118.5h-1v1h1V118.5L577.7,118.5z M577.7,116.5h-1v1h1V116.5
				L577.7,116.5z M577.7,114.5h-1v1h1V114.5L577.7,114.5z M577.7,112.5h-1v1h1V112.5L577.7,112.5z M577.7,110.5h-1v1h1V110.5
				L577.7,110.5z M577.7,108.5h-1v1h1V108.5L577.7,108.5z M577.7,106.5h-1v1h1V106.5L577.7,106.5z M577.7,104.5h-1v1h1V104.5
				L577.7,104.5z M577.7,102.5h-1v1h1V102.5L577.7,102.5z M577.7,100.5h-1v1h1V100.5L577.7,100.5z M577.7,98.5h-1v1h1V98.5
				L577.7,98.5z M577.7,96.5h-1v1h1V96.5L577.7,96.5z M577.7,94.5h-1v1h1V94.5L577.7,94.5z M577.7,92.5h-1v1h1V92.5L577.7,92.5z
				 M577.7,90.5h-1v1h1V90.5L577.7,90.5z M577.7,88.5h-1v1h1V88.5L577.7,88.5z M577.7,86.5h-1v1h1V86.5L577.7,86.5z M577.7,84.5h-1
				v1h1V84.5L577.7,84.5z M577.7,82.5h-1v1h1V82.5L577.7,82.5z M577.7,80.5h-1v1h1V80.5L577.7,80.5z M577.7,78.5h-1v1h1V78.5
				L577.7,78.5z M577.7,76.5h-1v1h1V76.5L577.7,76.5z M577.7,74.5h-1v1h1V74.5L577.7,74.5z M577.7,72.5h-1v1h1V72.5L577.7,72.5z
				 M577.7,70.5h-1v1h1V70.5L577.7,70.5z M577.7,68.5h-1v1h1V68.5L577.7,68.5z M577.7,66.5h-1v1h1V66.5L577.7,66.5z M577.7,64.5h-1
				v1h1V64.5L577.7,64.5z M577.7,62.5h-1v1h1V62.5L577.7,62.5z M577.7,60.5h-1v1h1V60.5L577.7,60.5z M577.7,58.5h-1v1h1V58.5
				L577.7,58.5z M577.7,56.5h-1v1h1V56.5L577.7,56.5z M577.7,54.5h-1v1h1V54.5L577.7,54.5z M577.7,52.5h-1v1h1V52.5L577.7,52.5z
				 M577.7,50.5h-1v1h1V50.5L577.7,50.5z M577.7,48.5h-1v1h1V48.5L577.7,48.5z M577.7,46.5h-1v1h1V46.5L577.7,46.5z M577.7,44.5h-1
				v1h1V44.5L577.7,44.5z M577.7,42.5h-1v1h1V42.5L577.7,42.5z M577.7,40.5h-1v1h1V40.5L577.7,40.5z M577.7,38.5h-1v1h1V38.5
				L577.7,38.5z M577.7,36.5h-1v1h1V36.5L577.7,36.5z M577.7,34.5h-1v1h1V34.5L577.7,34.5z M577.7,32.5h-1v1h1V32.5L577.7,32.5z
				 M577.7,30.5h-1v1h1V30.5L577.7,30.5z M577.7,28.5h-1v1h1V28.5L577.7,28.5z M577.7,26.5h-1v1h1V26.5L577.7,26.5z M577.7,24.5h-1
				v1h1V24.5L577.7,24.5z M577.7,22.5h-1v1h1V22.5L577.7,22.5z M577.7,20.5h-1v1h1V20.5L577.7,20.5z M577.7,18.5h-1v1h1V18.5
				L577.7,18.5z M577.7,16.5h-1v1h1V16.5L577.7,16.5z M577.7,14.5h-1v1h1V14.5L577.7,14.5z M577.7,12.5h-1v1h1V12.5L577.7,12.5z
				 M577.7,10.5h-1v1h1V10.5L577.7,10.5z M577.7,8.5h-1v1h1V8.5L577.7,8.5z M577.7,6.5h-1v1h1V6.5L577.7,6.5z M577.7,4.5h-1v1h1V4.5
				L577.7,4.5z M577.7,2.5h-1v1h1V2.5L577.7,2.5z"/>
		</g>
	</g>
	<g>
		<path fill="#6E7172" d="M189.4,167.6c-0.4,0-0.8-0.1-1.2-0.2c-0.3-0.1-0.6-0.3-0.9-0.6c-0.2-0.3-0.4-0.6-0.5-0.9
			c-0.1-0.4-0.2-0.8-0.2-1.2c0-0.4,0.1-0.8,0.2-1.2c0.1-0.4,0.3-0.7,0.5-1c0.2-0.3,0.5-0.5,0.9-0.7c0.3-0.2,0.8-0.2,1.2-0.2
			c0.3,0,0.6,0,0.9,0.1c0.3,0.1,0.5,0.2,0.8,0.4c0.2,0.2,0.4,0.4,0.6,0.6c0.1,0.3,0.2,0.6,0.3,0.9h-1c-0.1-0.4-0.2-0.7-0.5-0.9
			c-0.2-0.2-0.6-0.3-1-0.3c-0.3,0-0.6,0.1-0.9,0.2c-0.2,0.1-0.4,0.3-0.6,0.5c-0.1,0.2-0.2,0.5-0.3,0.7c-0.1,0.3-0.1,0.6-0.1,0.9
			c0,0.3,0,0.5,0.1,0.8c0.1,0.3,0.2,0.5,0.3,0.7c0.1,0.2,0.3,0.4,0.5,0.5c0.2,0.1,0.5,0.2,0.8,0.2c0.5,0,0.8-0.1,1.1-0.4
			c0.3-0.2,0.4-0.6,0.5-1.1h1c-0.1,0.7-0.4,1.3-0.8,1.7C190.7,167.4,190.1,167.6,189.4,167.6z"/>
		<path fill="#6E7172" d="M193,161.6h2.7c0.3,0,0.5,0,0.7,0.1c0.2,0,0.4,0.1,0.6,0.2c0.2,0.1,0.3,0.2,0.5,0.4
			c0.1,0.2,0.2,0.4,0.2,0.7c0,0.3-0.1,0.6-0.2,0.8c-0.2,0.2-0.4,0.4-0.6,0.5v0c0.3,0.1,0.6,0.2,0.8,0.5c0.2,0.3,0.3,0.6,0.3,1
			c0,0.2,0,0.5-0.1,0.7c-0.1,0.2-0.2,0.4-0.4,0.5c-0.2,0.2-0.3,0.3-0.6,0.4c-0.2,0.1-0.5,0.1-0.7,0.1H193V161.6z M195.6,164
			c0.4,0,0.7-0.1,0.9-0.2c0.2-0.1,0.2-0.4,0.2-0.6c0-0.2-0.1-0.4-0.2-0.6c-0.2-0.1-0.5-0.2-0.9-0.2H194v1.6H195.6z M196,166.7
			c0.3,0,0.6-0.1,0.7-0.3c0.2-0.2,0.2-0.4,0.2-0.7c0-0.3-0.1-0.5-0.3-0.6c-0.2-0.2-0.5-0.2-0.9-0.2H194v1.8H196z"/>
		<path fill="#6E7172" d="M201.7,167.6c-0.5,0-0.9-0.1-1.2-0.2c-0.3-0.2-0.6-0.4-0.9-0.6c-0.2-0.3-0.4-0.6-0.5-1
			c-0.1-0.4-0.2-0.8-0.2-1.2c0-0.4,0.1-0.8,0.2-1.2c0.1-0.4,0.3-0.7,0.6-1c0.2-0.3,0.5-0.5,0.9-0.6c0.3-0.1,0.7-0.2,1.1-0.2
			c0.5,0,1,0.1,1.3,0.3c0.3,0.2,0.6,0.5,0.8,0.8c0.2,0.3,0.4,0.7,0.4,1.1c0.1,0.4,0.1,0.8,0.1,1.1h-4.4c0,0.3,0,0.5,0.1,0.7
			c0.1,0.2,0.2,0.4,0.3,0.6c0.2,0.2,0.3,0.3,0.6,0.4c0.2,0.1,0.5,0.2,0.8,0.2c0.4,0,0.7-0.1,1-0.3c0.3-0.2,0.4-0.5,0.5-0.9h1
			c-0.1,0.7-0.4,1.2-0.8,1.5C202.9,167.5,202.3,167.6,201.7,167.6z M203.2,164c0-0.2-0.1-0.4-0.1-0.6c-0.1-0.2-0.2-0.4-0.4-0.5
			c-0.1-0.1-0.3-0.3-0.5-0.4c-0.2-0.1-0.4-0.1-0.7-0.1c-0.3,0-0.5,0-0.7,0.1c-0.2,0.1-0.4,0.2-0.5,0.4c-0.1,0.2-0.3,0.3-0.3,0.5
			c-0.1,0.2-0.1,0.4-0.1,0.6H203.2z"/>
		<path fill="#6E7172" d="M206.7,162.5h-2.1v-0.9h5.2v0.9h-2.1v5h-1V162.5z"/>
		<path fill="#6E7172" d="M213,167.6c-0.5,0-0.9-0.1-1.2-0.2c-0.4-0.2-0.6-0.4-0.9-0.6c-0.2-0.3-0.4-0.6-0.5-1
			c-0.1-0.4-0.2-0.8-0.2-1.2c0-0.4,0.1-0.8,0.2-1.2c0.1-0.4,0.3-0.7,0.5-1c0.2-0.3,0.5-0.5,0.9-0.7c0.3-0.2,0.8-0.2,1.2-0.2
			c0.5,0,0.9,0.1,1.2,0.2c0.4,0.2,0.7,0.4,0.9,0.7c0.2,0.3,0.4,0.6,0.5,1c0.1,0.4,0.2,0.8,0.2,1.2c0,0.4-0.1,0.8-0.2,1.2
			c-0.1,0.4-0.3,0.7-0.5,1c-0.2,0.3-0.5,0.5-0.9,0.6C213.9,167.6,213.5,167.6,213,167.6z M213,166.8c0.2,0,0.5-0.1,0.7-0.1
			c0.2-0.1,0.4-0.2,0.6-0.4c0.2-0.2,0.3-0.4,0.4-0.7c0.1-0.3,0.1-0.6,0.1-0.9c0-0.4,0-0.7-0.1-0.9c-0.1-0.3-0.2-0.5-0.4-0.7
			c-0.2-0.2-0.4-0.3-0.6-0.4c-0.2-0.1-0.5-0.1-0.7-0.1c-0.3,0-0.5,0-0.7,0.1c-0.2,0.1-0.4,0.2-0.6,0.4c-0.2,0.2-0.3,0.4-0.4,0.7
			c-0.1,0.3-0.1,0.6-0.1,0.9c0,0.4,0,0.7,0.1,0.9c0.1,0.3,0.2,0.5,0.4,0.7c0.2,0.2,0.4,0.3,0.6,0.4
			C212.5,166.7,212.8,166.8,213,166.8z"/>
		<path fill="#6E7172" d="M216.3,166.7h0.7c0.1-0.2,0.2-0.4,0.3-0.7c0.1-0.3,0.2-0.6,0.2-0.9c0.1-0.3,0.1-0.7,0.2-1.1
			c0-0.4,0.1-0.7,0.1-1.1v-1.3h4.2v5h0.8v2.6h-0.9v-1.8h-4.6v1.8h-0.9V166.7z M221,166.7v-4.2h-2.3v0.5c0,0.4,0,0.7-0.1,1.1
			c0,0.4-0.1,0.7-0.2,1c-0.1,0.3-0.1,0.6-0.2,0.9c-0.1,0.3-0.2,0.5-0.2,0.6H221z"/>
		<path fill="#6E7172" d="M223.7,161.6h1v4.8l2.8-4.8h1.2v5.9h-1v-4.8l-2.8,4.8h-1.2V161.6z"/>
		<path fill="#6E7172" d="M232.6,167.6c-0.5,0-0.9-0.1-1.2-0.2c-0.4-0.2-0.6-0.4-0.9-0.6c-0.2-0.3-0.4-0.6-0.5-1
			c-0.1-0.4-0.2-0.8-0.2-1.2c0-0.4,0.1-0.8,0.2-1.2c0.1-0.4,0.3-0.7,0.5-1c0.2-0.3,0.5-0.5,0.9-0.7c0.4-0.2,0.8-0.2,1.2-0.2
			c0.5,0,0.9,0.1,1.2,0.2c0.4,0.2,0.7,0.4,0.9,0.7c0.2,0.3,0.4,0.6,0.5,1c0.1,0.4,0.2,0.8,0.2,1.2c0,0.4-0.1,0.8-0.2,1.2
			c-0.1,0.4-0.3,0.7-0.5,1c-0.2,0.3-0.5,0.5-0.9,0.6C233.5,167.6,233.1,167.6,232.6,167.6z M232.6,166.8c0.2,0,0.5-0.1,0.7-0.1
			c0.2-0.1,0.4-0.2,0.6-0.4c0.2-0.2,0.3-0.4,0.4-0.7c0.1-0.3,0.1-0.6,0.1-0.9c0-0.4,0-0.7-0.1-0.9c-0.1-0.3-0.2-0.5-0.4-0.7
			c-0.2-0.2-0.4-0.3-0.6-0.4c-0.2-0.1-0.5-0.1-0.7-0.1c-0.3,0-0.5,0-0.7,0.1c-0.2,0.1-0.4,0.2-0.6,0.4c-0.2,0.2-0.3,0.4-0.4,0.7
			c-0.1,0.3-0.1,0.6-0.1,0.9c0,0.4,0,0.7,0.1,0.9c0.1,0.3,0.2,0.5,0.4,0.7c0.2,0.2,0.4,0.3,0.6,0.4
			C232.2,166.7,232.4,166.8,232.6,166.8z"/>
		<path fill="#6E7172" d="M235.9,166.7h0.7c0.1-0.2,0.2-0.4,0.3-0.7c0.1-0.3,0.2-0.6,0.2-0.9c0.1-0.3,0.1-0.7,0.2-1.1
			c0-0.4,0.1-0.7,0.1-1.1v-1.3h4.2v5h0.8v2.6h-0.9v-1.8h-4.6v1.8h-0.9V166.7z M240.6,166.7v-4.2h-2.3v0.5c0,0.4,0,0.7-0.1,1.1
			c0,0.4-0.1,0.7-0.2,1c-0.1,0.3-0.1,0.6-0.2,0.9c-0.1,0.3-0.2,0.5-0.2,0.6H240.6z"/>
		<path fill="#6E7172" d="M243.3,161.6h1v2.3h3v-2.3h1v5.9h-1v-2.7h-3v2.7h-1V161.6z"/>
		<path fill="#6E7172" d="M249.7,161.6h1v2.2h1.8c0.6,0,1,0.2,1.4,0.5c0.3,0.3,0.5,0.8,0.5,1.3c0,0.6-0.2,1-0.5,1.3
			c-0.3,0.3-0.8,0.5-1.4,0.5h-2.8V161.6z M252.1,166.7c0.8,0,1.2-0.3,1.2-1c0-0.6-0.4-1-1.2-1h-1.5v1.9H252.1z M255.3,161.6h1v5.9
			h-1V161.6z"/>
		<path fill="#6E7172" d="M260.2,167.6c-0.5,0-0.9-0.1-1.2-0.2c-0.3-0.2-0.6-0.4-0.9-0.6c-0.2-0.3-0.4-0.6-0.5-1
			c-0.1-0.4-0.2-0.8-0.2-1.2c0-0.4,0.1-0.8,0.2-1.2c0.1-0.4,0.3-0.7,0.6-1c0.2-0.3,0.5-0.5,0.9-0.6c0.3-0.1,0.7-0.2,1.1-0.2
			c0.5,0,1,0.1,1.3,0.3c0.3,0.2,0.6,0.5,0.8,0.8c0.2,0.3,0.3,0.7,0.4,1.1c0.1,0.4,0.1,0.8,0.1,1.1h-4.4c0,0.3,0,0.5,0.1,0.7
			c0.1,0.2,0.2,0.4,0.3,0.6c0.2,0.2,0.3,0.3,0.6,0.4c0.2,0.1,0.5,0.2,0.8,0.2c0.4,0,0.7-0.1,1-0.3c0.3-0.2,0.4-0.5,0.5-0.9h1
			c-0.1,0.7-0.4,1.2-0.9,1.5C261.4,167.5,260.8,167.6,260.2,167.6z M261.8,164c0-0.2-0.1-0.4-0.2-0.6c-0.1-0.2-0.2-0.4-0.3-0.5
			c-0.1-0.1-0.3-0.3-0.5-0.4c-0.2-0.1-0.4-0.1-0.7-0.1c-0.2,0-0.5,0-0.7,0.1c-0.2,0.1-0.4,0.2-0.5,0.4c-0.1,0.2-0.3,0.3-0.3,0.5
			c-0.1,0.2-0.1,0.4-0.1,0.6H261.8z"/>
		<path fill="#6E7172" d="M269.4,167.6c-0.4,0-0.8-0.1-1.2-0.2c-0.3-0.1-0.6-0.3-0.9-0.6c-0.2-0.3-0.4-0.6-0.5-0.9
			c-0.1-0.4-0.2-0.8-0.2-1.2c0-0.4,0.1-0.8,0.2-1.2c0.1-0.4,0.3-0.7,0.5-1c0.2-0.3,0.5-0.5,0.9-0.7c0.3-0.2,0.7-0.2,1.2-0.2
			c0.3,0,0.6,0,0.9,0.1c0.3,0.1,0.5,0.2,0.8,0.4c0.2,0.2,0.4,0.4,0.6,0.6c0.1,0.3,0.2,0.6,0.3,0.9h-1c-0.1-0.4-0.2-0.7-0.5-0.9
			c-0.2-0.2-0.6-0.3-1-0.3c-0.3,0-0.6,0.1-0.9,0.2c-0.2,0.1-0.4,0.3-0.6,0.5c-0.1,0.2-0.2,0.5-0.3,0.7c-0.1,0.3-0.1,0.6-0.1,0.9
			c0,0.3,0,0.5,0.1,0.8c0.1,0.3,0.2,0.5,0.3,0.7c0.1,0.2,0.3,0.4,0.5,0.5c0.2,0.1,0.5,0.2,0.8,0.2c0.5,0,0.8-0.1,1.1-0.4
			c0.3-0.2,0.4-0.6,0.5-1.1h1c-0.1,0.7-0.4,1.3-0.8,1.7C270.7,167.4,270.1,167.6,269.4,167.6z"/>
		<path fill="#6E7172" d="M273,161.6h1v4.8l2.8-4.8h1.2v5.9h-1v-4.8l-2.8,4.8H273V161.6z"/>
		<path fill="#6E7172" d="M281.9,167.6c-0.4,0-0.8-0.1-1.2-0.2c-0.3-0.1-0.6-0.3-0.9-0.6c-0.2-0.3-0.4-0.6-0.5-0.9
			c-0.1-0.4-0.2-0.8-0.2-1.2c0-0.4,0.1-0.8,0.2-1.2c0.1-0.4,0.3-0.7,0.5-1c0.2-0.3,0.5-0.5,0.9-0.7c0.3-0.2,0.7-0.2,1.2-0.2
			c0.3,0,0.6,0,0.9,0.1c0.3,0.1,0.5,0.2,0.8,0.4c0.2,0.2,0.4,0.4,0.5,0.6c0.1,0.3,0.2,0.6,0.3,0.9h-1c-0.1-0.4-0.2-0.7-0.5-0.9
			c-0.2-0.2-0.6-0.3-1-0.3c-0.4,0-0.6,0.1-0.9,0.2c-0.2,0.1-0.4,0.3-0.6,0.5c-0.1,0.2-0.2,0.5-0.3,0.7c-0.1,0.3-0.1,0.6-0.1,0.9
			c0,0.3,0,0.5,0.1,0.8c0.1,0.3,0.2,0.5,0.3,0.7c0.1,0.2,0.3,0.4,0.5,0.5c0.2,0.1,0.5,0.2,0.8,0.2c0.5,0,0.8-0.1,1.1-0.4
			c0.3-0.2,0.4-0.6,0.5-1.1h1c-0.1,0.7-0.4,1.3-0.8,1.7C283.2,167.4,282.6,167.6,281.9,167.6z"/>
		<path fill="#6E7172" d="M286.9,162.5h-2.1v-0.9h5.2v0.9h-2.1v5h-1V162.5z"/>
		<path fill="#6E7172" d="M293.3,167.6c-0.5,0-0.9-0.1-1.2-0.2c-0.3-0.2-0.6-0.4-0.9-0.6c-0.2-0.3-0.4-0.6-0.5-1
			c-0.1-0.4-0.2-0.8-0.2-1.2c0-0.4,0.1-0.8,0.2-1.2c0.1-0.4,0.3-0.7,0.6-1c0.2-0.3,0.5-0.5,0.9-0.6c0.3-0.1,0.7-0.2,1.1-0.2
			c0.5,0,1,0.1,1.3,0.3c0.3,0.2,0.6,0.5,0.8,0.8c0.2,0.3,0.4,0.7,0.4,1.1c0.1,0.4,0.1,0.8,0.1,1.1h-4.4c0,0.3,0,0.5,0.1,0.7
			c0.1,0.2,0.2,0.4,0.3,0.6c0.2,0.2,0.3,0.3,0.6,0.4c0.2,0.1,0.5,0.2,0.8,0.2c0.4,0,0.7-0.1,1-0.3c0.3-0.2,0.4-0.5,0.5-0.9h0.9
			c-0.1,0.7-0.4,1.2-0.9,1.5C294.5,167.5,293.9,167.6,293.3,167.6z M294.8,164c0-0.2-0.1-0.4-0.1-0.6c-0.1-0.2-0.2-0.4-0.4-0.5
			c-0.1-0.1-0.3-0.3-0.5-0.4c-0.2-0.1-0.4-0.1-0.7-0.1c-0.2,0-0.5,0-0.7,0.1c-0.2,0.1-0.4,0.2-0.5,0.4c-0.1,0.2-0.3,0.3-0.3,0.5
			c-0.1,0.2-0.1,0.4-0.1,0.6H294.8z"/>
		<path fill="#6E7172" d="M296.9,161.6h1.4l1.8,4.8h0l1.8-4.8h1.4v5.9h-1v-4.6l-1.8,4.6h-0.9l-1.8-4.6v4.6h-1V161.6z"/>
		<path fill="#6E7172" d="M304.7,161.6h1v2.2h1.8c0.6,0,1,0.2,1.4,0.5c0.3,0.3,0.5,0.8,0.5,1.3c0,0.6-0.2,1-0.5,1.3
			c-0.3,0.3-0.8,0.5-1.4,0.5h-2.8V161.6z M307.1,166.7c0.8,0,1.2-0.3,1.2-1c0-0.6-0.4-1-1.2-1h-1.5v1.9H307.1z M310.3,161.6h1v5.9
			h-1V161.6z"/>
	</g>
	<path fill="#DDDD14" d="M211.6,145.8c-1.2,0-2.2-0.3-2.9-1c-0.7-0.7-1.1-1.8-1.1-3.3c-1.3,1.5-2.8,2.7-4.5,3.3
		c-1.7,0.7-3.6,1-5.5,1c-1.3,0-2.5-0.1-3.6-0.4c-1.1-0.3-2.1-0.7-3-1.4c-0.9-0.6-1.5-1.5-2-2.5c-0.5-1-0.7-2.2-0.7-3.7
		c0-1.6,0.3-2.9,0.8-4c0.6-1,1.3-1.9,2.2-2.5c0.9-0.6,1.9-1.1,3.1-1.5c1.2-0.3,2.3-0.6,3.6-0.8c1.3-0.3,2.5-0.4,3.7-0.6
		c1.2-0.1,2.2-0.3,3.1-0.6c0.9-0.2,1.6-0.6,2.1-1c0.5-0.5,0.8-1.1,0.8-2c0-1-0.2-1.9-0.6-2.5c-0.4-0.6-0.9-1.1-1.5-1.4
		c-0.6-0.3-1.3-0.6-2-0.7c-0.8-0.1-1.5-0.2-2.2-0.2c-2,0-3.6,0.4-5,1.1c-1.3,0.8-2,2.2-2.1,4.3h-4.7c0.1-1.8,0.4-3.3,1.1-4.5
		c0.7-1.2,1.5-2.2,2.6-2.9c1.1-0.8,2.4-1.3,3.8-1.6c1.4-0.3,2.9-0.5,4.5-0.5c1.3,0,2.6,0.1,3.8,0.3c1.3,0.2,2.4,0.6,3.4,1.1
		c1,0.6,1.9,1.4,2.5,2.4c0.6,1,0.9,2.4,0.9,4v14.7c0,1.1,0.1,1.9,0.2,2.4c0.1,0.5,0.6,0.8,1.3,0.8c0.4,0,0.9-0.1,1.4-0.3v3.6
		C214.2,145.6,213.1,145.8,211.6,145.8z M205.1,131.4c-1,0.2-2,0.4-3,0.5c-1,0.1-2.1,0.3-3.2,0.4c-1.1,0.2-2,0.4-2.9,0.8
		c-0.8,0.4-1.5,0.9-2.1,1.6c-0.5,0.7-0.8,1.6-0.8,2.8c0,0.8,0.2,1.4,0.5,2c0.3,0.5,0.7,1,1.2,1.3c0.5,0.3,1.1,0.6,1.8,0.7
		c0.7,0.1,1.4,0.2,2.1,0.2c1.5,0,2.9-0.2,4-0.6c1.1-0.4,2-1,2.7-1.6c0.7-0.6,1.2-1.3,1.5-2.1c0.3-0.8,0.5-1.5,0.5-2.1v-4.8
		C206.8,130.9,206,131.2,205.1,131.4z"/>
	<path fill="#6E7172" d="M222.7,105.8v39.4H218v-39.4H222.7z"/>
	<path fill="#6E7172" d="M248.3,143.4c-2.1,1.6-4.8,2.4-8,2.4c-2.3,0-4.3-0.4-5.9-1.1c-1.7-0.7-3.1-1.8-4.2-3.1
		c-1.1-1.3-2-2.9-2.6-4.7c-0.6-1.8-0.9-3.8-1-6c0-2.2,0.3-4.2,1-6c0.7-1.8,1.6-3.4,2.8-4.7c1.2-1.3,2.6-2.4,4.2-3.1
		c1.6-0.7,3.4-1.1,5.4-1.1c2.5,0,4.6,0.5,6.3,1.6c1.7,1,3,2.4,4,4c1,1.6,1.7,3.4,2.1,5.3c0.4,1.9,0.5,3.7,0.5,5.5h-21.3
		c0,1.2,0.1,2.4,0.4,3.6c0.3,1.1,0.9,2.1,1.6,3c0.7,0.9,1.7,1.6,2.8,2.1c1.1,0.5,2.5,0.8,4,0.8c2,0,3.6-0.5,4.9-1.4
		c1.3-0.9,2.1-2.3,2.5-4.2h4.6C251.8,139.3,250.4,141.8,248.3,143.4z M247.2,125.1c-0.4-1-1-1.8-1.7-2.6c-0.7-0.7-1.6-1.3-2.5-1.7
		c-1-0.4-2.1-0.6-3.2-0.6c-1.2,0-2.3,0.2-3.3,0.6c-1,0.4-1.8,1-2.5,1.7c-0.7,0.7-1.2,1.6-1.7,2.6c-0.4,1-0.6,2-0.7,3.1h16.4
		C247.8,127.1,247.6,126.1,247.2,125.1z"/>
	<path fill="#6E7172" d="M278.1,145.2v-3.9H278c-0.8,1.6-2,2.7-3.6,3.4c-1.6,0.7-3.5,1-5.5,1c-2.2,0-4.1-0.4-5.8-1.2
		c-1.6-0.8-3-1.9-4.1-3.3c-1.1-1.4-1.9-2.9-2.5-4.7c-0.6-1.8-0.8-3.7-0.8-5.7c0-2,0.3-3.9,0.8-5.7c0.5-1.8,1.3-3.4,2.4-4.7
		c1.1-1.3,2.4-2.4,4.1-3.2c1.6-0.8,3.5-1.2,5.7-1.2c0.7,0,1.5,0.1,2.4,0.2c0.8,0.1,1.7,0.4,2.5,0.7c0.8,0.3,1.6,0.8,2.4,1.4
		c0.8,0.6,1.4,1.3,1.9,2.1h0.1v-14.7h4.7v39.4H278.1z M261.3,135.1c0.3,1.3,0.9,2.4,1.6,3.4c0.7,1,1.6,1.8,2.8,2.4
		c1.1,0.6,2.4,0.9,3.9,0.9c1.6,0,2.9-0.3,4-0.9c1.1-0.6,2-1.4,2.7-2.5c0.7-1,1.2-2.2,1.5-3.4c0.3-1.3,0.5-2.6,0.5-3.9
		c0-1.4-0.2-2.7-0.5-4.1c-0.3-1.3-0.9-2.4-1.6-3.4c-0.7-1-1.6-1.8-2.8-2.4c-1.1-0.6-2.5-0.9-4.1-0.9c-1.6,0-2.9,0.3-4,0.9
		c-1.1,0.6-2,1.5-2.6,2.5c-0.7,1-1.1,2.2-1.4,3.5c-0.3,1.3-0.4,2.7-0.4,4.1C260.7,132.5,260.9,133.8,261.3,135.1z"/>
	<path fill="#6E7172" d="M286.6,125.1c0.6-1.8,1.5-3.4,2.6-4.7c1.2-1.3,2.6-2.4,4.4-3.2c1.7-0.8,3.7-1.2,6-1.2c2.3,0,4.3,0.4,6,1.2
		c1.7,0.8,3.2,1.8,4.3,3.2c1.2,1.3,2.1,2.9,2.6,4.7c0.6,1.8,0.9,3.8,0.9,5.9c0,2.1-0.3,4-0.9,5.8c-0.6,1.8-1.5,3.4-2.6,4.7
		c-1.2,1.3-2.6,2.4-4.3,3.1c-1.7,0.8-3.7,1.1-6,1.1c-2.2,0-4.2-0.4-6-1.1c-1.7-0.8-3.2-1.8-4.4-3.1c-1.2-1.3-2.1-2.9-2.6-4.7
		c-0.6-1.8-0.9-3.7-0.9-5.8C285.7,128.9,286,126.9,286.6,125.1z M291.4,135.6c0.5,1.3,1.1,2.5,1.9,3.4c0.8,0.9,1.8,1.6,2.8,2.1
		c1.1,0.5,2.2,0.7,3.4,0.7c1.2,0,2.4-0.2,3.4-0.7c1.1-0.5,2-1.2,2.8-2.1c0.8-0.9,1.4-2,1.9-3.4c0.5-1.3,0.7-2.9,0.7-4.6
		c0-1.7-0.2-3.3-0.7-4.6c-0.5-1.3-1.1-2.5-1.9-3.4c-0.8-0.9-1.8-1.6-2.8-2.1c-1.1-0.5-2.2-0.7-3.4-0.7c-1.2,0-2.4,0.2-3.4,0.7
		c-1.1,0.5-2,1.2-2.8,2.1c-0.8,0.9-1.4,2-1.9,3.4c-0.5,1.3-0.7,2.9-0.7,4.6C290.7,132.7,290.9,134.2,291.4,135.6z"/>
	<path fill="#DDDD14" d="M173.4,126c-2.5,0-4.6-2.1-4.6-4.6c0-2.5,2.1-4.6,4.6-4.6c2.5,0,4.6,2.1,4.6,4.6C178,124,176,126,173.4,126
		z M173.4,118.6c-1.5,0-2.8,1.3-2.8,2.8c0,1.5,1.3,2.8,2.8,2.8c1.5,0,2.8-1.2,2.8-2.8C176.2,119.9,175,118.6,173.4,118.6z"/>
	<path fill="#6E7172" d="M329.7,125.6c-2.3,0-4.1-1.9-4.1-4.1c0-2.3,1.9-4.1,4.1-4.1c2.3,0,4.1,1.9,4.1,4.1
		C333.9,123.7,332,125.6,329.7,125.6z M329.7,118.2c-1.8,0-3.2,1.5-3.2,3.2c0,1.8,1.5,3.2,3.2,3.2c1.8,0,3.2-1.5,3.2-3.2
		C333,119.6,331.5,118.2,329.7,118.2z"/>
	<path fill="#6E7172" d="M345.2,125.6c-2.3,0-4.1-1.9-4.1-4.1c0-2.3,1.9-4.1,4.1-4.1c2.3,0,4.1,1.9,4.1,4.1
		C349.4,123.7,347.5,125.6,345.2,125.6z M345.2,118.2c-1.8,0-3.2,1.5-3.2,3.2c0,1.8,1.5,3.2,3.2,3.2c1.8,0,3.2-1.5,3.2-3.2
		C348.5,119.6,347,118.2,345.2,118.2z"/>
	<path fill="#6E7172" d="M360.8,125.6c-2.3,0-4.1-1.9-4.1-4.1c0-2.3,1.9-4.1,4.1-4.1c2.3,0,4.1,1.9,4.1,4.1
		C364.9,123.7,363.1,125.6,360.8,125.6z M360.8,118.2c-1.8,0-3.2,1.5-3.2,3.2c0,1.8,1.5,3.2,3.2,3.2c1.8,0,3.2-1.5,3.2-3.2
		C364,119.6,362.6,118.2,360.8,118.2z"/>
	<path fill="#6E7172" d="M376.3,125.6c-2.3,0-4.2-1.9-4.2-4.1c0-2.3,1.9-4.1,4.2-4.1c2.3,0,4.1,1.9,4.1,4.1
		C380.4,123.7,378.6,125.6,376.3,125.6z M376.3,118.2c-1.8,0-3.2,1.5-3.2,3.2c0,1.8,1.5,3.2,3.2,3.2c1.8,0,3.2-1.5,3.2-3.2
		C379.5,119.6,378.1,118.2,376.3,118.2z"/>
	<path fill="#DDDD14" d="M47.7,125.7c-2.5,0-4.6-2.1-4.6-4.6c0-2.5,2.1-4.6,4.6-4.6c2.5,0,4.6,2.1,4.6,4.6
		C52.3,123.6,50.2,125.7,47.7,125.7z M47.7,118.3c-1.5,0-2.8,1.3-2.8,2.8c0,1.5,1.3,2.8,2.8,2.8c1.5,0,2.8-1.2,2.8-2.8
		C50.5,119.5,49.2,118.3,47.7,118.3z"/>
	<path fill="#DDDD14" d="M174,221.6c-2.5,0-4.6-2.1-4.6-4.6c0-2.5,2.1-4.6,4.6-4.6c2.5,0,4.6,2.1,4.6,4.6
		C178.6,219.5,176.5,221.6,174,221.6z M174,214.2c-1.5,0-2.8,1.3-2.8,2.8c0,1.5,1.3,2.8,2.8,2.8c1.5,0,2.8-1.2,2.8-2.8
		C176.8,215.4,175.5,214.2,174,214.2z"/>
	<path fill="#DDDD14" d="M551.4,171.4c-2.5,0-4.6-2.1-4.6-4.6c0-2.5,2.1-4.6,4.6-4.6c2.5,0,4.6,2.1,4.6,4.6
		C556,169.4,554,171.4,551.4,171.4z M551.4,164.1c-1.5,0-2.8,1.3-2.8,2.8c0,1.5,1.3,2.8,2.8,2.8c1.5,0,2.8-1.2,2.8-2.8
		C554.2,165.3,553,164.1,551.4,164.1z"/>
	<path fill="#DDDD14" d="M377.4,221.6c-2.5,0-4.6-2.1-4.6-4.6c0-2.5,2.1-4.6,4.6-4.6c2.5,0,4.6,2.1,4.6,4.6
		C382,219.5,379.9,221.6,377.4,221.6z M377.4,214.2c-1.5,0-2.8,1.3-2.8,2.8c0,1.5,1.3,2.8,2.8,2.8c1.5,0,2.8-1.2,2.8-2.8
		C380.2,215.4,378.9,214.2,377.4,214.2z"/>
	<path fill="#DDDD14" d="M377.4,170.4c-2.5,0-4.6-2.1-4.6-4.6c0-2.5,2.1-4.6,4.6-4.6c2.5,0,4.6,2.1,4.6,4.6
		C382,168.3,379.9,170.4,377.4,170.4z M377.4,163c-1.5,0-2.8,1.3-2.8,2.8c0,1.5,1.3,2.8,2.8,2.8c1.5,0,2.8-1.2,2.8-2.8
		C380.2,164.2,378.9,163,377.4,163z"/>
</g>
<g id="Capa_1">
	<path fill="#DDDD14" d="M60.2,181.5c-3.1-6.7-11.1-9.6-17.8-6.6c-6.7,3.1-9.6,11-6.6,17.8L48.1,219l12.2-26.4
		C61.8,189.3,61.9,185.1,60.2,181.5z"/>
	<g>
		<path fill="#FFFFFF" d="M53.8,192.6h-2.5l-1-2.6h-4.6l-0.9,2.6h-2.5l4.5-11.5h2.4L53.8,192.6z M49.6,188l-1.6-4.3l-1.5,4.3H49.6z"
			/>
	</g>
	<path fill="#DDDD14" d="M562.1,34.7c-3.1-6.7-11.1-9.6-17.8-6.6c-6.7,3.1-9.6,11-6.6,17.8l12.2,26.4l12.2-26.4
		C563.6,42.5,563.7,38.4,562.1,34.7z"/>
	<g>
		<path fill="#FFFFFF" d="M544.9,34.8h5.1c1,0,1.7,0,2.2,0.1c0.5,0.1,0.9,0.3,1.3,0.5c0.4,0.3,0.7,0.6,1,1.1
			c0.3,0.4,0.4,0.9,0.4,1.5c0,0.6-0.2,1.1-0.5,1.6c-0.3,0.5-0.8,0.9-1.3,1.1c0.8,0.2,1.4,0.6,1.8,1.1c0.4,0.5,0.6,1.2,0.6,1.9
			c0,0.6-0.1,1.1-0.4,1.7c-0.3,0.5-0.6,1-1.1,1.3c-0.5,0.3-1,0.5-1.7,0.6c-0.4,0-1.5,0.1-3.1,0.1h-4.3V34.8z M547.5,36.9v2.9h1.7
			c1,0,1.6,0,1.9,0c0.4-0.1,0.8-0.2,1-0.5c0.3-0.3,0.4-0.6,0.4-1c0-0.4-0.1-0.7-0.3-1c-0.2-0.2-0.5-0.4-1-0.4c-0.3,0-1,0-2.2,0
			H547.5z M547.5,42v3.4h2.4c0.9,0,1.5,0,1.8-0.1c0.4-0.1,0.7-0.2,0.9-0.5c0.2-0.3,0.4-0.6,0.4-1.1c0-0.4-0.1-0.7-0.3-1
			c-0.2-0.3-0.5-0.5-0.8-0.6c-0.3-0.1-1.1-0.2-2.3-0.2H547.5z"/>
	</g>
	<line fill="none" stroke="#979797" stroke-miterlimit="10" stroke-dasharray="1,1" x1="47.7" y1="136.8" x2="47.7" y2="166"/>
	<line fill="none" stroke="#979797" stroke-miterlimit="10" stroke-dasharray="1,1" x1="377.6" y1="174.7" x2="377.6" y2="203.9"/>
	<line fill="none" stroke="#979797" stroke-miterlimit="10" stroke-dasharray="1,1" x1="60.7" y1="122.8" x2="162.4" y2="122.8"/>
	<line fill="none" stroke="#979797" stroke-miterlimit="10" stroke-dasharray="1,1" x1="184" y1="215.8" x2="367" y2="215.8"/>
	<line fill="none" stroke="#979797" stroke-miterlimit="10" stroke-dasharray="1,1" x1="390.6" y1="167.1" x2="536.4" y2="167.1"/>
	<line fill="none" stroke="#979797" stroke-miterlimit="10" stroke-dasharray="1,1" x1="551.4" y1="81.1" x2="551.4" y2="153.8"/>
	<line fill="none" stroke="#979797" stroke-miterlimit="10" stroke-dasharray="1,1" x1="174.3" y1="140.1" x2="174.3" y2="205"/>
</g>
</svg>
