<?xml version="1.0" encoding="utf-8"?>
<!-- Generator: Adobe Illustrator 16.0.0, SVG Export Plug-In . SVG Version: 6.00 Build 0)  -->
<!DOCTYPE svg PUBLIC "-//W3C//DTD SVG 1.1//EN" "http://www.w3.org/Graphics/SVG/1.1/DTD/svg11.dtd">
<svg version="1.1" id="Layer_1" xmlns="http://www.w3.org/2000/svg" xmlns:xlink="http://www.w3.org/1999/xlink" x="0px" y="0px"
	 width="35px" height="35px" viewBox="0 0 35 35" enable-background="new 0 0 35 35" xml:space="preserve">
<path fill="#BCBCBC" d="M35,29.119C35,32.353,32.354,35,29.117,35H5.88C2.646,35,0,32.353,0,29.119V5.883C0,2.647,2.646,0,5.88,0
	h23.237C32.354,0,35,2.647,35,5.883V29.119z"/>
<g>
	<path fill="#4A5993" d="M27.156,18.666c-0.957-0.93-1.639-1.542-3.281-1.838v-0.12c1.166-0.471,2.074-1.126,2.711-1.971
		c0.637-0.841,0.961-1.814,0.961-2.916c0-0.947-0.23-1.792-0.701-2.534c-0.467-0.738-1.172-1.332-2.125-1.768
		c-0.922-0.42-1.854-0.688-2.789-0.81c-0.938-0.124-3.035-0.184-5.057-0.184h-9.73v22.794h10.944c1.814,0,3.322-0.142,4.506-0.427
		c1.184-0.29,2.27-0.771,3.26-1.438c0.852-0.575,1.521-1.29,2.012-2.161c0.488-0.87,0.729-1.85,0.729-2.954
		C28.594,20.821,28.117,19.596,27.156,18.666z M13.949,11.063h2.789c0.971,0,1.774,0.106,2.403,0.316
		c0.729,0.304,1.094,0.929,1.094,1.876c0,0.856-0.277,1.453-0.828,1.788c-0.549,0.336-1.268,0.504-2.151,0.504h-3.307V11.063z
		 M19.768,24.432c-0.49,0.239-1.18,0.358-2.061,0.358h-3.758v-5.423h3.829c0.871,0.012,1.549,0.127,2.029,0.347
		c0.865,0.396,1.297,1.122,1.297,2.181C21.104,23.145,20.658,23.991,19.768,24.432z"/>
</g>
</svg>
