<?xml version="1.0" encoding="utf-8"?>
<!-- Generator: Adobe Illustrator 17.1.0, SVG Export Plug-In . SVG Version: 6.00 Build 0)  -->
<!DOCTYPE svg PUBLIC "-//W3C//DTD SVG 1.1//EN" "http://www.w3.org/Graphics/SVG/1.1/DTD/svg11.dtd">
<svg version="1.1" id="Layer_1" xmlns="http://www.w3.org/2000/svg" xmlns:xlink="http://www.w3.org/1999/xlink" x="0px" y="0px"
	width="155px" height="60px" viewBox="0 0 155 60" enable-background="new 0 0 155 60" xml:space="preserve">
<rect x="31.7" y="0" fill="#A0A0A0" width="2.8" height="23.3"/>
<path fill="#A0A0A0" d="M50.4,22.2c-1.3,1-2.8,1.4-4.8,1.4c-1.3,0-2.5-0.2-3.5-0.7c-1-0.4-1.8-1-2.5-1.8c-0.7-0.8-1.2-1.7-1.5-2.8
	c-0.3-1.1-0.5-2.3-0.6-3.5c0-1.3,0.2-2.5,0.6-3.5c0.4-1.1,0.9-2,1.7-2.8c0.7-0.8,1.5-1.4,2.5-1.8c1-0.4,2-0.6,3.2-0.6
	c1.5,0,2.8,0.3,3.7,0.9c1,0.6,1.8,1.4,2.4,2.4c0.6,1,1,2,1.2,3.1c0.2,1.1,0.3,2.2,0.3,3.2H40.5c0,0.7,0.1,1.4,0.3,2.1
	c0.2,0.7,0.5,1.3,0.9,1.8c0.4,0.5,1,0.9,1.7,1.2c0.7,0.3,1.5,0.5,2.4,0.5c1.2,0,2.1-0.3,2.9-0.8c0.8-0.5,1.2-1.4,1.5-2.5h2.7
	C52.5,19.8,51.7,21.2,50.4,22.2 M49.7,11.4c-0.3-0.6-0.6-1.1-1-1.5c-0.4-0.4-0.9-0.8-1.5-1c-0.6-0.2-1.2-0.4-1.9-0.4
	c-0.7,0-1.4,0.1-1.9,0.4c-0.6,0.3-1.1,0.6-1.5,1c-0.4,0.4-0.7,0.9-1,1.5c-0.2,0.6-0.4,1.2-0.4,1.8h9.7C50.1,12.6,50,12,49.7,11.4"/>
<path fill="#A0A0A0" d="M68.6,23.3V21h-0.1c-0.5,0.9-1.2,1.6-2.2,2c-1,0.4-2,0.6-3.2,0.6c-1.3,0-2.4-0.2-3.4-0.7
	c-1-0.5-1.8-1.1-2.4-1.9c-0.6-0.8-1.1-1.7-1.5-2.8c-0.3-1.1-0.5-2.2-0.5-3.4c0-1.2,0.2-2.3,0.5-3.4c0.3-1.1,0.8-2,1.4-2.8
	c0.7-0.8,1.4-1.4,2.4-1.9c1-0.5,2.1-0.7,3.4-0.7c0.4,0,0.9,0,1.4,0.1c0.5,0.1,1,0.2,1.5,0.4c0.5,0.2,1,0.5,1.4,0.8
	c0.4,0.3,0.8,0.8,1.1,1.3h0.1V0h2.8v23.3H68.6z M58.7,17.3c0.2,0.7,0.5,1.4,0.9,2c0.4,0.6,1,1.1,1.6,1.4c0.7,0.3,1.4,0.5,2.3,0.5
	c0.9,0,1.7-0.2,2.4-0.6c0.7-0.4,1.2-0.9,1.6-1.4c0.4-0.6,0.7-1.3,0.9-2c0.2-0.8,0.3-1.5,0.3-2.3c0-0.8-0.1-1.6-0.3-2.4
	c-0.2-0.8-0.5-1.5-0.9-2c-0.4-0.6-1-1-1.6-1.4c-0.7-0.4-1.5-0.5-2.4-0.5c-0.9,0-1.7,0.2-2.4,0.5c-0.6,0.4-1.2,0.9-1.6,1.5
	c-0.4,0.6-0.7,1.3-0.8,2.1c-0.2,0.8-0.3,1.6-0.3,2.4C58.3,15.8,58.4,16.5,58.7,17.3"/>
<polygon fill="#A0A0A0" points="13.7,6.2 12.3,6.2 0.9,15.7 0.9,0 0,0 0,23.3 0.9,23.3 0.9,16.9 5.1,13.4 12.9,23.2 12.9,23.3 
	14.1,23.3 5.8,12.8 "/>
<path fill="#A0A0A0" d="M28.9,22.4c-0.2,0-0.5,0-0.7-0.1c-0.2-0.1-0.3-0.1-0.4-0.3c-0.1-0.1-0.2-0.3-0.2-0.6V10.8
	c0-0.9-0.2-1.7-0.5-2.3c-0.3-0.6-0.7-1.1-1.2-1.5c-0.5-0.4-1.1-0.7-1.8-0.8c-0.7-0.2-1.4-0.2-2.1-0.2c-1,0-2,0.1-2.8,0.4
	c-0.8,0.3-1.5,0.7-2,1.2c-0.5,0.5-1,1.1-1.2,1.8c-0.3,0.7-0.5,1.5-0.5,2.3l0,0.1h0.9l0-0.1C16.5,10.1,17,8.9,18,8
	c1-0.8,2.3-1.3,4-1.3c1.1,0,2,0.1,2.6,0.4c0.6,0.3,1.1,0.7,1.4,1.1c0.3,0.4,0.5,0.9,0.6,1.4c0.1,0.5,0.1,1,0.1,1.5
	c0,0.6-0.1,1.1-0.4,1.4c-0.2,0.3-0.6,0.5-1.1,0.7c-0.5,0.1-1.2,0.3-2,0.3c-0.8,0-1.8,0.1-3,0.2c-0.7,0.1-1.4,0.1-2.1,0.3
	c-0.7,0.2-1.3,0.4-1.9,0.8c-0.6,0.4-1,0.9-1.4,1.5c-0.3,0.7-0.5,1.5-0.5,2.6c0,1.5,0.5,2.7,1.6,3.5c1,0.8,2.4,1.2,4.2,1.2
	c0.9,0,1.7-0.1,2.4-0.3c0.8-0.2,1.4-0.6,2-1c0.6-0.4,1.1-0.8,1.5-1.4c0.3-0.3,0.5-0.7,0.6-1.1v1.6c0,0.7,0.2,1.1,0.6,1.4
	c0.4,0.2,0.8,0.4,1.3,0.4h1.1v-1l-0.2,0C29.4,22.4,29.2,22.4,28.9,22.4 M26.7,13.6v2.8c0,0.8-0.2,1.6-0.4,2.4
	c-0.3,0.7-0.7,1.4-1.3,2c-0.6,0.6-1.3,1.1-2.1,1.4c-0.8,0.4-1.8,0.5-2.8,0.5c-0.9,0-1.6-0.1-2.3-0.3c-0.6-0.2-1.1-0.5-1.5-0.9
	c-0.4-0.4-0.6-0.7-0.8-1.2c-0.2-0.5-0.2-0.9-0.2-1.4c0-0.9,0.1-1.6,0.4-2.1c0.3-0.5,0.6-1,1.1-1.2c0.5-0.3,1-0.5,1.6-0.6
	c0.6-0.1,1.2-0.2,1.9-0.2c0.7,0,1.3-0.1,2-0.1c0.7,0,1.3-0.1,1.9-0.2c0.6-0.1,1.1-0.2,1.6-0.4C26.2,14,26.5,13.8,26.7,13.6"/>
<path fill="#A0A0A0" d="M87.7,8.6c-0.7-0.8-1.5-1.5-2.4-2c-1-0.5-2.1-0.8-3.3-0.8c-1.3,0-2.4,0.3-3.3,0.8c-0.9,0.5-1.8,1.2-2.4,2
	c-0.6,0.8-1.1,1.8-1.5,2.8c-0.3,1.1-0.5,2.2-0.5,3.3c0,1.1,0.2,2.3,0.5,3.3c0.3,1.1,0.8,2,1.5,2.8c0.7,0.8,1.5,1.5,2.4,2
	c0.9,0.5,2.1,0.7,3.3,0.7c1.3,0,2.4-0.2,3.3-0.7c1-0.5,1.8-1.1,2.4-2c0.6-0.8,1.1-1.8,1.5-2.8c0.3-1.1,0.5-2.2,0.5-3.3
	c0-1.2-0.2-2.3-0.5-3.3C88.9,10.3,88.4,9.4,87.7,8.6 M82,22.7c-1.1,0-2.1-0.2-2.9-0.6c-0.9-0.4-1.5-1-2.1-1.8
	c-0.6-0.7-1-1.6-1.3-2.5c-0.3-1-0.4-2-0.4-3c0-1,0.1-2,0.4-3c0.3-1,0.7-1.8,1.3-2.5c0.6-0.7,1.3-1.3,2.1-1.8C79.9,7,80.9,6.8,82,6.8
	c1.1,0,2.1,0.2,2.9,0.7c0.8,0.5,1.6,1,2.1,1.8c0.6,0.7,1,1.6,1.3,2.5c0.3,1,0.4,2,0.4,3c0,1-0.2,2.1-0.4,3c-0.3,0.9-0.7,1.8-1.3,2.5
	c-0.6,0.7-1.3,1.3-2.1,1.8C84.1,22.5,83.1,22.7,82,22.7"/>
<path fill="#A0A0A0" d="M102.7,15.5c-0.5-0.3-1.1-0.6-1.8-0.8c-0.6-0.2-1.3-0.4-1.9-0.5c-0.9-0.2-1.7-0.4-2.4-0.6
	c-0.7-0.2-1.3-0.4-1.9-0.6c-0.5-0.2-1-0.6-1.3-1c-0.3-0.4-0.5-1-0.5-1.8c0-0.1,0-0.4,0.1-0.8c0.1-0.4,0.3-0.7,0.6-1.1
	c0.3-0.4,0.8-0.7,1.5-1c0.7-0.3,1.6-0.5,2.7-0.5c0.8,0,1.5,0.1,2.2,0.3c0.6,0.2,1.2,0.4,1.7,0.8c0.5,0.4,0.8,0.8,1.1,1.4
	c0.3,0.6,0.4,1.3,0.4,2.1v0.1h0.9v-0.1c0-1.9-0.6-3.3-1.7-4.2c-1.1-0.9-2.6-1.3-4.5-1.3c-1,0-2,0.1-2.7,0.4c-0.7,0.3-1.3,0.6-1.8,1
	c-0.5,0.4-0.8,0.9-1,1.4c-0.2,0.5-0.3,1-0.3,1.5c0,0.9,0.2,1.7,0.5,2.3c0.3,0.6,0.9,1,1.6,1.3c0.5,0.2,1,0.4,1.6,0.6
	c0.6,0.2,1.3,0.4,2.1,0.6c0.7,0.2,1.4,0.3,2.1,0.5c0.7,0.2,1.3,0.4,1.8,0.7c0.5,0.3,0.9,0.6,1.3,1.1c0.3,0.4,0.5,1,0.5,1.7
	c0,0.7-0.2,1.3-0.5,1.7c-0.3,0.5-0.7,0.9-1.2,1.2c-0.5,0.3-1.1,0.5-1.7,0.7c-0.6,0.1-1.2,0.2-1.9,0.2c-1.9,0-3.4-0.4-4.5-1.3
	c-1-0.8-1.5-2.2-1.5-4v-0.1h-0.9v0.1c0,2.2,0.6,3.7,1.8,4.7c1.2,1,2.9,1.5,5.2,1.5c0.7,0,1.5-0.1,2.2-0.2c0.7-0.2,1.4-0.4,2-0.8
	c0.6-0.4,1.1-0.9,1.4-1.5c0.4-0.6,0.6-1.4,0.6-2.2c0-0.8-0.2-1.5-0.5-2C103.6,16.3,103.2,15.9,102.7,15.5"/>
<path fill="#A0A0A0" d="M120.1,17.4c-0.1,0.8-0.3,1.6-0.6,2.2c-0.3,0.6-0.8,1.2-1.3,1.7c-0.5,0.5-1.2,0.8-1.9,1.1
	c-0.7,0.2-1.5,0.4-2.3,0.4c-1.1,0-2-0.2-2.9-0.6c-0.8-0.4-1.5-1-2.1-1.7c-0.5-0.7-1-1.5-1.3-2.4c-0.3-0.9-0.4-1.9-0.4-2.9
	c0-1,0.1-2,0.4-2.9c0.2-1,0.7-1.9,1.2-2.7c0.5-0.8,1.3-1.4,2.2-1.9c0.9-0.5,2-0.7,3.3-0.7c0.7,0,1.3,0.1,1.9,0.3
	c0.6,0.2,1.2,0.5,1.6,0.9c0.5,0.4,0.9,0.9,1.2,1.5c0.3,0.6,0.6,1.3,0.7,2.1l0,0.1h0.9l0-0.2c-0.1-0.9-0.4-1.7-0.7-2.4
	c-0.4-0.7-0.9-1.3-1.4-1.7c-0.6-0.5-1.2-0.8-2-1.1c-0.7-0.2-1.5-0.4-2.3-0.4c-1.3,0-2.5,0.3-3.5,0.8c-1,0.5-1.8,1.2-2.5,2
	c-0.7,0.8-1.1,1.8-1.5,2.9c-0.3,1.1-0.5,2.3-0.5,3.5c0,1.2,0.2,2.3,0.5,3.3c0.3,1,0.8,1.9,1.5,2.7c0.6,0.8,1.4,1.4,2.4,1.8
	c0.9,0.5,2,0.7,3.2,0.7c1,0,1.9-0.1,2.7-0.4c0.8-0.3,1.5-0.7,2.1-1.2c0.6-0.5,1.1-1.2,1.5-2c0.4-0.8,0.6-1.6,0.7-2.6l0-0.1h-0.9
	L120.1,17.4z"/>
<path fill="#A0A0A0" d="M136,8.6c-0.6-0.8-1.5-1.5-2.4-2c-0.9-0.5-2-0.8-3.3-0.8c-1.3,0-2.4,0.3-3.3,0.8c-1,0.5-1.8,1.2-2.4,2
	c-0.6,0.8-1.1,1.8-1.5,2.8c-0.3,1.1-0.5,2.2-0.5,3.3c0,1.1,0.2,2.3,0.5,3.3c0.3,1.1,0.8,2,1.5,2.8c0.7,0.8,1.5,1.5,2.4,2
	c1,0.5,2.1,0.7,3.3,0.7c1.3,0,2.4-0.2,3.3-0.7c1-0.5,1.8-1.1,2.4-2c0.7-0.8,1.1-1.8,1.5-2.8c0.3-1.1,0.5-2.2,0.5-3.3
	c0-1.2-0.2-2.3-0.5-3.3C137.2,10.3,136.7,9.4,136,8.6 M130.3,22.7c-1.1,0-2.1-0.2-2.9-0.6c-0.8-0.4-1.6-1-2.1-1.8
	c-0.6-0.7-1-1.6-1.3-2.5c-0.3-1-0.4-2-0.4-3c0-1,0.1-2,0.4-3c0.3-1,0.7-1.8,1.3-2.5c0.6-0.7,1.3-1.3,2.1-1.8
	c0.8-0.4,1.8-0.7,2.9-0.7c1.1,0,2.1,0.2,2.9,0.7c0.8,0.5,1.5,1,2.1,1.8c0.6,0.7,1,1.6,1.3,2.5c0.3,1,0.4,2,0.4,3c0,1-0.1,2.1-0.4,3
	c-0.3,0.9-0.7,1.8-1.3,2.5c-0.6,0.7-1.3,1.3-2.1,1.8C132.4,22.5,131.4,22.7,130.3,22.7"/>
<path fill="#A0A0A0" d="M154.8,11.2c-0.3-1.1-0.8-2-1.4-2.8c-0.6-0.8-1.4-1.4-2.3-1.9c-0.9-0.4-1.9-0.7-3-0.7
	c-0.9,0-1.7,0.1-2.4,0.4c-0.7,0.2-1.4,0.6-2,1.1c-0.6,0.5-1.1,1-1.5,1.6c-0.3,0.5-0.6,0.9-0.8,1.5V6.2h-0.9V29h0.9v-9.8
	c0.4,1.2,1.2,2.3,2.1,3c1.2,0.9,2.7,1.4,4.5,1.4c1.2,0,2.2-0.2,3.1-0.7c0.9-0.5,1.7-1.1,2.3-1.9c0.6-0.8,1.1-1.8,1.4-2.9
	c0.3-1.1,0.5-2.2,0.5-3.4C155.3,13.5,155.1,12.3,154.8,11.2 M154.3,14.7c0,1-0.1,1.9-0.4,2.9c-0.3,0.9-0.6,1.8-1.1,2.6
	c-0.5,0.8-1.2,1.4-2,1.9c-0.8,0.5-1.8,0.7-2.9,0.7c-2,0-3.6-0.7-4.8-2c-1.2-1.4-1.8-3.4-1.8-6c0-1.1,0.1-2.1,0.5-3.1
	c0.3-1,0.7-1.8,1.3-2.5c0.6-0.7,1.3-1.3,2.1-1.7C146,7,147,6.8,148,6.8c1.1,0,2,0.2,2.8,0.6c0.8,0.4,1.5,1,2,1.7
	c0.5,0.7,0.9,1.6,1.2,2.5C154.2,12.6,154.3,13.7,154.3,14.7"/>
<g enable-background="new    ">
	<path fill="#A0A0A0" d="M5.3,54.3c-0.1-0.6-0.3-1-0.6-1.4c-0.3-0.4-0.7-0.5-1.2-0.5c-0.9,0-1.4,0.4-1.5,1.3l-1.1-0.2
		C1,52.9,1.2,52.4,1.7,52s1-0.6,1.8-0.6c0.9,0,1.6,0.3,2.1,0.9c0.5,0.6,0.8,1.4,0.8,2.5c0,1-0.2,1.9-0.7,2.5
		c-0.5,0.6-1.2,0.9-2.1,0.9c-0.8,0-1.4-0.2-1.9-0.7c-0.5-0.4-0.8-1-0.9-1.7l1.1-0.1c0.2,1.1,0.7,1.6,1.6,1.6c0.5,0,0.9-0.2,1.2-0.5
		c0.3-0.4,0.5-0.9,0.5-1.6H3v-0.9H5.3z"/>
	<path fill="#A0A0A0" d="M7.7,51.6h1.1v2.8c0.4,0,0.6-0.1,0.7-0.2c0.1-0.1,0.3-0.5,0.6-1.2c0.2-0.5,0.4-0.9,0.5-1
		c0.1-0.2,0.3-0.3,0.5-0.3s0.5-0.1,0.8-0.1h0.2v0.9l-0.3,0c-0.3,0-0.5,0-0.6,0.1c-0.1,0.1-0.2,0.4-0.4,0.8c-0.2,0.4-0.3,0.7-0.5,0.9
		c-0.1,0.2-0.4,0.3-0.6,0.4c0.5,0.1,0.9,0.6,1.4,1.3l1.2,2h-1.2L10,56c-0.2-0.4-0.4-0.7-0.6-0.8c-0.2-0.1-0.4-0.2-0.6-0.2v3H7.7
		V51.6z"/>
	<path fill="#A0A0A0" d="M17.5,55.7l1.1,0.1c-0.1,0.7-0.4,1.3-0.9,1.7s-1.1,0.6-1.8,0.6c-0.9,0-1.6-0.3-2.1-0.9
		c-0.5-0.6-0.8-1.4-0.8-2.5c0-0.7,0.1-1.3,0.3-1.8c0.2-0.5,0.6-0.9,1.1-1.2c0.5-0.3,1-0.4,1.5-0.4c0.7,0,1.3,0.2,1.7,0.5
		c0.4,0.4,0.7,0.9,0.9,1.5l-1.1,0.2c-0.1-0.4-0.3-0.8-0.5-1s-0.6-0.3-0.9-0.3c-0.6,0-1,0.2-1.3,0.6s-0.5,1-0.5,1.9
		c0,0.9,0.2,1.5,0.5,1.9c0.3,0.4,0.8,0.6,1.3,0.6c0.4,0,0.8-0.1,1.1-0.4S17.4,56.2,17.5,55.7z"/>
	<path fill="#A0A0A0" d="M19.5,51.6h1.1v2.8c0.4,0,0.6-0.1,0.7-0.2c0.1-0.1,0.3-0.5,0.6-1.2c0.2-0.5,0.4-0.9,0.5-1
		c0.1-0.2,0.3-0.3,0.5-0.3s0.5-0.1,0.8-0.1H24v0.9l-0.3,0c-0.3,0-0.5,0-0.6,0.1c-0.1,0.1-0.2,0.4-0.4,0.8c-0.2,0.4-0.3,0.7-0.5,0.9
		c-0.1,0.2-0.4,0.3-0.6,0.4c0.5,0.1,0.9,0.6,1.4,1.3l1.2,2h-1.2l-1.2-2c-0.2-0.4-0.4-0.7-0.6-0.8c-0.2-0.1-0.4-0.2-0.6-0.2v3h-1.1
		V51.6z"/>
	<path fill="#A0A0A0" d="M25.7,51.6h5.1v6.5h-1.1v-5.6h-2.9v3.2c0,0.8,0,1.2-0.1,1.5s-0.2,0.4-0.4,0.6c-0.2,0.2-0.5,0.3-1,0.3
		c-0.3,0-0.6,0-0.9,0v-0.9h0.5c0.2,0,0.4,0,0.5-0.1c0.1,0,0.2-0.1,0.2-0.2c0-0.1,0-0.4,0-1V51.6z"/>
	<path fill="#A0A0A0" d="M32.4,51.6h1.1v2.7h1.3c0.1-0.9,0.4-1.6,0.9-2.1c0.5-0.5,1.1-0.7,1.9-0.7c0.7,0,1.2,0.1,1.6,0.4
		c0.4,0.3,0.7,0.6,0.9,1.1c0.2,0.5,0.4,1.1,0.4,1.9c0,1.1-0.3,2-0.8,2.5c-0.5,0.6-1.2,0.9-2.1,0.9c-0.8,0-1.5-0.3-1.9-0.8
		s-0.8-1.3-0.8-2.2h-1.3v2.9h-1.1V51.6z M37.7,52.4c-0.5,0-1,0.2-1.3,0.6c-0.3,0.4-0.4,1-0.4,1.7c0,0.9,0.2,1.5,0.5,2
		c0.3,0.4,0.7,0.6,1.2,0.6c0.5,0,0.9-0.2,1.2-0.6c0.3-0.4,0.5-1,0.5-1.9c0-0.8-0.1-1.5-0.4-1.9C38.7,52.6,38.2,52.4,37.7,52.4z"/>
	<path fill="#A0A0A0" d="M43.2,55.1v-0.9c0.5,0,0.8,0,0.9-0.1c0.2,0,0.3-0.1,0.5-0.3c0.2-0.2,0.2-0.4,0.2-0.6c0-0.3-0.1-0.5-0.3-0.7
		c-0.2-0.2-0.5-0.3-0.8-0.3c-0.6,0-1.1,0.4-1.3,1.1l-1-0.2c0.3-1.2,1.1-1.8,2.4-1.8c0.7,0,1.2,0.2,1.6,0.6c0.4,0.4,0.6,0.8,0.6,1.4
		c0,0.5-0.3,1-0.8,1.3c0.3,0.2,0.6,0.4,0.7,0.7c0.2,0.3,0.2,0.6,0.2,1c0,0.6-0.2,1.1-0.6,1.4s-1,0.5-1.8,0.5c-1.5,0-2.3-0.7-2.6-2
		l1-0.2c0.1,0.4,0.3,0.7,0.6,1c0.3,0.2,0.6,0.3,1,0.3s0.7-0.1,0.9-0.3c0.2-0.2,0.4-0.5,0.4-0.8c0-0.3-0.1-0.5-0.2-0.7
		s-0.3-0.3-0.5-0.4c-0.2,0-0.5-0.1-1-0.1C43.5,55.1,43.4,55.1,43.2,55.1z"/>
	<path fill="#A0A0A0" d="M47.5,51.6h1.1v4.9l3-4.9h1.2v6.5h-1.1v-4.9l-3,4.9h-1.2V51.6z"/>
	<path fill="#A0A0A0" d="M54.5,51.6h2.5c0.6,0,1.1,0.1,1.4,0.2s0.6,0.3,0.8,0.6c0.2,0.3,0.3,0.6,0.3,1c0,0.3-0.1,0.6-0.2,0.8
		c-0.1,0.2-0.3,0.4-0.6,0.6c0.3,0.1,0.6,0.3,0.8,0.6c0.2,0.3,0.3,0.6,0.3,1c0,0.6-0.3,1.1-0.7,1.4s-1,0.4-1.7,0.4h-2.9V51.6z
		 M55.6,54.3h1.2c0.5,0,0.8,0,1-0.1s0.3-0.1,0.5-0.3c0.1-0.1,0.2-0.3,0.2-0.5c0-0.3-0.1-0.6-0.4-0.7c-0.2-0.1-0.7-0.2-1.2-0.2h-1.2
		V54.3z M55.6,57.1h1.4c0.6,0,1-0.1,1.3-0.2c0.2-0.1,0.4-0.4,0.4-0.7c0-0.2-0.1-0.4-0.2-0.6s-0.3-0.3-0.5-0.3s-0.6-0.1-1-0.1h-1.3
		V57.1z"/>
	<path fill="#A0A0A0" d="M61.2,51.6h1.1v2.7h3v-2.7h1.1v6.5h-1.1v-2.9h-3v2.9h-1.1V51.6z"/>
	<path fill="#A0A0A0" d="M68.1,51.6h1.1v2.5h1.4c0.9,0,1.6,0.2,2.1,0.5s0.7,0.8,0.7,1.5c0,0.5-0.2,1-0.6,1.4c-0.4,0.4-1.1,0.6-2,0.6
		h-2.7V51.6z M69.2,57.1h1.2c0.7,0,1.2-0.1,1.5-0.3c0.3-0.2,0.4-0.4,0.4-0.8c0-0.3-0.1-0.5-0.3-0.8S71.2,55,70.5,55h-1.3V57.1z
		 M74.2,51.6h1.1v6.5h-1.1V51.6z"/>
	<path fill="#A0A0A0" d="M77.1,51.6h1.1v4.9l3-4.9h1.2v6.5h-1.1v-4.9l-3,4.9h-1.2V51.6z M80.9,49.1h0.8c-0.1,0.5-0.2,0.9-0.6,1.2
		c-0.3,0.3-0.7,0.4-1.2,0.4c-0.5,0-0.9-0.1-1.2-0.4c-0.3-0.3-0.5-0.7-0.6-1.2h0.8c0.1,0.3,0.2,0.5,0.3,0.6c0.2,0.1,0.4,0.2,0.7,0.2
		c0.3,0,0.6-0.1,0.7-0.2C80.7,49.6,80.8,49.4,80.9,49.1z"/>
	<path fill="#A0A0A0" d="M91.7,55.7l1.1,0.1c-0.1,0.7-0.4,1.3-0.9,1.7s-1.1,0.6-1.8,0.6c-0.9,0-1.6-0.3-2.1-0.9
		c-0.5-0.6-0.8-1.4-0.8-2.5c0-0.7,0.1-1.3,0.3-1.8s0.6-0.9,1.1-1.2c0.5-0.3,1-0.4,1.5-0.4c0.7,0,1.3,0.2,1.7,0.5
		c0.4,0.4,0.7,0.9,0.9,1.5l-1.1,0.2c-0.1-0.4-0.3-0.8-0.5-1c-0.3-0.2-0.6-0.3-0.9-0.3c-0.6,0-1,0.2-1.3,0.6s-0.5,1-0.5,1.9
		c0,0.9,0.2,1.5,0.5,1.9s0.8,0.6,1.3,0.6c0.4,0,0.8-0.1,1.1-0.4S91.7,56.2,91.7,55.7z"/>
	<path fill="#A0A0A0" d="M93.8,51.6h2.5c0.6,0,1.1,0.1,1.4,0.2s0.6,0.3,0.8,0.6c0.2,0.3,0.3,0.6,0.3,1c0,0.3-0.1,0.6-0.2,0.8
		c-0.1,0.2-0.3,0.4-0.6,0.6c0.3,0.1,0.6,0.3,0.8,0.6c0.2,0.3,0.3,0.6,0.3,1c0,0.6-0.3,1.1-0.7,1.4c-0.4,0.3-1,0.4-1.7,0.4h-2.9V51.6
		z M94.9,54.3H96c0.5,0,0.8,0,1-0.1s0.3-0.1,0.5-0.3c0.1-0.1,0.2-0.3,0.2-0.5c0-0.3-0.1-0.6-0.4-0.7s-0.7-0.2-1.2-0.2h-1.2V54.3z
		 M94.9,57.1h1.4c0.6,0,1-0.1,1.3-0.2s0.4-0.4,0.4-0.7c0-0.2-0.1-0.4-0.2-0.6s-0.3-0.3-0.5-0.3c-0.2,0-0.6-0.1-1-0.1h-1.3V57.1z"/>
	<path fill="#A0A0A0" d="M104.7,56l1.1,0.1c-0.2,0.7-0.5,1.2-1,1.5c-0.5,0.4-1.1,0.5-1.9,0.5c-0.9,0-1.7-0.3-2.3-0.9
		c-0.6-0.6-0.8-1.4-0.8-2.5c0-1.1,0.3-1.9,0.8-2.5c0.6-0.6,1.3-0.9,2.2-0.9c0.9,0,1.6,0.3,2.1,0.9c0.5,0.6,0.8,1.4,0.8,2.5
		c0,0.1,0,0.2,0,0.3H101c0,0.7,0.2,1.3,0.6,1.6c0.4,0.4,0.8,0.6,1.4,0.6c0.4,0,0.7-0.1,1-0.3S104.5,56.4,104.7,56z M101.1,54.2h3.6
		c0-0.5-0.2-1-0.4-1.2c-0.4-0.4-0.8-0.6-1.4-0.6c-0.5,0-0.9,0.2-1.3,0.5S101.1,53.6,101.1,54.2z"/>
	<path fill="#A0A0A0" d="M106.2,51.6h5.3v0.9h-2.1v5.6h-1.1v-5.6h-2.1V51.6z"/>
</g>
<line fill="none" x1="153.3" y1="55.4" x2="138.3" y2="55.4"/>
<line fill="none" stroke="#FFFFFF" stroke-miterlimit="10" stroke-dasharray="1,1" x1="153.3" y1="55.4" x2="138.3" y2="55.4"/>
<polyline fill="#A0A0A0" points="148.5,60.2 153.3,55.4 148.5,50.6 "/>
<polyline fill="none" stroke="#FFFFFF" stroke-width="1.001" stroke-miterlimit="10" points="148.5,60.2 153.3,55.4 148.5,50.6 "/>
</svg>
