<?xml version="1.0" encoding="utf-8"?>
<!-- Generator: Adobe Illustrator 17.1.0, SVG Export Plug-In . SVG Version: 6.00 Build 0)  -->
<!DOCTYPE svg PUBLIC "-//W3C//DTD SVG 1.1//EN" "http://www.w3.org/Graphics/SVG/1.1/DTD/svg11.dtd">
<svg version="1.1" id="Layer_1" xmlns="http://www.w3.org/2000/svg" xmlns:xlink="http://www.w3.org/1999/xlink" x="0px" y="0px"
width="140px" height="60px"	viewBox="0 0 140 60" enable-background="new 0 0 140 60"  xml:space="preserve">
<path fill="#CFCB29" d="M30.7,25.8c-0.8,0-1.4-0.2-1.9-0.7c-0.5-0.4-0.7-1.2-0.7-2.2c-0.8,1-1.8,1.7-2.9,2.2
	c-1.1,0.4-2.3,0.7-3.6,0.7c-0.8,0-1.6-0.1-2.4-0.3c-0.7-0.2-1.4-0.5-1.9-0.9c-0.6-0.4-1-0.9-1.3-1.6c-0.3-0.7-0.5-1.4-0.5-2.4
	c0-1,0.2-1.9,0.5-2.6c0.4-0.7,0.8-1.2,1.4-1.6c0.6-0.4,1.2-0.7,2-0.9c0.7-0.2,1.5-0.4,2.3-0.5c0.8-0.2,1.6-0.3,2.4-0.4
	s1.4-0.2,2-0.4c0.6-0.2,1-0.4,1.4-0.7c0.3-0.3,0.5-0.7,0.5-1.3c0-0.7-0.1-1.2-0.4-1.6c-0.3-0.4-0.6-0.7-1-0.9
	c-0.4-0.2-0.8-0.4-1.3-0.4c-0.5-0.1-1-0.1-1.4-0.1c-1.3,0-2.4,0.2-3.2,0.7c-0.9,0.5-1.3,1.4-1.4,2.8h-3c0-1.1,0.3-2.1,0.7-2.9
	c0.4-0.8,1-1.4,1.7-1.9c0.7-0.5,1.5-0.8,2.5-1.1C22,6.7,23,6.6,24,6.6c0.8,0,1.7,0.1,2.5,0.2c0.8,0.1,1.6,0.4,2.2,0.7
	c0.7,0.4,1.2,0.9,1.6,1.6c0.4,0.7,0.6,1.5,0.6,2.6v9.5c0,0.7,0,1.2,0.1,1.6c0.1,0.3,0.4,0.5,0.8,0.5c0.3,0,0.6-0.1,0.9-0.2v2.3
	C32.3,25.7,31.6,25.8,30.7,25.8 M26.4,16.5c-0.6,0.1-1.3,0.2-1.9,0.3c-0.7,0.1-1.4,0.2-2,0.3c-0.7,0.1-1.3,0.3-1.9,0.5
	c-0.5,0.2-1,0.6-1.3,1c-0.3,0.4-0.5,1-0.5,1.8c0,0.5,0.1,0.9,0.3,1.3c0.2,0.3,0.5,0.6,0.8,0.8c0.3,0.2,0.7,0.4,1.1,0.5
	c0.4,0.1,0.9,0.1,1.3,0.1c1,0,1.9-0.1,2.6-0.4c0.7-0.3,1.3-0.6,1.7-1c0.5-0.4,0.8-0.9,1-1.4c0.2-0.5,0.3-0.9,0.3-1.4v-3.1
	C27.5,16.2,27,16.4,26.4,16.5"/>
<rect x="34.8" y="0" fill="#A0A0A0" width="3" height="25.4"/>
<path fill="#A0A0A0" d="M54.3,24.3c-1.4,1-3.1,1.6-5.2,1.6c-1.5,0-2.8-0.2-3.8-0.7c-1.1-0.5-2-1.1-2.7-2c-0.7-0.9-1.3-1.9-1.7-3.1
	c-0.4-1.2-0.6-2.5-0.6-3.9c0-1.4,0.2-2.7,0.6-3.8c0.4-1.2,1-2.2,1.8-3c0.8-0.9,1.7-1.5,2.7-2c1.1-0.5,2.2-0.7,3.5-0.7
	c1.6,0,3,0.3,4.1,1c1.1,0.7,1.9,1.5,2.6,2.6c0.7,1,1.1,2.2,1.4,3.4c0.2,1.2,0.3,2.4,0.3,3.5H43.5c0,0.8,0.1,1.6,0.3,2.3
	c0.2,0.7,0.6,1.4,1,1.9c0.5,0.6,1.1,1,1.8,1.3c0.7,0.3,1.6,0.5,2.6,0.5c1.3,0,2.3-0.3,3.2-0.9c0.8-0.6,1.4-1.5,1.6-2.7h3
	C56.6,21.7,55.7,23.2,54.3,24.3 M53.6,12.4c-0.3-0.6-0.6-1.2-1.1-1.7c-0.5-0.5-1-0.8-1.6-1.1c-0.6-0.3-1.3-0.4-2.1-0.4
	c-0.8,0-1.5,0.1-2.1,0.4c-0.6,0.3-1.2,0.6-1.6,1.1c-0.4,0.5-0.8,1-1.1,1.7c-0.3,0.6-0.4,1.3-0.5,2h10.6
	C54.1,13.8,53.9,13.1,53.6,12.4"/>
<path fill="#A0A0A0" d="M73.6,25.4v-2.5h-0.1c-0.5,1-1.3,1.8-2.4,2.2c-1.1,0.4-2.2,0.7-3.5,0.7c-1.4,0-2.7-0.3-3.7-0.8
	c-1.1-0.5-1.9-1.2-2.6-2.1c-0.7-0.9-1.2-1.9-1.6-3.1c-0.4-1.2-0.5-2.4-0.5-3.7c0-1.3,0.2-2.5,0.5-3.7c0.3-1.2,0.9-2.2,1.6-3
	c0.7-0.9,1.6-1.6,2.6-2.1c1.1-0.5,2.3-0.8,3.7-0.8c0.5,0,1,0,1.5,0.1c0.5,0.1,1.1,0.3,1.6,0.5c0.5,0.2,1.1,0.5,1.5,0.9
	c0.5,0.4,0.9,0.8,1.2,1.4h0.1V0h3v25.4H73.6z M62.7,18.9c0.2,0.8,0.6,1.5,1,2.2c0.5,0.6,1.1,1.2,1.8,1.5c0.7,0.4,1.6,0.6,2.5,0.6
	c1,0,1.9-0.2,2.6-0.6c0.7-0.4,1.3-0.9,1.7-1.6c0.4-0.7,0.8-1.4,1-2.2c0.2-0.8,0.3-1.7,0.3-2.5c0-0.9-0.1-1.8-0.3-2.6
	c-0.2-0.8-0.6-1.6-1-2.2c-0.5-0.6-1.1-1.2-1.8-1.5c-0.7-0.4-1.6-0.6-2.7-0.6c-1,0-1.9,0.2-2.6,0.6s-1.3,0.9-1.7,1.6
	c-0.4,0.7-0.7,1.4-0.9,2.3c-0.2,0.9-0.3,1.7-0.3,2.6C62.4,17.2,62.5,18.1,62.7,18.9"/>
<path fill="#A0A0A0" d="M79.1,12.5c0.4-1.2,0.9-2.2,1.7-3.1c0.8-0.9,1.7-1.6,2.8-2c1.1-0.5,2.4-0.7,3.8-0.7c1.5,0,2.8,0.2,3.9,0.7
	c1.1,0.5,2,1.2,2.8,2c0.8,0.9,1.3,1.9,1.7,3.1c0.4,1.2,0.6,2.4,0.6,3.8c0,1.4-0.2,2.6-0.6,3.8c-0.4,1.2-1,2.2-1.7,3
	c-0.8,0.9-1.7,1.5-2.8,2c-1.1,0.5-2.4,0.7-3.9,0.7c-1.5,0-2.7-0.2-3.8-0.7c-1.1-0.5-2.1-1.2-2.8-2c-0.8-0.9-1.3-1.9-1.7-3
	c-0.4-1.2-0.6-2.4-0.6-3.8C78.5,14.9,78.7,13.6,79.1,12.5 M82.2,19.2c0.3,0.9,0.7,1.6,1.2,2.2c0.5,0.6,1.1,1,1.8,1.3
	c0.7,0.3,1.4,0.5,2.2,0.5s1.5-0.2,2.2-0.5c0.7-0.3,1.3-0.8,1.8-1.3c0.5-0.6,0.9-1.3,1.2-2.2c0.3-0.9,0.4-1.9,0.4-3
	c0-1.1-0.1-2.1-0.4-3c-0.3-0.9-0.7-1.6-1.2-2.2c-0.5-0.6-1.1-1-1.8-1.4c-0.7-0.3-1.4-0.5-2.2-0.5S86,9.4,85.3,9.7
	c-0.7,0.3-1.3,0.8-1.8,1.4c-0.5,0.6-0.9,1.3-1.2,2.2c-0.3,0.9-0.4,1.9-0.4,3C81.7,17.4,81.9,18.4,82.2,19.2"/>
<path fill="#CFCB29" d="M6,13.1c-1.6,0-3-1.3-3-3c0-1.6,1.3-3,3-3c1.6,0,3,1.3,3,3C9,11.7,7.6,13.1,6,13.1 M6,8.3
	c-1,0-1.8,0.8-1.8,1.8c0,1,0.8,1.8,1.8,1.8c1,0,1.8-0.8,1.8-1.8C7.8,9.1,7,8.3,6,8.3"/>
<path fill="#A0A0A0" d="M107,12.8c-1.5,0-2.7-1.2-2.7-2.7c0-1.5,1.2-2.7,2.7-2.7c1.5,0,2.7,1.2,2.7,2.7
	C109.7,11.6,108.5,12.8,107,12.8 M107,8c-1.2,0-2.1,0.9-2.1,2.1c0,1.2,0.9,2.1,2.1,2.1c1.2,0,2.1-0.9,2.1-2.1
	C109.1,8.9,108.1,8,107,8"/>
<path fill="#A0A0A0" d="M117,12.8c-1.5,0-2.7-1.2-2.7-2.7c0-1.5,1.2-2.7,2.7-2.7s2.7,1.2,2.7,2.7C119.7,11.6,118.5,12.8,117,12.8
	 M117,8c-1.2,0-2.1,0.9-2.1,2.1c0,1.2,0.9,2.1,2.1,2.1s2.1-0.9,2.1-2.1C119.1,8.9,118.2,8,117,8"/>
<path fill="#A0A0A0" d="M127,12.8c-1.5,0-2.7-1.2-2.7-2.7c0-1.5,1.2-2.7,2.7-2.7c1.5,0,2.7,1.2,2.7,2.7
	C129.7,11.6,128.5,12.8,127,12.8 M127,8c-1.2,0-2.1,0.9-2.1,2.1c0,1.2,0.9,2.1,2.1,2.1c1.2,0,2.1-0.9,2.1-2.1
	C129.1,8.9,128.2,8,127,8"/>
<path fill="#A0A0A0" d="M137.1,12.8c-1.5,0-2.7-1.2-2.7-2.7c0-1.5,1.2-2.7,2.7-2.7c1.5,0,2.7,1.2,2.7,2.7
	C139.8,11.6,138.6,12.8,137.1,12.8 M137.1,8c-1.2,0-2.1,0.9-2.1,2.1c0,1.2,0.9,2.1,2.1,2.1c1.1,0,2.1-0.9,2.1-2.1
	C139.2,8.9,138.2,8,137.1,8"/>
<g enable-background="new    ">
	<path fill="#A0A0A0" d="M39.2,51.6h5.3v0.9h-2.1v5.6h-1.1v-5.6h-2.1V51.6z"/>
	<path fill="#A0A0A0" d="M49.9,56l1.1,0.1c-0.2,0.7-0.5,1.2-1,1.5c-0.5,0.4-1.1,0.5-1.9,0.5c-0.9,0-1.7-0.3-2.3-0.9
		c-0.6-0.6-0.8-1.4-0.8-2.5c0-1.1,0.3-1.9,0.8-2.5c0.6-0.6,1.3-0.9,2.2-0.9c0.9,0,1.6,0.3,2.1,0.9c0.5,0.6,0.8,1.4,0.8,2.5
		c0,0.1,0,0.2,0,0.3h-4.8c0,0.7,0.2,1.3,0.6,1.6c0.4,0.4,0.8,0.6,1.4,0.6c0.4,0,0.7-0.1,1-0.3C49.5,56.8,49.7,56.4,49.9,56z
		 M46.2,54.2h3.6c0-0.5-0.2-1-0.4-1.2c-0.4-0.4-0.8-0.6-1.4-0.6c-0.5,0-0.9,0.2-1.3,0.5S46.3,53.6,46.2,54.2z"/>
	<path fill="#A0A0A0" d="M51.4,58.1l2.4-3.4l-2.2-3.1h1.4l1,1.5c0.2,0.3,0.3,0.5,0.5,0.7c0.2-0.3,0.3-0.5,0.5-0.7l1.1-1.5h1.3
		L55,54.6l2.4,3.4h-1.3l-1.3-2l-0.4-0.5l-1.7,2.6H51.4z"/>
	<path fill="#A0A0A0" d="M58.3,51.6h1.1v2.7h3v-2.7h1.1v6.5h-1.1v-2.9h-3v2.9h-1.1V51.6z"/>
	<path fill="#A0A0A0" d="M65.2,51.6h1.1v4.9l3-4.9h1.2v6.5h-1.1v-4.9l-3,4.9h-1.2V51.6z"/>
	<path fill="#A0A0A0" d="M71.8,51.6h1.1v1.2c0,0.5,0,0.9,0.1,1.2c0.1,0.2,0.2,0.4,0.5,0.6c0.2,0.2,0.5,0.3,0.9,0.3
		c0.4,0,1-0.1,1.6-0.3v-2.9h1.1v6.5H76v-2.6c-0.7,0.2-1.3,0.3-1.9,0.3c-0.5,0-0.9-0.1-1.3-0.4c-0.4-0.3-0.6-0.6-0.8-0.9
		s-0.2-0.8-0.2-1.2V51.6z"/>
	<path fill="#A0A0A0" d="M83.2,56l1.1,0.1c-0.2,0.7-0.5,1.2-1,1.5c-0.5,0.4-1.1,0.5-1.9,0.5c-0.9,0-1.7-0.3-2.3-0.9
		c-0.6-0.6-0.8-1.4-0.8-2.5c0-1.1,0.3-1.9,0.8-2.5c0.6-0.6,1.3-0.9,2.2-0.9c0.9,0,1.6,0.3,2.1,0.9c0.5,0.6,0.8,1.4,0.8,2.5
		c0,0.1,0,0.2,0,0.3h-4.8c0,0.7,0.2,1.3,0.6,1.6c0.4,0.4,0.8,0.6,1.4,0.6c0.4,0,0.7-0.1,1-0.3C82.8,56.8,83,56.4,83.2,56z
		 M79.6,54.2h3.6c0-0.5-0.2-1-0.4-1.2c-0.3-0.4-0.8-0.6-1.4-0.6c-0.5,0-0.9,0.2-1.3,0.5S79.6,53.6,79.6,54.2z"/>
	<path fill="#A0A0A0" d="M89.9,55.7l1.1,0.1c-0.1,0.7-0.4,1.3-0.9,1.7s-1.1,0.6-1.8,0.6c-0.9,0-1.6-0.3-2.1-0.9
		c-0.5-0.6-0.8-1.4-0.8-2.5c0-0.7,0.1-1.3,0.3-1.8c0.2-0.5,0.6-0.9,1.1-1.2c0.5-0.3,1-0.4,1.5-0.4c0.7,0,1.3,0.2,1.7,0.5
		c0.4,0.4,0.7,0.9,0.9,1.5l-1.1,0.2c-0.1-0.4-0.3-0.8-0.5-1s-0.6-0.3-0.9-0.3c-0.6,0-1,0.2-1.3,0.6s-0.5,1-0.5,1.9
		c0,0.9,0.2,1.5,0.5,1.9c0.3,0.4,0.8,0.6,1.3,0.6c0.4,0,0.8-0.1,1.1-0.4S89.8,56.2,89.9,55.7z"/>
	<path fill="#A0A0A0" d="M91.9,51.6H93v2.8c0.4,0,0.6-0.1,0.7-0.2s0.3-0.5,0.6-1.2c0.2-0.5,0.4-0.9,0.5-1c0.1-0.2,0.3-0.3,0.5-0.3
		c0.2-0.1,0.5-0.1,0.8-0.1h0.2v0.9l-0.3,0c-0.3,0-0.5,0-0.6,0.1c-0.1,0.1-0.2,0.4-0.4,0.8c-0.2,0.4-0.3,0.7-0.5,0.9
		c-0.1,0.2-0.4,0.3-0.6,0.4c0.5,0.1,0.9,0.6,1.4,1.3l1.2,2h-1.2l-1.2-2c-0.2-0.4-0.4-0.7-0.6-0.8s-0.4-0.2-0.6-0.2v3h-1.1V51.6z"/>
	<path fill="#A0A0A0" d="M97.4,51.6h1.1v4.9l3-4.9h1.2v6.5h-1.1v-4.9l-3,4.9h-1.2V51.6z"/>
	<path fill="#A0A0A0" d="M104.4,51.6h1.1v4.9l3-4.9h1.2v6.5h-1.1v-4.9l-3,4.9h-1.2V51.6z M108.2,49.1h0.8c-0.1,0.5-0.2,0.9-0.6,1.2
		s-0.7,0.4-1.2,0.4c-0.5,0-0.9-0.1-1.2-0.4s-0.5-0.7-0.6-1.2h0.8c0.1,0.3,0.2,0.5,0.3,0.6c0.2,0.1,0.4,0.2,0.7,0.2
		c0.3,0,0.6-0.1,0.7-0.2C108,49.6,108.2,49.4,108.2,49.1z"/>
	<path fill="#A0A0A0" d="M119.1,55.7l1.1,0.1c-0.1,0.7-0.4,1.3-0.9,1.7s-1.1,0.6-1.8,0.6c-0.9,0-1.6-0.3-2.1-0.9
		c-0.5-0.6-0.8-1.4-0.8-2.5c0-0.7,0.1-1.3,0.3-1.8c0.2-0.5,0.6-0.9,1.1-1.2c0.5-0.3,1-0.4,1.5-0.4c0.7,0,1.3,0.2,1.7,0.5
		c0.4,0.4,0.7,0.9,0.9,1.5l-1.1,0.2c-0.1-0.4-0.3-0.8-0.5-1c-0.3-0.2-0.6-0.3-0.9-0.3c-0.6,0-1,0.2-1.3,0.6s-0.5,1-0.5,1.9
		c0,0.9,0.2,1.5,0.5,1.9c0.3,0.4,0.8,0.6,1.3,0.6c0.4,0,0.8-0.1,1.1-0.4S119,56.2,119.1,55.7z"/>
	<path fill="#A0A0A0" d="M121.1,51.6h2.5c0.6,0,1.1,0.1,1.4,0.2s0.6,0.3,0.8,0.6c0.2,0.3,0.3,0.6,0.3,1c0,0.3-0.1,0.6-0.2,0.8
		c-0.1,0.2-0.3,0.4-0.6,0.6c0.3,0.1,0.6,0.3,0.8,0.6c0.2,0.3,0.3,0.6,0.3,1c0,0.6-0.3,1.1-0.7,1.4c-0.4,0.3-1,0.4-1.7,0.4h-2.9V51.6
		z M122.2,54.3h1.2c0.5,0,0.8,0,1-0.1s0.3-0.1,0.5-0.3s0.2-0.3,0.2-0.5c0-0.3-0.1-0.6-0.4-0.7c-0.2-0.1-0.7-0.2-1.2-0.2h-1.2V54.3z
		 M122.2,57.1h1.4c0.6,0,1.1-0.1,1.3-0.2c0.2-0.1,0.4-0.4,0.4-0.7c0-0.2-0.1-0.4-0.2-0.6s-0.3-0.3-0.5-0.3c-0.2,0-0.6-0.1-1-0.1
		h-1.3V57.1z"/>
	<path fill="#A0A0A0" d="M132,56l1.1,0.1c-0.2,0.7-0.5,1.2-1,1.5c-0.5,0.4-1.1,0.5-1.9,0.5c-0.9,0-1.7-0.3-2.3-0.9
		c-0.6-0.6-0.8-1.4-0.8-2.5c0-1.1,0.3-1.9,0.8-2.5c0.6-0.6,1.3-0.9,2.2-0.9c0.9,0,1.6,0.3,2.1,0.9s0.8,1.4,0.8,2.5
		c0,0.1,0,0.2,0,0.3h-4.8c0,0.7,0.2,1.3,0.6,1.6c0.4,0.4,0.8,0.6,1.4,0.6c0.4,0,0.7-0.1,1-0.3S131.9,56.4,132,56z M128.4,54.2h3.6
		c0-0.5-0.2-1-0.4-1.2c-0.4-0.4-0.8-0.6-1.4-0.6c-0.5,0-0.9,0.2-1.3,0.5S128.5,53.6,128.4,54.2z"/>
	<path fill="#A0A0A0" d="M133.5,51.6h5.3v0.9h-2.1v5.6h-1.1v-5.6h-2.1V51.6z"/>
</g>
<g>
	<line fill="none" stroke="#CFCA2A" stroke-miterlimit="10" stroke-dasharray="1,1" x1="3.4" y1="55.4" x2="18.4" y2="55.4"/>
	<polyline fill="none" stroke="#CFCA2A" stroke-width="1.0006" stroke-miterlimit="10" points="8.2,50.6 3.4,55.4 8.2,60.2 	"/>
</g>
</svg>
