<?xml version="1.0" encoding="utf-8"?>
<!-- Generator: Adobe Illustrator 18.0.0, SVG Export Plug-In . SVG Version: 6.00 Build 0)  -->
<!DOCTYPE svg PUBLIC "-//W3C//DTD SVG 1.1//EN" "http://www.w3.org/Graphics/SVG/1.1/DTD/svg11.dtd">
<svg version="1.1" id="Layer_1" xmlns="http://www.w3.org/2000/svg" xmlns:xlink="http://www.w3.org/1999/xlink" x="0px" y="0px"
	 viewBox="0 490.7 1001.9 388.4" enable-background="new 0 490.7 1001.9 388.4" xml:space="preserve">
<rect x="204.5" y="490.7" width="18.1" height="150.3"/>
<path d="M325.1,633.9c-8.4,6.5-18.1,9.1-31,9.1c-9.1,0-16.1-1.3-22.6-4.5c-6.5-2.6-11.6-6.5-16.1-11.6c-4.5-5.1-7.7-11-9.7-18.1
	c-1.9-7.1-3.2-14.9-3.9-22.6c0-8.4,1.3-16.1,3.9-22.6c2.6-7.1,5.8-12.9,11-18.1c4.5-5.1,9.7-9.1,16.1-11.6
	c6.5-2.5,12.9-3.9,20.7-3.9c9.7,0,18.1,1.9,23.9,5.8c6.5,3.9,11.6,9.1,15.5,15.5c3.9,6.5,6.5,12.9,7.7,20c1.3,7.1,1.9,14.2,1.9,20.7
	h-81.3c0,4.5,0.7,9.1,1.9,13.5c1.3,4.5,3.2,8.4,5.8,11.6c2.6,3.2,6.5,5.8,11,7.7c4.5,1.9,9.7,3.2,15.5,3.2c7.7,0,13.5-1.9,18.7-5.1
	c5.1-3.2,7.7-9.1,9.7-16.1h17.4C338.7,618.5,333.5,627.5,325.1,633.9 M320.6,564.3c-1.9-3.9-3.9-7.1-6.5-9.7
	c-2.6-2.6-5.8-5.1-9.7-6.5c-3.9-1.3-7.7-2.6-12.3-2.6s-9.1,0.7-12.3,2.6c-3.9,1.9-7.1,3.9-9.7,6.5c-2.6,2.6-4.5,5.8-6.5,9.7
	c-1.3,3.9-2.6,7.7-2.6,11.6h62.6C323.2,572,322.5,568.1,320.6,564.3"/>
<path d="M442.5,641v-14.9h-0.7c-3.2,5.8-7.7,10.3-14.2,12.9c-6.5,2.6-12.9,3.9-20.7,3.9c-8.4,0-15.5-1.3-21.9-4.5
	c-6.5-3.3-11.6-7.1-15.5-12.3c-3.9-5.1-7.1-11-9.7-18.1c-1.9-7.1-3.2-14.2-3.2-21.9s1.3-14.9,3.2-21.9c1.9-7.1,5.1-12.9,9.1-18.1
	s9.1-9.1,15.5-12.3c6.4-3.2,13.5-4.5,21.9-4.5c2.6,0,5.8,0,9.1,0.7c3.2,0.7,6.5,1.3,9.7,2.6s6.5,3.2,9.1,5.1
	c2.6,1.9,5.1,5.1,7.1,8.4h0.7v-55.5H460V641H442.5L442.5,641z M378.7,602.3c1.3,4.5,3.2,9.1,5.8,12.9s6.5,7.1,10.3,9.1
	c4.5,1.9,9.1,3.2,14.9,3.2c5.8,0,11-1.3,15.5-3.9c4.5-2.6,7.7-5.8,10.3-9.1c2.6-3.9,4.5-8.4,5.8-12.9c1.3-5.1,1.9-9.7,1.9-14.9
	c0-5.2-0.7-10.3-1.9-15.5s-3.2-9.7-5.8-12.9c-2.6-3.9-6.5-6.5-10.3-9.1c-4.5-2.6-9.7-3.2-15.5-3.2c-5.8,0-11,1.3-15.5,3.2
	c-3.9,2.6-7.7,5.8-10.3,9.7c-2.6,3.9-4.5,8.4-5.1,13.5c-1.3,5.1-1.9,10.3-1.9,15.5C376.1,592.7,376.8,597.2,378.7,602.3"/>
<polygon points="88.4,530.7 79.4,530.7 5.8,592 5.8,490.7 0,490.7 0,641 5.8,641 5.8,599.7 32.9,577.1 83.2,640.4 83.2,641 91,641 
	37.4,573.3 "/>
<path d="M186.5,635.3c-1.3,0-3.2,0-4.5-0.7c-1.3-0.7-1.9-0.7-2.6-1.9c-0.7-0.7-1.3-1.9-1.3-3.9v-68.4c0-5.8-1.3-11-3.2-14.9
	s-4.5-7.1-7.7-9.7c-3.2-2.6-7.1-4.5-11.6-5.1c-4.5-1.3-9.1-1.3-13.5-1.3c-6.5,0-12.9,0.7-18.1,2.6s-9.7,4.5-12.9,7.7
	c-3.3,3.2-6.5,7.1-7.7,11.6c-1.9,4.5-3.2,9.7-3.2,14.9v0.7h5.8v-0.7c0.7-10.3,3.9-18.1,10.3-23.9c6.5-5.1,14.9-8.4,25.8-8.4
	c7.1,0,12.9,0.7,16.8,2.6c3.9,1.9,7.1,4.5,9.1,7.1c1.9,2.6,3.2,5.8,3.9,9.1c0.7,3.2,0.7,6.5,0.7,9.7c0,3.9-0.7,7.1-2.6,9.1
	c-1.3,1.9-3.9,3.2-7.1,4.5c-3.2,0.7-7.7,1.9-12.9,1.9c-5.1,0-11.6,0.7-19.3,1.3c-4.5,0.7-9.1,0.7-13.5,1.9
	c-4.5,1.3-8.4,2.6-12.3,5.1c-3.9,2.5-6.5,5.8-9.1,9.7c-1.9,4.5-3.2,9.7-3.2,16.8c0,9.7,3.2,17.4,10.3,22.6
	c6.5,5.1,15.5,7.7,27.1,7.7c5.8,0,11-0.7,15.5-1.9c5.1-1.3,9.1-3.9,12.9-6.5c3.9-2.6,7.1-5.1,9.7-9.1c1.9-1.9,3.2-4.5,3.9-7.1v10.3
	c0,4.5,1.3,7.1,3.9,9.1c2.6,1.3,5.1,2.6,8.4,2.6h7.1v-6.6h-1.3C189.7,635.3,188.4,635.3,186.5,635.3 M172.3,578.5v18.1
	c0,5.1-1.3,10.3-2.6,15.5c-1.9,4.5-4.5,9.1-8.4,12.9s-8.4,7.1-13.5,9.1c-5.1,2.6-11.6,3.2-18.1,3.2c-5.8,0-10.3-0.7-14.9-1.9
	c-3.9-1.3-7.1-3.2-9.7-5.8c-2.6-2.6-3.9-4.5-5.1-7.7c-1.3-3.2-1.3-5.8-1.3-9.1c0-5.8,0.7-10.3,2.6-13.5c1.9-3.2,3.9-6.5,7.1-7.7
	c3.2-1.9,6.5-3.2,10.3-3.9c3.9-0.7,7.7-1.3,12.3-1.3c4.5,0,8.4-0.7,12.9-0.7s8.4-0.7,12.3-1.3s7.1-1.3,10.3-2.6
	C169,581,170.9,579.7,172.3,578.5"/>
<path d="M565.8,546.2c-4.5-5.1-9.7-9.7-15.5-12.9c-6.5-3.2-13.5-5.1-21.2-5.1c-8.4,0-15.5,1.9-21.2,5.1c-5.8,3.2-11.6,7.7-15.5,12.9
	c-3.9,5.2-7.1,11.6-9.7,18.1c-1.9,7.1-3.2,14.2-3.2,21.2c0,7.1,1.3,14.9,3.2,21.2c1.9,7.1,5.1,12.9,9.7,18.1s9.7,9.7,15.5,12.9
	c5.8,3.3,13.5,4.5,21.2,4.5c8.4,0,15.5-1.3,21.2-4.5c6.5-3.2,11.6-7.1,15.5-12.9c3.9-5.1,7.1-11.6,9.7-18.1
	c1.9-7.1,3.2-14.2,3.2-21.2c0-7.7-1.3-14.9-3.2-21.2C573.5,557.1,570.3,551.3,565.8,546.2 M529,637.2c-7.1,0-13.5-1.3-18.7-3.9
	c-5.8-2.6-9.7-6.5-13.5-11.6c-3.9-4.5-6.5-10.3-8.4-16.1c-1.9-6.5-2.6-12.9-2.6-19.3c0-6.4,0.7-12.9,2.6-19.3
	c1.9-6.4,4.5-11.6,8.4-16.1c3.9-4.5,8.4-8.4,13.5-11.6c5.1-3.2,11.6-4.5,18.7-4.5c7.1,0,13.5,1.3,18.7,4.5
	c5.1,3.2,10.3,6.5,13.5,11.6c3.9,4.5,6.5,10.3,8.4,16.1c1.9,6.5,2.6,12.9,2.6,19.3c0,6.4-1.3,13.5-2.6,19.3
	c-1.9,5.8-4.5,11.6-8.4,16.1s-8.4,8.4-13.5,11.6C542.6,635.8,536.1,637.2,529,637.2"/>
<path d="M662.5,590.7c-3.2-1.9-7.1-3.9-11.6-5.1c-3.9-1.3-8.4-2.6-12.3-3.2c-5.8-1.3-11-2.6-15.5-3.9c-4.5-1.3-8.4-2.6-12.3-3.9
	c-3.2-1.3-6.5-3.9-8.4-6.5c-1.9-2.6-3.2-6.5-3.2-11.6c0-0.7,0-2.6,0.7-5.1c0.7-2.6,1.9-4.5,3.9-7.1c1.9-2.6,5.1-4.5,9.7-6.5
	c3.9-1.9,10.3-3.2,17.4-3.2c5.1,0,9.7,0.7,14.2,1.9c3.9,1.3,7.7,2.6,11,5.1c3.2,2.6,5.1,5.1,7.1,9.1c1.9,3.9,2.6,8.4,2.6,13.5v0.7
	h5.8v-0.7c0-12.3-3.9-21.2-11-27.1c-7.1-5.8-16.8-8.4-29.1-8.4c-6.5,0-12.9,0.7-17.4,2.6c-4.5,1.9-8.4,3.9-11.6,6.5
	c-3.2,2.6-5.1,5.8-6.5,9.1c-1.3,3.2-1.9,6.5-1.9,9.7c0,5.8,1.3,11,3.2,14.9c1.9,3.9,5.8,6.5,10.3,8.4c3.2,1.3,6.5,2.6,10.3,3.9
	c3.9,1.3,8.4,2.6,13.5,3.9c4.5,1.3,9.1,1.9,13.5,3.2c4.5,1.3,8.4,2.6,11.6,4.5c3.2,1.9,5.8,3.9,8.4,7.1c1.9,2.6,3.2,6.5,3.2,11
	s-1.3,8.4-3.2,11c-1.9,3.2-4.5,5.8-7.7,7.7c-3.2,1.9-7.1,3.2-11,4.5c-3.9,0.7-7.7,1.3-12.3,1.3c-12.3,0-21.9-2.6-29.1-8.4
	c-6.5-5.1-9.7-14.2-9.7-25.8v-0.7h-5.7v0.7c0,14.2,3.9,23.9,11.6,30.3c7.7,6.5,18.7,9.7,33.5,9.7c4.5,0,9.7-0.7,14.2-1.3
	c4.5-1.3,9.1-2.6,12.9-5.1c3.9-2.6,7.1-5.8,9.1-9.7c2.6-3.9,3.9-9.1,3.9-14.2s-1.3-9.7-3.2-12.9
	C668.3,595.9,665.8,593.3,662.5,590.7"/>
<path d="M774.8,603c-0.7,5.1-1.9,10.3-3.9,14.2c-1.9,3.9-5.1,7.7-8.4,11c-3.2,3.2-7.7,5.1-12.3,7.1c-4.5,1.3-9.7,2.6-14.9,2.6
	c-7.1,0-12.9-1.3-18.7-3.9c-5.1-2.6-9.7-6.5-13.5-11c-3.2-4.5-6.5-9.7-8.4-15.5c-1.9-5.8-2.6-12.3-2.6-18.7s0.7-12.9,2.6-18.7
	c1.3-6.5,4.5-12.3,7.7-17.4c3.2-5.1,8.4-9.1,14.2-12.3s12.9-4.5,21.2-4.5c4.5,0,8.4,0.7,12.3,1.9c3.9,1.3,7.7,3.2,10.3,5.8
	c3.2,2.6,5.8,5.8,7.7,9.7c1.9,3.9,3.9,8.4,4.5,13.5v0.7h5.8v-1.3c-0.7-5.8-2.6-11-4.5-15.5c-2.6-4.5-5.8-8.4-9.1-11
	c-3.9-3.2-7.7-5.1-12.9-7.1c-4.5-1.3-9.7-2.6-14.9-2.6c-8.4,0-16.1,1.9-22.6,5.1c-6.5,3.2-11.6,7.7-16.1,12.9
	c-4.5,5.2-7.1,11.6-9.7,18.7c-1.9,7.1-3.2,14.9-3.2,22.6s1.3,14.9,3.2,21.2c1.9,6.5,5.1,12.3,9.7,17.4c3.9,5.1,9.1,9.1,15.5,11.6
	c5.8,3.2,12.9,4.5,20.7,4.5c6.5,0,12.3-0.7,17.4-2.6c5.1-1.9,9.7-4.5,13.5-7.7c3.9-3.2,7.1-7.7,9.7-12.9c2.6-5.1,3.9-10.3,4.5-16.8
	v-0.7h-5.8L774.8,603z"/>
<path d="M877.4,546.2c-3.9-5.1-9.7-9.7-15.5-12.9c-5.8-3.2-12.9-5.1-21.2-5.1c-8.3,0-15.5,1.9-21.2,5.1c-6.5,3.2-11.6,7.7-15.5,12.9
	c-3.9,5.2-7.1,11.6-9.7,18.1c-1.9,7.1-3.2,14.2-3.2,21.2c0,7.1,1.3,14.9,3.2,21.2c1.9,7.1,5.1,12.9,9.7,18.1
	c4.5,5.1,9.7,9.7,15.5,12.9c6.5,3.2,13.5,4.5,21.2,4.5c8.4,0,15.5-1.3,21.2-4.5c6.5-3.2,11.6-7.1,15.5-12.9
	c4.5-5.1,7.1-11.6,9.7-18.1c1.9-7.1,3.2-14.2,3.2-21.2c0-7.7-1.3-14.9-3.2-21.2C885.1,557.1,881.9,551.3,877.4,546.2 M840.6,637.2
	c-7.1,0-13.5-1.3-18.7-3.9c-5.1-2.6-10.3-6.5-13.5-11.6c-3.9-4.5-6.5-10.3-8.4-16.1c-1.9-6.5-2.6-12.9-2.6-19.3
	c0-6.4,0.7-12.9,2.6-19.3c1.9-6.4,4.5-11.6,8.4-16.1c3.9-4.5,8.4-8.4,13.5-11.6c5.1-2.6,11.6-4.5,18.7-4.5c7.1,0,13.5,1.3,18.7,4.5
	c5.1,3.2,10.3,6.5,13.5,11.6c3.9,4.5,6.5,10.3,8.4,16.1c1.9,6.5,2.6,12.9,2.6,19.3c0,6.4-0.7,13.5-2.6,19.3
	c-1.9,5.8-4.5,11.6-8.4,16.1c-3.9,4.5-8.4,8.4-13.5,11.6C854.2,635.8,847.7,637.2,840.6,637.2"/>
<path d="M998.7,562.9c-1.9-7.1-5.1-12.9-9.1-18.1c-3.9-5.1-9.1-9.1-14.9-12.3c-5.8-2.6-12.3-4.5-19.3-4.5c-5.8,0-11,0.7-15.5,2.6
	c-4.5,1.3-9.1,3.9-12.9,7.1s-7.1,6.5-9.7,10.3c-1.9,3.2-3.9,5.8-5.1,9.7v-27.1h-5.8v147.1h5.8v-63.1c2.6,7.7,7.7,14.9,13.5,19.3
	c7.7,5.8,17.4,9.1,29.1,9.1c7.7,0,14.2-1.3,20-4.5c5.8-3.2,11-7.1,14.9-12.3c3.9-5.1,7.1-11.6,9.1-18.7c1.9-7.1,3.2-14.2,3.2-21.9
	C1001.9,577.8,1000.6,570.1,998.7,562.9 M995.5,585.5c0,6.5-0.7,12.3-2.6,18.7c-1.9,5.8-3.9,11.6-7.1,16.8
	c-3.2,5.1-7.7,9.1-12.9,12.3c-5.2,3.2-11.6,4.5-18.7,4.5c-12.9,0-23.3-4.5-31-12.9c-7.7-9.1-11.6-21.9-11.6-38.7
	c0-7.1,0.7-13.5,3.2-20c1.9-6.5,4.5-11.6,8.4-16.1c3.9-4.5,8.4-8.4,13.5-11c5.1-3.2,11.6-4.5,18.1-4.5c7.1,0,12.9,1.3,18.1,3.9
	c5.1,2.6,9.7,6.5,12.9,11c3.2,4.5,5.8,10.3,7.7,16.1C994.8,572,995.5,579.1,995.5,585.5"/>
<g enable-background="new    ">
	<path d="M33.9,840.9c-0.4-3.7-1.7-6.7-3.7-9.1s-4.6-3.4-7.7-3.4c-5.5,0-8.8,2.9-10,8.6l-6.9-1.1c0.7-3.9,2.4-7.1,5.3-9.6
		c2.9-2.4,6.6-3.7,11.3-3.7c5.9,0,10.5,1.9,13.9,5.8c3.4,3.9,5,9.2,5,16c0.2,6.7-1.4,12.1-4.6,16.2c-3.3,4.1-7.8,6-13.8,5.6
		c-5,0-9-1.4-12.1-4.2c-3.1-2.8-5-6.6-5.7-11.1l7-0.9c1.1,7,4.6,10.4,10.6,10.4c3.4,0,6-1.2,7.9-3.4c1.9-2.3,3.1-5.7,3.5-10.2H19.2
		v-5.8L33.9,840.9L33.9,840.9z"/>
	<path d="M49.5,823.4h7.1v18.1c2.3,0,3.9-0.4,4.7-1.3c0.9-0.8,2.3-3.4,4-7.6c1.4-3.3,2.5-5.5,3.4-6.6c0.8-1.1,1.8-1.8,3-2.1
		c1.2-0.3,2.9-0.6,5.5-0.6h1.4v5.9h-1.9c-1.8,0-3,0.3-3.6,0.8c-0.6,0.6-1.4,2.3-2.5,5.1c-1.1,2.8-2.1,4.6-2.9,5.7
		c-0.9,1.1-2.3,2-4.1,2.9c3,0.8,6,3.6,9,8.5l7.7,12.9h-7.8l-7.6-12.9c-1.5-2.6-2.9-4.3-4-5.1c-1.2-0.8-2.5-1.3-4.1-1.3v19.3h-7.1
		L49.5,823.4L49.5,823.4z"/>
	<path d="M113,849.9l7,0.9c-0.8,4.8-2.7,8.6-5.9,11.3c-3.1,2.7-7,4.1-11.6,4.1c-5.7,0-10.3-1.8-13.8-5.6c-3.4-3.8-5.2-9.1-5.2-16.1
		c0-4.5,0.8-8.5,2.3-11.8c1.5-3.4,3.8-6,6.8-7.6s6.4-2.5,10-2.5c4.5,0,8.2,1.2,11.2,3.4c2.9,2.3,4.7,5.5,5.5,9.7l-6.9,1.1
		c-0.7-2.8-1.8-5-3.4-6.3c-1.7-1.4-3.7-2.1-6-2.1c-3.6,0-6.5,1.3-8.7,3.9c-2.3,2.5-3.4,6.6-3.4,12.2c0,5.6,1.1,9.7,3.2,12.3
		c2.2,2.5,5,3.8,8.4,3.8c2.8,0,5.1-0.8,7-2.5C111.3,856.1,112.5,853.5,113,849.9z"/>
	<path d="M126,823.4h7.1v18.1c2.3,0,3.9-0.4,4.7-1.3c0.9-0.8,2.3-3.4,4-7.6c1.4-3.3,2.5-5.5,3.4-6.6c0.8-1.1,1.8-1.8,3-2.1
		c1.2-0.3,2.9-0.6,5.5-0.6h1.4v5.9h-1.9c-1.8,0-3,0.3-3.6,0.8s-1.4,2.3-2.5,5.1c-1.1,2.8-2.1,4.6-2.9,5.7c-0.9,1.1-2.3,2-4.1,2.9
		c3,0.8,6,3.6,9,8.5l7.7,12.9h-7.8l-7.6-12.9c-1.5-2.6-2.9-4.3-4-5.1c-1.2-0.8-2.5-1.3-4.1-1.3v19.3H126V823.4z"/>
	<path d="M165.6,823.4h32.9v41.8h-7.1v-35.9h-18.8v20.8c0,4.9-0.2,8.1-0.5,9.6c-0.3,1.5-1.2,2.9-2.6,4c-1.4,1.2-3.4,1.8-6.1,1.8
		c-1.7,0-3.5-0.1-5.7-0.3v-5.9h3.1c1.5,0,2.5-0.2,3.2-0.4s1.1-0.8,1.3-1.4c0.2-0.7,0.3-2.8,0.3-6.4L165.6,823.4L165.6,823.4z"/>
	<path d="M209.3,823.4h7.1v17.5h8.6c0.7-6,2.5-10.6,5.6-13.7c3.1-3.2,7.1-4.7,12.1-4.7c4.2,0,7.6,0.8,10,2.5c2.4,1.7,4.5,4,6,7.1
		c1.6,3,2.4,7.1,2.4,12.1c0,7.2-1.7,12.7-5,16.4c-3.3,3.7-7.7,5.6-13.4,5.6c-5.2,0-9.4-1.8-12.6-5.2c-3.2-3.4-5-8.2-5.3-14.3h-8.6
		v18.5h-7.1L209.3,823.4L209.3,823.4z M243.1,828.5c-3.4,0-6.1,1.3-8.1,4c-1.9,2.7-2.9,6.4-2.9,11.2c0,5.7,1,10,2.9,12.6
		c1.9,2.7,4.5,4,7.8,4c3.2,0,5.9-1.3,7.9-3.7c2.1-2.5,3.1-6.5,3.1-12c0-5.4-0.9-9.4-2.7-12.1C249.4,829.9,246.7,828.5,243.1,828.5z"
		/>
	<path d="M279,846.3v-5.5c3,0,5-0.2,6.1-0.3c1.1-0.3,2.1-0.8,3.1-1.9s1.4-2.4,1.4-3.9c0-1.9-0.7-3.4-1.9-4.6c-1.3-1.2-2.9-1.7-5-1.7
		c-4,0-6.8,2.4-8.4,7.1l-6.7-1.1c2.1-7.8,7.1-11.8,15.2-11.8c4.5,0,8,1.3,10.5,3.7s3.8,5.4,3.8,8.7c0,3.4-1.7,6.1-5,8.1
		c2.1,1.1,3.7,2.6,4.7,4.3c1,1.8,1.6,3.8,1.6,6.2c0,3.8-1.3,6.8-4.1,9.2c-2.8,2.4-6.6,3.5-11.4,3.5c-9.5,0-15-4.2-16.5-12.7l6.6-1.4
		c0.6,2.7,1.8,4.8,3.7,6.2c1.8,1.5,3.9,2.2,6.4,2.2c2.4,0,4.4-0.7,6-2c1.6-1.3,2.4-3.1,2.4-5.2c0-1.6-0.5-3-1.5-4.3
		c-1-1.2-2.1-1.9-3.2-2.3c-1.1-0.3-3.2-0.4-6.1-0.4C280.4,846.2,279.9,846.3,279,846.3z"/>
	<path d="M306.7,823.4h7.1v31.9l19.7-31.9h7.6v41.8H334v-31.7l-19.7,31.7h-7.6V823.4z"/>
	<path d="M351.8,823.4h16.4c4,0,7,0.3,9,1c1.9,0.7,3.6,1.9,5,3.7c1.4,1.8,2.1,3.9,2.1,6.4c0,2-0.4,3.7-1.3,5.2
		c-0.8,1.5-2.1,2.7-3.7,3.7c1.9,0.7,3.6,1.8,4.9,3.7c1.3,1.8,1.9,3.9,1.9,6.4c-0.3,3.9-1.7,6.9-4.3,8.8c-2.6,1.9-6.3,2.9-11.3,2.9
		h-18.9L351.8,823.4L351.8,823.4z M358.9,841h7.6c3,0,5.1-0.2,6.2-0.5c1.1-0.3,2.1-0.9,3-1.9c0.9-0.9,1.3-2.1,1.3-3.4
		c0-2.2-0.8-3.8-2.4-4.6c-1.6-0.8-4.2-1.3-8-1.3h-7.8L358.9,841L358.9,841z M358.9,859.4h9.3c4,0,6.8-0.5,8.2-1.4
		c1.5-0.9,2.3-2.5,2.4-4.8c0-1.3-0.4-2.6-1.3-3.7c-0.8-1.2-2-1.8-3.4-2.2c-1.4-0.3-3.6-0.4-6.7-0.4h-8.6V859.4L358.9,859.4z"/>
	<path d="M394.6,823.4h7.1v17.4h19.7v-17.4h7.1v41.8h-7.1v-18.6h-19.7v18.6h-7.1V823.4z"/>
	<path d="M439.3,823.4h7.1v16.4h9c5.9,0,10.3,1.2,13.5,3.4c3.2,2.3,4.7,5.4,4.7,9.4c0,3.5-1.3,6.5-3.9,9c-2.6,2.5-6.9,3.7-12.7,3.7
		h-17.6V823.4z M446.3,859.4h7.5c4.5,0,7.7-0.6,9.6-1.7c1.9-1.1,2.9-2.9,2.9-5.1c0-1.8-0.7-3.4-2.1-4.9c-1.4-1.4-4.5-2.1-9.4-2.1
		h-8.4L446.3,859.4L446.3,859.4z M478.9,823.4h7.1v41.8h-7.1V823.4z"/>
	<path d="M497.1,823.4h7.1v31.9l19.7-31.9h7.6v41.8h-7.1v-31.7l-19.7,31.7h-7.6V823.4z M521.7,807.6h4.9c-0.4,3.3-1.6,5.8-3.6,7.6
		c-2,1.8-4.7,2.6-8,2.6c-3.4,0-6-0.8-8.1-2.6c-2-1.8-3.2-4.3-3.6-7.6h4.9c0.3,1.8,1.1,3.1,2.2,4c1.1,0.8,2.5,1.3,4.4,1.3
		c2.1,0,3.7-0.4,4.8-1.3C520.6,810.9,521.3,809.5,521.7,807.6z"/>
	<path d="M591.8,849.9l7,0.9c-0.8,4.8-2.7,8.6-5.9,11.3c-3.1,2.7-7,4.1-11.6,4.1c-5.7,0-10.3-1.8-13.8-5.6
		c-3.4-3.8-5.2-9.1-5.2-16.1c0-4.5,0.8-8.5,2.3-11.8s3.8-6,6.8-7.6s6.4-2.5,10-2.5c4.5,0,8.2,1.2,11.2,3.4c2.9,2.3,4.7,5.5,5.5,9.7
		l-6.9,1.1c-0.7-2.8-1.8-5-3.4-6.3c-1.7-1.4-3.7-2.1-6-2.1c-3.6,0-6.5,1.3-8.7,3.9c-2.3,2.6-3.4,6.6-3.4,12.2
		c0,5.6,1.1,9.7,3.2,12.3s5,3.8,8.4,3.8c2.8,0,5.1-0.8,7-2.5C590.1,856.1,591.3,853.5,591.8,849.9z"/>
	<path d="M604.9,823.4h16.4c4,0,7,0.3,9,1c1.9,0.7,3.6,1.9,5,3.7c1.4,1.8,2.1,3.9,2.1,6.4c0,2-0.4,3.7-1.3,5.2s-2.1,2.7-3.7,3.7
		c1.9,0.7,3.6,1.8,4.9,3.7c1.3,1.8,1.9,3.9,1.9,6.4c-0.3,3.9-1.7,6.9-4.3,8.8c-2.6,1.9-6.3,2.9-11.3,2.9h-18.9L604.9,823.4
		L604.9,823.4z M612,841h7.6c3,0,5.1-0.2,6.2-0.5s2.1-0.9,3-1.9c0.9-0.9,1.3-2.1,1.3-3.4c0-2.2-0.8-3.8-2.4-4.6
		c-1.6-0.8-4.2-1.3-8-1.3H612V841z M612,859.4h9.3c4,0,6.8-0.5,8.2-1.4c1.5-0.9,2.3-2.5,2.4-4.8c0-1.3-0.4-2.6-1.3-3.7
		c-0.8-1.2-2-1.8-3.4-2.2c-1.4-0.3-3.6-0.4-6.7-0.4H612L612,859.4L612,859.4z"/>
	<path d="M675.5,851.8l7.3,0.9c-1.2,4.3-3.3,7.6-6.4,10c-3.1,2.4-7.1,3.5-12,3.5c-6.1,0-11-1.8-14.5-5.6c-3.6-3.8-5.4-9.1-5.4-15.9
		c0-7.1,1.8-12.5,5.5-16.4c3.6-3.9,8.3-5.8,14.1-5.8c5.6,0,10.2,1.9,13.7,5.7s5.3,9.2,5.3,16c0,0.4,0,1.1,0,1.9h-31.2
		c0.3,4.6,1.6,8.1,3.9,10.6c2.4,2.4,5.3,3.7,8.7,3.7c2.6,0,4.8-0.7,6.6-2C672.9,856.9,674.4,854.7,675.5,851.8z M652.1,840.3h23.3
		c-0.3-3.5-1.2-6.1-2.7-7.9c-2.3-2.8-5.2-4.1-8.8-4.1c-3.3,0-6,1.1-8.2,3.3C653.6,833.7,652.4,836.7,652.1,840.3z"/>
	<path d="M685.1,823.4h34v5.9h-13.4v35.9h-7.1v-35.9h-13.4L685.1,823.4L685.1,823.4z"/>
</g>
<line fill="none" x1="989" y1="848.1" x2="892.2" y2="848.1"/>
<line fill="none" stroke="#FFFFFF" stroke-miterlimit="10" stroke-dasharray="1,1" x1="989" y1="848.1" x2="892.2" y2="848.1"/>
<polyline fill="none" stroke="#FFFFFF" stroke-width="1.001" stroke-miterlimit="10" points="958,879.1 989,848.1 958,817.2 "/>
<g>
	<line fill="none" stroke="#000000" stroke-miterlimit="10" stroke-dasharray="1,1" x1="987.1" y1="848.1" x2="890.3" y2="848.1"/>
	<polyline fill="none" stroke="#000000" stroke-width="1.0006" stroke-miterlimit="10" points="956.1,879.1 987.1,848.1 
		956.1,817.2 	"/>
</g>
</svg>
