<?xml version="1.0" encoding="utf-8"?>
<!-- Generator: Adobe Illustrator 16.0.0, SVG Export Plug-In . SVG Version: 6.00 Build 0)  -->
<!DOCTYPE svg PUBLIC "-//W3C//DTD SVG 1.1//EN" "http://www.w3.org/Graphics/SVG/1.1/DTD/svg11.dtd">
<svg version="1.1" id="Layer_1" xmlns="http://www.w3.org/2000/svg" xmlns:xlink="http://www.w3.org/1999/xlink" x="0px" y="0px"
	 width="35px" height="35px" viewBox="0 0 35 35" enable-background="new 0 0 35 35" xml:space="preserve">
<path fill="#BCBCBC" d="M35,29.119C35,32.352,32.353,35,29.117,35H5.881C2.646,35,0,32.352,0,29.119V5.883C0,2.647,2.646,0,5.881,0
	h23.236C32.353,0,35,2.647,35,5.883V29.119z"/>
<path fill="#818181" d="M27.156,18.666c-0.957-0.93-1.639-1.542-3.282-1.838v-0.12c1.166-0.471,2.075-1.126,2.711-1.971
	c0.638-0.841,0.961-1.814,0.961-2.916c0-0.947-0.229-1.792-0.7-2.534c-0.468-0.737-1.173-1.331-2.125-1.767
	c-0.923-0.42-1.854-0.688-2.789-0.81c-0.938-0.123-3.035-0.183-5.058-0.183H7.145v22.795h10.942c1.815,0,3.323-0.142,4.507-0.428
	c1.184-0.289,2.27-0.771,3.26-1.438c0.851-0.574,1.521-1.289,2.012-2.162c0.488-0.869,0.729-1.849,0.729-2.953
	C28.594,20.82,28.117,19.596,27.156,18.666 M13.949,11.063h2.789c0.97,0,1.773,0.106,2.402,0.316
	c0.729,0.304,1.094,0.929,1.094,1.877c0,0.855-0.277,1.452-0.828,1.786c-0.549,0.337-1.268,0.504-2.151,0.504h-3.306V11.063z
	 M19.768,24.432c-0.49,0.238-1.181,0.357-2.061,0.357h-3.758v-5.422h3.828c0.871,0.01,1.549,0.126,2.029,0.346
	c0.864,0.396,1.297,1.123,1.297,2.181C21.104,23.144,20.658,23.991,19.768,24.432"/>
</svg>
