<?xml version="1.0" encoding="utf-8"?>
<!-- Generator: Adobe Illustrator 16.0.0, SVG Export Plug-In . SVG Version: 6.00 Build 0)  -->
<!DOCTYPE svg PUBLIC "-//W3C//DTD SVG 1.1//EN" "http://www.w3.org/Graphics/SVG/1.1/DTD/svg11.dtd">
<svg version="1.1" id="Layer_1" xmlns="http://www.w3.org/2000/svg" xmlns:xlink="http://www.w3.org/1999/xlink" x="0px" y="0px"
	 width="35px" height="35px" viewBox="0 0 35 35" enable-background="new 0 0 35 35" xml:space="preserve">
<path fill="#BCBCBC" d="M35,33.372C35,34.271,34.27,35,33.371,35H1.628C0.728,35,0,34.271,0,33.372V1.629C0,0.729,0.728,0,1.628,0
	h31.743C34.27,0,35,0.729,35,1.629V33.372z"/>
<path fill="#4A5993" d="M26.936,10.319h2.721V5.414c-1.094-0.032-2.525-0.069-4.402-0.111c-6.783-0.15-6.535,6.832-6.535,6.832
	v4.018h-4.665v5.242h4.665V35h5.428V21.395h4.561l0.65-5.242h-5.211v-3.522C24.146,10.08,26.936,10.319,26.936,10.319z"/>
</svg>
