<?xml version="1.0" encoding="utf-8"?>
<!-- Generator: Adobe Illustrator 18.0.0, SVG Export Plug-In . SVG Version: 6.00 Build 0)  -->
<!DOCTYPE svg PUBLIC "-//W3C//DTD SVG 1.1//EN" "http://www.w3.org/Graphics/SVG/1.1/DTD/svg11.dtd">
<svg version="1.1" id="Слой_1" xmlns="http://www.w3.org/2000/svg" xmlns:xlink="http://www.w3.org/1999/xlink" x="0px" y="0px"
	 viewBox="0 0 224 43" enable-background="new 0 0 224 43" xml:space="preserve">
<g>
	<path fill="#D1D60B" d="M45.2,42.2c-1.3,0-2.3-0.4-3.1-1.1c-0.8-0.7-1.1-1.9-1.1-3.5c-1.4,1.6-2.9,2.8-4.7,3.5
		c-1.8,0.7-3.8,1.1-5.9,1.1c-1.4,0-2.6-0.1-3.8-0.4c-1.2-0.3-2.3-0.8-3.2-1.5c-0.9-0.7-1.6-1.5-2.2-2.6c-0.5-1.1-0.8-2.4-0.8-3.9
		c0-1.7,0.3-3.1,0.9-4.2c0.6-1.1,1.3-2,2.3-2.7c0.9-0.7,2-1.2,3.3-1.5c1.2-0.4,2.5-0.6,3.8-0.9c1.4-0.3,2.7-0.5,3.9-0.6
		c1.2-0.1,2.3-0.3,3.2-0.6c0.9-0.3,1.7-0.6,2.2-1.1c0.5-0.5,0.8-1.2,0.8-2.1c0-1.1-0.2-2-0.6-2.6c-0.4-0.7-0.9-1.2-1.6-1.5
		c-0.6-0.4-1.4-0.6-2.1-0.7c-0.8-0.1-1.6-0.2-2.4-0.2c-2.1,0-3.8,0.4-5.2,1.2c-1.4,0.8-2.2,2.3-2.3,4.5h-5c0.1-1.9,0.5-3.4,1.2-4.7
		c0.7-1.3,1.6-2.3,2.8-3.1c1.2-0.8,2.5-1.4,4-1.7c1.5-0.3,3.1-0.5,4.8-0.5c1.4,0,2.7,0.1,4,0.3c1.3,0.2,2.6,0.6,3.6,1.2
		c1.1,0.6,2,1.4,2.6,2.5c0.7,1.1,1,2.5,1,4.2v15.5c0,1.2,0.1,2,0.2,2.6c0.1,0.5,0.6,0.8,1.4,0.8c0.4,0,0.9-0.1,1.5-0.3v3.8
		C47.9,42,46.7,42.2,45.2,42.2z M38.3,27c-1,0.2-2.1,0.4-3.2,0.5c-1.1,0.1-2.2,0.3-3.3,0.5c-1.1,0.2-2.1,0.5-3,0.8
		c-0.9,0.4-1.6,0.9-2.2,1.7c-0.6,0.7-0.8,1.7-0.8,2.9c0,0.8,0.2,1.5,0.5,2.1c0.3,0.6,0.8,1,1.3,1.4c0.5,0.3,1.1,0.6,1.9,0.8
		c0.7,0.2,1.4,0.2,2.2,0.2c1.6,0,3-0.2,4.2-0.7c1.2-0.4,2.1-1,2.8-1.7c0.7-0.7,1.3-1.4,1.6-2.2c0.4-0.8,0.5-1.5,0.5-2.2V26
		C40.1,26.5,39.3,26.8,38.3,27z"/>
	<path fill="#6E7172" d="M56.9,0v41.6h-5V0H56.9z"/>
	<path fill="#6E7172" d="M83.9,39.7c-2.3,1.7-5.1,2.6-8.5,2.6c-2.4,0-4.5-0.4-6.3-1.2c-1.8-0.8-3.3-1.9-4.5-3.3
		c-1.2-1.4-2.1-3.1-2.7-5c-0.6-1.9-0.9-4.1-1-6.3c0-2.3,0.3-4.4,1-6.3c0.7-1.9,1.7-3.5,2.9-4.9c1.3-1.4,2.8-2.5,4.5-3.3
		c1.7-0.8,3.6-1.2,5.7-1.2c2.7,0,4.9,0.6,6.7,1.7c1.8,1.1,3.2,2.5,4.3,4.2c1.1,1.7,1.8,3.6,2.2,5.6c0.4,2,0.6,3.9,0.5,5.8H66.2
		c0,1.3,0.1,2.6,0.5,3.8c0.4,1.2,0.9,2.2,1.7,3.1c0.8,0.9,1.8,1.6,3,2.2c1.2,0.5,2.6,0.8,4.3,0.8c2.1,0,3.8-0.5,5.2-1.5
		c1.3-1,2.2-2.4,2.7-4.4h4.9C87.6,35.4,86.2,38,83.9,39.7z M82.7,20.3c-0.4-1-1.1-2-1.8-2.7c-0.8-0.8-1.6-1.4-2.7-1.8
		c-1-0.4-2.2-0.7-3.4-0.7c-1.3,0-2.4,0.2-3.5,0.7c-1,0.4-1.9,1.1-2.7,1.8c-0.7,0.8-1.3,1.7-1.7,2.7c-0.4,1-0.7,2.1-0.8,3.3h17.3
		C83.4,22.5,83.2,21.4,82.7,20.3z"/>
	<path fill="#6E7172" d="M115.4,41.6v-4.1h-0.1c-0.8,1.7-2.1,2.9-3.8,3.6c-1.7,0.7-3.7,1.1-5.8,1.1c-2.3,0-4.4-0.4-6.1-1.3
		c-1.7-0.9-3.2-2-4.3-3.4c-1.1-1.4-2-3.1-2.6-5c-0.6-1.9-0.9-3.9-0.9-6.1c0-2.1,0.3-4.2,0.8-6.1c0.6-1.9,1.4-3.6,2.6-5
		c1.1-1.4,2.6-2.5,4.3-3.4c1.7-0.8,3.7-1.2,6-1.2c0.8,0,1.6,0.1,2.5,0.2c0.9,0.2,1.8,0.4,2.7,0.8c0.9,0.4,1.7,0.9,2.5,1.5
		c0.8,0.6,1.5,1.3,2,2.2h0.1V0h5v41.6H115.4z M97.6,30.9c0.4,1.3,0.9,2.5,1.7,3.6c0.8,1.1,1.7,1.9,2.9,2.5c1.2,0.6,2.6,0.9,4.2,0.9
		c1.7,0,3.1-0.3,4.3-1c1.2-0.7,2.1-1.5,2.9-2.6c0.7-1.1,1.3-2.3,1.6-3.6c0.3-1.4,0.5-2.7,0.5-4.1c0-1.5-0.2-2.9-0.5-4.3
		c-0.4-1.4-0.9-2.6-1.7-3.6c-0.8-1-1.7-1.9-2.9-2.5c-1.2-0.6-2.7-1-4.4-1c-1.7,0-3.1,0.3-4.3,1c-1.2,0.7-2.1,1.5-2.8,2.6
		c-0.7,1.1-1.2,2.3-1.5,3.7c-0.3,1.4-0.5,2.8-0.5,4.3C97.1,28.2,97.3,29.6,97.6,30.9z"/>
	<path fill="#6E7172" d="M124.4,20.4c0.6-1.9,1.6-3.6,2.8-5c1.2-1.4,2.8-2.5,4.6-3.3c1.8-0.8,3.9-1.2,6.3-1.2c2.4,0,4.5,0.4,6.3,1.2
		c1.8,0.8,3.3,1.9,4.6,3.3c1.2,1.4,2.2,3.1,2.8,5c0.6,1.9,0.9,4,0.9,6.2c0,2.2-0.3,4.3-0.9,6.2c-0.6,1.9-1.6,3.6-2.8,5
		c-1.2,1.4-2.8,2.5-4.6,3.3c-1.8,0.8-3.9,1.2-6.3,1.2c-2.4,0-4.5-0.4-6.3-1.2c-1.8-0.8-3.4-1.9-4.6-3.3c-1.2-1.4-2.2-3.1-2.8-5
		c-0.6-1.9-0.9-4-0.9-6.2C123.5,24.3,123.8,22.3,124.4,20.4z M129.4,31.4c0.5,1.4,1.2,2.6,2,3.6c0.8,0.9,1.9,1.7,3,2.2
		c1.1,0.5,2.4,0.8,3.6,0.8c1.3,0,2.5-0.3,3.6-0.8c1.1-0.5,2.1-1.2,3-2.2c0.9-1,1.5-2.1,2-3.6c0.5-1.4,0.7-3,0.7-4.9
		c0-1.8-0.2-3.4-0.7-4.9c-0.5-1.4-1.2-2.6-2-3.6c-0.9-1-1.9-1.7-3-2.2c-1.1-0.5-2.4-0.8-3.6-0.8c-1.3,0-2.5,0.3-3.6,0.8
		c-1.1,0.5-2.2,1.2-3,2.2c-0.9,1-1.5,2.2-2,3.6c-0.5,1.4-0.7,3-0.7,4.9C128.7,28.4,129,30,129.4,31.4z"/>
	<path fill="#D1D60B" d="M4.9,21.3c-2.7,0-4.9-2.2-4.9-4.9c0-2.7,2.2-4.9,4.9-4.9c2.7,0,4.9,2.2,4.9,4.9C9.7,19.2,7.5,21.3,4.9,21.3
		z M4.9,13.5c-1.6,0-2.9,1.3-2.9,2.9c0,1.6,1.3,2.9,2.9,2.9c1.6,0,2.9-1.3,2.9-2.9C7.8,14.9,6.5,13.5,4.9,13.5z"/>
	<path fill="#6E7172" d="M170,20.9c-2.4,0-4.4-2-4.4-4.4c0-2.4,2-4.4,4.4-4.4c2.4,0,4.4,2,4.4,4.4C174.4,18.9,172.4,20.9,170,20.9z
		 M170,13.1c-1.9,0-3.4,1.5-3.4,3.4c0,1.9,1.5,3.4,3.4,3.4c1.9,0,3.4-1.5,3.4-3.4C173.4,14.6,171.9,13.1,170,13.1z"/>
	<path fill="#6E7172" d="M186.4,20.9c-2.4,0-4.4-2-4.4-4.4c0-2.4,2-4.4,4.4-4.4c2.4,0,4.4,2,4.4,4.4
		C190.8,18.9,188.8,20.9,186.4,20.9z M186.4,13.1c-1.9,0-3.4,1.5-3.4,3.4c0,1.9,1.5,3.4,3.4,3.4c1.9,0,3.4-1.5,3.4-3.4
		C189.8,14.6,188.3,13.1,186.4,13.1z"/>
	<path fill="#6E7172" d="M202.8,20.9c-2.4,0-4.4-2-4.4-4.4c0-2.4,2-4.4,4.4-4.4c2.4,0,4.4,2,4.4,4.4
		C207.2,18.9,205.2,20.9,202.8,20.9z M202.8,13.1c-1.9,0-3.4,1.5-3.4,3.4c0,1.9,1.5,3.4,3.4,3.4c1.9,0,3.4-1.5,3.4-3.4
		C206.2,14.6,204.7,13.1,202.8,13.1z"/>
	<path fill="#6E7172" d="M219.2,20.9c-2.4,0-4.4-2-4.4-4.4c0-2.4,2-4.4,4.4-4.4c2.4,0,4.4,2,4.4,4.4
		C223.5,18.9,221.6,20.9,219.2,20.9z M219.2,13.1c-1.9,0-3.4,1.5-3.4,3.4c0,1.9,1.5,3.4,3.4,3.4c1.9,0,3.4-1.5,3.4-3.4
		C222.6,14.6,221.1,13.1,219.2,13.1z"/>
</g>
</svg>
