<?xml version="1.0" encoding="utf-8"?>
<!-- Generator: Adobe Illustrator 18.0.0, SVG Export Plug-In . SVG Version: 6.00 Build 0)  -->
<!DOCTYPE svg PUBLIC "-//W3C//DTD SVG 1.1//EN" "http://www.w3.org/Graphics/SVG/1.1/DTD/svg11.dtd">
<svg version="1.1" id="Слой_1" xmlns="http://www.w3.org/2000/svg" xmlns:xlink="http://www.w3.org/1999/xlink" x="0px" y="0px"
	 viewBox="0 0 251 75" enable-background="new 0 0 251 75" xml:space="preserve">
<g>
	<g>
		<path fill="#6E7071" d="M25.3,71.7c-0.5,0-1-0.1-1.4-0.3c-0.4-0.2-0.7-0.4-1-0.7c-0.3-0.3-0.5-0.7-0.6-1.1
			c-0.1-0.4-0.2-0.9-0.2-1.4c0-0.5,0.1-1,0.2-1.4c0.1-0.4,0.3-0.8,0.6-1.2c0.3-0.3,0.6-0.6,1-0.8c0.4-0.2,0.9-0.3,1.4-0.3
			c0.4,0,0.8,0,1.1,0.1c0.3,0.1,0.6,0.2,0.9,0.4c0.3,0.2,0.5,0.4,0.6,0.7c0.2,0.3,0.3,0.7,0.3,1.1h-1.2c-0.1-0.4-0.3-0.8-0.6-1
			c-0.3-0.2-0.7-0.4-1.1-0.4c-0.4,0-0.8,0.1-1,0.2c-0.3,0.2-0.5,0.4-0.7,0.6c-0.2,0.2-0.3,0.5-0.4,0.9c-0.1,0.3-0.1,0.7-0.1,1
			c0,0.3,0,0.6,0.1,0.9c0.1,0.3,0.2,0.6,0.4,0.8c0.2,0.2,0.4,0.4,0.6,0.6c0.3,0.1,0.6,0.2,0.9,0.2c0.6,0,1-0.1,1.3-0.4
			c0.3-0.3,0.5-0.7,0.6-1.2h1.2c-0.1,0.9-0.4,1.5-0.9,2C26.9,71.5,26.2,71.7,25.3,71.7z"/>
		<path fill="#6E7071" d="M29.6,64.7h3.2c0.3,0,0.6,0,0.9,0.1c0.3,0,0.5,0.1,0.8,0.3c0.2,0.1,0.4,0.3,0.5,0.5
			c0.1,0.2,0.2,0.5,0.2,0.8c0,0.4-0.1,0.7-0.3,0.9c-0.2,0.2-0.4,0.4-0.7,0.6v0c0.4,0.1,0.7,0.3,1,0.6c0.2,0.3,0.4,0.7,0.4,1.1
			c0,0.3-0.1,0.6-0.2,0.8c-0.1,0.2-0.2,0.5-0.4,0.6c-0.2,0.2-0.4,0.3-0.7,0.4c-0.3,0.1-0.5,0.2-0.8,0.2h-3.7V64.7z M32.7,67.5
			c0.5,0,0.8-0.1,1-0.3c0.2-0.2,0.3-0.4,0.3-0.7c0-0.3-0.1-0.5-0.3-0.7c-0.2-0.2-0.5-0.2-1-0.2h-1.9v1.9H32.7z M33.1,70.6
			c0.4,0,0.7-0.1,0.9-0.3c0.2-0.2,0.3-0.5,0.3-0.8c0-0.3-0.1-0.6-0.3-0.7c-0.2-0.2-0.5-0.3-1-0.3h-2.2v2.2H33.1z"/>
		<path fill="#6E7071" d="M39.7,71.7c-0.5,0-1-0.1-1.4-0.3c-0.4-0.2-0.8-0.4-1-0.8c-0.3-0.3-0.5-0.7-0.6-1.1
			c-0.1-0.4-0.2-0.9-0.2-1.5c0-0.5,0.1-1,0.2-1.4c0.2-0.4,0.4-0.8,0.7-1.1c0.3-0.3,0.6-0.6,1-0.7c0.4-0.2,0.8-0.3,1.3-0.3
			c0.6,0,1.1,0.1,1.5,0.4c0.4,0.3,0.7,0.6,1,1c0.2,0.4,0.4,0.8,0.5,1.3c0.1,0.5,0.1,0.9,0.1,1.3h-5.2c0,0.3,0,0.6,0.1,0.9
			c0.1,0.3,0.2,0.5,0.4,0.7c0.2,0.2,0.4,0.4,0.7,0.5c0.3,0.1,0.6,0.2,1,0.2c0.5,0,0.9-0.1,1.2-0.3c0.3-0.2,0.5-0.6,0.6-1h1.1
			c-0.1,0.8-0.5,1.4-1,1.8C41.2,71.5,40.5,71.7,39.7,71.7z M41.6,67.5c0-0.3-0.1-0.5-0.2-0.8c-0.1-0.2-0.2-0.4-0.4-0.6
			c-0.2-0.2-0.4-0.3-0.6-0.4c-0.2-0.1-0.5-0.2-0.8-0.2c-0.3,0-0.6,0.1-0.8,0.2c-0.2,0.1-0.4,0.2-0.6,0.4c-0.2,0.2-0.3,0.4-0.4,0.6
			c-0.1,0.2-0.2,0.5-0.2,0.8H41.6z"/>
		<path fill="#6E7071" d="M45.6,65.7h-2.5v-1h6.1v1h-2.5v5.9h-1.1V65.7z"/>
		<path fill="#6E7071" d="M53.1,71.7c-0.5,0-1-0.1-1.4-0.3c-0.4-0.2-0.8-0.4-1-0.8c-0.3-0.3-0.5-0.7-0.6-1.1
			c-0.1-0.4-0.2-0.9-0.2-1.4c0-0.5,0.1-1,0.2-1.4c0.1-0.4,0.4-0.8,0.6-1.1c0.3-0.3,0.6-0.6,1-0.8c0.4-0.2,0.9-0.3,1.4-0.3
			c0.5,0,1,0.1,1.4,0.3c0.4,0.2,0.8,0.4,1.1,0.8c0.3,0.3,0.5,0.7,0.6,1.1c0.1,0.4,0.2,0.9,0.2,1.4c0,0.5-0.1,1-0.2,1.4
			c-0.1,0.4-0.4,0.8-0.6,1.1c-0.3,0.3-0.6,0.6-1.1,0.8C54.1,71.6,53.6,71.7,53.1,71.7z M53.1,70.7c0.3,0,0.6-0.1,0.8-0.2
			c0.3-0.1,0.5-0.3,0.7-0.5c0.2-0.2,0.3-0.5,0.5-0.8c0.1-0.3,0.2-0.7,0.2-1.1c0-0.4-0.1-0.8-0.2-1.1c-0.1-0.3-0.3-0.6-0.5-0.8
			c-0.2-0.2-0.4-0.4-0.7-0.5c-0.3-0.1-0.5-0.2-0.8-0.2c-0.3,0-0.6,0.1-0.8,0.2c-0.3,0.1-0.5,0.3-0.7,0.5c-0.2,0.2-0.4,0.5-0.5,0.8
			c-0.1,0.3-0.2,0.7-0.2,1.1c0,0.4,0.1,0.8,0.2,1.1c0.1,0.3,0.3,0.6,0.5,0.8c0.2,0.2,0.4,0.4,0.7,0.5C52.5,70.7,52.8,70.7,53.1,70.7
			z"/>
		<path fill="#6E7071" d="M57,70.6h0.8c0.1-0.2,0.2-0.4,0.3-0.8c0.1-0.3,0.2-0.7,0.3-1.1c0.1-0.4,0.2-0.8,0.2-1.3
			c0.1-0.4,0.1-0.9,0.1-1.3v-1.5h5v5.9h0.9v3.1h-1.1v-2.1H58v2.1H57V70.6z M62.5,70.6v-4.9h-2.7v0.6c0,0.4,0,0.9-0.1,1.3
			c-0.1,0.4-0.1,0.8-0.2,1.2c-0.1,0.4-0.2,0.7-0.3,1c-0.1,0.3-0.2,0.6-0.3,0.7H62.5z"/>
		<path fill="#6E7071" d="M65.6,64.7h1.1v5.6l3.3-5.6h1.5v6.9h-1.1v-5.6l-3.3,5.6h-1.5V64.7z"/>
		<path fill="#6E7071" d="M76.1,71.7c-0.6,0-1-0.1-1.4-0.3c-0.4-0.2-0.8-0.4-1-0.8c-0.3-0.3-0.5-0.7-0.6-1.1
			c-0.1-0.4-0.2-0.9-0.2-1.4c0-0.5,0.1-1,0.2-1.4c0.1-0.4,0.4-0.8,0.6-1.1c0.3-0.3,0.6-0.6,1-0.8c0.4-0.2,0.9-0.3,1.4-0.3
			c0.5,0,1,0.1,1.4,0.3c0.4,0.2,0.8,0.4,1.1,0.8c0.3,0.3,0.5,0.7,0.6,1.1c0.1,0.4,0.2,0.9,0.2,1.4c0,0.5-0.1,1-0.2,1.4
			c-0.1,0.4-0.4,0.8-0.6,1.1c-0.3,0.3-0.6,0.6-1.1,0.8C77.1,71.6,76.7,71.7,76.1,71.7z M76.1,70.7c0.3,0,0.6-0.1,0.8-0.2
			c0.3-0.1,0.5-0.3,0.7-0.5c0.2-0.2,0.3-0.5,0.5-0.8c0.1-0.3,0.2-0.7,0.2-1.1c0-0.4-0.1-0.8-0.2-1.1c-0.1-0.3-0.3-0.6-0.5-0.8
			c-0.2-0.2-0.4-0.4-0.7-0.5c-0.3-0.1-0.5-0.2-0.8-0.2c-0.3,0-0.6,0.1-0.8,0.2c-0.3,0.1-0.5,0.3-0.7,0.5c-0.2,0.2-0.4,0.5-0.5,0.8
			C74,67.3,74,67.7,74,68.1c0,0.4,0.1,0.8,0.2,1.1c0.1,0.3,0.3,0.6,0.5,0.8c0.2,0.2,0.4,0.4,0.7,0.5C75.5,70.7,75.8,70.7,76.1,70.7z
			"/>
		<path fill="#6E7071" d="M80,70.6h0.8c0.1-0.2,0.2-0.4,0.3-0.8c0.1-0.3,0.2-0.7,0.3-1.1c0.1-0.4,0.2-0.8,0.2-1.3
			c0.1-0.4,0.1-0.9,0.1-1.3v-1.5h5v5.9h0.9v3.1h-1.1v-2.1h-5.4v2.1H80V70.6z M85.5,70.6v-4.9h-2.7v0.6c0,0.4,0,0.9-0.1,1.3
			c0,0.4-0.1,0.8-0.2,1.2c-0.1,0.4-0.2,0.7-0.3,1c-0.1,0.3-0.2,0.6-0.3,0.7H85.5z"/>
		<path fill="#6E7071" d="M88.6,64.7h1.1v2.7h3.5v-2.7h1.1v6.9h-1.1v-3.2h-3.5v3.2h-1.1V64.7z"/>
		<path fill="#6E7071" d="M96.1,64.7h1.1v2.6h2.1c0.7,0,1.2,0.2,1.6,0.6c0.4,0.4,0.6,0.9,0.6,1.6c0,0.6-0.2,1.2-0.6,1.6
			c-0.4,0.4-0.9,0.6-1.6,0.6h-3.3V64.7z M99,70.6c0.9,0,1.4-0.4,1.4-1.1c0-0.8-0.5-1.1-1.4-1.1h-1.8v2.3H99z M102.7,64.7h1.1v6.9
			h-1.1V64.7z"/>
		<path fill="#6E7071" d="M108.5,71.7c-0.6,0-1-0.1-1.5-0.3c-0.4-0.2-0.8-0.4-1-0.8c-0.3-0.3-0.5-0.7-0.6-1.1
			c-0.1-0.4-0.2-0.9-0.2-1.5c0-0.5,0.1-1,0.2-1.4c0.2-0.4,0.4-0.8,0.7-1.1c0.3-0.3,0.6-0.6,1-0.7c0.4-0.2,0.8-0.3,1.3-0.3
			c0.6,0,1.1,0.1,1.5,0.4c0.4,0.3,0.7,0.6,1,1c0.2,0.4,0.4,0.8,0.5,1.3c0.1,0.5,0.1,0.9,0.1,1.3h-5.1c0,0.3,0,0.6,0.1,0.9
			c0.1,0.3,0.2,0.5,0.4,0.7c0.2,0.2,0.4,0.4,0.7,0.5c0.3,0.1,0.6,0.2,1,0.2c0.5,0,0.9-0.1,1.2-0.3c0.3-0.2,0.5-0.6,0.6-1h1.1
			c-0.2,0.8-0.5,1.4-1,1.8C109.9,71.5,109.3,71.7,108.5,71.7z M110.3,67.5c0-0.3-0.1-0.5-0.2-0.8c-0.1-0.2-0.2-0.4-0.4-0.6
			c-0.2-0.2-0.4-0.3-0.6-0.4c-0.2-0.1-0.5-0.2-0.8-0.2c-0.3,0-0.6,0.1-0.8,0.2c-0.2,0.1-0.4,0.2-0.6,0.4c-0.2,0.2-0.3,0.4-0.4,0.6
			c-0.1,0.2-0.2,0.5-0.2,0.8H110.3z"/>
		<path fill="#6E7071" d="M119.2,71.7c-0.5,0-1-0.1-1.4-0.3c-0.4-0.2-0.7-0.4-1-0.7c-0.3-0.3-0.5-0.7-0.6-1.1
			c-0.1-0.4-0.2-0.9-0.2-1.4c0-0.5,0.1-1,0.2-1.4c0.1-0.4,0.3-0.8,0.6-1.2c0.3-0.3,0.6-0.6,1-0.8c0.4-0.2,0.9-0.3,1.4-0.3
			c0.4,0,0.8,0,1.1,0.1c0.3,0.1,0.6,0.2,0.9,0.4c0.3,0.2,0.5,0.4,0.6,0.7c0.2,0.3,0.3,0.7,0.3,1.1h-1.2c-0.1-0.4-0.3-0.8-0.6-1
			c-0.3-0.2-0.7-0.4-1.1-0.4c-0.4,0-0.7,0.1-1,0.2c-0.3,0.2-0.5,0.4-0.7,0.6c-0.2,0.2-0.3,0.5-0.4,0.9c-0.1,0.3-0.1,0.7-0.1,1
			c0,0.3,0,0.6,0.1,0.9c0.1,0.3,0.2,0.6,0.3,0.8c0.2,0.2,0.4,0.4,0.6,0.6c0.3,0.1,0.6,0.2,0.9,0.2c0.6,0,1-0.1,1.3-0.4
			c0.3-0.3,0.5-0.7,0.6-1.2h1.2c-0.1,0.9-0.4,1.5-0.9,2C120.8,71.5,120.1,71.7,119.2,71.7z"/>
		<path fill="#6E7071" d="M123.5,64.7h1.1v5.6l3.3-5.6h1.4v6.9h-1.1v-5.6l-3.3,5.6h-1.5V64.7z"/>
		<path fill="#6E7071" d="M133.9,71.7c-0.5,0-1-0.1-1.4-0.3c-0.4-0.2-0.7-0.4-1-0.7c-0.3-0.3-0.5-0.7-0.6-1.1
			c-0.1-0.4-0.2-0.9-0.2-1.4c0-0.5,0.1-1,0.2-1.4c0.1-0.4,0.3-0.8,0.6-1.2c0.3-0.3,0.6-0.6,1-0.8c0.4-0.2,0.9-0.3,1.4-0.3
			c0.4,0,0.8,0,1.1,0.1c0.3,0.1,0.6,0.2,0.9,0.4c0.3,0.2,0.5,0.4,0.6,0.7c0.2,0.3,0.3,0.7,0.3,1.1h-1.2c-0.1-0.4-0.3-0.8-0.6-1
			c-0.3-0.2-0.7-0.4-1.1-0.4c-0.4,0-0.8,0.1-1,0.2c-0.3,0.2-0.5,0.4-0.7,0.6c-0.2,0.2-0.3,0.5-0.4,0.9c-0.1,0.3-0.1,0.7-0.1,1
			c0,0.3,0,0.6,0.1,0.9c0.1,0.3,0.2,0.6,0.4,0.8c0.2,0.2,0.4,0.4,0.6,0.6c0.3,0.1,0.6,0.2,0.9,0.2c0.6,0,1-0.1,1.3-0.4
			c0.3-0.3,0.5-0.7,0.6-1.2h1.2c-0.1,0.9-0.4,1.5-0.9,2C135.5,71.5,134.8,71.7,133.9,71.7z"/>
		<path fill="#6E7071" d="M139.9,65.7h-2.5v-1h6.1v1H141v5.9h-1.1V65.7z"/>
		<path fill="#6E7071" d="M147.3,71.7c-0.5,0-1-0.1-1.4-0.3c-0.4-0.2-0.8-0.4-1-0.8c-0.3-0.3-0.5-0.7-0.6-1.1
			c-0.1-0.4-0.2-0.9-0.2-1.5c0-0.5,0.1-1,0.2-1.4c0.2-0.4,0.4-0.8,0.7-1.1c0.3-0.3,0.6-0.6,1-0.7c0.4-0.2,0.8-0.3,1.3-0.3
			c0.6,0,1.1,0.1,1.5,0.4c0.4,0.3,0.7,0.6,1,1c0.2,0.4,0.4,0.8,0.5,1.3c0.1,0.5,0.1,0.9,0.1,1.3h-5.2c0,0.3,0,0.6,0.1,0.9
			c0.1,0.3,0.2,0.5,0.4,0.7c0.2,0.2,0.4,0.4,0.7,0.5c0.3,0.1,0.6,0.2,1,0.2c0.5,0,0.9-0.1,1.2-0.3c0.3-0.2,0.5-0.6,0.6-1h1.1
			c-0.2,0.8-0.5,1.4-1,1.8C148.8,71.5,148.1,71.7,147.3,71.7z M149.2,67.5c0-0.3-0.1-0.5-0.2-0.8c-0.1-0.2-0.2-0.4-0.4-0.6
			c-0.2-0.2-0.4-0.3-0.6-0.4c-0.2-0.1-0.5-0.2-0.8-0.2c-0.3,0-0.6,0.1-0.8,0.2c-0.2,0.1-0.4,0.2-0.6,0.4c-0.2,0.2-0.3,0.4-0.4,0.6
			c-0.1,0.2-0.2,0.5-0.2,0.8H149.2z"/>
		<path fill="#6E7071" d="M151.6,64.7h1.6l2.1,5.6h0l2.1-5.6h1.6v6.9h-1.1v-5.5l-2.1,5.5h-1l-2.1-5.5v5.5h-1.1V64.7z"/>
		<path fill="#6E7071" d="M160.7,64.7h1.1v2.6h2.1c0.7,0,1.2,0.2,1.6,0.6c0.4,0.4,0.6,0.9,0.6,1.6c0,0.6-0.2,1.2-0.6,1.6
			c-0.4,0.4-0.9,0.6-1.6,0.6h-3.3V64.7z M163.6,70.6c1,0,1.4-0.4,1.4-1.1c0-0.8-0.5-1.1-1.4-1.1h-1.8v2.3H163.6z M167.3,64.7h1.1
			v6.9h-1.1V64.7z"/>
	</g>
	<path fill="#D0D434" d="M51.4,47.8c-1.4,0-2.6-0.4-3.4-1.2c-0.8-0.8-1.3-2.1-1.3-3.9c-1.5,1.8-3.3,3.1-5.3,3.9
		c-2,0.8-4.2,1.2-6.5,1.2c-1.5,0-2.9-0.2-4.3-0.5c-1.3-0.3-2.5-0.9-3.5-1.6c-1-0.7-1.8-1.7-2.4-2.9c-0.6-1.2-0.9-2.6-0.9-4.3
		c0-1.9,0.3-3.5,1-4.7c0.7-1.2,1.5-2.2,2.6-3c1.1-0.8,2.3-1.3,3.6-1.7c1.4-0.4,2.8-0.7,4.2-1c1.5-0.3,2.9-0.5,4.3-0.7
		c1.4-0.2,2.6-0.4,3.6-0.6c1-0.3,1.8-0.7,2.5-1.2c0.6-0.5,0.9-1.3,0.9-2.4c0-1.2-0.2-2.2-0.7-2.9c-0.5-0.7-1-1.3-1.8-1.7
		c-0.7-0.4-1.5-0.6-2.4-0.8c-0.9-0.1-1.8-0.2-2.6-0.2c-2.3,0-4.3,0.4-5.8,1.3c-1.6,0.9-2.4,2.6-2.5,5h-5.5c0.1-2.1,0.5-3.8,1.3-5.2
		c0.8-1.4,1.8-2.6,3.1-3.5c1.3-0.9,2.8-1.5,4.5-1.9c1.7-0.4,3.5-0.6,5.3-0.6c1.5,0,3,0.1,4.5,0.3c1.5,0.2,2.8,0.7,4,1.3
		c1.2,0.7,2.2,1.6,2.9,2.8c0.7,1.2,1.1,2.8,1.1,4.7v17.2c0,1.3,0.1,2.2,0.2,2.9c0.2,0.6,0.7,0.9,1.5,0.9c0.5,0,1-0.1,1.7-0.3V47
		C54.4,47.6,53.1,47.8,51.4,47.8z M43.7,31c-1.1,0.2-2.3,0.4-3.5,0.6c-1.2,0.2-2.5,0.3-3.7,0.5c-1.3,0.2-2.4,0.5-3.4,0.9
		c-1,0.4-1.8,1-2.4,1.8c-0.6,0.8-0.9,1.9-0.9,3.3c0,0.9,0.2,1.7,0.5,2.3c0.4,0.6,0.8,1.1,1.4,1.5c0.6,0.4,1.3,0.7,2.1,0.8
		c0.8,0.2,1.6,0.3,2.4,0.3c1.8,0,3.4-0.2,4.7-0.7c1.3-0.5,2.3-1.1,3.2-1.9c0.8-0.8,1.4-1.6,1.8-2.5c0.4-0.9,0.6-1.7,0.6-2.5v-5.6
		C45.8,30.4,44.9,30.7,43.7,31z"/>
	<path fill="#6E7071" d="M64.4,0.9v46.2h-5.5V0.9H64.4z"/>
	<path fill="#6E7071" d="M94.5,45c-2.5,1.9-5.7,2.9-9.5,2.9c-2.7,0-5-0.4-7-1.3c-2-0.9-3.6-2.1-5-3.6c-1.3-1.6-2.3-3.4-3-5.6
		c-0.7-2.2-1-4.5-1.1-7.1c0-2.5,0.4-4.9,1.2-7c0.8-2.1,1.9-3.9,3.3-5.5c1.4-1.6,3.1-2.8,5-3.6c1.9-0.9,4-1.3,6.3-1.3
		c3,0,5.5,0.6,7.4,1.8c2,1.2,3.5,2.8,4.7,4.7c1.2,1.9,2,4,2.5,6.2c0.4,2.2,0.6,4.4,0.5,6.4H74.8c0,1.5,0.1,2.9,0.5,4.2
		c0.4,1.3,1,2.5,1.9,3.5c0.9,1,2,1.8,3.3,2.4c1.3,0.6,2.9,0.9,4.7,0.9c2.3,0,4.2-0.5,5.7-1.6c1.5-1.1,2.5-2.7,2.9-4.9h5.4
		C98.6,40.3,97,43.1,94.5,45z M93.2,23.5c-0.5-1.2-1.2-2.2-2-3c-0.8-0.8-1.8-1.5-3-2c-1.1-0.5-2.4-0.7-3.8-0.7
		c-1.4,0-2.7,0.3-3.9,0.7c-1.1,0.5-2.1,1.2-2.9,2c-0.8,0.9-1.5,1.9-1.9,3c-0.5,1.1-0.8,2.4-0.8,3.7H94C94,25.9,93.7,24.7,93.2,23.5z
		"/>
	<path fill="#6E7071" d="M129.5,47.1v-4.5h-0.1c-0.9,1.9-2.3,3.2-4.3,4c-1.9,0.8-4.1,1.2-6.4,1.2c-2.6,0-4.8-0.5-6.8-1.4
		c-1.9-1-3.5-2.2-4.8-3.8c-1.3-1.6-2.2-3.4-2.9-5.6c-0.7-2.1-1-4.4-1-6.7c0-2.4,0.3-4.6,0.9-6.7c0.6-2.1,1.6-4,2.8-5.5
		c1.3-1.6,2.9-2.8,4.8-3.8c1.9-0.9,4.2-1.4,6.7-1.4c0.9,0,1.8,0.1,2.8,0.3c1,0.2,2,0.5,3,0.9c1,0.4,1.9,0.9,2.8,1.6
		c0.9,0.7,1.6,1.5,2.2,2.5h0.1V0.9h5.5v46.2H129.5z M109.7,35.2c0.4,1.5,1,2.8,1.9,4c0.8,1.2,1.9,2.1,3.2,2.8c1.3,0.7,2.9,1,4.6,1
		c1.9,0,3.4-0.4,4.7-1.1c1.3-0.7,2.4-1.7,3.2-2.9c0.8-1.2,1.4-2.5,1.8-4c0.4-1.5,0.5-3,0.5-4.6c0-1.6-0.2-3.2-0.6-4.8
		c-0.4-1.5-1-2.9-1.8-4c-0.8-1.2-1.9-2.1-3.3-2.8c-1.3-0.7-3-1.1-4.9-1.1c-1.9,0-3.4,0.4-4.7,1.1c-1.3,0.7-2.3,1.7-3.1,2.9
		c-0.8,1.2-1.3,2.6-1.7,4.1c-0.3,1.6-0.5,3.2-0.5,4.8C109.1,32.2,109.3,33.8,109.7,35.2z"/>
	<path fill="#6E7071" d="M139.5,23.5c0.7-2.1,1.7-4,3.1-5.6c1.4-1.6,3.1-2.8,5.1-3.7c2-0.9,4.4-1.4,7-1.4c2.7,0,5,0.5,7,1.4
		c2,0.9,3.7,2.1,5.1,3.7c1.4,1.6,2.4,3.4,3.1,5.6c0.7,2.1,1,4.4,1,6.9c0,2.5-0.3,4.7-1,6.9c-0.7,2.1-1.7,4-3.1,5.5
		c-1.4,1.6-3.1,2.8-5.1,3.7c-2,0.9-4.3,1.3-7,1.3c-2.6,0-5-0.4-7-1.3c-2-0.9-3.7-2.1-5.1-3.7c-1.4-1.6-2.4-3.4-3.1-5.5
		c-0.7-2.1-1-4.4-1-6.9C138.5,28,138.8,25.7,139.5,23.5z M145.1,35.8c0.5,1.6,1.3,2.9,2.2,4c0.9,1.1,2.1,1.9,3.3,2.4
		c1.3,0.6,2.6,0.8,4,0.8s2.8-0.3,4-0.8c1.3-0.6,2.4-1.4,3.3-2.4c0.9-1.1,1.7-2.4,2.2-4c0.5-1.6,0.8-3.4,0.8-5.4c0-2-0.3-3.8-0.8-5.4
		c-0.5-1.6-1.3-2.9-2.2-4c-0.9-1.1-2.1-1.9-3.3-2.5c-1.3-0.6-2.6-0.8-4-0.8s-2.8,0.3-4,0.8c-1.3,0.6-2.4,1.4-3.3,2.5
		c-1,1.1-1.7,2.4-2.2,4c-0.5,1.6-0.8,3.4-0.8,5.4C144.3,32.5,144.6,34.3,145.1,35.8z"/>
	<path fill="#D0D434" d="M6.6,24.6c-3,0-5.4-2.4-5.4-5.4c0-3,2.4-5.4,5.4-5.4c3,0,5.4,2.4,5.4,5.4C12,22.2,9.6,24.6,6.6,24.6z
		 M6.6,15.9c-1.8,0-3.3,1.5-3.3,3.3c0,1.8,1.5,3.3,3.3,3.3c1.8,0,3.3-1.5,3.3-3.3C9.9,17.4,8.4,15.9,6.6,15.9z"/>
	<path fill="#6E7071" d="M190.2,24.1c-2.7,0-4.9-2.2-4.9-4.9c0-2.7,2.2-4.9,4.9-4.9c2.7,0,4.9,2.2,4.9,4.9
		C195,21.9,192.9,24.1,190.2,24.1z M190.2,15.4c-2.1,0-3.8,1.7-3.8,3.8c0,2.1,1.7,3.8,3.8,3.8c2.1,0,3.8-1.7,3.8-3.8
		C194,17.1,192.3,15.4,190.2,15.4z"/>
	<path fill="#6E7071" d="M208.4,24.1c-2.7,0-4.9-2.2-4.9-4.9c0-2.7,2.2-4.9,4.9-4.9s4.9,2.2,4.9,4.9
		C213.3,21.9,211.1,24.1,208.4,24.1z M208.4,15.4c-2.1,0-3.8,1.7-3.8,3.8c0,2.1,1.7,3.8,3.8,3.8c2.1,0,3.8-1.7,3.8-3.8
		C212.2,17.1,210.5,15.4,208.4,15.4z"/>
	<path fill="#6E7071" d="M226.6,24.1c-2.7,0-4.9-2.2-4.9-4.9c0-2.7,2.2-4.9,4.9-4.9c2.7,0,4.9,2.2,4.9,4.9
		C231.5,21.9,229.3,24.1,226.6,24.1z M226.6,15.4c-2.1,0-3.8,1.7-3.8,3.8c0,2.1,1.7,3.8,3.8,3.8c2.1,0,3.8-1.7,3.8-3.8
		C230.4,17.1,228.7,15.4,226.6,15.4z"/>
	<path fill="#6E7071" d="M244.9,24.1c-2.7,0-4.9-2.2-4.9-4.9c0-2.7,2.2-4.9,4.9-4.9c2.7,0,4.9,2.2,4.9,4.9
		C249.7,21.9,247.5,24.1,244.9,24.1z M244.9,15.4c-2.1,0-3.8,1.7-3.8,3.8c0,2.1,1.7,3.8,3.8,3.8c2.1,0,3.8-1.7,3.8-3.8
		C248.7,17.1,247,15.4,244.9,15.4z"/>
</g>
</svg>
